<svg xmlns="http://www.w3.org/2000/svg" viewBox="0 0 386.55 493.29"><defs><style>.cls-1{fill:#fcc40c;}.cls-2{fill:#f80940;}.cls-3{fill:#f60940;}.cls-4{fill:#fcc413;}.cls-5{fill:#f7093f;}.cls-6{fill:#a00c45;}.cls-7{fill:#a95344;}.cls-8{fill:#fdfefd;}.cls-9{fill:#fdfdfc;}.cls-10{fill:#feb84b;}.cls-11{fill:#efdb78;}.cls-12{fill:#f3e192;}.cls-13{fill:#f2e5a2;}.cls-14{fill:#c06841;}.cls-15{fill:#f2da70;}.cls-16{fill:#f5e686;}.cls-17{fill:#fdfdfe;}.cls-18{fill:#e50c46;}.cls-19{fill:#ab2945;}.cls-20{fill:#ad2643;}.cls-21{fill:#f50940;}.cls-22{fill:#fcfdfd;}.cls-23{fill:#ea0a42;}.cls-24{fill:#fefefe;}.cls-25{fill:#febf41;}.cls-26{fill:#efd978;}.cls-27{fill:#fdfdfd;}.cls-28{fill:#f6093f;}.cls-29{fill:#c80b44;}.cls-30{fill:#eb1946;}.cls-31{fill:#ef0a40;}</style></defs><title>Asset 1</title><g id="Layer_2" data-name="Layer 2"><g id="Layer_1-2" data-name="Layer 1"><path class="cls-1" d="M42,161.59c.64-.19,1.26-.4,1.32-1.22,4.62-2.24,9.64-1.18,14.47-1.71,1-1.63,2.83-1.5,4.42-1.87a55.76,55.76,0,0,0,19.83-.06,314.44,314.44,0,0,0,32.11,0,111.11,111.11,0,0,0,14.54,1,88.06,88.06,0,0,0,13.11-1,36.24,36.24,0,0,0,10.32,0,50,50,0,0,0,19.07,0c5.91.71,11.85.12,17.77.47a6.12,6.12,0,0,1,2.08,0c42.6-.28,85.21,0,127.81-.13,2.26,0,4.52.06,6.78-.14,2.78-.4,5.25,1,7.88,1.43a2.56,2.56,0,0,1,2,2.23l2,1.27.63,1.18c3.08,1.48,3.73,4,3.07,7.09.08,4.14-.58,8.26-.31,12.41.11,1.78.55,2.52,2.62,2.08,3.46-.73,7.08.48,10.57-.57,4.14-.1,8.26,1,12.41.13,2.84,0,5.68.07,8.52.16a11.55,11.55,0,0,1,11.52,11.56A71.57,71.57,0,0,1,375.9,234a51.26,51.26,0,0,1-8.81,11.47c-.43,1.56-2.11,2.1-2.8,3.44a83.49,83.49,0,0,1-31.26,20,37.63,37.63,0,0,1-10.38,2.33,16.53,16.53,0,0,0-3.84.27,3.56,3.56,0,0,1-1.61,0c-2.73-1.41-5.6-2.66-6.9-5.77-.91-2.17-2-1.62-3-.16-3.61,5.37-8.68,9.37-13,14.11-3.52,3.9-8.33,6.24-11.81,10.16a69.37,69.37,0,0,1-8.13,5.6c-6,3.4-10,2.8-14.79-2.21a7.25,7.25,0,0,0-1.12-.88,6.46,6.46,0,0,1-1.81-3.68c-.66-3.62-.55-7.08,2.13-10a7.72,7.72,0,0,1,1.06-1.24c12.06-9.18,23.42-19.11,32.77-31.15,1-1.27,2.25-2.35,2.58-4a80.78,80.78,0,0,1,4.57-6.83c1.18-1.41,1.18-3.5,2.72-4.69,2.5-3.39,3.3-7.55,5.08-11.26.77-1.6,1.41-3.27,2.24-4.84,2.93-5.26,3-11.35,4.88-16.93a40.75,40.75,0,0,0,1-4.84c.24-3.79,2-7.45.93-11.34a9.81,9.81,0,0,1-.83-.82c-1.35-1.09-3-.86-4.48-.86q-122,0-244,0a10.86,10.86,0,0,0-4.2.52c-1.28.83-1.19,2.09-1.06,3.38a124.09,124.09,0,0,0,3.67,20.88c3.25,9,6.29,18,11,26.37,1.91,3.35,3.27,7.07,6.14,9.83.63,3.2,3,5.18,5.18,7.25,3.11,4.64,7.11,8.52,11.07,12.4,6.09,5.95,12.26,11.82,19.63,16.24a11.41,11.41,0,0,1,3.63,10.56c-.52,2.47-.8,5.05-3.22,6.59-3.39,4.21-10.39,4.82-15.13,1.43-3.27-2.33-6.6-4.58-9.66-7.18a104.74,104.74,0,0,1-11.77-10.4,7.66,7.66,0,0,0-2.36-2.41c-3.15-2.44-4.34-6.56-7.68-8.84-3.87-4-6.93-8.61-10.06-13.18a9.76,9.76,0,0,1-1.95-5.19c.12-1.34-.89-2.06-1.6-2.94a3.71,3.71,0,0,0-1.32-2.27c-2-1-3.16-2.8-4.13-4.72a159.45,159.45,0,0,1-15.82-54.28c-.59-5.18-.23-10.42-.12-15.64a4.36,4.36,0,0,1,2.29-3.75h0C39.95,163,40.94,162.25,42,161.59Z"/><path class="cls-2" d="M185,491.71c-6.77,2.11-11.72-.07-13-5.73-.77-6.2-3.57-12-3-18.49.44-5.42-.12-10.89.3-16.34a53.21,53.21,0,0,1,0-9.26c-.3-4.16-.06-8.33-.25-12.48s1.19-7.17,4.7-9.29c.92-.56,1.56-1.46,2.45-2.07,1.91-.59,3.87-.25,5.81-.24,3.46,1.65,6.68,3.46,8.19,7.39,1,2.6-.39,5.2.43,7.72.56,2.33.17,4.71.35,7.06.13,1.62.74,2.75,2.55,2.76a2.36,2.36,0,0,0,2.61-2.67c0-3.31.47-6.59.35-9.9-.75-4.76.36-8.57,5.26-10.52a26.57,26.57,0,0,0,3.09-1.67,20,20,0,0,1,5.4-.13c1.68,1,3.71,1.45,4.57,3.48a11.88,11.88,0,0,1,3.26,8.59c-.09,4,.08,8-.22,11.95a31.4,31.4,0,0,1,0,7.25c.49,11.68.23,23.35-.36,35,.12,5.9-2.73,8.94-8.59,9.12a14.12,14.12,0,0,1-5.25-.43c-2.66-2.3-6.11-4-6.17-8.28A72.15,72.15,0,0,0,196.2,468c-.31-1.68-.74-3.06-2.75-3s-2.6,1.49-2.52,3.18c.25,5.44-.94,10.87,0,16.31C190.77,488.35,189,490.93,185,491.71Z"/><path class="cls-3" d="M379.4,395.93c.12,8.21-4.4,14.25-9.41,20.06-.89,1.28-3,1.08-3.52,2.78-3.76.39-6.84,3.23-10.78,3-3.5,2.35-6.95,1.25-10.39-.13a13.09,13.09,0,0,0-3.36-1.81A12.7,12.7,0,0,0,338.4,417c-.82-.89-2.21-1.05-2.79-2.23-.27-2-2.2-3.36-2.17-5.56,0-1.9.06-3.8.15-6.24-3.86,1.25-7-1.14-10.55-1.58-6.88-2.1-11.15-7-13.75-13.39-3.67-9-1.29-17.31,4.23-24.75,6.56-8.84,23.81-12.86,33.44-4,2.27,2.21,5,4.07,5.51,7.6,0,5.59,0,5.59,5.5,6.13,1.39.13,2.74.68,4.16.34a4.91,4.91,0,0,1,3.78.55,25.51,25.51,0,0,1,10.39,10.7C377.06,388.42,379.68,391.78,379.4,395.93Z"/><path class="cls-4" d="M89.92,320.22c-1.9-.06-3.82,0-5.71-.21-8.08-.91-13-9-7.87-17,1.06-2.67,2.43-4.88,5.9-4.07a49.71,49.71,0,0,0,6.42.18H298.19a4.24,4.24,0,0,1,3.08,1c4.18,2.76,6,6.67,5,11.55s-4.09,8.31-9,9.35a41.85,41.85,0,0,1-8,.94c-10-.33-20-.08-30-.14-21.79-.12-43.58.2-65.37-.17-1.17.14-2.33-.28-3.51-.1-1.66.16-3.32.26-5,.26q-44.41,0-88.82,0C94.27,321.82,91.69,322.54,89.92,320.22Z"/><path class="cls-5" d="M34.79,424.4,32,426c-2.41,3.15-5.66,2.35-8.32,1.06-3.46-1.67-6.42-4.25-7.56-8.27a1.63,1.63,0,0,0-1.49-1.47c-2.39-4.28-6.71-6.85-9.55-10.73-.41-.56-1-1-1.46-1.52-6.21-7.06-4-13.45,2.62-17.79a13.23,13.23,0,0,1,12.58-5.66c5.23-.49,10.33.38,15.45,1.32,2.68.49,5.32,1.22,7.91,1.91s4.63-.34,6.69-1.38a2.94,2.94,0,0,0,1.22-4.3c-.87-1.58-2.45-2.06-4.29-1.15a19.9,19.9,0,0,1-5.57,2.26c-6.08,1-10.06-1.58-12.47-7A13.17,13.17,0,0,1,29.23,366c9.15-13.46,33.68-12.82,40.86,6.05a20,20,0,0,1,.67,3.82,22.15,22.15,0,0,1-.14,11.53c-2.08,6.16-6.37,10.54-11.5,14.24-5.93,5.47-12.86,6.57-20.49,4.74a38.11,38.11,0,0,0-5.64-.52c.33,2,1.83,3,2.91,4.17,1.92,2.11.71,5,2.18,7.22a2,2,0,0,1,.4,1.44c-.33,1.12-1.2,2-1.46,3.16A10.41,10.41,0,0,1,34.79,424.4Z"/><path class="cls-5" d="M259.2,21.47a1.67,1.67,0,0,0-1.49,1.33c-1.81,1.34-3.18,3.55-5.93,3-4.56.57-8.82-1.63-13.35-1.43-.67,0-1.55-.45-1.86.48a1.65,1.65,0,0,0,1,2,13.14,13.14,0,0,0,3.24,1.46c3.78.57,6,3.07,8,6a3.12,3.12,0,0,1,.28,1.69,19.79,19.79,0,0,0,0,5.41c-1.49,5.84-6.27,7.8-12.57,7.55-3.49-.14-5.22-.19-6,4.36-.68,4-.43,8.3-2.54,12a4.59,4.59,0,0,1-1.54,1.87c-2.61,6.47-10.12,9.12-15.64,3.76a12.36,12.36,0,0,0-1.38-1c-3.52-1.92-3.68-5.17-2.84-8.38,2.56-9.78,3.41-19.86,5.44-29.72,1.21-5.9,1.79-11.92,3.63-17.69a7.12,7.12,0,0,0,.46-2.78,14.85,14.85,0,0,1,.55-3C219.12,3,223-.81,229.24.14c8.16,1.24,16.33,2.53,24.38,4.4,2,.45,3.6,1.79,5.26,2.94a3.82,3.82,0,0,1,.93.68c.55,1.18,1.18,2.33,1.8,3.48a8,8,0,0,1,.14,1.73c0,1.37.23,2.8-.95,3.89Z"/><path class="cls-6" d="M135,5.16l-.1-.82c.45-1.44,1.72-1.38,2.86-1.56l.06.17C137.94,5.09,136.8,5.58,135,5.16Z"/><path class="cls-3" d="M280.59,78.62l.23-2.78c5-7.61,8.43-16.11,12-24.39,2.36-5.48,5-10.24,9.32-14.18,1.83-2.54,3-5.47,5.33-7.75a8.47,8.47,0,0,1,9.86-1.72c7.7,3.53,15,7.89,22.61,11.64,4,2,5.8,7.21,4.89,10.81-1.07,4.26-4.05,6.55-9.1,7.1a2.62,2.62,0,0,1-2,.72c-4.51-1.66-8.69-4.07-13.21-5.74-.9-.33-1.77-.92-2.47.22s-.19,1.77.64,2.45a11.42,11.42,0,0,0,1.87,1.62c6.07,3,6.87,8.13,5.61,14.08-.61,2.61-2.57,3.82-4.83,4.72-2.74,2.4-5.76,2.37-8.9,1-.86-.38-1.76-.68-2.6-1.1-3.83-1.9-3.84-1.88-5.36,2.23-1.93,1.56-1.12,2.69.58,3.68,3.34,1.94,6.58,4.06,10,5.9a5.45,5.45,0,0,1,2.67,3.09c2.33,3,1.49,6.55,1.52,9.93a6.12,6.12,0,0,0-.5.5c-4.6,5.69-7.13,6.5-13.73,3.38s-13.2-6.79-19.8-10.19C278.82,90.52,277.78,85.13,280.59,78.62Z"/><path class="cls-7" d="M42,161.59l-2.11,2.87-.79-2.1Z"/><path class="cls-8" d="M319.15,201.55c1.43-7.32,3-14.61,3.39-22.12.13-2.58-.21-3.54-3.1-3.53q-129.83.11-259.67,0c-2.87,0-3.77.81-3.45,3.59a161.29,161.29,0,0,0,5.34,27.81,132.24,132.24,0,0,0,21.67,42.79,128.3,128.3,0,0,0,30.45,29c5.54,3.76,5.69,8.42.42,12.56a7.85,7.85,0,0,1-6.44,0,146.53,146.53,0,0,1-50.89-58.53,143.79,143.79,0,0,1-10.82-31.22,164.11,164.11,0,0,1-3.86-30.32c-.25-6.76,2.24-9.12,9.11-9.12q36.61,0,73.22,0h201.8a24.26,24.26,0,0,1,5,.28c3.23.68,5.16,2.66,5.21,6.15a148.25,148.25,0,0,1-30.14,89.83,138,138,0,0,1-34.15,32.21c-4.65,3.06-7,2.44-10.17-2.12a7.59,7.59,0,0,1-.15-5.88c.76-2.6,3.14-3.68,5.05-5a130.56,130.56,0,0,0,45.4-56.69c2.26-5.4,4.54-10.78,5.61-16.58A9.78,9.78,0,0,0,319.15,201.55Z"/><path class="cls-9" d="M334.92,263c-3.71,1.08-7.3,2.54-11,3.57-4.64,1.29-8.41-.24-9.82-4.63-1.08-3.36,1.71-7.58,5.94-8.66,16.9-4.31,30.17-13.61,39.5-28.43a52.23,52.23,0,0,0,7-17.47c.4-1.45,1.19-2.91,0-4.34-6.07,0-12.14,0-18.22,0-4.61,0-7.5-2.55-7.61-6.56-.13-4.4,2.49-7.34,7.16-7.42,8.93-.15,17.86-.13,26.79,0,4.3.07,6.84,3,6.82,7.86a63.09,63.09,0,0,1-5.08,25.22c-8,18.17-21,31.46-39.14,39.6A14.51,14.51,0,0,0,334.92,263Z"/><path class="cls-10" d="M319.11,179.51H84.61c-8,0-15.94-.06-23.91-.09,1.25-1,2.74-.65,4.13-.65q124.74,0,249.48,0C315.92,178.79,317.66,178.28,319.11,179.51Z"/><path class="cls-11" d="M107.77,291.66h6.44C112.06,293.73,109.92,293.52,107.77,291.66Z"/><path class="cls-12" d="M261.91,282.92l.15,5.88C260.43,286.88,259.75,284.93,261.91,282.92Z"/><path class="cls-13" d="M366.47,203c2.81,1.41.81,2.88,0,4.34Z"/><path class="cls-14" d="M319.28,271l-.72-.65,4.26,0C321.75,271.12,320.49,270.87,319.28,271Z"/><path class="cls-15" d="M319.15,201.55c.06,1.19.19,2.41-1.18,3.05A3.33,3.33,0,0,1,319.15,201.55Z"/><path class="cls-16" d="M334.92,263c.34-1.15,1.21-1.37,2.26-1.27C336.59,262.38,336,263.1,334.92,263Z"/><path class="cls-17" d="M201.43,425.53c4.09-5,8.48-4.44,11.3,1.33.82,1.05.42,2.28.42,3.42,0,8.84,0,17.69,0,26.53a9.76,9.76,0,0,0,.31,3.85q0,10.14,0,20.27c0,5.17-1.84,7.78-5.58,7.9s-5.7-2.24-5.9-7.55c0-.35-.09-.7-.13-1.06-1-2.27-.42-4.67-.49-7-.1-3.66,0-7.32-.34-11-.13-1.52-.3-2.44-2.14-2.38-3.43.11-6.86,0-10.29,0-1.4,0-2.69.21-2.35,2.15,0,6.76.06,13.52.06,20.29,0,4.24-2.39,7-5.88,7s-5.52-2.62-5.6-6.82q-.48-26.19-1-52.39c-.06-3.32.46-6.2,4.27-7.18s5.78,1,7.24,4.09c1.11,1.76.5,3.7.55,5.56.1,3.8.2,7.62,0,11.42-.17,2.84.53,4.14,3.64,3.82a38.43,38.43,0,0,1,7.84,0c3.12.32,3.76-1,3.64-3.82-.21-5-.09-10,0-15C201,427.84,200.66,426.61,201.43,425.53Z"/><path class="cls-18" d="M199.19,484.59c-1.08-1.2-.34-3.18-2.19-4.2-4.75-2.62-6.18-2.06-7.26,3.25a3.77,3.77,0,0,1-.49.93c0-6,.1-12.1-.06-18.15-.09-3.17,1.69-3.42,4.08-3.32,2.23.09,4.38-.43,4.63,3.17C198.32,472.37,199.44,478.43,199.19,484.59Z"/><path class="cls-19" d="M201.43,425.53c0,6.63-.1,13.26,0,19.88,0,2.23-.64,2.87-2.81,2.78a102.13,102.13,0,0,0-10.3.11c-2.25.14-2.78-.69-2.76-2.83.07-6.16-.09-12.32-.16-18.47,1.46.72.87,2.08.89,3.16.08,4.62.17,9.25,0,13.86-.09,2.69,1,3.59,3.55,3.42a50.88,50.88,0,0,1,7.1,0c2.73.2,3.83-.74,3.72-3.61-.19-5.21-.11-10.43,0-15.64C200.71,427.31,199.91,426,201.43,425.53Z"/><path class="cls-18" d="M186.29,462.06c-.67-1.48-.25-2.25,1.43-2.28,4-.06,8-.1,12.05-.23,1.73-.06,1.87.94,1.88,2.25.06,6.14.16,12.28.25,18.42-1.58-.72-1.2-2.17-1.22-3.42,0-4.52-.09-9,0-13.55,0-2.12-.83-3-3-3-2.73.08-5.47,0-8.2,0C188.09,460.3,186.9,460.64,186.29,462.06Z"/><path class="cls-20" d="M213.48,460.66c-1-7.56-.5-15.17-.71-22.75-.1-3.68,0-7.36-.05-11,1.37.37.75,1.51.75,2.27C213.51,439.64,213.49,450.15,213.48,460.66Z"/><path class="cls-21" d="M136.58,416.48q0,1.19-.09,2.37a78.25,78.25,0,0,1-6,14.56c-1.68,3.07-.69,5,1.65,6.8l.1,2.82c-.51,6.45-2.43,8.8-8.47,10.15-2.54.57-2.92,3.08-3.87,4.7-1.69,2.86-2.42,6.3-3.55,9.49L112,474.5a3.12,3.12,0,0,1-1.71,2.52c-5.72,3.08-13.8-1.12-14.63-7.68a11.1,11.1,0,0,1,.49-5.92c3.09-4.22,3.6-9.51,5.74-14.13.54-1.16-.09-2.06-1.06-2.7a11,11,0,0,0-3.49-1.67c-4.46-1-7.7-3.33-9.52-7.56-3.62-6.59,1.07-11.15,4-16,3.75-6.18,7.76-12.2,11.65-18.29a9.61,9.61,0,0,1,2.25-1.32,2.8,2.8,0,0,0,2.06-.67c2.25-1,4.33-.16,6.42.61a5,5,0,0,0,.68.08,4.92,4.92,0,0,1,4.35,3.16c1,2.64,2.69,2.86,5.19,2.49s5.44-.72,7.59,1.59l4.42,5.55A1.51,1.51,0,0,1,136.58,416.48Z"/><path class="cls-22" d="M346.41,402.83l.66.28a8.43,8.43,0,0,1,3.64,2.59l1.39.27c1,.38,2-.1,3,.09,2.42,0,3.78-1.88,5.55-3,2.36-3.59,1.79-7.5.71-11.2-.45-1.55-2.58-2.27-4.48-2.3a23.23,23.23,0,0,0-6.26.7,12.29,12.29,0,0,0-5.63,2.91c-.75.91-2,.82-2.9,1.38h0a8.51,8.51,0,0,1-3,1.4,50.15,50.15,0,0,1-5.84,1.43c-8.66,1.09-15.79-2.88-19.08-10.48s-.87-17,5.76-22.59c7.46-6.3,17.31-6.48,24.85-.45,3.36,2.68,4.05,5.79,1.92,8.61s-5.24,3.12-8.79.71c-5.42-3.68-11-2-13.18,3.81a6.68,6.68,0,0,0,1.26,7.29c2,2.22,4.69,2.32,7.23,1.2,4.45-1.94,8.69-4.39,13.19-6.17,12.06-4.75,23.1-.59,27.8,10.22,3.8,8.77-.22,19.57-9.47,25.45-7.92,5-19.2,3.67-25.17-3-2.57-2.88-2.25-5.53,1.08-9A4.65,4.65,0,0,1,346.41,402.83Z"/><path class="cls-23" d="M350.66,390.21a9.15,9.15,0,0,1,7.45-1.09,7.43,7.43,0,0,1,5.76,6,7.28,7.28,0,0,1-3.18,7.85c0-.78.69-1.7-.26-2.28-.73-.45-1.28.21-1.88.58-4.2,2.6-5.43,2.57-9.32-.64-2.17-1.8-4.67-2.09-7.42-2.1,4.57-2.9,9.63-4.48,14.53-6.38a1.86,1.86,0,0,1,1.35.15c1,.5,2.46,1.23,2.75.06.38-1.54-1.44-2-2.68-2.06C355.41,390.15,353,390.24,350.66,390.21Z"/><path class="cls-23" d="M346.41,402.83a6.62,6.62,0,0,0-5.69.08C342.59,400.92,344.49,401,346.41,402.83Z"/><path class="cls-23" d="M350.7,405.7a8.61,8.61,0,0,1-3.64-2.59A3.24,3.24,0,0,1,350.7,405.7Z"/><path class="cls-23" d="M355.15,406.06a2.42,2.42,0,0,1-3-.09C353.13,405.47,354.15,405.17,355.15,406.06Z"/><path class="cls-23" d="M342.13,394.51a3.68,3.68,0,0,1,2.9-1.38C344.54,394.6,343.32,394.53,342.13,394.51Z"/><path class="cls-23" d="M339.16,395.91a5,5,0,0,1,3-1.4A2.81,2.81,0,0,1,339.16,395.91Z"/><path class="cls-24" d="M300.84,311.67a5.73,5.73,0,0,1-6,4.53c-1.19,0-2.38,0-3.57,0q-102.15,0-204.3,0c-2.21,0-4.49.34-6.51-1.13A6.54,6.54,0,0,1,78,307.21a6.14,6.14,0,0,1,6.28-4.27c13.45,0,26.91,0,40.36,0q84.29,0,168.58,0c3.53,0,6.31.71,7.57,4.38A3.26,3.26,0,0,1,300.84,311.67Z"/><path class="cls-25" d="M296.36,299.45l1.51.74-216.68,0,1.07-.65c1.23-.7,2.56-.35,3.84-.35q51,0,102,0,52.36,0,104.72,0C294,299.14,295.23,298.86,296.36,299.45Z"/><path class="cls-26" d="M300.84,311.67q0-2.2,0-4.39C302.62,308.74,302.65,310.21,300.84,311.67Z"/><path class="cls-27" d="M18.14,398.36c4.36,4.73,8.53,9.23,12.68,13.77a11,11,0,0,1,2.43,3c1,2.62.8,5.17-1.71,7a6,6,0,0,1-7.78-.85c-3.69-3.86-7.25-7.85-10.88-11.77-2.5-2.7-5.08-5.33-7.54-8.07-3.12-3.47-2.73-6.72.89-9.74,7.9-6.58,16.77-6.19,26-3.85,4.59,1.17,9.12,2.67,14,2.34,7.46-.5,12.59-8.2,9.31-14.07-2.72-4.85-8.36-6-13.16-2.56-1.68,1.2-3.26,2.48-5.46,2A5.79,5.79,0,0,1,33.7,366c4.49-5.11,13.45-7.2,20.75-4.6,7.58,2.69,12.4,8.1,13.23,16.1,1.42,13.73-8.64,24.31-22.53,24.43-6.54.06-12.57-2.29-18.84-3.54C23.77,397.85,21.19,397.28,18.14,398.36Z"/><path class="cls-28" d="M135,5.16,137.79,3a33.92,33.92,0,0,1,4.88-.57,8.32,8.32,0,0,1,8,5.29c.89,2,1.95,4,2.93,6A33.35,33.35,0,0,1,160.38,23c3.84,7.49,8.26,14.75,11,22.69,1.34,3.85,3.47,7,5.54,10.33a5.72,5.72,0,0,1,.82,4.75c.54,4.8-.4,8.85-5.15,11.32-2.29,1.19-4.59.72-6.92.76-5-.56-6.85-4.52-8.86-8.28-.72-3.07-2.7-5.49-4.34-8.06-1.47-2.3-6.43-2-6.91.5-.58,3.08-1.76,6-1.93,9.18.46,3-1.27,5.47-2,8.17-.61,1.79-2.44,2.52-3.45,4-4.06,2.71-8.09,2.39-12.1-.11-1.53-1.64-3.14-3.23-3.63-5.56a26.08,26.08,0,0,1,.27-11.6,97.65,97.65,0,0,0,1.91-11.53,255,255,0,0,1,5.06-28.94c.63-2.71,1.61-5.08,1.18-8.09-.35-2.47,2.14-4.53,3.5-6.7Z"/><path class="cls-27" d="M238.09,44.38c-2.36-.41-5.31-.81-8.2-1.48-2.19-.51-2.91.35-3.23,2.38-1,6.21-2.13,12.4-3.16,18.6-.44,2.67-1.12,5.11-4,6.24-4.37,1.72-8.39-1.56-7.62-6.52,1.22-7.86,2.7-15.67,4.07-23.51,1.57-9,3.25-18,4.69-27,1.12-7.06,2.82-8.5,9.88-7.35s14,2.37,21.06,3.63c4.13.74,6.5,3.43,6,6.59-.58,3.76-3.54,5.54-8.13,4.75Q242,19.43,234.43,18c-1.95-.38-3.22-.19-3.22,2.26a30.31,30.31,0,0,1-.61,3.86c-.3,2.31-2.15,5.18-.72,6.71s4.42,1.11,6.74,1.57c1,.21,2.1.41,3.15.6,3.47.62,5.54,3.2,5.18,6.47C244.61,42.49,242.1,44.48,238.09,44.38Z"/><path class="cls-29" d="M247.89,35.8c2.17,1.93,1.45,3.83,0,5.74Q247.87,38.67,247.89,35.8Z"/><path class="cls-5" d="M93.46,70.1l.17,2.11c2,3.25,1.8,7,1.12,10.28-1.83,8.73-6.42,15.88-15,19.48-5.18,2.18-10.69,1.56-16.06.39a4.35,4.35,0,0,1-3.1-2.22c-.88-.61-1.61-1.48-2.79-1.52-10.74-3.27-15.86-12-20.38-21.2-.89-1.83,0-4-1.07-5.85l-.18-1.45A20.28,20.28,0,0,1,32.26,53c.67-3.3.93-6.77,2.58-9.94C40.39,32.38,47.8,28.52,59,29.42a28.21,28.21,0,0,1,11.5,3.43c1.92,1.06,3.57,2.33,4.3,4.5l1.37,1.4c1.57,2.37,3.09,4.76,3,7.78.89,2.72-.87,3.94-2.85,5h0c-2.91,4.76-7.15,5.79-12.06,2.92-1.43-.84-2.72-1.91-4.22-2.63-4-1.9-6.07-.65-6.42,3.73-.29,3.66.94,7.06,2.08,10.34a28.31,28.31,0,0,0,10.2,13.35c1.61,1.2,3.32,2.57,5.51,1.6s1.82-3.15,1.84-5A14.4,14.4,0,0,1,78.38,65c1.57-1.41,3.24-1.94,5.15-.68C88.27,63.79,91.14,66.47,93.46,70.1Z"/><path class="cls-27" d="M317,72.3c-3.51-.42-6.32-2.36-9.06-4.1-3.06-1.94-4.4-1.12-5.71,1.84a70.9,70.9,0,0,1-4.95,9.46c-1.57,2.46-.75,3.37,1.51,4.46,4.49,2.15,8.88,4.52,13.26,6.91,3.92,2.14,5.1,5,3.49,8.09-1.71,3.26-5,4.09-8.86,2.09q-10.41-5.42-20.75-11c-3.62-1.94-4.59-4.7-2.73-8.28q12.46-24,25.09-47.93c1.73-3.29,4.84-4.29,8.13-2.61q10.94,5.56,21.74,11.41c3.37,1.82,4.35,5.15,2.69,8.08s-4.68,3.75-8,2.06q-7.31-3.7-14.49-7.67c-1.74-1-2.63-.93-3.51,1.07a82.93,82.93,0,0,1-4.3,8.2c-.81,1.4-.47,2.05.88,2.73,2.86,1.43,5.72,2.87,8.45,4.54,2.4,1.47,3.09,3.81,2.35,6.51S319.47,71.86,317,72.3Z"/><path class="cls-3" d="M243.38,417.33l.39-2.87c8.3-7.13,17.56-12.37,28.84-11.19A22.33,22.33,0,0,1,290,414.35c.92.9.52,2.71,2.16,3.1a10,10,0,0,1,3,7,42.74,42.74,0,0,1-.21,8.85c-.62,3.78,1,6.38,3.95,8.36,3.27,2.22,6.06,4.83,7.58,8.58,1.19,1.81,3,3.33,3,5.74-.41,6.07-2.38,8.56-7.95,10.09-2.5,1.88-4.81,1.42-7.14-.41-2-1.54-4.08-2.87-6.12-4.29a2.61,2.61,0,0,0-2.71-.38c-1.19.59-.63,1.62-.54,2.52.12,1.3.18,2.61.19,3.92,0,6.26-1.35,8.16-7.3,10-3.73.5-7.14-.12-10-2.79-2-2.1-2.09-5.28-4.26-7.26a8.27,8.27,0,0,1-2.7-3.24c-2.77-7.16-6.67-13.77-9.79-20.76-.23-1.77-1.33-3.2-1.85-4.85-.41-1.28-1.2-2.6-.16-4l-5.72-14.27Q243.37,418.79,243.38,417.33Z"/><path class="cls-22" d="M122.09,449.6c-1.89-.94-2.4.31-3.07,1.94-2.48,6-5,12-7.76,17.93-2.12,4.53-7.42,5-10,1.07-1.36-2.09-1-4.26-.07-6.43,2.44-5.66,4.71-11.39,7.31-17,1-2.23.52-3.11-1.6-3.93-4.19-1.62-8.34-3.38-12.44-5.22-4.48-2-5.63-5.38-3.08-9.47,4.52-7.24,9.16-14.41,13.85-21.55a5.65,5.65,0,0,1,7.83-1.74,5.5,5.5,0,0,1,1.85,7.78c-3,5-6.17,9.84-9.4,14.66-1.1,1.64-.82,2.27.94,3.09,7.47,3.46,7.44,3.52,10.7-4,1.59-3.7,3.14-7.42,4.8-11.08,1.59-3.5,4.41-4.8,7.38-3.55,3.19,1.35,4.42,4.4,3,8-2.12,5.27-4.39,10.49-6.64,15.71-.62,1.45-1.35,2.5.76,3.73a4.89,4.89,0,0,1,2.08,6.5C127.34,448.86,125.16,449.86,122.09,449.6Z"/><path class="cls-27" d="M174.56,63.46c-.4,3.06-1.67,5.19-4.38,5.87a5.4,5.4,0,0,1-6.59-2.92c-2.48-4.85-5-9.68-7.27-14.62-1-2.27-2.45-3-4.74-2.27-.23.07-.47.08-.7.15-3.21.95-7.66-.53-9.54,2.47-1.7,2.71-1.48,6.63-2.08,10-.5,2.81-.85,5.64-1.46,8.43a5.56,5.56,0,0,1-6.6,4.48c-3-.61-4.8-3.33-4.32-6.64,2.78-19.16,6.09-38.23,9.35-57.31.51-3,1.85-4.79,4.77-5.33,3.13-.57,5.25.84,6.63,3.59q5.9,11.76,11.82,23.5c4.48,8.88,9,17.75,13.45,26.65C173.6,60.87,174.09,62.33,174.56,63.46Z"/><path class="cls-22" d="M78.54,72.54c1.2-3.15,3.1-5.43,6.84-4.88,3.34.5,4.86,2.77,5.08,7.13.6,11.73-6.22,21.64-16.43,23.5-6.5,1.19-12.37-1.06-17.37-4.9C42.84,82.81,35.91,68.76,37.86,51.23,39.14,39.68,49,30.2,64.75,35.83a25.15,25.15,0,0,1,8.57,5c2.56,2.32,2.84,5.38.86,8A5.85,5.85,0,0,1,66.47,50c-1.85-1.06-3.57-2.37-5.49-3.3-5.6-2.72-10.2-.5-11.67,5.48-3,12.14,7.17,30.33,19.07,34.15,4.94,1.58,8.19-.32,9.44-5.51C78.74,78.12,77.41,75.22,78.54,72.54Z"/><path class="cls-27" d="M269.61,406.54c15.67.17,25.57,17,17.83,30.51-1.08,1.89-.35,2.33.83,3.27,5,4,10.09,7.91,15,12,3,2.48,3.31,5.56,1.28,8.08s-5.51,2.82-8.55.49c-5.65-4.33-11.37-8.59-16.79-13.19-2.54-2.16-4.31-.59-6.33.36-1.3.61-.19,1.46.07,2.06,2.23,5.1,4.57,10.16,6.82,15.26,1.56,3.53.54,6.71-2.49,8.15-3.19,1.52-6.36.17-8-3.54q-10.91-24.13-21.75-48.29c-1.95-4.35-1-6.87,3.44-8.82C257,410.26,262.63,406.42,269.61,406.54Z"/><path class="cls-30" d="M144.84,29.44c1.25,2.42,2,3.86,2.74,5.32,1.89,3.85,1.86,3.71-2.31,4.08-1.85.17-2-.51-1.78-1.89C143.87,34.77,144.27,32.61,144.84,29.44Z"/><path class="cls-31" d="M269.47,418a8.65,8.65,0,0,1,8.55,6.22,8.74,8.74,0,0,1-3.51,10c-1.68,1.07-3.64,1.71-5.39,2.7-1.41.8-2.07.42-2.68-1-1.83-4.24-3.8-8.42-5.67-12.65-.35-.79-1-1.8.36-2.37C263.86,419.76,266.39,418.07,269.47,418Z"/></g></g></svg>