<svg id="parking" xmlns="http://www.w3.org/2000/svg" viewBox="0 0 285.93 250">
  <title>Parking</title>
  <defs>
    <style>
      path {
        animation: draw 20s linear forwards;
        animation-iteration-count: infinite;
        stroke: #afeeee;
        stroke-dasharray: 900;
      }

      @keyframes draw {
        0% {
          stroke-dashoffset: 900;
          fill-opacity: 0;
        }
        80% {
          stroke-dashoffset: 0;
          stroke-opacity: 1;
          fill-opacity: 0;
        }
        100% {
          stroke-opacity: 0;
          fill-opacity: 1;
        }
      }
    </style>
  </defs>
  <path d="M21.7,9.1c0,1.7-0.3,3.1-0.9,4.2c-0.6,1.2-1.4,2.1-2.4,2.8c-1,0.7-2.2,1.2-3.5,1.6c-1.3,0.3-2.8,0.5-4.3,0.5V24
  H3V0h7.7c1.5,0,3,0.2,4.3,0.5c1.3,0.3,2.5,0.9,3.5,1.6c1,0.7,1.8,1.7,2.4,2.8C21.4,6.1,21.7,7.5,21.7,9.1z M18.2,9.1
  c0-1.1-0.2-2-0.6-2.8c-0.4-0.8-0.9-1.4-1.6-1.9c-0.7-0.5-1.5-0.9-2.4-1.1c-0.9-0.3-1.9-0.4-3-0.4H6.6v18.3h0.9v-5.7h3.1
  c1.1,0,2.1-0.1,3-0.4c0.9-0.3,1.7-0.6,2.4-1.1c0.7-0.5,1.2-1.2,1.6-1.9C18,11.2,18.2,10.2,18.2,9.1z M17.2,9.1c0,1-0.2,1.9-0.5,2.6
  c-0.4,0.7-0.8,1.2-1.4,1.7c-0.6,0.4-1.3,0.7-2.1,0.9c-0.8,0.2-1.6,0.3-2.5,0.3H7.5V3.7h3.1c0.9,0,1.7,0.1,2.5,0.3
  c0.8,0.2,1.5,0.5,2.1,0.9c0.6,0.4,1.1,1,1.4,1.7C17,7.2,17.2,8.1,17.2,9.1z M10.7,11.8H11c1,0,1.7-0.2,2.2-0.7
  c0.4-0.5,0.7-1.1,0.7-2c0-0.8-0.2-1.5-0.7-2C12.7,6.7,12,6.5,11,6.5h-0.3V11.8z M9.1,36h5.8L24,60h-7.6l-0.8-2.2H8.4L7.6,60H0
  L9.1,36z M5.4,57.1L6,55.3h11.9l0.7,1.8h1l-6.9-18.3h-1.4L4.4,57.1H5.4z M12,39.7l5.6,14.7H6.4L12,39.7z M13.6,52.6L12,48.3
  l-1.6,4.2H13.6z M2.8,72H11c1.5,0,3,0.2,4.3,0.6c1.3,0.4,2.4,1,3.4,1.8c1,0.8,1.7,1.8,2.2,2.9c0.5,1.2,0.8,2.5,0.8,4
  c0,1.2-0.2,2.2-0.5,3.1c-0.3,0.8-0.7,1.5-1.1,2.1c-0.5,0.6-1,1.2-1.6,1.6L23,96h-9l-3.6-6.1V96H2.8V72z M10.2,87.7
  c0.9,0,1.8-0.1,2.7-0.3l3.4,5.8h1.1l-3.6-6c1.3-0.5,2.3-1.2,3.1-2.1c0.8-0.9,1.2-2.2,1.2-3.7c0-1.1-0.2-2-0.6-2.8
  c-0.4-0.8-1-1.5-1.7-2s-1.5-0.9-2.5-1.2s-2-0.4-3.1-0.4H6.4v18.3h0.9v-5.5H10.2z M7.3,86.8V75.7h3c2.2,0,3.9,0.5,5.1,1.4
  c1.2,1,1.9,2.3,1.9,4.1c0,1.8-0.6,3.1-1.9,4.1c-1.2,0.9-2.9,1.4-5.1,1.4H7.3z M10.4,83.8h0.4c0.9,0,1.7-0.2,2.3-0.6
  c0.6-0.4,1-1.1,1-2.1c0-1-0.3-1.6-1-2.1c-0.6-0.4-1.4-0.6-2.3-0.6h-0.4V83.8z M1.8,108h7.8v5.5l4.5-5.5h9.4l-8.5,11l8.9,13h-9.3
  l-5.1-7.4v7.4H1.8V108z M6.4,129.1v-4.9l3.7-4.6l6.6,9.5h1.1l-7-10.3l6.4-8H16l-9.7,12v-12H5.4v18.3H6.4z M7.9,144h8.1v24H7.9V144z
   M12.5,165.1v-18.3h-0.9v18.3H12.5z M1.8,180h6.3l6.6,9.3V180h7.5v24h-6.3l-6.6-9.2v9.2H1.8V180z M6,201.1v-16.6l11.9,16.6h0.9
  v-18.3h-0.9v16.6L6,182.9H5.1v18.3H6z M16,224.2c-0.4-0.4-1-0.7-1.6-0.9c-0.6-0.2-1.3-0.3-1.9-0.3c-0.7,0-1.3,0.1-1.9,0.4
  s-1.1,0.6-1.5,1c-0.4,0.4-0.8,1-1,1.6c-0.2,0.6-0.4,1.3-0.4,2c0,0.7,0.1,1.4,0.4,2c0.3,0.6,0.6,1.2,1.1,1.6c0.5,0.4,1,0.8,1.6,1
  c0.6,0.3,1.3,0.4,2,0.4c0.8,0,1.6-0.2,2.2-0.5c0.7-0.3,1.2-0.8,1.7-1.4h-2.2v-5h9.3v8c-0.6,1-1.2,1.9-2,2.7
  c-0.8,0.8-1.6,1.5-2.6,2.1c-0.9,0.6-2,1-3.1,1.3c-1.1,0.3-2.2,0.5-3.4,0.5c-1.7,0-3.4-0.3-4.9-1c-1.5-0.6-2.9-1.5-4-2.7
  c-1.1-1.1-2-2.5-2.7-4c-0.7-1.5-1-3.2-1-5c0-1.7,0.3-3.4,0.9-4.9c0.6-1.5,1.5-2.9,2.6-4c1.1-1.1,2.4-2,3.9-2.7c1.5-0.7,3.1-1,4.8-1
  c1.3,0,2.5,0.1,3.5,0.4c1,0.3,1.8,0.6,2.5,0.9c0.8,0.4,1.5,0.8,2,1.3L16,224.2z M16.4,219.5c-0.3-0.1-0.7-0.3-1-0.4
  c-0.3-0.1-0.7-0.2-1.2-0.3c-0.5-0.1-1-0.1-1.5-0.1c-1.3,0-2.5,0.2-3.6,0.7c-1.1,0.5-2.1,1.1-2.9,1.9c-0.8,0.8-1.5,1.8-1.9,2.9
  c-0.5,1.1-0.7,2.4-0.7,3.7c0,1.4,0.2,2.6,0.7,3.7c0.5,1.1,1.1,2.1,2,2.9c0.8,0.8,1.8,1.4,2.9,1.9c1.1,0.5,2.3,0.7,3.6,0.7
  c1.7,0,3.2-0.4,4.5-1.2c1.3-0.8,2.4-1.8,3.3-3.1v-4.7h-3.8v0.9h2.9v3.6c-0.7,1.1-1.7,2-2.9,2.6s-2.5,1-3.9,1c-1.2,0-2.2-0.2-3.2-0.6
  c-1-0.4-1.9-1-2.6-1.7c-0.8-0.7-1.4-1.6-1.8-2.6c-0.4-1-0.6-2.1-0.6-3.4c0-1.2,0.2-2.3,0.6-3.4c0.4-1,1-1.9,1.7-2.6
  c0.7-0.7,1.6-1.3,2.6-1.7c1-0.4,2.1-0.6,3.2-0.6c0.4,0,0.8,0,1.2,0.1c0.4,0.1,0.7,0.1,1,0.2c0.3,0.1,0.6,0.2,0.9,0.3L16.4,219.5z" />
</svg>
