<svg xmlns="http://www.w3.org/2000/svg" xmlns:xlink="http://www.w3.org/1999/xlink" viewBox="0 0 1250.96 349.65"><defs><style>.cls-1{fill:#fff;}.cls-2{fill:#6d6e6c;}.cls-3{fill:url(#linear-gradient);}.cls-4{fill:#9d9d9c;}.cls-5{fill:#9d9e9d;}.cls-6{fill:#616160;}.cls-7{fill:#606160;}.cls-8{fill:#f92121;stroke:#ff9d00;stroke-miterlimit:10;stroke-width:0.25px;}.cls-9{fill:#3196e2;}.cls-10{fill:#ffc05f;}.cls-11{fill:#6f88fc;}.cls-12{fill:url(#linear-gradient-2);}.cls-13{fill:#6e6a66;}.cls-14{fill:#75726e;}.cls-15{fill:#f9b594;}.cls-16{fill:#53d2dc;}.cls-17{fill:#ff7582;}.cls-18{fill:#f4e364;}.cls-19{fill:#ff826c;}.cls-20{fill:#fae7dd;}.cls-21{fill:url(#linear-gradient-3);}.cls-22{fill:#56b5db;}.cls-23{fill:#111;}.cls-24{fill:#fce34f;}</style><linearGradient id="linear-gradient" x1="322.22" y1="10.7" x2="322.22" y2="253.92" gradientUnits="userSpaceOnUse"><stop offset="0" stop-color="#fff"/><stop offset="0.2" stop-color="#c5c5c5"/><stop offset="0.49" stop-color="#797979"/><stop offset="0.73" stop-color="#414141"/><stop offset="0.91" stop-color="#1e1e1e"/><stop offset="1" stop-color="#111"/></linearGradient><linearGradient id="linear-gradient-2" x1="944.72" y1="49.01" x2="944.72" y2="254.14" gradientUnits="userSpaceOnUse"><stop offset="0" stop-color="#fff"/><stop offset="0.26" stop-color="#b5b5b5"/><stop offset="0.52" stop-color="#6f6f6f"/><stop offset="0.74" stop-color="#3c3c3c"/><stop offset="0.91" stop-color="#1d1d1d"/><stop offset="1" stop-color="#111"/></linearGradient><linearGradient id="linear-gradient-3" x1="737.87" y1="30.72" x2="737.87" y2="193.06" gradientUnits="userSpaceOnUse"><stop offset="0" stop-color="#fff"/><stop offset="0.09" stop-color="#f8f8f8"/><stop offset="0.22" stop-color="#e6e6e6"/><stop offset="0.37" stop-color="#c7c7c7"/><stop offset="0.53" stop-color="#9d9d9d"/><stop offset="0.71" stop-color="#676767"/><stop offset="0.9" stop-color="#262626"/><stop offset="1"/></linearGradient></defs><title>Asset 15</title><g id="Layer_2" data-name="Layer 2"><g id="Layer_1-2" data-name="Layer 1"><path class="cls-1" d="M489.28,5.87c.37.27.33-.06.38-.27a42.83,42.83,0,0,0-.12-5.6h-.26Zm.09,4.33a4.52,4.52,0,0,0-.09-3.63A10,10,0,0,0,489.38,10.2Z"/><path class="cls-2" d="M26.63,253.89q0,.12,0,.25H0l0-.29H5.69Z"/><path class="cls-3" d="M26.63,253.89l-20.94,0H.06c0-.37-.05-.74-.05-1.11q0-21.34,0-42.68v-1.19H16.57c.07,1.38,0,2.79,0,4.2s0,2.87,0,4.31V226H20.8V192.48H37.54V217h3.59c0-3.24,0-6.5,0-9.77s0-6.56,0-9.93h7.15V216a1.5,1.5,0,0,0,1.12-1.63c0-1.52,0-3,0-4.55H53a.79.79,0,0,0,.11-.1.26.26,0,0,0,.06-.12,4.64,4.64,0,0,0,.05-.55q0-18.63,0-37.25a.58.58,0,0,1,0-.13c.93-.3,22.48-.42,25.22-.12,0,3.29,0,6.6,0,9.91s0,6.77,0,10.15v10l1.55.21v3.1h2.68c0-6.7,0-13.45,0-20.19s0-13.62,0-20.44V143.85l2.25-.12v-3.51l1.89-.12c0-.45.05-.89.05-1.33,0-3.8,0-7.6,0-11.4,0-.55-.23-1.2.52-1.54.14-.06.15-.5.16-.76,0-.79,0-1.58,0-2.36,0-.27-.05-.67.09-.8,1-1,.58-2.25.64-3.4a2.71,2.71,0,0,1,.61-2,2.1,2.1,0,0,0,.3-1.28c0-1.24,0-2.49,0-3.81l1.22-.19a2.14,2.14,0,0,0,.11-.44c0-1,0-1.95,0-2.92a1.94,1.94,0,0,1,.74-1.82,3.19,3.19,0,0,0,1.28-3.24,4.74,4.74,0,0,1,.63-3.06,8.89,8.89,0,0,0,1.25-5.56c-.05-.48-.12-1,.47-1.32.16-.09.14-.59.15-.91.08-2.17.15-4.35.22-6.52h.24c0,2.18,0,4.35.1,6.53a4.09,4.09,0,0,0,.32,1.73,6.34,6.34,0,0,1,.68,3.47,1.61,1.61,0,0,0,.45,1.38,2,2,0,0,1,.32,1.12c.09.94-.2,1.92.49,2.77.16.19.05.63.05,1,0,1.16,0,2.31,0,3.53l1.3.52c0,1.2,0,2.4,0,3.6,0,.6,0,1.18.53,1.62a1.51,1.51,0,0,1,.33,1c0,.64,0,1.3,0,1.95,0,.28-.09.61,0,.82.8,1.42.42,3,.46,4.47a2.14,2.14,0,0,0,.71,1.69c.9.83,2.06,1.6,2.49,2.67s.18,2.54.19,3.83c0,3.15,0,6.3,0,9.45a2.24,2.24,0,0,0,.81,2.07,4,4,0,0,1,1.64,4.08,18.06,18.06,0,0,0,0,3.19A1.86,1.86,0,0,0,107,149a2.41,2.41,0,0,1,.68,2.13q0,26.83,0,53.66v2.69h2.69v-18l1.82-.58c0-.54,0-1.14,0-1.72a3,3,0,0,1,1-2.73,10.42,10.42,0,0,0,.78-.86l1.38.62v-8.25h4V155.44h12.54v24.62h2.72V155.42h14c0,1.45,0,2.91,0,4.37s0,3.06,0,4.59v4.45q0,2.22,0,4.45v9l1.18.22v2.69h3.85l.4,8.5,4-.19v3.59h2.58v-61h10.11v40h7.72v-47.3h8.44c.06,1.47,0,3,0,4.49s0,3.06,0,4.59v13.84h9.4v3.38h3.6v1.61q0,18.35,0,36.7a3,3,0,0,0,1,2.42c1.38,1.32,2.67,2.74,4,4.11.26.27.58.49,1.1.92V152a82.89,82.89,0,0,1,12.14-.14v45.29h2.52c0-.62,0-1.21,0-1.79.05-1.29.09-2.58.21-3.87a1.46,1.46,0,0,1,.57-1c1.05-.62,1.19-1.53,1.19-2.68q0-38.65,0-77.29v-1.71l1.18-.25V92.7l1.75-.39V86.76l2.35-.33V83.29l2.35-.11v-3.1l3-.14V78.38q0-8.76,0-17.52c0-2.69.74-3.67,3.23-4.29l.74-.19c0-2.14,0-4.26,0-6.38a3.94,3.94,0,0,1,0-1.1c.06-.21.38-.34.82-.72.16,1.65.08,3,.09,4.3s0,2.59,0,3.94c.27.12.5.23.74.32a3.21,3.21,0,0,1,2.4,3.54q0,7.3,0,14.6c0,1.11,0,2.22,0,3.37l1.09.38.17,1.69,1.89-.25v3.53l2.36.13V86.2l2.14.17v6.5L251,93a35.09,35.09,0,0,1,.07,3.8c0,1.34,0,2.69,0,4v7.9l2.15.17v95.93c1-.29,1-1,1-1.69,0-3.15,0-6.3,0-9.45v-2l1.12-.33V160.86h11.34v-7.52c1.06-.33,9.93-.41,11.87-.13v15.56h9.23v19.44H293v-13.6l1.65-.26v-6.28h14.53V208.2h2c0-.38.07-.78.07-1.18,0-2.92,0-5.84,0-8.76a5.45,5.45,0,0,1,.38-1.87c.59-1.5,1.25-3,1.9-4.45.14-.32.33-.62.57-1.08.94,1.82,1.82,3.47,2.63,5.17a3.27,3.27,0,0,1,.17,1.35c0,4.22,0,8.43,0,12.65v1.47h2.39V202h3a69.79,69.79,0,0,0,.33-9h4.75V178.25h4.11v2.67h3.82v-3.49h5.26v2.34h11v-3.22h3.84v16.13h5.12l1.75-6.52h.25q.45,2.16.91,4.32c.12.59.22,1.18.35,1.77s.38.59.93.4V175.1l2.92-.13v-8.52c1-.3,18.16-.39,20.26-.12V210l1.18-.17a2.71,2.71,0,0,0,.13-.56c0-2.83.1-5.66,0-8.48a54.1,54.1,0,0,1,1-10.9c.89-5.38,1.72-10.78,2.58-16.16a6.27,6.27,0,0,1,.48-1.72c.46,2.83.92,5.65,1.37,8.48q1.14,7.19,2.25,14.39a14,14,0,0,1,.18,2.07c0,4,0,8.06,0,12.09v1.42h1.8v-7.71h2.74v2.67l2.16.13.16,1.92h4.61v3h2.73v-16.6h5.43V173.37c1.05-.35,13.87-.4,15.25-.09v4l2.14.15v8.75c.28.05.53.17.58.1.79-.94,1.87-.48,2.81-.66l.23-.1.2-1.92h11.77V171.68l1.08-.47V158h7.65v13.42h4v44.26h3.79v-8.35l1.79-.16V188.27l1.63-.1a10.06,10.06,0,0,0,.12-1.07c0-2,0-4,0-6a2.22,2.22,0,0,1,.32-1.28c1.71-2.08,3.48-4.1,5.31-6.24l3.12,2.73a1.13,1.13,0,0,0,.25-.09.28.28,0,0,0,.06-.12.74.74,0,0,0,0-.13,1.06,1.06,0,0,0,0-.14q0-.14,0-.28s0-.09,0-.14,0-.19,0-.28,0-.37,0-.56q0-59.85,0-119.69v-.28s0-.09,0-.14,0-.09,0-.14,0-.09,0-.14a1.31,1.31,0,0,1,0-.14.71.71,0,0,1,0-.13s0-.08.14-.24h9.11l.07-1.4c-1.94,0-3.77,0-5.59,0a4.4,4.4,0,0,1-3.08-1l-.08-1.56a3.21,3.21,0,0,1,3-1.31c1.52.08,3,0,4.57,0,.39,0,.78,0,1.28-.07.31-12.62.57-25.17.93-37.7a2.11,2.11,0,0,1,.36,0,.19.19,0,0,1,.08.08.39.39,0,0,1,.06.13c0,.09,0,.18,0,.27s0,.18,0,.28,0,.28,0,.42q.42,18.13.84,36.26s0,.08.18.27l4,.18a9.47,9.47,0,0,0,1.74,0,2.45,2.45,0,0,1,2.3,1.16c.29.36.25,1,.36,1.52a5,5,0,0,1-3.23,1.07c-1.34-.07-2.69,0-4,0-.35,0-.7,0-1.11.08l.07,1.58,8.17.2V181.83l5.72-.65a4.66,4.66,0,0,0,.08-.66q0-19.81-.09-39.62c0-8.66,0-17.33-.08-26a2.56,2.56,0,0,1,1-2.21c4.25-3.55,8.46-7.15,12.69-10.73.31-.26.63-.5,1-.78.33.32.62.59.9.88,3.48,3.6,7,7.22,10.46,10.8a3,3,0,0,1,.9,2.31q0,37.81,0,75.63v1.75l4.27-1.37V104.62h16.62V212.47c1.16,0,2.22,0,3.27,0,.47,0,.71-.36.75-.83s0-.65,0-1q0-4.66,0-9.31c0-.6-.17-1.33.89-1.13V172.49h13.1c0,.49,0,1,0,1.56q0,17.38,0,34.75a2.77,2.77,0,0,0,.83,2.17,21.63,21.63,0,0,1,2.2,3.3l1.83-.47v5.28h2.36a19.53,19.53,0,0,1,7.35,1.4A12.86,12.86,0,0,1,590,223.8a5.85,5.85,0,0,0,2,1.41,27.73,27.73,0,0,1,10.71,8.6,24.14,24.14,0,0,1,4.25,9,17.27,17.27,0,0,0,2.85-5.25l-2.36-.13a3.33,3.33,0,0,1-.21-.55c-.19-1.08-.36-2.17-.56-3.38h3.1v-3.23l2.18-.12c0-.38.08-.77.08-1.17,0-3,0-5.93,0-8.9a14,14,0,0,1,.58-4.52,11.64,11.64,0,0,0,.53-4.1c-.06-1.29,0-2.58,0-3.91l-1-.29V200.9l-1.36-.25c-.33-2,.21-3.9.49-5.81a7.85,7.85,0,0,1,.22-1.23,4.94,4.94,0,0,0-.5-4.24,2.94,2.94,0,0,1-.28-1.33c0-.92,0-1.85,0-2.78a2.33,2.33,0,0,0-1-2.39c-.27-.18-.36-.79-.4-1.21a25.44,25.44,0,0,1,.88-8c.45-1.93.9-3.87,1.23-5.83.24-1.4.28-2.83.42-4.34l-1.63-.16c0-.8,0-1.57,0-2.35,0-.45-.07-.85-.52-1-.64-.24-.7-.76-.67-1.35s0-.93,0-1.39a1.9,1.9,0,0,1,1.46-1.68,6.91,6.91,0,0,0-.38-.7,3.54,3.54,0,0,1,0-3.84c1.26-1.73,2.54-3.44,3.87-5.24.59,1.59-.44,2.65-.8,3.83.68,1.68,1.76,3.21,1.4,5.26l-2.19.4a3.67,3.67,0,0,0,.69.64,2,2,0,0,0,.66.05c1.16.09,1.49.43,1.52,1.62,0,.59,0,1.18,0,1.83l-2.85.21c.43.65.72,1.16,1.07,1.6a3,3,0,0,1,.62,1.92c0,2.27.1,4.54.15,6.81,0,.23-.08.56,0,.68.85.91.38,2.11.67,3.24l2.12.25-.89-2.89c1.2.35,1.71,1.86,3.13,1.53l1.41-2.81.24.05.28,3,3.07-1.5.15.22-1.64,2.09,3.7.28-2.76,1.81,2.32.82v.21l-2.73.49a10.83,10.83,0,0,1-.25,2.94,10.45,10.45,0,0,1-1.73,2.35c.62.85,1.2,1.73,1.86,2.53a1.59,1.59,0,0,0,1,.5c.8.07,1.6,0,2.48,0l3.53,7.06,3.18-2.64,3.51,4.43L634,198.26l-1,1.17c-1.78,2.19-1.76,2.19-1.43,5.07.34,3,.63,6.08.94,9.12a1.33,1.33,0,0,1-.08.34l-1.4.53a4.82,4.82,0,0,1-.59,1.58c-.32.37-.94.47-1.49.71l-.25,1.23h-2.35l-.24,2,4.48,1.12.2,2,1.7.3v7.23l2.62.16v2.73h2.78v3.64H636l-.06.23,1,.59a15.7,15.7,0,0,1,7.37,10.93,26.1,26.1,0,0,1,0,4.65l-1,.06h-.4l-88.1,0-53.58.06-52.24.05-52.78,0c-.44,0-.88,0-1.33.06s-.71-.05-1.07-.05H343.43c-.4,0-.8,0-1.2.05s-1,0-1.47,0h-49.5l-52.85,0c-.49,0-1,0-1.47.05s-.71,0-1.07,0H185.5c-.4,0-.8,0-1.2.05s-.8-.05-1.2-.05H133c-.36,0-.71,0-1.07,0s-.71,0-1.07,0H80.34c-.36,0-.71,0-1.07,0s-.62,0-.94,0H27.57Z"/><path class="cls-4" d="M95.41,80.94V73.7l.31,0a7.65,7.65,0,0,1,.1.83c0,1.84,0,3.67,0,5.51a5.2,5.2,0,0,1-.17.92Z"/><path class="cls-5" d="M489.28,5.87V0h.26a42.83,42.83,0,0,1,.12,5.6Z"/><path class="cls-6" d="M489.38,10.2a10,10,0,0,1-.09-3.63A4.52,4.52,0,0,1,489.38,10.2Z"/><path class="cls-7" d="M95.41,80.94l.26,0,0,4.45H95.4Z"/><path class="cls-6" d="M489.28,5.87l.38-.27C489.62,5.81,489.66,6.15,489.28,5.87Z"/><path class="cls-8" d="M328.86,138.42h1.38l2.49,4.83v-4.83H334v6.93h-1.31l-2.56-4.92v4.92h-1.22Z"/><path class="cls-8" d="M339.83,139.65H336.5v1.47h3v1.2h-3v1.78H340v1.25h-4.76v-6.93h4.6Z"/><path class="cls-8" d="M341.86,138.42l.83,4,.18,1.1.18-1.08.71-4h1.38l.75,4,.19,1.11.19-1.06.84-4h1.34l-1.77,6.93h-1.26l-.76-4.05-.22-1.34-.22,1.34-.76,4.05h-1.22l-1.78-6.93Z"/><path class="cls-8" d="M324,148.37h1.49l-2.1,4.33v2.6h-1.31v-2.6l-2.17-4.33h1.55l1.3,3Z"/><path class="cls-8" d="M331.05,154.69a3,3,0,0,1-4.11,0,4,4,0,0,1-1-2.86,3.88,3.88,0,0,1,1-2.86,3,3,0,0,1,4.11,0,3.9,3.9,0,0,1,1,2.86A4,4,0,0,1,331.05,154.69Zm-.82-1.05a3.79,3.79,0,0,0,0-3.61,1.45,1.45,0,0,0-1.24-.64,1.46,1.46,0,0,0-1.24.63,3.75,3.75,0,0,0,0,3.61,1.46,1.46,0,0,0,1.24.63A1.45,1.45,0,0,0,330.23,153.64Z"/><path class="cls-8" d="M337,148.55a1.58,1.58,0,0,1,.59.48,2.21,2.21,0,0,1,.32.58,2.12,2.12,0,0,1,.12.73,2.25,2.25,0,0,1-.23,1,1.3,1.3,0,0,1-.74.67,1.21,1.21,0,0,1,.62.55,2.5,2.5,0,0,1,.18,1.08v.47a3.8,3.8,0,0,0,0,.64.58.58,0,0,0,.24.4v.17H336.7c0-.15-.07-.28-.08-.37a3.74,3.74,0,0,1-.06-.6v-.64a1.41,1.41,0,0,0-.21-.88,1,1,0,0,0-.75-.22h-1.28v2.72H333v-6.93h3A2.51,2.51,0,0,1,337,148.55Zm-2.71,1v1.86h1.41a1.38,1.38,0,0,0,.63-.11.8.8,0,0,0,.37-.78.91.91,0,0,0-.36-.85,1.2,1.2,0,0,0-.61-.12Z"/><path class="cls-8" d="M339.32,148.37h1.29v2.86l2.43-2.86h1.69l-2.58,2.85,2.71,4.08h-1.69l-1.93-3-.63.71v2.32h-1.29Z"/><path class="cls-8" d="M350.24,149.6h-3.32v1.47h3v1.2h-3v1.78h3.48v1.25h-4.76v-6.93h4.6Z"/><path class="cls-8" d="M355.44,148.55a1.58,1.58,0,0,1,.59.48,2.21,2.21,0,0,1,.32.58,2.12,2.12,0,0,1,.12.73,2.25,2.25,0,0,1-.23,1,1.3,1.3,0,0,1-.74.67,1.21,1.21,0,0,1,.62.55,2.5,2.5,0,0,1,.18,1.08v.47a3.8,3.8,0,0,0,0,.64.58.58,0,0,0,.24.4v.17h-1.45c0-.15-.07-.28-.08-.37a3.74,3.74,0,0,1-.06-.6v-.64a1.41,1.41,0,0,0-.21-.88,1,1,0,0,0-.75-.22h-1.28v2.72h-1.28v-6.93h3A2.51,2.51,0,0,1,355.44,148.55Zm-2.71,1v1.86h1.41a1.38,1.38,0,0,0,.63-.11.8.8,0,0,0,.37-.78.91.91,0,0,0-.36-.85,1.2,1.2,0,0,0-.61-.12Z"/><path class="cls-9" d="M354.77,151.33a.8.8,0,0,0,.37-.78.91.91,0,0,0-.36-.85,1.2,1.2,0,0,0-.61-.12h-1.45v1.86h1.41A1.38,1.38,0,0,0,354.77,151.33Z"/><path class="cls-9" d="M329,154.27a1.45,1.45,0,0,0,1.24-.64,3.79,3.79,0,0,0,0-3.61,1.44,1.44,0,0,0-1.24-.64,1.46,1.46,0,0,0-1.24.63,3.75,3.75,0,0,0,0,3.61A1.46,1.46,0,0,0,329,154.27Z"/><path class="cls-9" d="M319.33,202h3a69.8,69.8,0,0,0,.33-9h4.75V178.25h4.11v2.67h3.82v-3.49h5.26v2.34h11v-3.22h3.84v16.13h4.05V174.2l-1.79-.14V145.6h-5.88V135.15H326.25v10.38h-7.48v66h.56Zm18.82-46.67H336.7c0-.15-.07-.28-.08-.37a3.74,3.74,0,0,1-.06-.6v-.64a1.41,1.41,0,0,0-.21-.88,1,1,0,0,0-.75-.22h-1.28v2.72H333v-6.93h3a2.51,2.51,0,0,1,1,.18,1.58,1.58,0,0,1,.59.48,2.21,2.21,0,0,1,.32.58,2.12,2.12,0,0,1,.12.73,2.25,2.25,0,0,1-.23,1,1.3,1.3,0,0,1-.74.67,1.21,1.21,0,0,1,.62.55,2.5,2.5,0,0,1,.18,1.08v.47a3.8,3.8,0,0,0,0,.64.58.58,0,0,0,.24.4Zm5,0-1.93-3-.63.71v2.32h-1.29v-6.93h1.29v2.86l2.43-2.86h1.69l-2.58,2.85,2.71,4.08Zm8.27-6.93h3a2.51,2.51,0,0,1,1,.18,1.58,1.58,0,0,1,.59.48,2.2,2.2,0,0,1,.32.58,2.12,2.12,0,0,1,.12.73,2.25,2.25,0,0,1-.23,1,1.3,1.3,0,0,1-.74.67,1.21,1.21,0,0,1,.62.55,2.5,2.5,0,0,1,.18,1.08v.47a3.8,3.8,0,0,0,0,.64.58.58,0,0,0,.24.4v.17h-1.45c0-.15-.07-.28-.08-.37a3.74,3.74,0,0,1-.06-.6v-.64a1.41,1.41,0,0,0-.21-.88,1,1,0,0,0-.75-.22h-1.28v2.72h-1.28Zm-1.48,2.7v1.2h-3v1.78h3.48v1.25h-4.76v-6.93h4.6v1.23h-3.32v1.47Zm-8.12-12.65.83,4,.18,1.1.18-1.08.71-4h1.38l.75,4,.19,1.11.19-1.06.84-4h1.34l-1.77,6.93h-1.26l-.76-4.05-.22-1.34-.22,1.34-.76,4.05h-1.22l-1.78-6.93Zm-6.63,0h4.6v1.23H336.5v1.47h3v1.2h-3v1.78H340v1.25h-4.76Zm-6.36,0h1.38l2.49,4.83v-4.83H334v6.93h-1.31l-2.56-4.92v4.92h-1.22ZM326.94,149a3,3,0,0,1,4.11,0,3.89,3.89,0,0,1,1,2.86,4,4,0,0,1-1,2.86,3,3,0,0,1-4.11,0,4,4,0,0,1-1-2.86A3.88,3.88,0,0,1,326.94,149Zm-5.51-.6,1.3,3,1.25-3h1.49l-2.1,4.33v2.6h-1.31v-2.6l-2.17-4.33Z"/><path class="cls-9" d="M335.76,149.58h-1.45v1.86h1.41a1.38,1.38,0,0,0,.63-.11.8.8,0,0,0,.37-.78.91.91,0,0,0-.36-.85A1.2,1.2,0,0,0,335.76,149.58Z"/><polyline class="cls-10" points="507.99 114.62 519.46 104.14 529.46 115.14"/><rect class="cls-10" x="236.46" y="110.15" width="3" height="89"/><rect class="cls-11" x="55.46" y="175.15" width="21" height="3"/><rect class="cls-11" x="55.46" y="181.15" width="21" height="3"/><rect class="cls-11" x="55.46" y="187.15" width="21" height="3"/><rect class="cls-11" x="55.46" y="193.15" width="21" height="3"/><rect class="cls-11" x="55.46" y="199.15" width="21" height="3"/><rect class="cls-11" x="55.46" y="205.15" width="21" height="3"/><path class="cls-1" d="M1138.43,59.64q-.49,6.67-1,13.34c-.3,4.25-.58,8.5-.9,12.75a11.6,11.6,0,0,1-.42,1.76h-4.37c-1.82,0-1.82,0-3.2-1.27,0,1.1,0,2-.09,2.85,0,.57,0,1.37-.35,1.66-1.37,1.11-1.2,2.54-1.2,4,0,.44-.09.89-.19,1.73-.53-.44-1-.65-1.06-.93-.22-1-.3-2.07-.42-3.12-.32-2.92-.63-5.84-1-9.15-.5,3.27-.38,16.2.1,17.56,4.21.38,27.67.2,29.15-.23V83.74a6.7,6.7,0,0,0-.59,2.27c-.31,3-.61,6-.91,9-.07.74-.3,1.31-1.52.93,0-.82.06-1.72,0-2.61a3.37,3.37,0,0,0-.54-1.8,3.8,3.8,0,0,1-.83-2.75c0-.8-.08-1.61-.15-2.69-.77.63-1.21,1.3-1.69,1.33-2,.12-4,.05-6.13.05L1139,59.59v-2.7h-.47Zm-14.44,110h29.49v-2.29H1124Zm29.54-66.47c-2.83-.38-28.06-.27-29.68.16l.15,2.12h29.53Zm-29.44,13.69a9.31,9.31,0,0,0-.1,1.18,12.31,12.31,0,0,0,.21,1.26h29.31v-2.44Zm0,16.21h29.44v-2.31c-2.59-.42-28-.31-29.44.12Zm0,22.8h29.44v-2.12c-2-.46-27.86-.41-29.44,0Zm29.4,20.76h-29.36v2.1h29.41c0-.52.1-.9.09-1.29A4.93,4.93,0,0,0,1153.47,176.65Zm0-4.65h-29.4v2.09h29.4Zm0-9.14h-29.36V165h29.36Zm-29.43-2.52h29.36V158.2h-29.36Zm0-9.11h29.36v-2.14H1124.1Zm29.36-6.78H1124.1v2.1h29.42c0-.52.1-.9.1-1.28A4.77,4.77,0,0,0,1153.46,144.45Zm.05-4.46H1124.1c0,.52-.1.9-.1,1.28a4.55,4.55,0,0,0,.17.82h29.34Zm-29.42-2.54h29.36v-2.13h-29.36Zm29.42-11.24H1124.1v2.11h29.41Zm-.06-4.65h-29.35v2.1h29.42c0-.52.1-.9.09-1.28A4.75,4.75,0,0,0,1153.46,121.56Zm.06-9.13H1124l.1,2.12h29.41Zm-29.42-2.51h29.36v-2.15h-29.36ZM737.79,47.12c.56-1.7.52-6.76,0-9.46C737.26,41.19,737.2,45.33,737.79,47.12Z"/><path class="cls-12" d="M640.46,241.15c2.7,0,5.05-7,8-7v-27h21v15h16c0-1.67,1.4-40.83,1.4-42.66l4.16-.18c0-2.41.12-4.77,0-7.1a2.91,2.91,0,0,1,1.82-3.1c2.47-1.35,4.84-2.87,7.36-4.39,2.8,1.7,5.6,3.41,8.42,5.08a1.45,1.45,0,0,1,.72,1.49c0,1,0,2.07,0,3.27h7v18.08h5.52c0-.42.13-.85.14-1.29q.38-17.72.75-35.43.65-32.68,1.26-65.36a2.35,2.35,0,0,1,1.51-2.46,23.42,23.42,0,0,0,2.23-1.25c.07-.18.18-.31.16-.42-.62-3.46-.19-4.34,3.18-5.48a49,49,0,0,1,5.15-1.14c.51-10.13.56-20.44,1.17-30.71l.44-.07a2.84,2.84,0,0,1,.41.88c.11,1.44.19,2.88.24,4.32q.42,12.3.83,24.6c0,.32,0,.64.07,1.1.47.06.91.12,1.35.19.93.16,1.88.25,2.79.5,4.05,1.09,4.66,2,4.23,6.14L751.51,89l1.89,93.41h9.06v13.8h6.88v-2c0-7.48,0-15,0-22.45a18.71,18.71,0,0,1,.49-4.08c1.35-5.82,2.77-11.62,4.18-17.43.12-.49.29-1,.54-1.79.26.85.45,1.4.58,2,1.46,5.93,2.94,11.85,4.32,17.8a24.9,24.9,0,0,1,.42,4.48c.07,1.49,0,3,0,4.54h16v-5.35l14.64,2.67v10.93h8.2V162.72H830v14.05c1.91.48,3.72.17,5.51.23s3.79,0,5.69,0h5.68c0,1.56-.38,29.64-.38,31.14,1.36,0,2.73,1,4,1,0-3.88.12-35.34.12-39.19l1.84-.32.11-1.64-1.39-.31V155.54l5.91-3.65c1.81,1.11,3.6,2.16,5.32,3.3a1.79,1.79,0,0,1,.72,1.25c.06,3.67,0,7.34,0,11.12l-1.43.4v1.8h5.14V174H882.6v-9h6.54c0,6.27.32,28.74.32,35.09h9s.39-16.29.43-16.34.11-.1.11-.15c0-9.78,0-19.55,0-29.41l16.7-7.59c0,9.63.76,52.08.76,61.5h8c0-1.57-.48-36.17-.48-37.81h17.16v-7.11h25.58v16.72h11.39V191.8h7.21V174.16h6.47v-7.74h18.87v7.65h4.14V195h12.78v-54.1H1033V113h4.91c.06-.75.13-1.31.13-1.88,0-4.92,0-9.85,0-14.77a4.31,4.31,0,0,1,1-2.89c1.24-1.56,2.34-3.22,3.58-4.78a5.22,5.22,0,0,0,1.14-3.24c.45-11.21,1-22.42,1.45-33.64,0-.45.09-.9.14-1.39,1-.3,1.5-.14,1.5.89,0,.33,0,.66,0,1q.44,16.83.87,33.66a4.68,4.68,0,0,0,.86,2.74c1.38,1.95,3.21,3.8,3.85,6s.23,4.94.24,7.43c0,3.41,0,6.83,0,10.24a2.5,2.5,0,0,0,.2.56h4.73v27.8h5.48V204h4.21v-30.5h10.66v-6.3h8.9v15.13h3.42V168.59h4.68v-3.31l-2-.21v-9.78l7-5.15c2.18,1.61,4.3,3.13,6.36,4.72a1.91,1.91,0,0,1,.68,1.29c.06,2.94,0,5.88,0,8.94l-2,.15v3.34h10.81v13.21c2.81,0,5.47.18,8.14-.09l6,.38.15,1.48q0,1,0,2.07V188q0,1.13,0,2.26c-.11.53,0,.9.65.93a13.09,13.09,0,0,0,1.79,0c1.13-.1,1.57.42,1.55,1.44v2.07l.1,1.41h3.15V188q0-1.17,0-2.33l0-2.1V181l.17-1.09h9.84l.19,1.07q0,1.32,0,2.65,0,1,0,2c0,.44,0,.88,0,1.35a4.86,4.86,0,0,0,.86.17c1.73,0,3.45,0,5.18-.07h2.78V170h15.08l.36,1.94h4c.08-3.54,0-7.11.05-11l11,2.85v5.69h5.36v8.57h6.22v6.28h9.54v-5.74h13.8V166.48h16.26c.12,1.87,0,3.81.05,5.74s0,3.8,0,5.71v6.15c1.89,0,3.68,0,5.48,0s3.65,0,5.47-.07v69.71H643.53c-.61,0-1.22,0-1.83,0-.22,0-.41.24-.62.38h-.81a9.17,9.17,0,0,0,.1-1m108.7-70.8c.25-3.92-13.21-93.24-14.54-96.82-1.55,4.25-10.76,103.93-9.91,107h5.15V188h7v-5.62Zm353.26-13.86v-3.25h-4.76v3.25Zm-248.07-.68.17,1.81h5.44l-.17-1.81Z"/><path class="cls-13" d="M641.09,254.14c.21-.13.4-.36.62-.38.6-.05,1.22,0,1.83,0h605.64c-.07.13-.13.37-.2.38-.54,0-1.08,0-1.62,0Z"/><path class="cls-14" d="M737.79,47.12c-.6-1.79-.54-5.93,0-9.46C738.31,40.36,738.35,45.42,737.79,47.12Z"/><path class="cls-15" d="M1139,59.59l-.62,0,.15-2.75h.47Z"/><path class="cls-16" d="M749.07,182.38H736.78V188h-7v4.59h-5.15c-.85-3.1,8.36-102.78,9.91-107C735.86,89.14,749.32,178.46,749.07,182.38Z"/><path class="cls-17" d="M1102.33,168.52h-4.76v-3.25h4.76Z"/><path class="cls-18" d="M854.26,167.85h5.44l.17,1.81h-5.44Z"/><path class="cls-19" d="M1137.44,185.64q0,1.17,0,2.33a.82.82,0,0,0-.39.09l-6.83,0q0-1.19,0-2.39Z"/><path class="cls-19" d="M1139,59.59l2.09,27.88c2.11,0,4.13.07,6.13-.05.48,0,.92-.7,1.69-1.33.06,1.08.16,1.89.15,2.69a3.8,3.8,0,0,0,.83,2.75,3.37,3.37,0,0,1,.54,1.8c.09.89,0,1.79,0,2.61,1.22.38,1.45-.19,1.52-.93.3-3,.59-6,.91-9a6.7,6.7,0,0,1,.59-2.27v16.82c-1.48.43-24.94.6-29.15.23-.47-1.36-.59-14.29-.1-17.56.36,3.31.67,6.23,1,9.15.12,1,.2,2.09.42,3.12.06.28.53.49,1.06.93.1-.85.19-1.29.19-1.73,0-1.44-.17-2.87,1.2-4,.35-.28.3-1.09.35-1.66.07-.87.06-1.75.09-2.85,1.38,1.27,1.38,1.27,3.2,1.27h4.37a11.6,11.6,0,0,0,.42-1.76c.32-4.25.6-8.5.9-12.75q.48-6.67,1-13.34Z"/><path class="cls-19" d="M1124,169.65v-2.29h29.49v2.29Z"/><path class="cls-19" d="M1153.53,103.18v2.28H1124l-.15-2.12C1125.48,102.91,1150.71,102.8,1153.53,103.18Z"/><path class="cls-19" d="M1124.09,116.87h29.42v2.44H1124.2a12.31,12.31,0,0,1-.21-1.26A9.31,9.31,0,0,1,1124.09,116.87Z"/><path class="cls-19" d="M1124.07,133.08v-2.19c1.45-.43,26.84-.54,29.44-.12v2.31Z"/><path class="cls-19" d="M1124.07,155.88v-2.08c1.58-.45,27.45-.5,29.44,0v2.12Z"/><path class="cls-19" d="M1153.47,176.65a4.93,4.93,0,0,1,.15.82c0,.38-.05.77-.09,1.29h-29.41v-2.1Z"/><path class="cls-19" d="M1153.51,172v2.09h-29.4V172Z"/><path class="cls-19" d="M1153.52,162.86V165h-29.36v-2.13Z"/><path class="cls-19" d="M1124.09,160.34V158.2h29.36v2.14Z"/><path class="cls-19" d="M1124.1,151.23v-2.14h29.36v2.14Z"/><path class="cls-19" d="M1153.46,144.45a4.77,4.77,0,0,1,.16.82c0,.38-.05.76-.1,1.28H1124.1v-2.1Z"/><path class="cls-19" d="M1153.51,140v2.1h-29.34a4.55,4.55,0,0,1-.17-.82c0-.38.05-.77.1-1.28Z"/><path class="cls-19" d="M1124.09,137.45v-2.13h29.36v2.13Z"/><path class="cls-19" d="M1153.52,126.21v2.11H1124.1v-2.11Z"/><path class="cls-19" d="M1153.46,121.56a4.75,4.75,0,0,1,.16.82c0,.38-.05.76-.09,1.28h-29.42v-2.1Z"/><path class="cls-19" d="M1153.52,112.43v2.12h-29.41l-.1-2.12Z"/><path class="cls-19" d="M1124.11,109.91v-2.15h29.36v2.15Z"/><path class="cls-19" d="M1137.46,181q0,1.29,0,2.59l-7.27,0-.16-1.48-6-.38c.17-1,1-.71,1.59-.72,3.49,0,7,0,10.47,0Z"/><path class="cls-19" d="M1147.66,183.58q0-1.32,0-2.65h5.82v2.65Z"/><path class="cls-19" d="M1153.7,187.05c-1.73,0-3.45.06-5.18.07a4.86,4.86,0,0,1-.86-.17c0-.47,0-.91,0-1.35h5.76Z"/><path class="cls-19" d="M1130.22,190.28h7.2v2.38h-3.22c0-1-.42-1.55-1.55-1.44a13.09,13.09,0,0,1-1.79,0C1130.26,191.18,1130.12,190.8,1130.22,190.28Z"/><path class="cls-19" d="M1134.21,194.73h3.24c0,.44,0,.87,0,1.42h-3.15Z"/><path class="cls-20" d="M1137.44,188.37l-.39-.3a.82.82,0,0,1,.39-.09Z"/><path class="cls-21" d="M750.09,182.13a38.33,38.33,0,0,1,4.09.06l.1,0c0-.44-.07-.81-.07-1.18,0-2.4-.06-4.8-.11-7.19q-.6-29.65-1.21-59.29-.3-14.59-.64-29.18a1.46,1.46,0,0,0-.62-1c-1.11-.71-2.28-1.34-3.16-1.83,0-1.15,0-2.06,0-3a2.21,2.21,0,0,0-1.29-2.17,13.54,13.54,0,0,0-6.63-1.87c-.64,0-1-.08-1-.88q-.38-12.94-.84-25.89-.3-9-.63-18H738l-1.5,44.61c-1.17.13-2.2.17-3.19.37a15.59,15.59,0,0,0-2.92.87c-2.73,1.14-3,1.57-2.82,4.45a8.64,8.64,0,0,0,.28,1.31c-1.12.64-2.28,1.23-3.35,1.94a1.74,1.74,0,0,0-.71,1.19c-.1,2.43-.1,4.86-.15,7.3q-.59,28.77-1.18,57.55-.43,21-.85,42a4.88,4.88,0,0,1-.1.67l2.47.06a.54.54,0,0,1,0-.09h-.15c3.24-37.55,5.87-75.13,10.74-112.53C740.23,114.24,745.52,148.06,750.09,182.13Z"/><path class="cls-16" d="M750.41,182.3H737.13v5.92h-7.59v4.84H724c-.92-3.27,9-108.34,10.72-112.82C736.13,84,750.68,178.16,750.41,182.3Z"/><polygon class="cls-22" points="1034.46 115.49 1056.46 115.49 1045.84 197.91 1034.46 115.49"/><rect class="cls-11" x="909.46" y="150.4" width="1" height="33.94"/><rect class="cls-17" x="958.46" y="166.15" width="6" height="14"/><rect class="cls-17" x="656.46" y="207.15" width="6" height="14" transform="translate(873.61 -445.32) rotate(90)"/><rect class="cls-23" x="0.46" y="251.15" width="1250.5" height="98.5"/><rect class="cls-24" x="822.46" y="163.4" width="1" height="33.94"/></g></g></svg>