<svg xmlns="http://www.w3.org/2000/svg" viewBox="0 0 594 587"><defs><style>.cls-1{fill:#cecece;}.cls-2{fill:#e6e6e6;}.cls-3{fill:#c6c6c6;}.cls-4{fill:#fefefe;}.cls-5{fill:#87868b;}.cls-6{fill:#e1e1e1;}.cls-7{fill:#c0c0c1;}.cls-8{fill:#bdbdbe;}.cls-9{fill:#bababc;}.cls-10{fill:#ddd;}.cls-11{fill:#878788;}.cls-12{fill:#929294;}.cls-13{fill:#b1b1b3;}.cls-14{fill:#8d8d8f;}.cls-15{fill:#d8d7d8;}.cls-16{fill:#bcbcbd;}.cls-17{fill:#99999b;}.cls-18{fill:#c3c3c4;}.cls-19{fill:#969698;}.cls-20{fill:#8e8d8f;}.cls-21{fill:#cdcdcd;}.cls-22{fill:#b7b7b7;}.cls-23{fill:#a3a3a5;}.cls-24{fill:#959597;}.cls-25{fill:#9c9c9d;}.cls-26{fill:#8a8a8b;}.cls-27{fill:#b3b3b4;}.cls-28{fill:#88878b;}</style></defs><title>Asset 10</title><g id="Layer_2" data-name="Layer 2"><g id="Layer_1-2" data-name="Layer 1"><path class="cls-1" d="M594,320v4c-.65.78-1.75,1.5-1.89,2.37-.82,4.89-1.34,9.83-2.08,14.74a271,271,0,0,1-22.43,73.55,286.27,286.27,0,0,1-44.77,69.29c-11.74,13.41-24,26.32-38.35,36.85-15,11-30.61,21.08-46.38,30.89-6.07,3.78-13.3,5.71-20,8.47-.64-.19-1.28-.37-1.91-.58-11.95-3.89-23-4.25-32.11,6.59-2.84,3.38-7,1.87-11,.63-7.5-2.32-15.22-4-22.89-5.72-1-.22-2.28.43-3.26,1-2.89,1.63-5.63,2.78-8.69.25a3.87,3.87,0,0,0-2.9-.27c-8,1.86-15.68,3.7-23.86-.71-4.21-2.27-6.91,1.5-5.19,6.35a19.28,19.28,0,0,1,.42,2.67c-3.7-.61-7.23-.44-10-1.81a43.62,43.62,0,0,1-11.22-8c-1.23-1.22-.36-4.53-.5-6.89,0-.82,0-1.87-.45-2.39-1-1.15-2.28-2.56-3.63-2.81-.82-.16-2.16,1.53-3,2.59-3,3.76-5.88,7.61-9,11.67L264,559c2.72-3.32,5.58-6.42,4.83-11.39a84.15,84.15,0,0,1-.72-12.84c0-1.18,1.25-2.37,1.92-3.55a23.87,23.87,0,0,1,2.87,3.37,24.66,24.66,0,0,1,1.57,4.19l1.2-.38.67-5.87,7,11.44,2-.74c-.7-3.18-1.33-6.38-2.1-9.54-.69-2.84-1.95-5.62-2.18-8.49s1.6-3.69,4.31-2.46c5.29,2.39,6.32,7.21,3.11,13.21-.79,1.47-1.3,4.3-.5,5.15,1.41,1.5,4.42,3.19,5.88,2.61,3.91-1.56,7.37-4.27,11-6.55,1.05-.66,2-1.42,3.07-2.14,5.2,4.26,14.48,1.67,19.43-6.4l-3.92-1.87.56-.76,9.67,2.14v-5.4L349,524.54c-2-5.47-11.85-4.12-8.66-13.16-2.58.94-3.9,1.36-5.16,1.89s-2.61,1.24-3.25,1.55a51.54,51.54,0,0,0-5-3.5c-.2-.11-1.8,1.29-1.77,1.93.31,5.21-4.27,5.69-7.21,7.74l4-16c1.39-.33,3-1.32,4.14-.89,10.16,4,16.27-2.53,22.4-8.62,1.13-1.12,1.38-3.66,1.13-5.41-.15-1-2.22-2.7-3.15-2.54-1.24.22-2.48,1.78-3.27,3-3.4,5.44-7.38,6.11-15.16,1.85,6.18-1.79,12.2-3.35,12.22-11.09,0-.43,2.11-1.5,2.72-1.2,6.2,3,9.54-3.2,14.46-4.39l-20.31,1.57-.12-1.58c4.51-.56,9-1.32,13.53-1.62,4.84-.32,9-1.38,11.66-7.68l-17.69,3.73-.75-1.47a19.53,19.53,0,0,1,2.47-3.21A101,101,0,0,1,356.66,457c2.8-1.84,3.77-4,3.32-7,3.19-2.36,6.47-4.61,9.5-7.15.84-.71,1-2.28,1.29-3.5.06-.3-1.18-1.2-1.24-1.15a23.19,23.19,0,0,0-2.58,2.56c-.52.6-.89,1.32-2,3-2.16-2.86-3.89-5.32-5.81-7.62-1.34-1.59-2.72-3.41-4.49-4.32-3.34-1.72-3.6-4.16-1.39-6.33,1.94-1.9,4.84-2.83,8-4.59.42,5.24,2.78,6.53,6.51,6.13a5.7,5.7,0,0,1,2.86.72c4,1.93,6.64,0,8.9-3.05,1.29-1.72,2.53-3.49,3.73-5.27,2.27-3.39,5.34-4.66,9-2.68s3.25,5,1.74,8.23l-12,6a31.93,31.93,0,0,0-5.9,2.23c-.91.55-1.93,2.81-1.58,3.26,3,3.85.86,6.65-1.53,9.49l-8.17,5.35L375,455l2,2c5.57,1.48,8.25-.08,12-7l3-4,2-3,5-5,5-3,5-2h3l3,2-1,3c-10.19,0-13.49,9.74-20.48,14.12L412,446l-10,13c-2.41-4.45-5.17-1-7.33,0-5,2.35-9.63,5.57-14.66,7.87-5.86,2.68-12,4.75-18,7.09l-1.56,1.24L362,476l0,.07-2.71,4.22a21.7,21.7,0,0,0,8.85-1.36c6.7-2.19,13-5.14,20.6-2.07,5.06,2.05,10.87,2.53,16.4,3.1,14.32,1.49,27.78-3.72,41.6-6,8.48-1.43,12.25-5.8,11.33-14a13.72,13.72,0,0,1,6.17-13.37c1.33-.91,3.67-1.56,5-1,4.08,1.68,7.89,4,12.74,6.56-2.75,1.27-5.47,2.77-8.36,3.82-9.25,3.37-10.67,5-10.61,13.08-1.89,1.91-3.44,4.65-5.73,5.6-14.55,6-29.38,11.38-43.83,17.62-4,1.72-8.91,3.57-10.77,9.42,2.77.52,5,1,7.22,1.34,5.74.74,11.68.83,15.19,6.77.48.82,2.27,1.17,3.47,1.2,12.58.33,23.33-4.14,32.57-12.57a32.63,32.63,0,0,1,5.85-4.57c.8-.45,3.22.2,3.49.9,1.65,4.24-5.55,14.07-10.21,14.28-7.24.33-10.47,3.2-12.63,10.32-.63,2.07-2.7,3.66-3.92,5.59-2.9,4.57-5.82,9.14-8.37,13.91-.41.76.9,3.53,1.74,3.69,6.81,1.28,12-4.1,10.65-10.79-1.09-5.54.31-7.4,5.68-7.71a44.82,44.82,0,0,0,27.79-11.83c2.51-2.24,4.43-4.76,8.47-3.31,1.15.42,3.37-.53,4.37-1.56,6.13-6.26,12.06-12.71,18-19.14.36-.39.61-1.44.37-1.72a3,3,0,0,0-2-1c-1.8,0-3.77.82-5.37.32-6-1.9-11-.12-15.84,3.39-5.66,4.07-11.58,7.78-17.38,11.65l-1.07-.83c2.31-4.69,4-9.83,7.11-14s7.49-7.17,12.22-11.52c-4.6-.63-7.74-.83-10.76-1.56-2.12-.51-4.07-1.73-6.09-2.63L476,465l22-9v8.91c10.53-3.69,18.13-14.72,16-23.13l-12.89,8.34c-1.07-1.75-1.81-3.9-3.29-5.18-4.28-3.73-9.16-7.16-9.74-13.25-.39-4.1.59-8.34,1-12.51L493,415l11.91.05,6.09-2c7.23-1.63,12.89.37,16.6,7.06.39.7,1.19,1.16,1.73,1.78,2.39,2.77,5.24,3,7.9.8s3.56-4.9,1.48-8.33c-1.32-2.18-1.83-4.84-2.7-7.29l4.55-14c2.91,2.91,7.54,1.89,8-1.63.8-6.36,3.95-11.36,7.3-16.52,2-3.12,2.94-7,4.36-10.48l2.74-5.12c-6.92-6.31-4.76-18.93,3.57-23a5.15,5.15,0,0,0,2.49-3.42,60.14,60.14,0,0,0-3.65-29.17c-1-2.54-2.23-5,.28-7.81.8-.89,0-3.81-.9-5.38-.46-.85-3-1.55-3.85-1-5.89,3.78-8-.63-10.27-4.51-2.83-4.79-4.44-10.35-9.68-13.56-1-.59-1.14-3.21-.94-4.8.48-3.86-.41-6.52-4.62-7.3-2.11-.39-4.19-.93-6.28-1.4.53-2,.43-4.86,1.72-5.77,2.75-1.94,1.7-3.88,1.2-6h6.32a57.53,57.53,0,0,0-3-6.24c-2.08-3.16-1.29-5.34,1.88-7,3.66,4.58,7.35,9.15,11,13.76,6.2,7.87,13.32,7.4,19.32-.56,3.87-5.14,6.67-9.83,2.59-16-.31-.47-.07-1.3-.08-2l0,0,4.79,1.74c2.16,7.06,6.71,11.35,14.19,12.27.68,3.49,1.24,7,2.06,10.47s2,7,3,10.51v57ZM560,423c-3.56,2.16-7.77,3.7-10.53,6.61-5.18,5.46-9.65,11.62-14.14,17.69-1.94,2.62-3.2,5.75-4.77,8.64l1.53,1.43c1.91-1.23,4.32-2.07,5.65-3.76,7.33-9.3,14.42-18.79,21.54-28.25A7.56,7.56,0,0,0,560,423l1.3-.4-.26-.38Zm-27,17c-1,1.33-2.1,2.64-3.12,4-1.65,2.17-3,5.93-5,6.24-6.38,1-10,4.85-13.41,9.69-1,1.43-2.78,2.31-4.17,3.48-2.61,2.21-4.63,4.83-2,8.06,2.79,3.4,5,.3,7-1.38a33.38,33.38,0,0,0,4.42-4.72c3.42-4.22,6.5-8.74,10.2-12.7,3.43-3.67,5.76-7.61,6-12.66l.84-2-.68-.19Zm52.89-158.35c-.2-3.05-1.12-6.32-.46-9.23,1.88-8.28,1.89-8.91-4.94-13.72-.83,2-1.8,3.88-2.45,5.9s-1.41,4-1.2,5.92A51.58,51.58,0,0,0,579.17,281c.33,1,2.15,1.92,3.4,2.1C583.57,283.26,584.73,282.21,585.88,281.65ZM577.54,285c-1.45,4.58-3.22,9.35-4.36,14.27-.34,1.48.66,3.66,1.71,5,1.48,1.87,3.59,3.24,6,5.34.46-2.14,1.69-4.52,1.28-6.59C581,297,579.18,291.14,577.54,285Z"/><path class="cls-2" d="M266,587c-1.12-.67-2.19-1.8-3.36-1.93-25.3-2.72-50-8.22-73.41-18.15-15.23-6.46-29.83-14.37-44.71-21.66A8.89,8.89,0,0,1,143,544c2.9-3.4,5.93-2.36,9.25-.56,4.33,2.34,8.67,4.9,13.33,6.27,2.47.73,6.82,2,8.06-2.39s-2.24-6.61-5.07-8.91c-.73-.59-1.92-.58-2.75-1.09a32.89,32.89,0,0,1-3.31-2.78,15.25,15.25,0,0,1,13.15,2.5,26.72,26.72,0,0,0,8.39,4c5,1.22,10.24,1.73,15.5,2.55-4,6.48-2.64,8.09,9.86,12,1.77,7.85,3.28,9.56,10.09,8.21,7-1.39,13.37-.17,20,1.65,2.85.77,6.54,0,9.38-1.16,3.6-1.51,6.73-4.16,10.06-6.31l5,1,4.9,3.77c3.12-4.06,6-7.91,9-11.67.85-1.06,2.19-2.75,3-2.59,1.36.26,2.59,1.67,3.63,2.81.47.52.4,1.57.45,2.39.14,2.36-.73,5.67.5,6.89a43.62,43.62,0,0,0,11.22,8c2.78,1.37,6.31,1.21,10,1.81a19.28,19.28,0,0,0-.42-2.67c-1.72-4.85,1-8.61,5.19-6.35,8.18,4.41,15.85,2.57,23.86.71a3.87,3.87,0,0,1,2.9.27c3.06,2.53,5.81,1.39,8.69-.25,1-.55,2.29-1.21,3.26-1,7.67,1.75,15.38,3.39,22.89,5.72,4,1.24,8.17,2.75,11-.63,9.13-10.84,20.17-10.48,32.11-6.59.63.21,1.27.38,1.91.58-2.25,1.53-4.32,3.51-6.78,4.52-22.12,9.08-45.12,15.07-68.64,19.16-3.73.65-7.57.66-11.32,1.23-1.19.18-2.25,1.26-3.37,1.92Z"/><path class="cls-3" d="M1.88,323.06,0,323V263c1-3.22,2.45-6.38,2.9-9.68A270,270,0,0,1,26,174l6,5c-2.59,4.78-5.79,9.25-5.16,15.25.56,5.35,1.11,6,6.38,5.58,1.14-.1,3.08.44,3.43,1.24,1.79,4-1.51,8-5.78,7.9-1.66,0-4.42,1.06-4.84,2.27-1.94,5.58-3.28,11.36-4.66,17.12a2.61,2.61,0,0,0,1.29,2.23,3.78,3.78,0,0,0,3.06-.62c1.17-1.11,1.71-2.92,2.93-4,.63-.54,2.14-.05,3.25,0l2,1.87,4,0c6.09,1,.81,7.49,4.65,9.58.1.06-.06.6-.1.94l-3.41,2.58c1.57,3.24,5.67,6.53-.84,8.62-.57.18-1.13,2.59-.68,3.39,2.23,3.94,5,7.55,7.15,11.54,1,1.94,1,4.45,1.42,6.7l-6.21.7c-.23,2-.44,4.77-.89,7.47-.6,3.6-.51,7.69-2.28,10.64-2.78,4.63-5.21,8.32,1,11.85.63.36.88,1.38,1.31,2.09l-3.22,1.29c-4.8-3.51-9.39-2.76-10.67,1.87a24.75,24.75,0,0,0-.38,4.89c-2.37,1-4.81,1.78-7.11,2.88-3,1.46-6,3.16-9,4.71C6.49,320.77,4.18,321.91,1.88,323.06Zm16-29.77c-3.77,4-3.83,6-.26,10.19C22.4,299.45,22.48,296.56,17.83,293.3Z"/><path class="cls-2" d="M320,0c.95.66,1.82,1.75,2.85,1.92,15.21,2.43,30.45,4.72,45.67,7.14.93.15,1.73,1.12,2.59,1.71-3.58,1.33-7.08,3.34-10.78,3.81-4.74.6-10,1.06-14.38-.39-7.82-2.59-11.23-1.27-12.17,6.7,0,.27-.4.5-1,1.22a64.63,64.63,0,0,0-8.28-2c-2.1-.25-4.78-.27-6.3.84-.88.64,0,3.72.12,5.71a19.11,19.11,0,0,0,.39,2.1l-4.67.39c-2.39-1.6-4.76-3.24-7.19-4.78C305,23.16,303,22.08,301.07,21s-4-2.14-6-3.21c1.6-2.06,2.9-4.52,4.91-6.05,1.47-1.12,3.88-1,5.87-1.45-.74-1.9-1.73-2.91-2.9-3.2-2.39-.59-4.88-.79-7.33-1.17-7-1.08-7-1.08-7,5.36l-5.85,2.12v7.38c-2.32-.56-6.38-.67-6.66-1.76-1.15-4.49-4.65-3.84-7.87-4.44v-5c-7.87.76-15.51.91-22.89,2.37-6.61,1.31-12.93,4-19.38,6.15-1.28.3-2.56.66-3.85.89-8.2,1.47-8.2,1.46-8.17,9.48,0,9.45-.4,10-10,11.73-2.26.41-4.57.53-6.86.82-9.53,1.23-18.93,2.39-26.5,9.58-2.73,2.59-6.88,3.94-10.6,5.14-2.86.92-5.41-.61-5.65-3.9C154,46.93,154.1,42,154,37.1c9.46-4.69,18.71-9.85,28.41-14a281,281,0,0,1,59.8-17.6c9.39-1.69,19-2.33,28.43-3.61C272.15,1.73,273.55.66,275,0Z"/><path class="cls-4" d="M0,312v0Z"/><path class="cls-4" d="M0,268v0Z"/><path class="cls-4" d="M594,272v0Z"/><path class="cls-4" d="M594,320v0Z"/><path class="cls-5" d="M529.09,257.81c2.09.47,4.17,1,6.28,1.4,4.21.78,5.1,3.44,4.62,7.3-.2,1.59,0,4.21.94,4.8,5.24,3.21,6.86,8.76,9.68,13.56,2.29,3.88,4.38,8.29,10.27,4.51.8-.52,3.38.18,3.85,1,.86,1.57,1.7,4.49.9,5.38-2.51,2.8-1.28,5.26-.28,7.81A60.14,60.14,0,0,1,569,332.78a5.15,5.15,0,0,1-2.49,3.42c-8.33,4.11-10.49,16.73-3.57,23l-2.74,5.12c-10.74-8.79-21.37-17.69-32.27-26.26-2.49-2-5.89-2.77-8.87-4.11.58-8.27-5.43-13.16-9.24-20.05,1-2,2.76-5.05,4.07-8.27,3-7.42,2.92-7.46-4.65-10.4-.13,0-.32.06-1.16.26l1.51,8.17a6.8,6.8,0,0,1-1.28.23,1.65,1.65,0,0,1-.94-.27c-5.58-4.83-11.63-6.23-18.39-2.58l.82-8.57-3.63.38-8-7.5V293a64.21,64.21,0,0,0-1.06,7.77c-.06,2.86-.77,4.86-3.91,5.26a6.77,6.77,0,0,1-2-.22c-9.69-4.24-19.22-8.87-29.07-12.66-6.85-2.63-14.15-4.11-21.24-6.1l-8.35.47c-4.4-4.19-4.59-10.38-1.77-17.1,4.9-1.64,5.25-2.39,2.58-6.81a38.71,38.71,0,0,0-3.42-4.22c-1.82-2.23-5.68-4.3-.4-7.06.46-.24.46-2.26,0-3.11a48.13,48.13,0,0,0-3.6-5.24L402.05,236l1.86-1.86,7.66-.76L414.9,237c.4-2.35.55-4,1-5.56.93-3.62.74-8.47,7.12-6.13.8.29,3-1.76,3.72-3.16.82-1.62.7-3.71,1.09-6.3-2,.72-3.27,1.53-4.65,1.64-4.69.37-9.54,1.27-14.07.49-4.82-.82-9.35-3.33-14-5.1L378,204.42l-.8,1.38,3.35,5.8,3.51-.39,2.1,7.7-.21.21-7.57-2.29L378,221l-9.43-6-7.23,9.79c1.86,7.39,9,3.64,12.46,6.44l-7.49,5.53,3.67,4.73c2.53-5.5,6.69-5.47,10.89-5.34l6.24,2.15-8.34,2.59a27,27,0,0,1,1.41,4,10.12,10.12,0,0,1,.07,4.18c-.77,3-1.86,6-3.28,10.39L361.07,256c-3.19-4.51-8-4.67-12.86-5.07a13.12,13.12,0,0,1-7.37-2.85c-7-6.44-8.22-6.71-17.09-2.49-2,1-4.46,1.1-6.71,1.61,7.54-5.14,8.79-7.75,5.72-13.54-5.22-9.85-2.64-15.77,7.84-18.83,1.57-.46,2.77-2.56,3.8-4.13.23-.36-.78-2.11-1.56-2.45-5.55-2.43-5.75-3-2.31-8.9,6.13,2.09,7.87,4.43,7.46,10.45-.19,2.85,1.31,3.47,3.65,3.28,4.38-.36,8.15.31,10.8,4.53.47.75,3.44-.08,5.25-.18-.83-2.24-1.19-4.87-2.64-6.58a7.11,7.11,0,0,0-5.52-2.3c-4.84.8-7.19-.76-7.8-6.71l10.08,2.44c-.16-3.49-.39-6.2-.4-8.92,0-9.82,4.7-18.57,6.4-28,.76-4.24,0-5.52-4.33-5.29-2.12.11-4.23.6-6.34.92.18-1.47.39-2.93.54-4.4.66-6.81.36-13.7-5.17-18.4-8-6.83-5.77-15.18-4.34-23.41.19-1.09,3.66-2.81,4.7-2.31,2.89,1.37,5.31,3.75,7.91,5.73,1.15,3.79,2.46,7.55,3.38,11.4a9.49,9.49,0,0,1-.29,4.92c-1.3,4-2.93,7.82-4.42,11.73l1.58,1a85.71,85.71,0,0,0,8.59-5.61c1.77-1.46,4-3.66,4.12-5.6.24-7.1,1.45-13.32,8.58-16.73.14-.07.21-.29.35-.34,1.77-.64,3.61-1.94,5.3-1.76,10.28,1.06,19.32,5.86,28.62,9.88a62.19,62.19,0,0,0,7.44,2.21l7.74-1.06.77-2L404.11,114l.8-2.22,6.89-2.18-1.29-4.22,10.42,3.78,3.25,2.78-.12,1.2-8,1.85-.18,1.53,7.11,5.57,1.13,5.86c-.51,3.92-.05,8.32-1.7,11.68C415,154.78,410.92,171,407.2,187.28c-.87,3.83-.78,7.89-1.13,11.84a6.25,6.25,0,0,0,2.87-3.63c4-11.74,7.37-23.71,12-35.17,4.27-10.49,5.84-21.32,7-32.35l1-2c2.63-1.73,3.56-6.18,8-5l0,4c-3.1,2.38-2.67,4,1,5l2.09,3.09-3,3.05c-.8,10.88,2.13,15.81,10.42,17.16,2,.32,4.06,0,6.86,0-5,7.83-.2,11.72,6.82,16.65a14.88,14.88,0,0,1-5,3.16c-3.83,1.85-3.76,4.62-1.77,7.81,1.85,3,3.88,5.82,5.42,8.94.58,1.18.6,3.73-.14,4.27-2.08,1.53-2.77,2.84-1.85,5.37.32.88-.84,2.28-1.28,3.46s-1.45,2.94-1.06,3.32a5.84,5.84,0,0,0,3.75,1.53,49.16,49.16,0,0,0,7-.9l-2.23,8.69h12.78V203.84l9.24,5.31,1.3-.83L482,187.82c4.57,1.57,8.13,2.38,11.2,4.07,1.15.63,1.57,3.31,1.6,5.07,0,1.36-1.24,2.69-1.62,4.12-.81,3-.46,5.17,3.65,5,2.56-.11,5.16.68,7.74,1.06l.56,2.89c-2.32,3.09-7,4.8-5.67,10,1,3.84,1.92,7.69,2.62,11.59,1,5.55,4.33,8.46,9.55,10.21,4.26,1.43,8.2,3.8,12.24,5.85a2.19,2.19,0,0,1,.78,1.66c.06,3.42-3.72,7.28-7.36,7.66-1,2.45,5.07,6.1-2.12,7.62,3.75,1.42,4.74,6.53,10.22,4.54l-4.21-7.5Zm-.41,36c.77-.33,1.27-.41,1.3-.58,1.27-6.62,2.88-13.21,3.57-19.9.32-3.07-2.27-4-5.23-2.7l-.54,4.87c-10-2.19-13,4.31-8.51,20.27l5.87-17.66C532.22,282.28,526.6,288.85,528.68,293.79Zm-99.26-72.66-.15,2.48c2.11,1.34,4.09,3.26,6.38,3.76,1.15.25,4.06-2.12,4-3.28,0-2-1.73-5.52-2.73-5.52C434.45,218.55,431.93,220.16,429.42,221.13Zm-55.87-13.89-8.75-6.71L363,207.06l7.49,5.09Z"/><path class="cls-6" d="M264,559l-5-1c.3-3.12.74-6.23.85-9.35.09-2.46.71-5.64-.53-7.25-3.44-4.47-2.18-9-1.76-13.74s1.83-9.43-2.4-14.87c-10.68,18.05-20.75,35.68-39.23,47.19a16,16,0,0,1,1.08-2.39c8-10.73,16.22-21.32,24-32.24,2.61-3.68,4.06-8.19,6-12.33l.22-.43L247,513l-7.42-3.21-7.4,1.61,4.38-6.94c-2.27-.21-3.62-.11-4.8-.51a20.36,20.36,0,0,1-3.55-2c.83-1.08,1.47-2.42,2.53-3.18s3-.86,4.05-1.77c1.25-1,2-2.68,3-4.05a23.59,23.59,0,0,0-4.16-1.87c-3.87-.93-7.79-1.62-12.45-2.57,3.84-6.24,7.84-.67,11.73-2.1l-8.36-4.25.32-.93,21.65,3c-3.82-4.79-7.3-6.45-12.07-6.35-3.19.07-6.47-1.08-9.58-2.09-.77-.25-1-2.05-1.54-3.14,1-.34,2-1.14,2.88-1,4.63,1,9.21,2.2,13.81,3.33l.42.23L240,475c-.53-.77-1.07-1.53-1.58-2.32L218,441l4.05,1,2.85,2.47c1.47,2.66,2.66,5.54,4.5,7.92,1.41,1.82,3.64,3,5.51,4.46L239,460l13,14,1,1,.41.24L253,475l-1-1-13-14-10.91-18-.08-2,3.19-.18a4.3,4.3,0,0,1,.78.24c5.06,12.86,13.46,23.14,24.1,32,2.56-4.68,1.56-7.68-2.14-11.21-2.25-2.15-3.66-5.17-5.43-7.81-1.42-2.11-2.36-5.35-4.3-6.14-4.9-2-5.8-5.35-5.19-9.86a41,41,0,0,1,5.53-1.72c5-.84,10.21-.9,15-2.34,3.69-1.1,5.55-.73,6.46,3,1.48,3.32,3.71,2.33,6,1l4-1,2-1,2,.16,2,.83c.95.62,1.83,1.64,2.85,1.79,3.8.56,7.64.84,11.7,1.25l1.24-2.7c4.62.71,4.4,3.08,3.12,4.82,4.32,4.77,8.63,8.79,12,13.47,6.54,9,12.63,18.17,11.19,30.39-.87,7.38-.29,7.44-7.94,9.19-.3.07-.46.7-.71,1.1,2.78,2.25,7.72-3,9.37,3.46L317,505l-1.05.75L317,505h5l-4,16c1.61,6.35-3.52,13.52-10,14-1,.72-2,1.47-3.07,2.14-3.62,2.28-7.07,5-11,6.55-1.46.58-4.47-1.11-5.88-2.61-.8-.85-.29-3.68.5-5.15,3.21-6,2.18-10.81-3.11-13.21-2.71-1.22-4.54-.42-4.31,2.46s1.49,5.64,2.18,8.49c.77,3.16,1.41,6.36,2.1,9.54l-2,.74-7-11.44-.67,5.87-1.2.38a24.66,24.66,0,0,0-1.57-4.19,23.87,23.87,0,0,0-2.87-3.37c-.67,1.18-1.92,2.36-1.92,3.55a84.15,84.15,0,0,0,.72,12.84C269.57,552.58,266.71,555.68,264,559Zm8.42-73c-1.33,0-2.67-.1-4,0-9.49.84-15.14,9.3-11.33,17.52C260,509.79,266,511,272.16,511c7.48-.07,13.94-6.64,13.84-13.88C285.9,490.14,280.85,486,272.41,486Zm-16.74-49.77c-4.31.06-7.88,3.14-7.8,6.72s3.25,6.07,7.69,6,7.55-2.57,7.53-6.19C263.08,439.39,259.46,436.19,255.67,436.24Zm-21,51.37a1.32,1.32,0,0,0,.43.13s.09-.23.13-.35a1.32,1.32,0,0,0-.43-.13S234.76,487.49,234.71,487.61Z"/><path class="cls-7" d="M394,425c1.51-3.19,1.76-6.33-1.74-8.23s-6.72-.71-9,2.68c-1.2,1.79-2.44,3.55-3.73,5.27-2.26,3-4.89,5-8.9,3.05a5.7,5.7,0,0,0-2.86-.72c-3.72.41-6.09-.89-6.51-6.13-3.2,1.76-6.1,2.69-8,4.59-2.22,2.17-2,4.61,1.39,6.33,1.77.91,3.16,2.73,4.49,4.32,1.93,2.3,3.65,4.77,5.81,7.62,1.13-1.71,1.5-2.43,2-3a23.19,23.19,0,0,1,2.58-2.56c.07-.06,1.3.85,1.24,1.15-.25,1.22-.45,2.8-1.29,3.5-3,2.55-6.31,4.79-9.5,7.15l-1,0c0-8.61-3.75-12.74-10.64-11.91-3.43.41-6.88.59-10.32.88-1.18-1.34-2.1-3.26-3.59-3.92-4.75-2.1-5.35-3.54-2.46-8l9-14c2.86-5.88,10.44-8.88,10.1-17-2.13.85-4.44,1.89-5.25,3.63-2,4.28-3.29,8.88-4.87,13.35l-3.16,3.76c-2.14-1.13-3.68-1.92-5.19-2.76s-2.77-1.59-4.14-2.38c-1.09,1.83-1.73,4.15-3.24,5.19-3,2-6.47,3.22-9.65,4.93-3.44,1.85-6.61,1.79-9.66-.74l2-10c1.56-2.7,3.24-5.33,4.64-8.11,1.28-2.55,2.26-5.26,3.38-7.89a13.32,13.32,0,0,1,2.67-1.1c5.05-.91,8-7.81,14.37-4.93,4,2.08,8.09,3.95,13,.89L344,389c-.53-4-3.64-2.73-6-2.95h0a15.51,15.51,0,0,1,2.38-3c1-.78,3.27-.93,3.43-1.69,1.07-5.08,5.3-6.2,9.13-8,5.18-2.38,10.25-5,15.5-7.24,4.36-1.83,8.92-3.15,13.37-4.76a1.74,1.74,0,0,0,.92-1.11c1.24-5.87,6.09-7.42,10.73-9.71,5.57-2.75,10.7-6.39,16-9.73.42-.27.42-1.2.61-1.83a15.07,15.07,0,0,1,2.8.93c4.15,2.33,5.46,7,3.15,11.66-2.42,4.88-5.65,1.23-8.47.53A23,23,0,0,1,403,350l-1.73-1.78L400,349.94c-.55.33-1.57.64-1.58,1-.12,6.13-.22,12.27,0,18.39,0,.9,1.74,2.52,2.5,2.43a4.73,4.73,0,0,0,3.27-2.34c3.36-7.81,9.49-10.88,17.63-11.42,6.13-.41,8,.73,9.18,7a41.7,41.7,0,0,0,1.32,6.31,40.92,40.92,0,0,0,2.91,5.52c1.26-1.51,2.5-3,3.78-4.53a8.7,8.7,0,0,1,1.27-1c3.35,4.79,3,9.45.08,13.94s-2.69,8.68.71,12.76c-5,3.92-12.28,4.46-15.67,10.75-.26.48-1.15.6-1.74.92-6.34,3.42-12.66,6.9-19,10.25C401.13,421.71,397.55,423.31,394,425Zm-19.26-41.1c-2.42,3-6.64,4.12-5.22,8.84C375.3,391.52,376.5,389.67,374.76,383.91Zm-25-3c-.58-.33-1.08-.8-1.28-.69-.42.22-.69.74-1,1.14.41.16.83.47,1.21.43S349.34,381.29,349.81,380.89Z"/><path class="cls-8" d="M394,425c3.53-1.7,7.11-3.3,10.58-5.11,6.38-3.35,12.69-6.83,19-10.25.58-.31,1.48-.44,1.74-.92,3.39-6.29,10.69-6.83,15.67-10.75,1.46.74,3,1.42,4.38,2.22,5.7,3.23,6.05,8.38.83,12.63C439.2,418.59,432.08,424.28,425,430a30.84,30.84,0,0,0-4.17,1.9c-.34.22-.1,1.38-.12,2.11l2.34-.07c3.31-.85,7.24-.84,9.82-2.71,8.13-5.87,16.84-11.24,21.86-20.56,1.2-2.22,3.54-3.83,5.35-5.73,1.94,1.54,3.81,3.19,5.86,4.57,1,.67,3,1.48,3.42,1.06a5.05,5.05,0,0,0,1.49-3.81c-.25-1.86-1.3-3.63-2.1-5.4-.53-1.17-1.23-2.27-1.85-3.4l1.38-.93,7.64,9.11a32.77,32.77,0,0,0,3.06-2.57c2.92-3.19,6-.81,8.65.18.83.31,1,3.8.61,5.63-.73,3.31-2.12,6.47-3.5,10.46l4.32-.68c-.37,4.18-1.34,8.41-1,12.51.57,6.09,5.46,9.52,9.74,13.25,1.48,1.29,2.21,3.43,3.29,5.18L498,456l-22,9c-1.76,0-3.67-.37-5.24.19A68.29,68.29,0,0,0,463,469c-.06-8.06,1.36-9.72,10.61-13.08,2.89-1.05,5.61-2.55,8.36-3.82-4.85-2.56-8.66-4.88-12.74-6.56-1.33-.55-3.68.1-5,1a13.72,13.72,0,0,0-6.17,13.37c.92,8.18-2.85,12.55-11.33,14-13.82,2.32-27.27,7.53-41.6,6-5.53-.57-11.34-1-16.4-3.1-7.56-3.07-13.9-.12-20.6,2.07a21.7,21.7,0,0,1-8.85,1.36l2.71-4.22c6.87-1.67,13.72-3.43,20.61-5,7.87-1.79,13.72-6.74,19.38-12.05l10-13,4.91-6,.53-1.49-1.49.52L414,438l1-3c-.08-2-.07-4.2-3-2h-3c-2.21-2.8-3.16-2.42-5,2l-5,3c-5-1.58-5-1.58-5,5l-2,3-3,4c-3.75,6.89-6.43,8.44-12,7l-2-2-10.16-3.68L373,446,376,451.1c.65-4.2,1.94-7.84,1.52-11.28-.34-2.81.08-4.28,2.24-5.8,1-.67,1.48-2,2.19-3Zm-7.41,16.56-1.45-.1v4.13h1.45Z"/><path class="cls-9" d="M463,469a68.29,68.29,0,0,1,7.75-3.79c1.57-.55,3.48-.16,5.24-.19l-2.75,5.28c2,.9,4,2.12,6.09,2.63,3,.72,6.15.92,10.76,1.56-4.73,4.35-9.16,7.42-12.22,11.52s-4.8,9.26-7.11,14l1.07.83c5.81-3.87,11.73-7.57,17.38-11.65,4.87-3.51,9.81-5.28,15.84-3.39,1.59.5,3.57-.32,5.37-.32a3,3,0,0,1,2,1c.24.27,0,1.33-.37,1.72-5.95,6.43-11.88,12.88-18,19.14-1,1-3.22,2-4.37,1.56-4-1.46-6,1.07-8.47,3.31A44.82,44.82,0,0,1,453.43,524c-5.37.32-6.78,2.18-5.68,7.71,1.32,6.69-3.84,12.07-10.65,10.79-.83-.16-2.14-2.93-1.74-3.69,2.55-4.77,5.47-9.34,8.37-13.91,1.22-1.93,3.3-3.52,3.92-5.59,2.16-7.12,5.39-10,12.63-10.32,4.66-.21,11.86-10,10.21-14.28-.27-.7-2.69-1.35-3.49-.9a32.63,32.63,0,0,0-5.85,4.57c-9.23,8.43-20,12.9-32.57,12.57-1.2,0-3-.39-3.47-1.2-3.51-5.93-9.45-6-15.19-6.77-2.24-.29-4.44-.82-7.22-1.34,1.86-5.84,6.8-7.7,10.77-9.42,14.45-6.24,29.28-11.59,43.83-17.62C459.58,473.65,461.13,470.91,463,469Z"/><path class="cls-10" d="M308,411l-2,10c-2.14,2.12-3.67,11-2.22,13.08,1.63,2.33,3.15,1.84,4.73-.14,1.21-1.51,2.59-2.89,4.3-4.77l4.36,12.15c4-2.21,6.36-4.68,4.22-8s-1.14-6,.74-8.17c2.71-3.2,6.09-5.82,9.19-8.69l2,1.08c-.2,1.69-.38,3.38-.6,5.07-.2,1.47-.45,2.94-.68,4.41-2.88,4.5-2.29,5.95,2.46,8,1.48.65,2.41,2.58,3.59,3.92l10.66,4.55c-.11.55-.84,1.93-.51,3,.39,1.26,1.55,3,2.62,3.18,2.66.5,5.46.25,8.2.3l1,0c.44,3.08-.52,5.2-3.32,7a101,101,0,0,0-10.41,8.45,19.53,19.53,0,0,0-2.47,3.21l.75,1.47,17.69-3.73c-2.65,6.3-6.82,7.35-11.66,7.68-4.52.3-9,1.06-13.53,1.62l.12,1.58,20.31-1.57c-4.92,1.19-8.26,7.35-14.46,4.39-.62-.29-2.72.77-2.72,1.2,0,7.74-6,9.31-12.22,11.09,7.78,4.26,11.76,3.59,15.16-1.85.79-1.27,2-2.83,3.27-3,.93-.16,3,1.49,3.15,2.54.25,1.76,0,4.29-1.13,5.41-6.12,6.09-12.24,12.59-22.4,8.62-1.1-.43-2.75.56-4.14.89h-5l7.86-6.21c-1.64-6.5-6.59-1.21-9.37-3.46.24-.4.41-1,.71-1.1,7.65-1.75,7.06-1.81,7.94-9.19,1.45-12.22-4.65-21.39-11.19-30.39-3.4-4.68-7.72-8.69-12-13.47,1.28-1.74,1.5-4.11-3.12-4.82l-1.24,2.7c-4.06-.41-7.91-.69-11.7-1.25-1-.15-1.9-1.17-2.85-1.79,1.65-1.45,3.57-2.68,4.9-4.38,2.82-3.59,5.33-7.43,8-11.17h2l3.66,5.83c3.86-5.69,3.23-9.68-1.83-15.05-1.91-2-4.06-3.91-1.42-7.52,1.5,1.81,3,3.14,3.91,4.81C302.82,411.52,304.91,412.44,308,411Z"/><path class="cls-11" d="M570,228c0,.66-.23,1.49.08,2,4.08,6.18,1.29,10.87-2.59,16-6,8-13.12,8.44-19.32.56-3.63-4.61-7.32-9.17-11-13.76l-5.57-9.58,6.16.64c-1.24-2.67-2.27-4.47-2.93-6.4s-1-4.24-1.54-6.37c2.7-2.07,2-3.48-.58-5.22-4.88-3.33-5.17-7.16-1.3-11.59a32.75,32.75,0,0,0,3.49-4.15c5-8.15,10.77-9.64,18.75-4.7a41,41,0,0,0,3.31,4.54c1.21,1.27,3.06,2,4.12,3.34,5.35,6.81,9.49,14.23,11,22.91.8,4.54,1.76,9,2.65,13.56L570,228a1.35,1.35,0,0,0-.17-.37c0-.06-.19,0-.28,0Z"/><path class="cls-12" d="M519.06,334c3,1.34,6.37,2.15,8.87,4.11,10.9,8.57,21.54,17.47,32.27,26.26-1.41,3.52-2.33,7.36-4.36,10.49-3.35,5.16-6.5,10.16-7.3,16.52-.44,3.52-5.08,4.54-8,1.63L536,407l-11.41,5.06-4.82-15.15c2-1.88,3.75-5,6-5.38,4.9-.81,6.88-3.57,7.61-8.25,4,4.82,6.38,1.39,8.71-1a33.21,33.21,0,0,0,5.83-7.22c.75-1.41.09-5.28-.36-5.35-3.39-.53-7.53-1.62-10.19-.19-4,2.13-6.09,1.21-8.45-1.7-.8-1-1.7-1.89-2.4-2.67-4.57,1.06-5.54,7.75-11.82,6.26,2-4.44,3.1-8.42-1.08-12-.71-.61-.1-4.43,1-5.15,2.44-1.63,5.55-2.24,8.38-3.27l-7.37,6.57,9.83,1.6,1.34-1.37L523,351c-.89-3.71-2.79-5.09-6.47-3a24.77,24.77,0,0,1-6.33,2.81c-1.72.39-4.54.47-5.34-.54-1.83-2.3-1.38-5.2,1.49-6.75a34.47,34.47,0,0,1,6-2c-1.83-3.45-3.94-6.6-5.21-10.06-1.12-3,1.21-4.56,3.9-5.16s4.68,0,5.18,3c.37,2.31.73,4.62,1.17,7.44Z"/><path class="cls-2" d="M574.79,229.75c-.89-4.52-1.86-9-2.65-13.56-1.53-8.68-5.66-16.11-11-22.91-1.06-1.35-2.91-2.07-4.12-3.34a40.54,40.54,0,0,1-3.31-4.54c.56-1.33.81-2.94,1.72-3.93,3.88-4.22,3.53-5.65-1.46-8.7-3.95-2.41-7.54-5.42-11.94-8.65,5.48-3.19,5.61-6.18,2.72-10.3-2-2.85-.09-5.47,3-6.47,1.67-.53,3.6-.26,5.41-.35,1.6,2,3.68,3.77,4.72,6,6.51,14.14,13.52,28.12,18.93,42.68,4.87,13.12,7.94,26.9,11.68,40.43.52,1.87.34,3.93.49,5.91C581.5,241.11,576.95,236.81,574.79,229.75Z"/><path class="cls-13" d="M529.09,257.81l-7.9,3.86,4.21,7.5c-5.48,2-6.47-3.12-10.22-4.54,7.19-1.52,1.1-5.17,2.12-7.62,3.64-.38,7.42-4.24,7.36-7.66a2.19,2.19,0,0,0-.78-1.66c-4-2.05-8-4.42-12.24-5.85-5.22-1.76-8.56-4.66-9.55-10.21-.69-3.9-1.64-7.75-2.62-11.59-1.33-5.22,3.35-6.93,5.66-10,3.58,2.63,7,5.53,10.76,7.84,10.75,6.56,12.48,10.12,10.16,22.3-.05.28.17.62.27.93l2.57-2.52L532,246c.5,2.17,1.55,4.11-1.2,6C529.52,252.95,529.62,255.83,529.09,257.81Z"/><path class="cls-14" d="M489.06,419.16l-4.32.68c1.38-4,2.77-7.15,3.5-10.46.4-1.84.22-5.32-.61-5.63-2.65-1-5.73-3.38-8.65-.18a32.77,32.77,0,0,1-3.06,2.57L468.27,397l-1.38.93c.62,1.13,1.32,2.23,1.85,3.4.8,1.77,1.84,3.54,2.1,5.4a5.05,5.05,0,0,1-1.49,3.81c-.45.42-2.42-.39-3.42-1.06-2.05-1.37-3.92-3-5.86-4.57q0-1.47-.06-2.94c1.67-2.23,6.71-1.75,5.51-6.65L458,398c-2.66-6.23-3.91-12.52-.76-19,8.57,2.82,17.19,5.5,25.69,8.52,3.23,1.15,6.17,3.1,9.25,4.69L494,401l-1,14Z"/><path class="cls-15" d="M532,246l-3.1-7.43-2.57,2.52c-.1-.31-.33-.65-.27-.93,2.32-12.18.59-15.74-10.16-22.3-3.78-2.3-7.19-5.21-10.76-7.84l-.56-2.89,13.1,1.51-.58,7.88c5.37-3.62,9.07-9.35,16.22-5.47.5,2.13.84,4.31,1.54,6.37s1.68,3.73,2.93,6.4l-6.16-.64,5.57,9.58c-3.17,1.64-4,3.83-1.88,7a57.53,57.53,0,0,1,3,6.24Z"/><path class="cls-10" d="M308,535c6.5-.5,11.63-7.68,10-14,2.94-2.06,7.52-2.54,7.21-7.74,0-.64,1.57-2,1.77-1.93a51.54,51.54,0,0,1,5,3.5c.65-.31,1.93-1,3.25-1.55s2.58-1,5.16-1.89c-3.19,9,6.63,7.69,8.66,13.16l-15.29-1.81v5.4L324.05,526l-.56.76,3.92,1.87C322.47,536.68,313.18,539.27,308,535Z"/><path class="cls-16" d="M519.79,396.93l4.82,15.15L536,407c.87,2.45,1.38,5.11,2.7,7.29,2.07,3.43,1.18,6.14-1.48,8.33s-5.51,2-7.9-.8c-.54-.63-1.34-1.08-1.73-1.78-3.71-6.7-9.37-8.69-16.6-7.06a50.91,50.91,0,0,1,3.25-5.4c2-2.58,3.34-5.15,1.68-8.39Z"/><path class="cls-2" d="M533,440c-.28,5-2.6,9-6,12.66-3.7,4-6.77,8.48-10.2,12.7a33.38,33.38,0,0,1-4.42,4.72c-2,1.67-4.21,4.78-7,1.38-2.65-3.23-.62-5.85,2-8.06,1.39-1.17,3.17-2.05,4.17-3.48,3.36-4.83,7-8.66,13.41-9.69,1.94-.31,3.32-4.07,5-6.24,1-1.34,2.08-2.66,3.12-4Z"/><path class="cls-2" d="M560,423a7.58,7.58,0,0,1-.75,2.33c-7.12,9.46-14.2,19-21.54,28.25-1.33,1.69-3.74,2.53-5.65,3.76l-1.53-1.43c1.57-2.9,2.83-6,4.77-8.64,4.49-6.07,9-12.23,14.14-17.69,2.76-2.91,7-4.45,10.53-6.61Z"/><path class="cls-15" d="M402,459c-5.65,5.31-11.5,10.26-19.38,12.05-6.89,1.57-13.74,3.32-20.61,5l0-.07q0-1,0-2c6-2.34,12.16-4.41,18-7.09,5-2.3,9.64-5.52,14.66-7.87C396.84,458,399.6,454.55,402,459Z"/><path class="cls-2" d="M498,456l3.13-5.89L514,441.77c2.11,8.42-5.49,19.44-16,23.13Z"/><path class="cls-16" d="M493,415l1-14,13.1-1.08c2.7,3.38,2.77,6.8.34,10.39a48.6,48.6,0,0,0-2.52,4.72Z"/><path class="cls-12" d="M585.88,281.65c-1.16.55-2.32,1.61-3.31,1.46-1.25-.18-3.07-1.09-3.4-2.1a51.58,51.58,0,0,1-2.34-10.49c-.21-1.91.59-4,1.2-5.92s1.62-3.95,2.45-5.9c6.83,4.81,6.82,5.44,4.94,13.72C584.76,275.33,585.69,278.6,585.88,281.65Z"/><path class="cls-17" d="M504.91,415a48.6,48.6,0,0,1,2.52-4.72c2.43-3.59,2.36-7-.34-10.39-.48-1.58-1.09-3.12-1.42-4.73-1.23-6.17,1.65-10.55,7.58-10.63-1.25,3.21-2.38,6.21-3.6,9.18-1.38,3.36-1,5.51,3.31,5.36,1,0,2,.06,3,.09,1.66,3.25.32,5.82-1.68,8.39A50.91,50.91,0,0,0,511,413Z"/><path class="cls-15" d="M416.95,440,412,446l-18.48,6.07c7-4.38,10.29-14.14,20.48-14.12l2,1.07Z"/><path class="cls-12" d="M577.54,285c1.65,6.17,3.48,12,4.66,18,.41,2.06-.82,4.45-1.28,6.59-2.43-2.1-4.54-3.47-6-5.34-1.05-1.33-2.06-3.51-1.71-5C574.32,294.32,576.09,289.55,577.54,285Z"/><path class="cls-7" d="M382,431c-.72,1-1.23,2.33-2.19,3-2.16,1.51-2.58,3-2.24,5.8.42,3.44-.87,7.08-1.52,11.28L373,446c2.39-2.84,4.57-5.63,1.53-9.49-.35-.45.67-2.71,1.58-3.26A31.93,31.93,0,0,1,382,431Z"/><path class="cls-7" d="M394,443c0-6.59,0-6.59,5-5Z"/><path class="cls-7" d="M404,435c1.84-4.4,2.8-4.78,5-2Z"/><path class="cls-7" d="M389,450l3-4Z"/><path class="cls-7" d="M412,433c2.92-2.19,2.91,0,3,2Z"/><path class="cls-7" d="M375,455l2,2Z"/><path class="cls-10" d="M362,474q0,1,0,2l-1.57-.75Z"/><path class="cls-2" d="M533,440l.17-2.2.68.19-.84,2Z"/><path class="cls-2" d="M560,423l1.08-.74.26.38-1.3.4Z"/><path class="cls-1" d="M154,37.1c.11,4.91,0,9.83.38,14.72.24,3.29,2.79,4.81,5.65,3.9,3.73-1.2,7.88-2.55,10.6-5.14,7.57-7.19,17-8.35,26.5-9.58,2.28-.29,4.6-.42,6.86-.82,9.61-1.73,10.05-2.28,10-11.73,0-8,0-8,8.17-9.48,1.3-.23,2.57-.59,3.85-.89-.5,2.36-.58,4.92-1.57,7.06-3.32,7.11-7,14.07-10.48,21.09-6.54.54-13.34.12-19.55,1.84-11.67,3.24-22.93,7.93-34.52,11.5-2.16.67-5.43-.55-7.56-1.91-2.83-1.81-2.46-4.69-.6-7.42.51-.74.39-1.91.55-2.89l1-1-1.48.44L138,54c-11.5,7.37-23.26,14.38-34.38,22.29-4,2.82-6.35,7.83-9.45,11.84l.84.63,6.44-2.63.45.79-4.29,5.87L86,102.92l-3.88-2.85L68.95,116l3.73,2.57c-2.83,1.6-5,3.71-7.26,3.92-6.9.63-10.76,4.55-10.5,11.48a5.76,5.76,0,0,1-1.16,3.61c-4.43,5.3-8.74,10.75-13.66,15.57-3,2.91-4.48,5.58-2.94,9.64l14.58-18.6,1.34,1c-1.93,12.29-14.66,18.14-18.42,29.38,4.21-3.63,7.68-7.82,11.54-11.61,1.56-1.54,4-3,6-3,1.28,0,2.53,2.83,3.79,4.39-3,1.95.67,9.89-7,7.89-.44-.11-1.4,1.52-2,2.4-3.2,4.47-6.37,9-10.29,14.47-1.1-3.06-1.68-5-2.49-6.83A23.74,23.74,0,0,0,32.07,179l-6-5c7.42-13.52,14.29-27.38,22.4-40.47,12.93-20.9,29.23-39.19,47.43-55.6C113.55,62,132.63,47.87,154,37.1Z"/><path class="cls-1" d="M533.32,211.06c-7.16-3.88-10.86,1.84-16.22,5.47l.58-7.88-13.1-1.51c-2.58-.38-5.18-1.17-7.74-1.06-4.11.18-4.46-1.95-3.65-5,.38-1.43,1.65-2.76,1.62-4.12,0-1.76-.45-4.43-1.6-5.07-3.07-1.69-6.63-2.5-11.2-4.07l5.41,20.49-1.3.83-9.24-5.31v11.83H464.09l2.23-8.69a49.16,49.16,0,0,1-7,.9,5.84,5.84,0,0,1-3.75-1.53c-.38-.39.64-2.18,1.06-3.32s1.6-2.58,1.28-3.46c-.92-2.53-.23-3.85,1.85-5.37.74-.54.73-3.09.14-4.27-1.54-3.11-3.57-6-5.42-8.94-2-3.19-2.07-6,1.77-7.81a14.88,14.88,0,0,0,5-3.16c-7-4.93-11.78-8.82-6.82-16.65-2.8,0-4.88.28-6.86,0-8.29-1.36-11.23-6.28-10.42-17.17,1.88,4.37,3.11,9.25,5.92,12.92,1.46,1.91,5.72,1.68,8.71,2.42.5-2.7,1-5.4,1.47-8.11a10.76,10.76,0,0,0-.17-2.45c2.29,4.89,6,6.3,11.26,4.55l-3-4.93,4.56-1.1-1.69-4.81,1.22-1c1.4,1.45,2.58,3.26,4.25,4.23s4,1.74,5.53,1.23c1.76-.58,3-2.71,4.49-4.16-1.61-1.25-3.08-2.8-4.87-3.7-4.09-2.06-8.34-3.79-12.5-5.71-.36-.17-.53-.75-.94-1.37l2.56-1.54c-.16-2.63.11-4.77-.52-6.6a10.88,10.88,0,0,0-3.12-3.82c-4,2.77-7.28.42-10.82-.91-1-.36-2.32.32-4.11.63l4.71,6.66L437,125l0-4c.57-5.08-1.61-8.19-7-10l-5.86.87-3.25-2.78c-.78-5.84.83-10.57,5.67-14.35,3.28-2.56,4.15-6.23,2.42-10.26-1.36-3.17-2.69-6.36-4-9.55-.22-3.22-.59-6.44-.6-9.66a48.06,48.06,0,0,1,.8-6.37l8.57,10.34c3.89-4.66,13-6.27,17.16-2.74s8.16,5.84,14,5.82c4.64,0,6.44,4.18,4.09,7.28l2,1.25c.35,4,3.3,5.2,6.52,6.55,1.76.74,4.46,3.67,4.16,4.23-4.29,8,2.28,12.09,5.89,17.18.47.67,1.83.7,2.78,1l1.12-1.18a60.27,60.27,0,0,1-4.93-6.77c-.83-1.52-.77-3.53-1.11-5.32a28.15,28.15,0,0,1,5,.76,6.12,6.12,0,0,1,2.63,2.21c2.24,3,5.21,3.89,8.76,3.39.71.66,1.69,1.19,2.07,2q4.21,9,8.21,18.1c1.79,4.08,3.26,8.31,5.27,12.27.58,1.15,2.52,1.61,3.83,2.39.56-1.42,1.82-3,1.54-4.23-.49-2.18-2-4.12-2.93-6.23-1-2.39-2.33-4.8-2.68-7.32-.2-1.46.93-4.2,2-4.48,1.51-.41,4.24.34,5.11,1.55a38.5,38.5,0,0,1,4.62,9.22c3.35,9.09,14.25,17.59,23.13,17.74l1.15,3c-1.81.09-3.74-.18-5.4.35-3.13,1-5,3.63-3,6.47,2.89,4.13,2.76,7.12-2.72,10.3,4.41,3.23,8,6.24,11.94,8.65,5,3.05,5.34,4.48,1.46,8.7-.91,1-1.16,2.6-1.72,3.93-8-4.94-13.74-3.45-18.75,4.7a32.75,32.75,0,0,1-3.49,4.15c-3.87,4.43-3.58,8.26,1.3,11.59C535.3,207.58,536,209,533.32,211.06ZM465.42,89.4c1.27,2,1.85,3.17,2.63,4.15a19.23,19.23,0,0,0,2.31,2.11c.29-1.11,1.05-2.34.79-3.29-1-3.73-2.37-7.38-3.6-11.06l-1.61-.09-3.46,12.45,1,.29Z"/><path class="cls-2" d="M552,144c-8.88-.15-19.78-8.65-23.13-17.74a38.5,38.5,0,0,0-4.62-9.22c-.88-1.21-3.6-2-5.11-1.55-1,.28-2.18,3-2,4.48.35,2.52,1.64,4.93,2.68,7.32.92,2.11,2.43,4,2.93,6.23.28,1.23-1,2.81-1.54,4.23-1.31-.78-3.25-1.24-3.83-2.39-2-4-3.48-8.19-5.27-12.27q-4-9.09-8.21-18.1c-.38-.81-1.37-1.34-2.07-2l-.94-1.86L490.13,90.93,471,80.89l-2-1.25c2.34-3.11.55-7.3-4.09-7.28-5.8,0-9.77-2.27-14-5.82s-13.27-1.91-17.16,2.74l-8.57-10.34L421,57.15,412,51c-2.08-.35-4.16-1-6.23-1a44.34,44.34,0,0,0-6.87,1.2L398.45,50l7.4-7.05-.63-1.6L383.43,44c4.27-6.61,7.58-8.17,15-7.08,10.17,1.5,13.41-1.24,13.58-11.46,0-.5.05-1,.08-1.49,10.06,4.64,20.67,8.36,30,14.11,15.62,9.6,31.12,19.66,45.41,31.1a262.74,262.74,0,0,1,33.72,33c10.81,12.45,20,26.31,29.85,39.58A9.08,9.08,0,0,1,552,144ZM458.89,68.62c1.78-.64,3.55-.86,3.66-1.41.22-1.07-.12-2.83-.89-3.4a48.24,48.24,0,0,0-7.58-4.44,2.75,2.75,0,0,0-2.59.6,2.69,2.69,0,0,0,.15,2.64C454,64.76,456.52,66.69,458.89,68.62Z"/><path class="cls-7" d="M412.11,23.94c0,.5-.07,1-.08,1.49-.17,10.22-3.41,13-13.58,11.46-7.44-1.1-10.76.47-15,7.08l21.79-2.59.63,1.6L398.45,50l.49,1.17a44.34,44.34,0,0,1,6.87-1.2c2.07-.05,4.15.61,6.23,1q0,2.07-.09,4.14c-2.31-.7-4.67-2.08-6.93-1.94-4.74.3-8.75-.64-12-4.15-1.29-.06-3.33-.67-3.75-.1-2.38,3.22-5.13,2.09-8,1.29-2-.56-4.17-.86-6.25-1.27-.66.06-1.64-.14-1.93.22-5.16,6.35-9.56,2.63-14.45-.61a16.31,16.31,0,0,0-8.35-2.39c-4.12-.08-4.86,1.75-2.92,5.39.63,1.18,1.19,2.4,1.79,3.61l-1.12,1-10-7.13-15-5c-1-1.45-2.48-2.79-2.79-4.37-.87-4.44-3.2-5.19-7-3.54l-2.63-2.38,3.4-4.6,4.67-.39a19.11,19.11,0,0,1-.39-2.1c-.13-2-1-5.07-.12-5.71,1.52-1.11,4.2-1.09,6.3-.84a64.63,64.63,0,0,1,8.28,2c.62-.73,1-1,1-1.22.93-8,4.35-9.3,12.17-6.7,4.38,1.45,9.64,1,14.38.39,3.69-.47,7.19-2.48,10.78-3.81C385.55,12.74,398.92,18,412.11,23.94Z"/><path class="cls-1" d="M218,441l20.41,31.71c.51.79,1.05,1.55,1.58,2.32h0c-4.6-1.14-9.18-2.35-13.81-3.33-.86-.18-1.92.61-2.88,1,.5,1.09.77,2.89,1.54,3.14,3.11,1,6.39,2.16,9.58,2.09,4.77-.1,8.25,1.56,12.07,6.35l-21.65-3-.32.93,8.36,4.25c-3.89,1.44-7.89-4.14-11.73,2.1,4.67.94,8.59,1.64,12.45,2.57a23.59,23.59,0,0,1,4.16,1.87c-1,1.38-1.74,3-3,4.05-1.08.91-2.88.93-4.05,1.77s-1.7,2.1-2.53,3.18a20.36,20.36,0,0,0,3.55,2c1.18.4,2.53.3,4.8.51l-4.38,6.94,7.4-1.61L247,513l0,0c-2,4.13-3.42,8.64-6,12.33-7.75,10.92-16,21.51-24,32.24a16,16,0,0,0-1.08,2.39c18.48-11.52,28.55-29.14,39.23-47.19,4.23,5.44,2.8,10.28,2.4,14.87s-1.68,9.27,1.76,13.74c1.24,1.61.62,4.8.53,7.25-.12,3.12-.55,6.24-.85,9.35-3.33,2.16-6.46,4.81-10.06,6.31-2.84,1.19-6.53,1.94-9.38,1.16-6.66-1.81-13-3-20-1.65-6.81,1.35-8.32-.36-10.09-8.21-12.51-3.91-13.89-5.52-9.86-12-5.26-.83-10.47-1.33-15.5-2.55a26.72,26.72,0,0,1-8.39-4,15.25,15.25,0,0,0-13.15-2.5,32.89,32.89,0,0,0,3.31,2.78c.83.51,2,.5,2.75,1.09,2.82,2.31,6.28,4.62,5.07,8.91s-5.59,3.12-8.06,2.39c-4.66-1.37-9-3.93-13.33-6.27-3.33-1.8-6.36-2.84-9.25.56-10.94-7.45-22.33-14.32-32.72-22.47a274.45,274.45,0,0,1-71.95-84.2c-7.16-13-12.82-26.92-19.16-40.41,9.47.14,8.94.2,10,9.63,1.19,10.76,5.19,16.12,14.93,12.48a3,3,0,0,1,1,0L44,424c-2.7,4.84-4.22,9.59,0,14.53,6.68,7.84,13,16,22,21.5,3.29,11,11.58,17.2,21.27,22.14,5.66,2.89,6.81,2.56,8.16-2.52l5.45-2.2c3.09,5.89.85,11.14-4.06,15.63a35.56,35.56,0,0,0,3.51,3.7c9.4,7.23,18.76,14.5,28.31,21.52,3.91,2.88,8.25,5.17,12.39,7.73l.44.22L141,526l-3.16-6.17c7.29-4.33,15.24-3.8,22.85-4.57.61-.06,2.07,2.8,2.18,4.37.22,3.05,0,5.93,3.43,7.55,8.53,4,16.93,8.25,25.5,12.13,4.85,2.2,9.44.71,11-3.4,1.26-3.3,1.95-6.82,3.09-11-5.1,1.29-9.41,2.36-13.7,3.47-4.57,1.18-9.4,1.38-12.51-2.38-5.32-6.43-10.61-13.09-14.64-20.36-6-10.76-11.54-20.74-26.64-17.95-2.14.4-5.24-2.38-7.35-4.29-3.13-2.82-2.46-5.52,1.61-6.29,4.36-.82,8.87-.8,13.32-1.14,2.38,2.43,5,2.35,7.83.84L191,479c.48,5.71,1.43,6.1,6.67,5.13a11.09,11.09,0,0,1,7.45,1.66c4.41,2.95,7.64,2.85,11.26-1.48-4.14-1.71-8.21-3.49-12.36-5.05a14.88,14.88,0,0,0-3.94-.37c-3.66-2.28-7.37-4.47-11-6.85-4.9-3.26-9.88-6.44-14.47-10.1-2-1.62-4.17-4.16-1.41-7.17.58.59,1.17,1.17,1.74,1.78,5.21,5.52,10.18,5.17,14.39-1,2.28-3.37,5.39-4,8.64-3.17l-1.68,6.74,7.11,1.2.3-4.19c8.42-.13,11.07-2.09,10.73-7.51l-24.81-3.14c2.35-2.8,3.56-5,5.38-6.23,2-1.42,5.76-3.51,6.78-2.73,3.89,3,6.9,1.24,10.22-.41l4,3.9,2,1Z"/><path class="cls-7" d="M45.07,419.06a2.93,2.93,0,0,0-1,0c-9.74,3.64-13.74-1.72-14.93-12.48-1-9.43-.51-9.49-10-9.63l-5.31-15.89c2.39-2.81,7.21-3.05,8-7.64.07-.43,1.46-.95,2.19-.88,4.93.43,8.11-2.45,11.16-5.64,6.69.88,5.93,9.18,11.77,11.19l-3-7L50,365c5.82-2,10.62-.6,14,5.45l1-1.38L60,357l5-4.08c.44.24.88.47,1.31.73,7.55,4.56,11.17,2.55,11.86-5.94.19-2.41,2.29-4.78,3.89-6.89.3-.4,3.4.52,3.4.8-.06,3.16.38,6.78-1,9.35-1.5,2.75-1.88,4.08.6,6.2s3.81,4.43-.25,6.82c-2.19,1.29-3,13.16-1.44,15.49.12.19.61.13.93.18,4.45-5.82,5.75-10.17,4-15a104.69,104.69,0,0,1,9.46-4.67c3.41-1.3,4-2.82,1.95-5.92-2.16-3.31-3.83-6.94-5.72-10.42l1.25-.93,5.62,4.39c2.54,5,4.3,5.61,7.44,2.26,2.31,3.24,5.06,3,8.07,1,2.83-1.86,5.73-3.6,8.61-5.39l8.33,6.16-4.68,7.45,10.23,6.54c-.09,7.3,2.19,14.71-1,21.86-3.4.09-6.85-.16-10.17.39-2.52.42-5.92,1.17-7.09,3-2.61,4-4.46,8.36-9.39,10.31-.81.32-1,2.23-1.46,3.41-3.1,1.58-5.57,4.88-9.74,3.54-.23-.07-.59.26-.89.41-8.86,4.56-17.71,9.16-26.62,13.62-.6.3-1.68-.38-2.54-.61,3.26-3.39.72-7-.39-9.91-1.75-4.53-2.36-8.17,2.64-11.76-1.87,0-3.07-.38-3.67.06-5.45,4-9.53,2.36-13.51-2.47-1.73-2.09-4.3-3-6.41.55-1.65,2.8-3.5,1.7-4.8-.7l-3.36-6.21-1.23.37c.13,1.49-.26,3.36.5,4.41,2.8,3.91,6,7.55,9.41,11.79l-1.84,2.54,4.58,5.14-6,3.85A9.69,9.69,0,0,1,45.07,419.06Z"/><path class="cls-18" d="M35.21,366.9C32.16,370.09,29,373,24,372.54c-.73-.06-2.11.46-2.19.88-.8,4.58-5.62,4.82-8,7.64-3.28-13.1-6.79-26.15-9.72-39.33-1.35-6.09-1.54-12.44-2.26-18.67,2.3-1.16,4.61-2.29,6.89-3.47,3-1.56,5.93-3.25,9-4.71,2.3-1.1,4.73-1.93,7.11-2.88.42,3.43.07,7.24,1.5,10.19,1.15,2.39,4.43,3.76,6.77,5.58,1.61-2.47,4.47-4.89,4.58-7.42.21-5-1.1-10.06-1.79-15.1l3.22-1.29,8.29-2.67a4.85,4.85,0,0,1,.52,1.77c-.62,4.92,1.33,7.82,5.86,10.19,2.14,1.12,3.82,5,4,7.64.21,4.33,1,8.07,3.8,11.41,2.25,2.68,2.51,5.59,2,9.21s.9,7.59,1.47,11.41L60,357l-4.87-5.25L50,365l-6,6.11L33.33,355.31C30.42,359.82,30.83,361.47,35.21,366.9Z"/><path class="cls-17" d="M65,352.91c-.57-3.81-2-7.73-1.47-11.41s.23-6.53-2-9.21c-2.81-3.34-3.58-7.08-3.8-11.41-.13-2.69-1.81-6.52-4-7.64-4.52-2.37-6.48-5.27-5.86-10.19a4.85,4.85,0,0,0-.52-1.77l-8.29,2.67c-.43-.71-.68-1.74-1.31-2.09-6.23-3.54-3.81-7.23-1-11.85,1.77-2.94,1.69-7,2.28-10.64.45-2.7.65-5.43.89-7.47l6.21-.7c-.44-2.25-.39-4.76-1.42-6.7-2.11-4-4.92-7.61-7.15-11.54-.45-.8.11-3.21.68-3.39,6.51-2.09,2.42-5.38.84-8.62l3.41-2.58c0-.34.2-.88.1-.94-3.84-2.1,1.45-8.62-4.65-9.58,0-8,1.08-15.69,5-22.82a6.72,6.72,0,0,0,1-2.8c.31-8.27,7.15-13.36,9.89-20.43.14-.37.81-.54,1.23-.8,8.8-5.56,17.76-10.9,26.36-16.75,6-4.09,11.28-9.31,17.39-13.24,4.2-2.7,9.13-5.12,14-5.74,7-.89,9.79,3.61,7.24,9.8l-2.3,4.83c-2.44,2.42-5.06,4.68-7.28,7.3-4.3,5.06-9.78,7-16,5.6-3.43-.75-6.55-2.92-9.92-4.51-2.31,2.51-2.21,4.69.73,6.5s6,3.43,8.92,5.36c3.53,2.37,4,6.51,1.39,9.84-.82,1-1.69,2-2.54,3-10.69,0-23,8.85-26.94,19.15-1.52,4-4.51,7.79-4.81,11.83-.86,11.61-4.37,22.89-2.51,34.92s4,23.7,13.26,32.21c3.9,3.59,8.52,7.93,14.75,6.74,2.64-.5,4.86-2.93,7.47-4,13.55-5.4,17.61-17.29,20.79-29.85,4.71-.29,5.19,3.43,5.89,6.57a14,14,0,0,0,8.35,10.34,7.55,7.55,0,0,0,6.23-.38c1-.65.51-3.69.45-5.65-.1-3.14-.55-6.28-.5-9.42a3.1,3.1,0,0,1,2.16-2.18,3.42,3.42,0,0,1,2.44,2c1.48,3.83,2.68,7.76,4,11.66q-3.49,8.94-7,17.88c-3,7.69-4.53,16.19-12.3,21.19-1,.64-1.26,2.51-1.71,3.87s-.2,2.89-1,3.77c-4.87,5.63-9.34,11.87-15.18,16.27-2.87,2.16-4.89,4-6,7.15l-5.62-4.39L94,343.6c1.88,3.49,3.55,7.12,5.72,10.42,2,3.1,1.46,4.61-1.95,5.92a104.69,104.69,0,0,0-9.46,4.67c1.71,4.87.41,9.22-4,15-.32-.05-.81,0-.93-.18-1.52-2.33-.75-14.2,1.44-15.49,4.06-2.39,2.66-4.75.25-6.82s-2.1-3.45-.6-6.2c1.4-2.57,1-6.18,1-9.35,0-.28-3.09-1.2-3.4-.8-1.59,2.11-3.69,4.47-3.89,6.89-.68,8.5-4.3,10.5-11.86,5.94C65.92,353.38,65.47,353.16,65,352.91Z"/><path class="cls-19" d="M55,181c-.42.26-1.09.43-1.23.81-2.74,7.08-9.58,12.16-9.89,20.43a6.72,6.72,0,0,1-1,2.8c-3.9,7.13-4.93,14.86-5,22.82l-4,0L32,226c-1.11,0-2.62-.51-3.25,0-1.22,1-1.75,2.84-2.93,4a3.78,3.78,0,0,1-3.06.62,2.61,2.61,0,0,1-1.29-2.23c1.38-5.75,2.73-11.54,4.66-17.12.42-1.22,3.18-2.3,4.84-2.27,4.27.07,7.57-3.92,5.78-7.9-.36-.79-2.29-1.33-3.43-1.24-5.27.45-5.82-.22-6.38-5.58-.63-6,2.57-10.47,5.16-15.25a23.72,23.72,0,0,1,2.11,3.25c.82,1.83,1.39,3.76,2.49,6.83,3.92-5.52,7.09-10,10.29-14.47.63-.88,1.59-2.52,2-2.4,7.67,2,4-5.94,7-7.89-1.26-1.56-2.51-4.37-3.79-4.39-2,0-4.45,1.44-6,3-3.86,3.79-7.33,8-11.54,11.61,3.76-11.25,16.49-17.1,18.42-29.38l-1.34-1-14.58,18.6c-1.54-4.06,0-6.73,2.94-9.64,4.92-4.82,9.23-10.27,13.66-15.57a5.76,5.76,0,0,0,1.16-3.61c-.27-6.93,3.59-10.86,10.5-11.48,2.3-.21,4.43-2.32,7.26-3.92L68.95,116l13.16-15.9L86,102.92l11.63-10.1c5.34,1.06,10.67,2.1,16,3.18,8.59,1.74,16.74,4.11,19.43,14-.52,1.31-1.56,2.65-1.49,3.93.46,9.17-2.82,13.61-11.78,15-5.86.9-11.79,1.36-17.69,2.08-4.73.58-5.52,2.41-3.39,6.35.63,1.17.52,3.78-.33,4.52-3.45,3.05-7,6.31-11.08,8.27-13,6.2-21.09,17.71-31,27.21C55.45,178.16,55.43,179.77,55,181ZM35.71,216.21l-1.17-1.54-3.82,3.57.86.91Z"/><path class="cls-11" d="M35.9,305.24c.68,5,2,10.1,1.79,15.1-.11,2.53-3,5-4.58,7.42-2.34-1.82-5.62-3.19-6.77-5.58-1.42-2.95-1.08-6.75-1.5-10.19a24.68,24.68,0,0,1,.38-4.89C26.52,302.48,31.1,301.73,35.9,305.24Z"/><path class="cls-20" d="M17.83,293.3c4.64,3.26,4.57,6.16-.26,10.19C14,299.32,14.06,297.26,17.83,293.3Z"/><path class="cls-17" d="M32,226l2,1.88Z"/><path class="cls-3" d="M314,29.12l-3.4,4.6,2.63,2.38L309,38c-4.41,0-8.82,0-13.22.08-.81,0-1.93-.08-2.38.38-4.1,4.31-6.85,1.16-9.14-1.88-1.56-2.07-2.27-4.79-3.59-7.73-1,.5-2.71.79-3.51,1.78-3.36,4.16-7.81,4.49-12.61,4.34-2.79-.09-6.16-.63-8.26.66-3.79,2.34-6.69,7.47-10.93.76-.06-.09-.32-.11-.46-.08l-19.28,4,.05,1.33,15,1.78L238.19,46l-15.28,2.23-8.94-2c3.52-7,7.16-14,10.48-21.09,1-2.13,1.07-4.69,1.57-7.06,6.45-2.11,12.77-4.85,19.38-6.15,7.38-1.46,15-1.62,22.89-2.37v5c3.21.6,6.72,0,7.87,4.44.28,1.08,4.34,1.2,6.66,1.76V13.39l5.85-2.12c0-6.44,0-6.43,7-5.36,2.45.37,4.94.57,7.33,1.17,1.17.29,2.16,1.3,2.9,3.2-2,.44-4.39.33-5.87,1.45-2,1.53-3.31,4-4.91,6.05,2,1.07,4,2.11,6,3.21s3.89,2.16,5.76,3.34C309.27,25.88,311.63,27.53,314,29.12Z"/><path class="cls-18" d="M333.05,389c-6.33-2.88-9.32,4-14.37,4.93A13.33,13.33,0,0,0,316,395c.66-8.23,1.7-16.45,1.82-24.68a12.65,12.65,0,0,0-6-11.33,30.17,30.17,0,0,1-8.6-9.51c-1.41-2.33-2.07-6.09-1.22-8.58,1.29-3.78,5.38-3.06,8.71-2.77,3,.26,5.91.88,8.86.8,9.69-.23,14.78-7.12,12.1-16.32-2.12-7.28-4.48-14.5-6.73-21.74,2.31-3.88,6.06-3.9,10-3.9,5,0,5.66-1.36,3.49-6-.87-1.87-1.08-4-1.59-6.08,4.86-1.39,10.06-2.1,14.49-4.34,5.5-2.78,5.95-8.4,5.8-14.16-.1-3.78-1.25-8.47,3.95-10.47L377,259.5c1.42-4.42,2.51-7.36,3.28-10.39a10.12,10.12,0,0,0-.07-4.18,27,27,0,0,0-1.41-4l8.34-2.59-6.24-2.15L383,231.8l2.88,2c-1-7.15,3.12-9.15,8.47-9.94l13,4.45-3.43,5.8L402.05,236c-2.82,1.28-7.86,1.38-6.68,5.64,1.44,5.19-1,7.67-4,10.61a34.26,34.26,0,0,0-3.42,4.54l1.3,1.1c3.57-7.13,13.89-5.75,16.71-13.82a48.13,48.13,0,0,1,3.6,5.24c.44.85.44,2.87,0,3.11-5.28,2.76-1.42,4.83.4,7.06a38.71,38.71,0,0,1,3.42,4.22c2.67,4.42,2.32,5.17-2.58,6.81-2.82,6.71-2.62,12.91,1.77,17.1l8.35-.47c4.48,3.6,4.61,7.73,1.66,12.46-4.21-4.85-5-4.85-9.48.08.94,1,2,3.08,2.86,3,7.07-.91,12.15,2.49,16.81,7.08.07.07.32,0,.79-.09,1.85-6,6.14-3.68,10.29-2.92,2.94.53,3.57,1.88,2.91,4.44-1.41.3-3.19.16-4.18,1-5.76,4.81-11.89,5.69-19.05,3.45-1.86-.58-5.35,1-6.76,2.67-3.16,3.79-5.29,8.4-8.18,12.44-2.51,3.51-1.83,6.06,1.47,8.34-.19.63-.19,1.56-.61,1.83-5.26,3.34-10.39,7-16,9.73-4.64,2.29-9.49,3.84-10.73,9.71a1.74,1.74,0,0,1-.92,1.11c-4.45,1.61-9,2.93-13.37,4.76-5.26,2.2-10.32,4.86-15.5,7.24-3.83,1.76-8.05,2.88-9.13,8-.16.75-2.42.9-3.43,1.69a15.51,15.51,0,0,0-2.38,3l-7-3.1Zm44.5-79.05c3.9-3.59,7.15-6.39,10.14-9.45a8,8,0,0,0,2.2-4.3c1.47-12.7-10.38-19.53-19.63-17.51-.38,7-.86,13.7-1,20.46a7.62,7.62,0,0,0,1.49,4.9A62.38,62.38,0,0,0,377.55,309.92Zm-25.18,53.86c4.88-.65,8.22-1.78,8.57-6,.53-6.38,2.92-11.24,8.82-14.34,2.75-1.45,3.15-4.22,1.25-6.82-2.34-3.2-4.77-6.35-7.35-9.35-2.76-3.22-5-3.05-6,.89a28.11,28.11,0,0,0-.83,12c1,5,.84,9.33-1.26,13.89C354.24,356.94,353.55,360.09,352.37,363.78Z"/><path class="cls-21" d="M222.91,48.21,238.19,46l5.36,5.8-3.24,2.64.33,1,19.4-3.5.29,1.49L253,57.72c2.57.39,5.24-1.16,6.78-.41,7.66,3.76,13.81.09,20.13-3.24,6.72-3.55,13.54-4.84,21-2,3.19,1.2,6.74,1.41,10.13,2.07l10.92,4a2.87,2.87,0,0,0,0,.88l.86,6.33c1.83.33,3.81,1.26,5.46.85,2.68-.67,5.13-2.22,7.68-3.39l1.91-.33c.52,3.13,0,6.72,1.51,7.94,4.1,3.4,9,5.81,13.61,8.62,2.23,1.39,4.5,2.73,6.69,4.18,4.45,3,8.87,5.48,14.64,4,2.92-.76,6-.59,7.69,2.82-1.93-.34-3.84-.79-5.78-1-3.13-.36-4.36,2.11-2.92,3.86,1.85,2.24,5.16,4.8,7.66,4.62,3.52-.25,1.51-3.77,1.09-6A11.26,11.26,0,0,1,382,90L385,83c5.16-1.17,10.67-1.91,10.85-9.06l10.37,4.45.81-6.24L420,74.11c.2,6.55-2.34,11.51-8.3,14.62a31.61,31.61,0,0,0-5.76,3.85c-.81.68-1.73,2.47-1.39,3.06,3.12,5.36,2.82,10.68.4,16.11l-.8,2.22a38.48,38.48,0,0,0,2.42,6c2.34,3.86,5,7.54,7.49,11.29a62.19,62.19,0,0,1-7.44-2.21c-9.3-4-18.34-8.82-28.62-9.88-1.69-.17-3.53,1.13-5.3,1.76-.14.05-.21.28-.35.34-7.13,3.41-8.34,9.64-8.58,16.73-.07,1.94-2.34,4.14-4.12,5.6a85.71,85.71,0,0,1-8.59,5.61l-1.58-1c1.5-3.9,3.12-7.76,4.42-11.73a9.49,9.49,0,0,0,.29-4.92c-.92-3.85-2.23-7.61-3.38-11.4,5.78.26,7.18-3.36,7.89-8.23.75-5.13-2.36-7.36-5.7-9.81a15.34,15.34,0,0,1-1.41,1c-1.72,1-3.47,2.6-5.18,2.56-1,0-2.22-2.56-3-4.15-1.18-2.51-2.05-5.17-3.18-8.11l-3.93,3.47c-2-.54-4.1-1.85-5.89-1.49-7.83,1.58-9,1.65-11.95-5.71-2.31-5.67-3.89-10-11.55-10.74-7.18-.72-14-4.89-21.07-7-3.52-1.06-7.4-.89-11.11-1.39-1.23-.17-2.88-.3-3.55-1.1-5.9-7.08-12.6-5.08-19.34-1.85-8.18,3.93-16.26,8.05-24.41,12.05a10.45,10.45,0,0,1-2.4.54c-5.45-3.73-11.57-4.58-18-4.19-9.68.58-17.83,12.24-15.13,21.49.46,1.59.21,3.39.28,5.1l-5.1-.92c-.95-.43-2.38-1.48-2.76-1.18-2.73,2.13-6.81,4.13-7.53,6.93-1.54,6-5.39,9.75-9.41,13.67-2,1.92-4,3.72-6.06,5.58l-2.68-8.53c-3.56-1.5-6.44,1.75-9.68,3.83-4.95-1-5.83-4.56-5.7-8.81,1.62-4.28,3-8.67,4.92-12.79s4.47-8,7.22-12.85c-2.27-4.14,2.17-8,3.6-12.52,2-2.35,4.16-2.71,7.38-2.52,5.6.34,12.65,1.24,16.65-1.57C193.16,63.82,204.38,60,215.72,56c3.79-1.32,7.66-2.44,12.76-4ZM288.47,62l-.9-1.2-7.47,5.7c2.77,1.41,5.52,2.86,8.32,4.21a1.73,1.73,0,0,0,1.43-.25c2.1-1.45,4.14-3,6.2-4.48-2.19-1.33-4.37-2.67-6.58-4C289.21,61.87,288.81,62,288.47,62Z"/><path class="cls-16" d="M361.07,256c-5.19,2-4,6.69-3.95,10.47.15,5.76-.3,11.38-5.8,14.16-4.43,2.24-9.63,3-14.49,4.34.92-3.49,2.29-6.95,2.61-10.5.23-2.54-1.21-4.68-4.62-4.51-3.13.16-4,1.69-3.85,4.49.09,2-.16,4-.25,6-2.06-2.69-2.86-5.55-4.31-8-.68-1.16-2.91-2.47-3.92-2.14a8.49,8.49,0,0,0-4.16,3.75c-.35.59,1.06,2.49,2,3.48,1.49,1.58,3.26,2.91,5.27,4.65-4.17,2.93-6.11,1.43-7.9-1.61-.65-1.1-2.22-2.48-3.18-2.35s-2.22,1.7-2.92,2.88c-1.91,3.24-3.61,6.6-5.4,9.92l-5.3-2.37c.82-3.37,1.75-6.72,2.44-10.11.84-4.11-.3-5.08-4.41-4-7.11,1.89-9.24.23-7.65-7,.69-3.1,3.17-5.81,4.89-8.67.59-1,1.34-1.86,2.77-3.84-2.66.26-4,.64-5.16.45a30.84,30.84,0,0,1-4.63-1.45c1.13-1.23,2.07-2.85,3.46-3.58a5.65,5.65,0,0,1,4.35-.19c4.48,2,7.49,1.68,7.62-4.52a33.59,33.59,0,0,0,5,1.95c2.49.51,4.74.29,4.67-3.2-.1-5.15-.32-10.31-.14-15.46.15-4.12-1.92-6.09-5.58-5.92a48.48,48.48,0,0,0-10.16,1.94c-4.34,1.16-7.17-.63-7.4-5.09-.1-1.89,0-3.78,0-6.32-6.69,1.68-12.41,6-18.33,1.52,5.49-2.4,10.88-4.78,16.3-7.1a7.33,7.33,0,0,1,3.28-1c4.14.45,6.41-1.72,8.36-5,3.27-5.48,8.19-8.39,14.58-9.26,2.06-.28,3.92-2,5.87-3.13l-.43-1.49c-5.7-.55-11.93.43-15.91-5-.25-.35-1.29-.06-1.93-.2-2.25-.52-4.7-.68-6.69-1.73-5-2.61-9.73-5.59-14.53-8.5-3.35-2-5.15-7.86-3.47-10.9,3.36-6.07,14.94-8.77,20.88-5.34,3,1.75,6.68,2.4,10.05,3.55L316,171.86c.28.56.43,1.43.88,1.64a71.46,71.46,0,0,0,9.62,4,11.92,11.92,0,0,0,6.26-.07c5.64-1.59,8.12-5.81,8.46-11.46l6-3.05c2.11-.32,4.22-.81,6.34-.92,4.37-.24,5.1,1,4.33,5.29-1.7,9.45-6.43,18.19-6.4,28,0,2.72.24,5.44.4,8.92l-10.08-2.44c.61,5.94,3,7.51,7.8,6.71a7.11,7.11,0,0,1,5.52,2.3c1.45,1.72,1.81,4.35,2.64,6.58-1.81.1-4.78.93-5.25.18-2.65-4.22-6.42-4.89-10.8-4.53-2.34.19-3.85-.43-3.65-3.28.41-6-1.33-8.36-7.46-10.45-3.43,5.89-3.24,6.47,2.31,8.9.78.34,1.79,2.09,1.56,2.45-1,1.57-2.23,3.67-3.8,4.13-10.48,3.07-13.06,9-7.84,18.83,3.07,5.79,1.82,8.4-5.72,13.54,2.25-.52,4.68-.65,6.71-1.61,8.87-4.22,10-3.95,17.09,2.49a13.12,13.12,0,0,0,7.37,2.85C353.12,251.29,357.88,251.45,361.07,256Z"/><path class="cls-1" d="M515.93,399.2c-1,0-2-.13-3-.09-4.27.15-4.69-2-3.31-5.36,1.22-3,2.34-6,3.6-9.18-5.93.07-8.82,4.46-7.58,10.63.32,1.61.94,3.16,1.42,4.73L494,401l-1.82-8.78c.61-2.87,1.23-5.74,1.83-8.61q1.11-5.29,2.21-10.59c2.94-5,2.57-8.86-1.71-10.65-3.54-1.48-4.83-4-5.58-7.3.7-1.08,1.83-2.09,2-3.25.29-1.95.7-4.59-.3-5.81s-4.3-2.28-5.54-1.57c-1.54.89-2.17,3.59-2.84,5.63-.26.77.44,1.87.71,2.81L479,353c-.41-.26-.84-.77-1.24-.75-4.73.23-8-.69-6-6.65.32-1-.73-2.47-1.33-3.64-1.19-2.35-2.5-4.64-3.76-7l2.4-12q0-2.52,0-5c4.24-2.42,9-4.28,12.56-7.43,3.36-3,5.29-2.11,7.84.39,1.63,1.59,3.45,3,5.18,4.46l1.72-1.41c-.87-1.6-1.72-3.21-2.63-4.78-1.58-2.72-3.19-5.41-4.79-8.11,6.76-3.64,12.81-2.25,18.39,2.58a1.65,1.65,0,0,0,.94.27,6.8,6.8,0,0,0,1.28-.23l-1.51-8.17c.84-.19,1-.31,1.16-.26,7.57,2.94,7.66,3,4.65,10.4-1.3,3.21-3.06,6.24-4.07,8.27,3.81,6.9,9.83,11.78,9.24,20.05l-1.66,2.69c-.45-2.83-.8-5.14-1.17-7.44-.5-3.09-2.6-3.62-5.18-3s-5,2.13-3.9,5.16c1.28,3.46,3.38,6.61,5.21,10.06a34.47,34.47,0,0,0-6,2c-2.87,1.55-3.33,4.45-1.49,6.75.8,1,3.62.93,5.34.54a24.77,24.77,0,0,0,6.33-2.81c3.68-2.05,5.58-.67,6.47,3L523,351c-2.84,1-5.95,1.64-8.38,3.27-1.08.72-1.69,4.54-1,5.15,4.18,3.56,3,7.54,1.08,12,6.28,1.49,7.25-5.2,11.82-6.26.7.77,1.6,1.68,2.4,2.67,2.36,2.91,4.47,3.84,8.45,1.7,2.66-1.42,6.8-.34,10.19.19.45.07,1.11,3.94.36,5.35a33.21,33.21,0,0,1-5.83,7.22c-2.34,2.39-4.75,5.82-8.71,1-.73,4.68-2.71,7.44-7.61,8.25-2.23.37-4,3.5-6,5.38Z"/><path class="cls-22" d="M347.13,162.93l-6,3.05q-7.89-5.49-15.78-11c-2.94-2-6-3.44-8.8,0s-1.34,6.33,1.81,8.89c1.38,1.12,2.3,2.83,3.43,4.27L316,171.86,309,160c-1.32-1.32-2.45-3-4-3.89-2.47-1.47-4.55-2.84-3.52-6.19s1.85-6.55,6.47-6c2.14.24,4.5-.45,6.46.21,5.74,1.92,8.31-.89,10-6.32-2,.38-3.73.71-5.46,1.05l-7.42,1.5c.36-2.53.53-5.11,1.12-7.59,1.18-4.94-1-7.24-6.13-6.52-1.53.21-3.62.39-4.65-.43-4.48-3.59-8.67-7.55-14.46-12.71,4.76-1.72,8.06-3.62,11.54-4,9.25-1.09,9.28-.84,10.25-10,0-.28.38-.52.68-.92,1.38,0,3.27-.6,4.26.1,5.82,4.11,11.76,2.25,17.68.71a24.82,24.82,0,0,0,4.44-2.13l3.93-3.47c1.13,2.93,2,5.59,3.18,8.11.74,1.58,1.93,4.12,3,4.15,1.71,0,3.46-1.6,5.18-2.56a15.34,15.34,0,0,0,1.41-1c3.35,2.45,6.45,4.68,5.7,9.81-.71,4.88-2.11,8.49-7.89,8.23-2.61-2-5-4.36-7.91-5.73-1-.49-4.51,1.23-4.7,2.31-1.43,8.23-3.7,16.59,4.34,23.41,5.53,4.7,5.83,11.59,5.17,18.4C347.52,160,347.31,161.47,347.13,162.93Zm-38-7.36,4.83-5.44c-1.48-1.26-3.06-3.62-4.43-3.51-1.86.15-3.56,2.21-5.32,3.45Zm23.26-28h-1.71c-.87,1.55-2.41,3.11-2.39,4.64,0,1.28,1.89,2.53,2.94,3.79,1.23-1.25,3.29-2.39,3.47-3.77S333.21,129.17,332.37,127.61Z"/><path class="cls-12" d="M469.07,318q0,2.52,0,5l-21.79-9-.59-2.86c.67-2.55,0-3.9-2.91-4.44-4.15-.75-8.44-3-10.29,2.92-.47.06-.72.16-.79.09-4.66-4.59-9.74-8-16.81-7.08-.82.1-1.91-2-2.86-3,4.46-4.93,5.26-4.93,9.48-.08,2.95-4.73,2.82-8.86-1.66-12.46,7.1,2,14.39,3.47,21.24,6.1,9.86,3.79,19.39,8.43,29.07,12.66a6.75,6.75,0,0,0,2,.22C470.31,309.53,466.27,312.58,469.07,318Z"/><path class="cls-12" d="M437,125l13.12-6.48-4.71-6.66c1.79-.31,3.15-1,4.11-.63,3.54,1.33,6.86,3.68,10.82.91a10.88,10.88,0,0,1,3.12,3.82c.64,1.83.36,4,.52,6.6l-2.56,1.54c.41.62.58,1.2.94,1.37,4.16,1.92,8.42,3.65,12.5,5.71,1.79.9,3.26,2.45,4.87,3.7-1.47,1.45-2.73,3.58-4.49,4.16-1.57.52-3.93-.3-5.53-1.23s-2.85-2.79-4.25-4.23l-1.22,1,1.69,4.81-4.56,1.1,3,4.93c-5.22,1.75-9,.34-11.26-4.55V141l-1-2,0,0-1-2,0,0c-.31-1.77.92-5.11-3.13-3.08l-2.83-1-2.24-5.8L438,130C434.29,129,433.86,127.4,437,125Z"/><path class="cls-9" d="M404.9,111.74c2.41-5.43,2.72-10.75-.4-16.11-.34-.58.59-2.37,1.39-3.06a31.61,31.61,0,0,1,5.76-3.85c6-3.11,8.5-8.06,8.3-14.62l5,.86c1.34,3.18,2.66,6.37,4,9.55,1.73,4,.86,7.7-2.42,10.26-4.84,3.78-6.45,8.51-5.67,14.35l-10.42-3.78,1.29,4.22Z"/><path class="cls-10" d="M403.92,234.09l3.43-5.8-13-4.45q-.18-3.93-.38-7.85l1.05-3.11c4.66,1.77,9.19,4.27,14,5.1,4.53.78,9.38-.12,14.07-.49,1.37-.11,2.69-.92,4.65-1.64-.39,2.59-.27,4.68-1.09,6.3-.71,1.4-2.92,3.45-3.72,3.16-6.39-2.34-6.19,2.51-7.12,6.13-.4,1.57-.56,3.21-1,5.56l-3.33-3.66Z"/><path class="cls-23" d="M428,128c-1.15,11-2.72,21.87-7,32.35-4.67,11.46-8.06,23.43-12,35.17a6.25,6.25,0,0,1-2.87,3.63c.35-4,.25-8,1.13-11.84,3.72-16.3,7.77-32.49,15.19-47.68,1.65-3.37,1.19-7.76,1.7-11.68Z"/><path class="cls-2" d="M469.07,318c-2.81-5.39,1.24-8.43,4.07-11.89,3.14-.4,3.85-2.4,3.91-5.26a64.28,64.28,0,0,1,1.06-7.77l8-.15,3.63-.38-.82,8.57c1.6,2.7,3.22,5.39,4.79,8.11.91,1.57,1.75,3.19,2.63,4.78l-1.72,1.41c-1.73-1.48-3.56-2.87-5.18-4.46-2.56-2.5-4.48-3.34-7.84-.39C478,313.69,473.31,315.54,469.07,318Z"/><path class="cls-9" d="M383,231.8l-2.13,4.34c-4.2-.13-8.36-.15-10.89,5.34l-3.67-4.73,7.49-5.53c-3.44-2.8-10.6,1-12.46-6.44l7.23-9.79,9.43,6,0,0-2.92,6.79Z"/><path class="cls-22" d="M445.09,132.93l2.83,1,3.13,3.08,0,0,1,2,0,0,1,2v-.07a10.75,10.75,0,0,1,.17,2.44c-.42,2.71-1,5.41-1.47,8.11-3-.74-7.25-.51-8.71-2.42-2.81-3.66-4-8.54-5.92-12.92l3-3.05Z"/><path class="cls-21" d="M528.68,293.79c-2.07-4.94,3.54-11.51-3.53-15.68l-5.87,17.66c-4.51-16-1.5-22.46,8.51-20.27l.54-4.87c3-1.3,5.54-.37,5.23,2.7-.69,6.69-2.3,13.28-3.57,19.9C529.94,293.38,529.44,293.46,528.68,293.79Z"/><path class="cls-9" d="M395.06,212.88,394,216c-3.4-1.94-3.17,1-4,2.81-.57,1.24-1.78,3-2.75,3.07A66.52,66.52,0,0,1,378,221l0,0,.32-4.19,7.57,2.29.58.37-.37-.57-2.1-7.7-3.51.39-3.35-5.8.8-1.38Z"/><path class="cls-2" d="M405.91,244c-2.81,8.08-13.14,6.7-16.71,13.82l-1.3-1.1a34.26,34.26,0,0,1,3.42-4.54c3.05-2.93,5.49-5.42,4-10.61-1.18-4.26,3.85-4.36,6.68-5.64Z"/><path class="cls-9" d="M414,131.22c-2.51-3.75-5.15-7.43-7.49-11.29a38.48,38.48,0,0,1-2.42-6l18.41,14.23-.77,2Z"/><path class="cls-3" d="M428,128l-3.88,0L423,122.05l1.09-9,.12-1.2L430,111l-1,15Z"/><path class="cls-9" d="M429,126l1-15c5.38,1.78,7.56,4.89,7,10C432.56,119.82,431.63,124.27,429,126Z"/><path class="cls-22" d="M429.42,221.13c2.51-1,5-2.58,7.54-2.57,1,0,2.72,3.57,2.73,5.52,0,1.17-2.9,3.53-4,3.28-2.29-.5-4.27-2.42-6.38-3.76Z"/><path class="cls-9" d="M373.55,207.23l-3.06,4.92L363,207.06l1.81-6.53Z"/><path class="cls-9" d="M424,113.1l-1.09,9-7.11-5.57.18-1.53Z"/><path class="cls-21" d="M486.14,292.89l-8,.15c0-2.18,0-4.36,0-7.65Z"/><path class="cls-1" d="M445.09,132.93l-5,.15L438,130l4.85-2.87Z"/><path class="cls-1" d="M300.89,288.64l5.3,2.37c-2.76,8.12-1.84,10.11,5,14.86,4,2.79,6.9,2.38,9.84-1.24a40.77,40.77,0,0,1,4-3.76c2.25,7.25,4.6,14.46,6.73,21.74,2.68,9.19-2.42,16.08-12.1,16.32-2.94.07-5.9-.55-8.86-.8-3.33-.29-7.42-1-8.71,2.77-.85,2.49-.19,6.25,1.22,8.58a30.17,30.17,0,0,0,8.6,9.51,12.65,12.65,0,0,1,6,11.33c-.11,8.23-1.16,16.45-1.82,24.68-1.11,2.64-2.09,5.34-3.38,7.89-1.4,2.78-3.08,5.41-4.64,8.11-3.08,1.43-5.17.51-6.78-2.47-.9-1.66-2.4-3-3.91-4.81-2.64,3.61-.48,5.49,1.42,7.52,5.06,5.37,5.69,9.36,1.83,15.05l-3.66-5.83h-2c-2.64,3.74-5.15,7.57-8,11.17-1.33,1.7-3.25,2.94-4.9,4.38l-2-.83c6-3.29,4.19-8.21,2.13-13.47l6.6-1.16c.11-10-8.54-9.13-14.81-11.83,3.66-2.73,7.56-5.62,3.86-9.79-2.87-3.23-2.1-5.74-.68-8.78,2.56-2.79,4.7-6.25,7.77-8.26,8.86-5.79,7.07-14.2,6.94-22.66-11.61,4.15-11.61,4.15-17.74.62a50.84,50.84,0,0,1-2-6.12c-.76-3.77,1.76-5.38,4.83-5.25,1.36.05,2.63,2.26,4.16,3.7.3-6.52-2-11.89-7.72-14.05-7.42-2.82-10.31-7.82-10.5-15.17,1.1-11,1.1-11,11.91-11a13.24,13.24,0,0,0,2,0c4.39-.69,8.78-1.41,13.17-2.12l0-1.53-12-4.73c1.15-3.38,1.32-7.21,2.93-8,5.11-2.42,5.78-7.05,6.91-11.54l9.41,8.66Z"/><path class="cls-11" d="M277.1,390.16c-1.42,3-2.2,5.55.67,8.78,3.71,4.17-.2,7.05-3.86,9.79,6.27,2.69,14.93,1.86,14.81,11.83l-6.6,1.16C284.2,427,286,431.9,280,435.19l-2-.16c-1.36-1.6-2.49-3.57-4.2-4.56-.53-.31-2.56,2.16-4,3.22-1.18.87-2.51,1.53-3.77,2.29-.91-3.73-2.77-4.1-6.46-3-4.81,1.44-10,1.5-15,2.34A41.05,41.05,0,0,0,239,437l-7,3a4.23,4.23,0,0,0-.78-.24c-2.51-6.42-3.76-13.62-9.68-17.94l-1.28.73L228,440l.08,2-3.17,2.4-2.85-2.47a221.14,221.14,0,0,0-17.59-32.49c-4.22,7.92-4.07,7.72,1.74,12.41,4.39,3.54,7,8.18,5.8,14.21-3.32,1.65-6.33,3.38-10.22.41-1-.78-4.74,1.32-6.78,2.73-1.83,1.27-3,3.43-5.38,6.23l24.81,3.14c.34,5.42-2.31,7.38-10.73,7.51l-.3,4.19-7.11-1.2,1.68-6.74c-3.25-.82-6.36-.21-8.64,3.17-4.21,6.22-9.18,6.56-14.39,1-.57-.6-1.16-1.18-1.75-1.77L174,447h0c3.37,1.26,5.48.91,6.13-3.4.7-4.67,3.56-7.1,8.74-6.7,4,.31,5.7-2.23,3.58-5.5-4.76-7.35-8.31-15.78-16.46-20.42l0,0c-3-4.44-1.16-7.64,2.56-9.81L177.08,395l1.84-2.08,4.84,4c3.62,3.77,6.42,2.83,9.09-3.07l2-2.08-.09-.13c1.3.24,3,0,3.83.79,5.07,4.76,6.14.75,7.27-4.35,6.64.93,13.05,1.89,19.48,2.7a37.05,37.05,0,0,0,6.79.23c10.68-.64,21.35-1.38,32-2.09,3.12-.21,6.24-.67,9.36-.61C274.73,388.41,275.91,389.54,277.1,390.16Zm-69,5.89c-1.3,9.09,7.46,13.52,8.85,21.36l1.21-.43-2.23-21c-.6-1.32-1.11-3.7-1.83-3.76-2-.18-4.17.51-6.2,1.09A12.34,12.34,0,0,0,208.11,396.05Zm28.21,11.08c.44,1.38.47,3,1.21,3.44,1.85,1.07,4.11,2.32,6,2.08,1.29-.16,3.21-2.79,3.15-4.24-.08-1.79-1.9-5-3-5-3.51-.05-4.49-2.51-6.42-4.41-1.25-1.23-4.18-2.08-5.58-1.43s-2.46,3.36-2.55,5.21C228.92,407.56,232.76,407,236.32,407.13Z"/><path class="cls-1" d="M232,440.07l7-3c-.62,4.51.28,7.86,5.19,9.86,1.95.79,2.89,4,4.3,6.14,1.77,2.64,3.18,5.67,5.43,7.81,3.7,3.53,4.7,6.53,2.14,11.21C245.44,463.21,237,452.93,232,440.07Z"/><path class="cls-1" d="M272.41,486c8.44,0,13.49,4.12,13.59,11.06.1,7.23-6.35,13.81-13.84,13.88-6.21.05-12.17-1.17-15.06-7.41-3.81-8.22,1.83-16.67,11.33-17.52C269.75,485.92,271.08,486,272.41,486Zm-1.23,1.71,0,.29a25.86,25.86,0,0,0-3,0c-6.21.73-12,8.86-9.69,13.64,4.1,8.64,17.09,9.93,23,2.27,4.63-6,2.44-12.87-4.93-15.2A44.9,44.9,0,0,0,271.18,487.73Z"/><path class="cls-16" d="M212,436.07c1.24-6-1.41-10.67-5.8-14.21-5.81-4.68-6-4.49-1.74-12.41a221.14,221.14,0,0,1,17.59,32.49L218,441l0,0-2-1Z"/><path class="cls-14" d="M255.67,436.24c3.78-.06,7.4,3.15,7.42,6.57,0,3.62-3.07,6.15-7.53,6.19s-7.61-2.46-7.69-6S251.36,436.31,255.67,436.24Z"/><path class="cls-1" d="M224.92,444.42l3.17-2.4L239,460h0l-4.08-3.2c-1.87-1.46-4.1-2.65-5.51-4.46C227.58,450,226.39,447.08,224.92,444.42Z"/><path class="cls-7" d="M228,440l-7.77-17.38,1.28-.73c5.92,4.32,7.17,11.52,9.68,17.94Z"/><path class="cls-1" d="M266,436c1.26-.75,2.59-1.42,3.77-2.29,1.44-1.06,3.48-3.52,4-3.22,1.71,1,2.84,3,4.2,4.56l-2,1-1.8-2.83L272,437C269.73,438.29,267.5,439.28,266,436Z"/><path class="cls-1" d="M252,474l-13-14h0l13,14Z"/><path class="cls-10" d="M272,437l2.2-3.84L276,436Z"/><path class="cls-10" d="M317,505l-1.05.75L317,505Z"/><path class="cls-1" d="M234.71,487.61c0-.12.09-.35.13-.35a1.32,1.32,0,0,1,.43.13c0,.12-.09.35-.13.35A1.32,1.32,0,0,1,234.71,487.61Z"/><path class="cls-1" d="M247,513l.24-.42L247,513Z"/><path class="cls-1" d="M253,475l-1-1h0l1,1Z"/><path class="cls-1" d="M240,475l.43.23L240,475Z"/><path class="cls-1" d="M253,475l.42.23L253,475Z"/><path class="cls-10" d="M446.7,311.12l.59,2.86c.28,6-4.57,8-8.37,10.89l-7.14,6.19c-6.3,8.66-1.48,19.24,8.51,20.41,4.71.55,8.87,1.67,12.51,4.66l2.68,4.88c1.61-.95,3.48-1.63,4.79-2.88,5.45-5.21,5.39-5.27,10.74-1.16,2.13,3.52,3,7.14.94,11-2.88,1-5.72,2.46-8.66,2.72-3.46.3-5.16,1.5-5.32,5a19.18,19.18,0,0,1-.74,3.35c-3.15,6.47-1.9,12.76.76,19l2,4q0,1.47.06,2.94c-1.81,1.89-4.15,3.5-5.35,5.73-5,9.32-13.73,14.7-21.86,20.56-2.58,1.86-6.51,1.86-9.82,2.71l2-3.94c7.09-5.72,14.2-11.41,21.26-17.16,5.22-4.26,4.87-9.4-.83-12.63-1.42-.81-2.92-1.49-4.38-2.22-3.39-4.08-3.62-8.23-.71-12.76s3.27-9.15-.08-13.94a8.7,8.7,0,0,0-1.27,1c-1.28,1.49-2.52,3-3.78,4.53a40.92,40.92,0,0,1-2.91-5.52A41.7,41.7,0,0,1,431,365c-1.17-6.25-3.05-7.39-9.18-7-8.13.54-14.27,3.6-17.63,11.42a4.73,4.73,0,0,1-3.27,2.34c-.76.1-2.47-1.53-2.5-2.43-.2-6.13-.1-12.26,0-18.39,0-.34,1-.65,1.58-1h3a23,23,0,0,0,4.48,2.17c2.83.7,6.06,4.35,8.47-.53,2.3-4.65,1-9.32-3.15-11.66A15.07,15.07,0,0,0,410,339c-3.3-2.28-4-4.83-1.47-8.34,2.89-4,5-8.65,8.18-12.44,1.41-1.69,4.9-3.25,6.76-2.67,7.16,2.24,13.29,1.37,19.05-3.45C443.5,311.29,445.28,311.43,446.7,311.12Z"/><path class="cls-1" d="M332,427c.23-1.47.48-2.94.68-4.41.23-1.69.4-3.38.6-5.07l-2-1.08c-3.1,2.87-6.48,5.49-9.19,8.69-1.87,2.21-2.86,4.85-.74,8.17s-.27,5.81-4.22,8l-4.36-12.15c-1.71,1.88-3.09,3.26-4.3,4.77-1.58,2-3.11,2.46-4.73.14-1.45-2.08.08-11,2.22-13.08,3,2.53,6.22,2.59,9.66.74,3.18-1.72,6.69-2.91,9.65-4.93,1.52-1,2.16-3.36,3.24-5.19,1.37.79,2.74,1.61,4.14,2.38s3,1.62,5.19,2.76L341,413h0Z"/><path class="cls-1" d="M359,450c-2.74,0-5.54.2-8.2-.3-1.07-.2-2.23-1.93-2.62-3.18-.33-1.06.4-2.45.51-3L338,439c3.44-.29,6.9-.47,10.32-.88C355.26,437.25,359,441.38,359,450Z"/><path class="cls-1" d="M341,413c1.58-4.47,2.88-9.07,4.87-13.35.81-1.74,3.12-2.78,5.25-3.63.33,8.1-7.24,11.1-10.1,17Z"/><path class="cls-10" d="M333.05,389l-2.1-6,7,3.1h0l6,2.95,2.1.89C341.14,392.92,337.09,391.05,333.05,389Z"/><path class="cls-10" d="M374.76,383.91c1.74,5.76.54,7.61-5.22,8.84C368.12,388,372.34,386.87,374.76,383.91Z"/><path class="cls-18" d="M344,389,338,386C340.36,386.24,343.47,385,344,389Z"/><path class="cls-18" d="M403,350h-3l1.27-1.77Z"/><path class="cls-18" d="M349.81,380.89c-.47.4-.76.84-1.09.87s-.81-.27-1.21-.43c.33-.4.6-.92,1-1.14C348.73,380.09,349.23,380.56,349.81,380.89Z"/><path class="cls-7" d="M425,430l-2,3.94-2.33.07c0-.73-.22-1.89.12-2.11A30.84,30.84,0,0,1,425,430Z"/><path class="cls-7" d="M386.6,441.57v4h-1.45v-4.13Z"/><path class="cls-7" d="M416.95,440l-1-1,1.49-.52Z"/><path class="cls-1" d="M570,228l-.47-.4c.1,0,.24,0,.28,0a1.35,1.35,0,0,1,.17.37Z"/><path class="cls-1" d="M523,351l3.73,6.87-1.34,1.37-9.83-1.6L523,351Z"/><path class="cls-12" d="M457.23,379a19.18,19.18,0,0,0,.74-3.35c.15-3.47,1.85-4.67,5.32-5,2.94-.26,5.78-1.77,8.66-2.72,1.12.23,2.41.17,3.32.74,6.47,4,13.59,4.69,20.94,4.31q-1.1,5.29-2.21,10.59c-.6,2.87-1.22,5.74-1.83,8.61-3.07-1.58-6-3.54-9.25-4.69C474.42,384.51,465.8,381.84,457.23,379Z"/><path class="cls-16" d="M460,402l-2-4,7.53-2.66C466.72,400.26,461.68,399.77,460,402Z"/><path class="cls-12" d="M159,75c-1.44,4.53-5.87,8.38-3.6,12.52-2.74,4.83-5.27,8.7-7.22,12.85s-3.3,8.52-4.92,12.79L138,109l-5,1c-2.69-9.92-10.84-12.29-19.43-14-5.33-1.08-10.66-2.12-16-3.18l4.29-5.87-.45-.79L95,88.79l-.84-.63c3.11-4,5.5-9,9.45-11.84C114.74,68.4,126.5,61.39,138,54a21.06,21.06,0,0,0,2.83,2c4.41,2.13,9.16,3.72,13.21,6.39,2.42,1.59,3.78,4.8,5,6.39Z"/><path class="cls-20" d="M159,75V68.76c-1.18-1.59-2.54-4.79-5-6.39-4.05-2.66-8.79-4.26-13.21-6.39A21.06,21.06,0,0,1,138,54l13.78-7.27.51.6c-.17,1,0,2.14-.55,2.89-1.86,2.73-2.23,5.61.6,7.42,2.12,1.35,5.39,2.57,7.56,1.91,11.59-3.57,22.85-8.26,34.52-11.5,6.21-1.72,13-1.3,19.55-1.84l8.94,2L228.48,52c-5.1,1.61-9,2.73-12.76,4C204.38,60,193.16,63.82,183,70.92c-4,2.81-11.06,1.91-16.65,1.57C163.17,72.29,161,72.66,159,75Z"/><path class="cls-20" d="M151.79,46.75l1.48-.44-1,1Z"/><path class="cls-20" d="M425,75l-5-.86-12.89-1.92c-3.64-5.48-7.35-10.91-10.86-16.47A60.25,60.25,0,0,1,393,49c3.28,3.51,7.29,4.45,12,4.15,2.26-.14,4.61,1.25,6.93,1.94,2.6,2.53,5,6.16,9.06,2l4.17,1.79a48.17,48.17,0,0,0-.8,6.37C424.39,68.53,424.76,71.75,425,75Z"/><path class="cls-24" d="M500.92,101.11l.94,1.86c-3.55.5-6.52-.39-8.76-3.39a6.12,6.12,0,0,0-2.63-2.21,28.15,28.15,0,0,0-5-.76c.34,1.79.28,3.8,1.11,5.32a60.27,60.27,0,0,0,4.93,6.77l-1.12,1.18c-.95-.33-2.31-.36-2.78-1-3.61-5.08-10.18-9.17-5.89-17.18.3-.56-2.4-3.49-4.16-4.23-3.22-1.35-6.18-2.52-6.52-6.55l19.14,10C491.77,96.4,495.47,99.68,500.92,101.11Z"/><path class="cls-2" d="M465.42,89.4,463.49,94l-1-.29,3.46-12.45,1.61.09c1.23,3.68,2.57,7.32,3.6,11.06.26,1-.5,2.19-.79,3.29A19.23,19.23,0,0,1,468,93.55C467.27,92.57,466.69,91.43,465.42,89.4Z"/><path class="cls-12" d="M458.89,68.62c-2.37-1.93-4.92-3.85-7.26-6a2.69,2.69,0,0,1-.15-2.64,2.75,2.75,0,0,1,2.59-.6,48.24,48.24,0,0,1,7.58,4.44c.77.57,1.11,2.34.89,3.4C462.44,67.76,460.68,68,458.89,68.62Z"/><path class="cls-21" d="M421,57.15c-4.11,4.11-6.46.48-9.06-2Q412,53,412,51Z"/><path class="cls-1" d="M500.92,101.11c-5.45-1.43-9.15-4.71-10.79-10.18Z"/><path class="cls-25" d="M395.89,74c-.17,7.14-5.69,7.88-10.85,9.05L382,77c2.75-2.73,4.9-5.52,1-9l-1-1L370,63c-3.15-1.64-6.12-4-9.47-4.79-7.32-1.73-12,3.92-9.88,11.25.9,3.14,1.56,6.35,2.32,9.53-4.59-2.8-9.51-5.22-13.61-8.62-1.48-1.22-1-4.81-1.51-7.94l-1.91.33,2-13.73,10,7.13,1.12-1c-.59-1.2-1.16-2.42-1.79-3.61-1.94-3.64-1.2-5.47,2.92-5.39a16.31,16.31,0,0,1,8.35,2.39c4.88,3.24,9.29,7,14.45.61.29-.36,1.27-.16,1.93-.22A37,37,0,0,0,377.55,53q6,7.26,12.12,14.37C391.65,69.66,393.81,71.78,395.89,74Z"/><path class="cls-24" d="M395.89,74c-2.08-2.2-4.24-4.32-6.21-6.6Q383.52,60.27,377.55,53A37,37,0,0,1,375,48.93c2.09.41,4.21.71,6.25,1.27,2.89.79,5.64,1.93,8-1.29.43-.58,2.46,0,3.75.1a60.25,60.25,0,0,0,3.2,6.72c3.51,5.56,7.23,11,10.86,16.47l-.81,6.24Z"/><path class="cls-19" d="M338,49.06l-2,13.73c-2.55,1.17-5,2.72-7.69,3.39-1.65.41-3.63-.52-5.45-.85C323.42,63.1,326,60.6,322,59a2.85,2.85,0,0,1,0-.88L323,44Z"/><path class="cls-12" d="M323,44l-1.06,14.1-10.92-4-2-16,4.24-1.95c3.76-1.65,6.09-.9,7,3.54C320.52,41.22,322,42.56,323,44Z"/><path class="cls-9" d="M174,447l-.78,7.76c-2.75,3-.62,5.54,1.41,7.17,4.59,3.66,9.57,6.84,14.47,10.1,3.59,2.38,7.3,4.58,11,6.85L191,479l-37.15-2.16c-.33-1.43-.33-3.06-1.07-4.24-2.2-3.53-2.42-6.76.39-10.05.41-.48.32-1.4.58-2.77l-8.7,1.88-1.48-7-15.14-2.37-1,.7c5.08,5.13,5.13,11.31,3.73,17.79l1.25.07,3.67-4.9c5.19,1.8,8.14,5.37,9.94,10.07-4.45.34-9,.32-13.32,1.14-4.07.77-4.74,3.47-1.61,6.29,2.12,1.91,5.21,4.69,7.35,4.29,15.1-2.79,20.68,7.19,26.64,17.95,4,7.27,9.32,13.92,14.64,20.36,3.12,3.77,7.94,3.56,12.51,2.38,4.29-1.11,8.59-2.18,13.7-3.47-1.14,4.14-1.83,7.66-3.09,11-1.57,4.11-6.15,5.6-11,3.4-8.57-3.88-17-8.16-25.5-12.13-3.48-1.62-3.22-4.5-3.43-7.55-.11-1.57-1.57-4.43-2.18-4.37-7.61.77-15.56.24-22.85,4.57L141,526h0c-4.14-2.56-8.48-4.86-12.39-7.73-9.55-7-18.92-14.29-28.31-21.52a35.56,35.56,0,0,1-3.51-3.7c4.92-4.48,7.16-9.74,4.06-15.63l-5.45,2.2c-1.35,5.08-2.49,5.41-8.16,2.52C77.55,477.21,69.25,471,66,460c2.14-.64,4.63-.8,6.37-2a28,28,0,0,1,17.59-5c.67,4,3,5.23,7.12,4.56-.85-3.65-.57-7.63-5.91-6.49.39-.89.53-2.26,1.19-2.59q9.11-4.55,18.39-8.76c3.57-1.63,7.38-2.76,10.82-4.61,2.08-1.12,3.66-3.2,5.46-4.85,7.18-1.62,10.19.09,11.78,6.72a9.53,9.53,0,0,1,.2,2.48c-.09,2.94.77,4.91,4.24,4.6.8-.07,2.15,0,2.36.38,2.18,4.38,5.53,3.5,9.47,1.5.36,2.53.36,4.55,1,6.33.5,1.42,1.77,2.56,2.59,3.66l2.82-11.86c-2.47-.64-5.22-1.16-7.81-2.1a4.45,4.45,0,0,1-2.46-2.59,3.13,3.13,0,0,1,1.33-2.8,4.72,4.72,0,0,1,3.58.67c1,.68,1.56,2,2.07,2.75l11.13-6.58-4.34-7.29,7.46-.66c1.7,2.49,2.65,5.45,4.43,6.09,2.24.81,5.18-.18,7.78-.61a3,3,0,0,0,2.14-1.51,3.48,3.48,0,0,0-1-2.49,7.8,7.8,0,0,0-2.7-2.18c-6.19-2.67-8-7.52-7.06-13.77,8.16,4.64,11.7,13.07,16.46,20.42,2.12,3.27.4,5.81-3.58,5.5-5.18-.4-8,2-8.74,6.7-.65,4.31-2.76,4.66-6.13,3.4a1.35,1.35,0,0,0-.18-.34c0-.05-.17,0-.26-.06Zm-58.51,39.39c-1,6.64,0,8.7,4.81,8.48,2.73-.12,7.65,2.79,7.68-3.44C128,486.78,124.65,485.47,115.48,486.39ZM84.93,472.27l11.63-1.11L87.47,459Zm88.89.44,1.32-1.8-3.5-9.83-1.66-.2-4.51,7.91ZM140,502.54l-2.7-4.42c-.75,1.31-2.15,2.64-2.09,3.92.07,1.61,1.31,3.18,2,4.76Z"/><path class="cls-8" d="M89.92,453a28,28,0,0,0-17.59,5c-1.74,1.22-4.22,1.38-6.37,2-8.95-5.51-15.29-13.66-22-21.5-4.22-4.95-2.69-9.69,0-14.53,1-.66,2.3-1.1,3-2,3.78-5,7.56-5.5,13.05-2.8,2.91,1.43,6.61,1.24,9.95,1.78.86.23,1.95.91,2.54.61,8.91-4.46,17.76-9.06,26.62-13.62.3-.15.66-.48.89-.41,4.17,1.33,6.64-2,9.74-3.54,1.67,3.1,3.36,6.19,5,9.3,1.12,2.12,2.83,4.17,3.17,6.41.89,6,3.12,9,9,10.53-1.8,1.65-3.37,3.73-5.46,4.85-3.44,1.85-7.25,3-10.82,4.61q-9.27,4.23-18.39,8.76c-.66.33-.81,1.7-1.2,2.59Zm11.43-36.41-.6,2.25c.82.56,1.58,1.44,2.47,1.63,5.52,1.13,6.68,5,7,9.92.11,1.83,1.59,3.58,2.84,6.2,1.34-5.92-2.84-17.28-6.86-19.62C104.94,416.23,103,416.67,101.36,416.58Z"/><path class="cls-2" d="M70,421c-3.34-.54-7-.36-9.95-1.78-5.5-2.7-9.27-2.21-13.05,2.8-.68.9-2,1.35-3,2l1.06-4.91a9.44,9.44,0,0,0,.89-.45l6-3.85-4.58-5.14,1.84-2.54c-3.44-4.24-6.62-7.88-9.41-11.79-.75-1.05-.36-2.92-.5-4.41l1.23-.37,3.36,6.21c1.3,2.4,3.15,3.5,4.8.7,2.1-3.57,4.68-2.64,6.41-.55,4,4.82,8.06,6.48,13.51,2.47.6-.44,1.79-.06,3.67-.06-5,3.59-4.39,7.23-2.64,11.76C70.71,413.92,73.25,417.56,70,421Z"/><path class="cls-19" d="M146,476c-1.8-4.7-4.75-8.26-9.94-10.07l-3.67,4.9-1.25-.07c1.4-6.48,1.35-12.65-3.73-17.79l1-.7,15.14,2.37,1.48,7,8.7-1.88c-.27,1.37-.17,2.29-.58,2.77-2.81,3.29-2.59,6.52-.39,10.05.74,1.18.73,2.81,1.07,4.24C151,478.35,148.38,478.43,146,476Z"/><path class="cls-17" d="M191,479l9.08-.12a14.83,14.83,0,0,1,3.94.37c4.15,1.56,8.23,3.34,12.36,5.05-3.63,4.34-6.85,4.43-11.26,1.48a11.09,11.09,0,0,0-7.45-1.66C192.41,485.1,191.46,484.71,191,479Z"/><path class="cls-6" d="M216,440l2,1Z"/><path class="cls-9" d="M141,526l.42.23L141,526Z"/><path class="cls-24" d="M100.91,347.06c1.09-3.17,3.11-5,6-7.15,5.84-4.39,10.31-10.64,15.18-16.27.76-.87.55-2.53,1-3.77s.71-3.23,1.71-3.87c7.77-5,9.31-13.5,12.3-21.19q3.48-8.95,7-17.88L155,255l3-8c2.22-8.67,1.6-16.63-4.92-23.59-3.29-3.51-6.26-7.48-5.05-12.87.5-2.22,1.25-4.38,1.91-6.67-.62-.45-1.09-1.05-1.67-1.17-6.43-1.31-7.92-5.61-7.31-11.48.59-5.72-.25-11.17-3.92-16.33l12.12,4.33a24.12,24.12,0,0,0-.78-3.47c-1.59-3.62-1.81-6.89,1.3-10s6.31-1.52,9.18-.18c4.87,2.28,9,.79,13.14-1.59l3,29-11.37-1.14,16.69,12.45-1.22,2.21a78.18,78.18,0,0,1-9-3c-5.1-2.38-9.93-5.33-15-7.68-2.48-1.14-5.34-1.45-8-2.14l-.4,1.29,29.41,16.61-.7,1.75c-6.67,2.4-13-2.27-19.87-1l12.32,5.84L157.93,223c8.53,5.08,13.88-4.83,21.06-2.42,0,2.46.48,4.74-.08,6.72-2.16,7.63.79,12.6,7.51,15.94.18.09.15.6.37,1.64l-12.7,3,.35,1.89c6.65,3.08,13.67.06,20.5.68-9.46,3.31-18.67,7.81-29.08,3.17-2.39-1.07-5.74-2-8.4,2.83l18.95,4.25-.29,1.2a23.22,23.22,0,0,1-2.83-.27c-7.62-1.65-9.2-.49-9.46,6.9a8.27,8.27,0,0,1-.77,2.34c-2.32,6.37,1.29,14.77,7.55,17.14,3.63,1.37,8.51.64,9.42,6.21.06.39,1.46.51,2.2.83,2.26,1,4.5,2,6.74,3-2.54,1.93-5.43,3.54-7.49,5.88a9.29,9.29,0,0,0-2.17,6.36c.2,2,2.2,3.77,3.28,5.46L179,319.07c-2.77,2-7.83,3.9-7.84,5.88,0,4.5-1.44,8.18-3.05,12a19.4,19.4,0,0,1-4.24-1.13c-8.15-4.29-16.68-6.41-25.68-3.65-9.32,2.85-13.6,2.71-13.13,12.7-2.87,1.79-5.78,3.53-8.61,5.39-3,2-5.76,2.26-8.07-1C105.21,352.66,103.44,352.08,100.91,347.06Zm59.36-156.34.42-.79-2-1.18-.43.85Z"/><path class="cls-20" d="M179,319.07l3.64-3.36c-1.08-1.68-3.07-3.48-3.28-5.46a9.29,9.29,0,0,1,2.17-6.36c2.06-2.35,5-4,7.49-5.88.86.43,2.13.64,2.51,1.33,2.35,4.25,4.36,8.69,6.8,12.88.84,1.45,2.59,2.37,3.93,3.53.31-1.57,1.09-3.21.85-4.69-.75-4.44-1.89-8.82-2.74-12.58,2.07.26,4.91,1.41,5.71.59,3.11-3.21,6-5.43,10.93-1.86a26.1,26.1,0,0,0-1.55-5.41c-.93-2.51-2.29-5.15,1.48-6.57,3.1-1.17,7.68.86,7.84,4.09.32,6.79.08,13.61-.24,20.41-.13,2.84-2,3.87-4.91,3-5.45-1.62-5.89-1.23-6.62,4.43a12,12,0,0,1-1,3.79c-2,4-1.32,8,1.79,10.42,1.65,1.3,5.17.23,6.69.23,5.6,5.44,10.75,10.92,16.43,15.81s8.78,11.23,7.27,16.62l-8.09-2c0-3.52-.91-6.79-5.21-5.65-2.84.75-5.28,3-7.89,4.64-11.64-.34-23.29-.82-34.93-1-13.26-.17-26.53,0-39.8-.08-4.19,0-7.28,1.45-9.33,5.1l-10.23-6.54,4.68-7.45L125,344.9c-.47-10,3.81-9.84,13.13-12.7,9-2.76,17.54-.64,25.68,3.65a19.41,19.41,0,0,0,4.24,1.13c1.13,1.33,2.09,3.57,3.44,3.84,5.06,1,9.37,2.72,12.19,8.19-4.78-10.76,2.83-18.11,6.55-28.07L181,324.77Z"/><path class="cls-26" d="M236.07,362l8.09,2c.13,1.3.26,2.6.53,5.19,2.75-2.54,4.38-4.31,6.29-5.72a61.82,61.82,0,0,1,6-3.52c4.05.19,8.11.47,12.16.53a32.88,32.88,0,0,0,4.94-.65c6.13,3.53,6.13,3.53,17.74-.62.13,8.46,1.93,16.87-6.94,22.66-3.08,2-5.21,5.46-7.77,8.26-1.19-.62-2.37-1.76-3.57-1.78-3.11-.06-6.24.4-9.36.61-10.67.72-21.35,1.46-32,2.09a37.05,37.05,0,0,1-6.79-.23c-6.43-.81-12.85-1.77-19.48-2.7-1.14,5.1-2.2,9.11-7.27,4.35-.81-.76-2.53-.55-3.83-.79,1.08-2.84-1.09-8,4.64-7.56,4.2.31,5.15-2,5.51-5.17.18-1.65.06-3.32.15-5,.54-9.88.55-9.89-9-8.86-.28,0-.53.37-.79.56-.47,2.05-1.37,4.75-2.74,5-1.89.37-4.13-1.1-6.23-1.79-3.31,10.64-3.3,12.78,0,14.89-2.88,3.15-5.39,3.92-9,.38-2.56-2.5-6.63-2.29-8.38,1.37-1.85,3.87-4.28,4.5-7.87,3.43l-23.2-2.11c3.22-7.15.94-14.56,1-21.86,2-3.65,5.14-5.13,9.33-5.1,13.26.11,26.53-.09,39.8.08,11.65.15,23.29.63,34.93,1,.08,6.41,1.16,8.15,5.23,6.77C231.13,366.79,233.46,364,236.07,362ZM169.13,378.9c-3.49-2.26-5.73-4.82-7.41-4.49s-4.4,3.42-4.34,5.23,3.08,4.72,4.77,4.7C164,384.32,165.92,381.56,169.13,378.9Z"/><path class="cls-11" d="M137.88,386.92l23.2,2.11c-.68,5.08-3,10.24.81,15.07l1.51,7.25,3-2c3.15,3.68,3.14,3.67,7.65,1.88A7,7,0,0,1,176,411l0,0c-.9,6.25.86,11.11,7.06,13.77a7.8,7.8,0,0,1,2.7,2.18,3.48,3.48,0,0,1,1,2.49,3,3,0,0,1-2.14,1.51c-2.6.43-5.54,1.42-7.78.61-1.78-.64-2.73-3.6-4.43-6.09l-7.46.66,4.34,7.29L158.14,440c-.5-.71-1.06-2.07-2.07-2.75a4.72,4.72,0,0,0-3.58-.67,3.13,3.13,0,0,0-1.33,2.8,4.45,4.45,0,0,0,2.46,2.59c2.59.94,5.34,1.46,7.81,2.1l-2.82,11.86c-.81-1.1-2.09-2.25-2.59-3.66-.63-1.79-.63-3.8-1-6.33-3.94,2-7.28,2.88-9.47-1.5-.21-.42-1.56-.45-2.36-.38-3.47.31-4.33-1.66-4.24-4.6a9.53,9.53,0,0,0-.2-2.48c-1.59-6.63-4.61-8.34-11.78-6.72-5.92-1.54-8.14-4.49-9-10.53-.33-2.25-2-4.3-3.17-6.41-1.65-3.11-3.33-6.2-5-9.3.47-1.18.65-3.09,1.45-3.41,4.93-1.94,6.77-6.29,9.39-10.31,1.17-1.8,4.57-2.55,7.09-3C131,386.76,134.48,387,137.88,386.92Z"/><path class="cls-2" d="M50,365l5.15-13.28L60,357l5,12.1-1,1.38C60.61,364.42,55.81,363,50,365Z"/><path class="cls-17" d="M35.21,366.9c-4.38-5.43-4.79-7.08-1.88-11.59l10.62,15.83,3,7C41.14,376.08,41.9,367.78,35.21,366.9Z"/><path class="cls-27" d="M172,164c-4.15,2.38-8.27,3.87-13.14,1.59-2.87-1.34-6.05-3-9.18.18s-2.88,6.4-1.3,10a24.12,24.12,0,0,1,.78,3.47L137,174.89c3.67,5.16,4.51,10.62,3.92,16.33-.6,5.87.88,10.17,7.31,11.48.58.12,1.05.72,1.67,1.17-.66,2.29-1.41,4.45-1.91,6.67-1.21,5.39,1.77,9.37,5.05,12.87,6.52,7,7.14,14.92,4.92,23.59h-5.92l1.65-4.52c-5.73.59-10.18-4.63-12.37-14.08-9.4-1.9-3.63,6.42-4.94,7.93l-11.65,6.37,1.82,4.65c-1.68.55-3.34,1.19-5,1.62-2.35.6-4.75,1-7.12,1.56l.28,1.42c3.54-.4,7.07-1,10.62-1.1,1.45,0,4.15,1.07,4.2,1.81.37,5.12,3.55,6.88,8,7.49l3.14-3.58,3.35,4.31c3.77-7.48,4.81-8,11-5.85l-11,21.89c-1.3-3.9-2.51-7.83-4-11.66a3.42,3.42,0,0,0-2.44-2,3.1,3.1,0,0,0-2.16,2.18c-.06,3.13.4,6.27.5,9.42.06,2,.53,5-.45,5.65a7.55,7.55,0,0,1-6.23.38,14,14,0,0,1-8.35-10.34c-.7-3.14-1.18-6.86-5.89-6.57l-18.68,3c.09-10.54,9.46-8.91,14.6-12.38l-.12-1.53-24.33-2.83.16-2.26c5.55,0,11.12-.34,16.63.09,6.24.49,11.32-1.67,16.13-5.27,3.1-2.32,3.71-4.82.57-7.29-3.37-2.65-7.08-4.86-10.58-7.36-6.49-4.63-6.32-8.9.75-12.7,6.83-3.67,13.21-7.76,16.75-15,.84-1.71.75-3.87,1.08-5.83-1.86.2-4-.14-5.52.7-3.68,2.05-6.38,2.22-8.66-1.93-.76-1.38-2.58-2.18-3.92-3.25-.83,1.35-1.7,2.68-2.49,4.06a18.67,18.67,0,0,0-.88,2.36l-1.35-6.49-10.68,9.19L93,198.67V193c.85-1,1.71-2,2.54-3,2.64-3.32,2.15-7.47-1.39-9.84-2.88-1.93-6-3.54-8.92-5.36s-3-4-.73-6.5c3.38,1.59,6.5,3.76,9.92,4.51,6.23,1.36,11.71-.54,16-5.6,2.22-2.61,4.84-4.87,7.28-7.29,1,1,1.81,2.4,3,3,.6.29,2.66-.78,2.72-1.36a7.7,7.7,0,0,0-1-4,11.34,11.34,0,0,0-2.41-2.43c2.54-6.19-.27-10.69-7.24-9.8-4.85.62-9.78,3-14,5.74-6.11,3.93-11.37,9.14-17.39,13.24C72.8,170.09,63.84,175.42,55,181c.39-1.22.41-2.82,1.22-3.59,9.94-9.51,18.08-21,31-27.21,4.09-2,7.63-5.22,11.08-8.27.84-.74,1-3.36.33-4.52-2.13-3.94-1.34-5.78,3.39-6.35,5.89-.72,11.82-1.18,17.69-2.08,9-1.38,12.24-5.82,11.78-15-.06-1.28,1-2.62,1.49-3.93l5-1c-.68,5.51-1.45,11-2,16.54-.31,3,.93,5.17,4.27,5.44,4.9.39,9.8.72,14.7,1.07,3.24,1.6,6.62,3,9.67,4.87,3.34,2.08,3.3,4.67-.21,6.25-3.74,1.68-7.81,2.61-11.74,3.85-1.92.61-3.85,1.19-7.21,2.22,2.73,1.77,4.07,2.9,5.6,3.59,5,2.24,9.67.34,14.48-1.07,3.42-1,7.16-1.92,10.6-1.51,2.32.27,4.35,2.91,6.51,4.5-1.46,1.86-2.69,4-4.46,5.51S174.08,162.75,172,164ZM109.9,174c3.39,0,5.88.31,8.25-.1a8.39,8.39,0,0,0,4.61-2.51c.48-.55-.54-3.61-1.17-3.71a10,10,0,0,0-6,.61C113.66,169.29,112.32,171.43,109.9,174Z"/><path class="cls-25" d="M93,193v5.67l1.46.65,10.68-9.19,1.35,6.49a18.67,18.67,0,0,1,.88-2.36c.79-1.38,1.65-2.71,2.49-4.06,1.34,1.07,3.16,1.87,3.92,3.25,2.28,4.15,5,4,8.66,1.93,1.5-.84,3.66-.5,5.52-.7-.34,2-.24,4.12-1.08,5.83-3.54,7.2-9.92,11.29-16.75,15-7.07,3.8-7.24,8.07-.75,12.7,3.5,2.5,7.21,4.7,10.58,7.36,3.14,2.48,2.53,5-.57,7.29-4.81,3.6-9.89,5.76-16.13,5.27-5.51-.43-11.08-.09-16.63-.09l-.16,2.26,24.33,2.83.12,1.53c-5.14,3.47-14.5,1.84-14.6,12.38L115,264c-3.18,12.56-7.24,24.46-20.79,29.85-2.61,1-4.83,3.47-7.47,4C80.52,299,75.9,294.7,72,291.11,62.76,282.6,60.6,271,58.74,258.9s1.65-23.31,2.51-34.92c.3-4,3.29-7.83,4.81-11.83C70,201.85,82.3,193,93,193Z"/><path class="cls-15" d="M120,155.05a11.34,11.34,0,0,1,2.41,2.43,7.7,7.7,0,0,1,1,4c-.06.58-2.11,1.65-2.72,1.36-1.2-.58-2-1.94-3-3Z"/><path class="cls-17" d="M35.71,216.21l-4.14,2.94-.86-.91,3.82-3.57Z"/><path class="cls-14" d="M309,38l2,16c-3.39-.66-6.94-.88-10.13-2.07-7.44-2.79-14.26-1.5-21,2-6.32,3.34-12.46,7-20.13,3.24-1.54-.76-4.21.8-6.78.41l7.31-4.32L260,51.92l-19.4,3.5-.33-1,3.24-2.64L238.19,46l2.53-2.52-15-1.78-.05-1.33,19.28-4c.15,0,.41,0,.46.08,4.23,6.71,7.13,1.57,10.93-.76,2.1-1.29,5.47-.75,8.26-.66,4.8.15,9.25-.18,12.61-4.34.8-1,2.47-1.28,3.51-1.78,1.32,2.94,2,5.66,3.59,7.73,2.29,3,5,6.19,9.14,1.88.44-.47,1.57-.37,2.38-.38C300.2,38.07,304.61,38.07,309,38Z"/><path class="cls-20" d="M325,300.88a40.77,40.77,0,0,0-4,3.76c-2.95,3.61-5.82,4-9.84,1.24-6.83-4.75-7.75-6.74-5-14.86,1.79-3.32,3.48-6.68,5.4-9.92.7-1.18,1.83-2.74,2.92-2.88s2.54,1.25,3.18,2.35c1.79,3,3.73,4.54,7.9,1.61-2-1.75-3.78-3.07-5.27-4.65-.94-1-2.34-2.89-2-3.48a8.49,8.49,0,0,1,4.16-3.75c1-.33,3.24,1,3.92,2.14,1.45,2.48,2.25,5.34,4.31,8,.1-2,.34-4,.25-6-.12-2.8.71-4.34,3.85-4.49,3.41-.17,4.86,2,4.62,4.51-.32,3.55-1.69,7-2.61,10.5.51,2,.71,4.22,1.59,6.08,2.16,4.61,1.54,6-3.49,6C331,297,327.29,297,325,300.88Z"/><path class="cls-10" d="M377.55,309.92a62.38,62.38,0,0,1-6.84-5.89,7.62,7.62,0,0,1-1.49-4.9c.18-6.76.66-13.51,1-20.46,9.24-2,21.1,4.81,19.63,17.51a8,8,0,0,1-2.2,4.3C384.7,303.53,381.45,306.33,377.55,309.92Z"/><path class="cls-10" d="M352.37,363.78c1.19-3.7,1.87-6.84,3.19-9.7,2.1-4.56,2.22-8.94,1.26-13.89a28.11,28.11,0,0,1,.83-12c1-3.94,3.26-4.11,6-.89,2.58,3,5,6.16,7.35,9.35,1.91,2.6,1.5,5.38-1.25,6.82-5.9,3.11-8.29,8-8.82,14.34C360.59,362,357.24,363.13,352.37,363.78Z"/><path class="cls-5" d="M378,221a66.52,66.52,0,0,0,9.27.9c1,0,2.18-1.84,2.75-3.07.85-1.85.61-4.76,4-2.81q.19,3.93.38,7.85c-5.36.8-9.46,2.79-8.48,9.94l-2.88-2-8-4Z"/><path class="cls-28" d="M300.89,288.64l-3.76,4.1-9.41-8.66c-1.13,4.49-1.8,9.13-6.91,11.54-1.62.77-1.78,4.6-2.93,8l12,4.73,0,1.53c-4.39.71-8.78,1.44-13.17,2.12a13.24,13.24,0,0,1-2,0c-10.81,0-10.81,0-11.91,11H257.9L256,312.07c-.57-3.23-1.8-6.52-1.56-9.69a82.14,82.14,0,0,1,2.77-14.86c.8-3,2.52-5.75,3.83-8.61l17.72-.27.45-2.21-9.22-6,8.2-18-5.46-7,7.47-5-.23-1.8L265.09,234l0-2a83.19,83.19,0,0,0,5.51-6.35c2.06-2.89,2.3-5.86-.79-8.41-2.75-2.28-5.48-4.59-8.45-7.08l-7.9,4.54L256,201.65l-8.14,2.74c.4-6,.84-11.79,1.14-17.55.37-7.13.71-14.26.91-21.39.15-5.16.16-10.34,0-15.49,0-1-1.2-2-1.85-2.92l-6.86-2.7c-2.3-4.74-2.23-4.71.43-10.26.42-.87-.05-2.23-.25-3.33-1.1-6.18-3.28-12.37-3.12-18.51.23-9-4.82-15.86-6.59-23.93l-1.17,1.25-7.61-4.47L225,80.21a10.45,10.45,0,0,0,2.4-.54c8.15-4,16.23-8.13,24.41-12.05,6.74-3.24,13.44-5.24,19.34,1.85.67.8,2.31.93,3.55,1.1,3.7.5,7.58.34,11.11,1.39,7.11,2.13,13.89,6.3,21.07,7,7.66.76,9.25,5.07,11.55,10.74,3,7.36,4.12,7.3,11.95,5.71,1.79-.36,3.92.95,5.89,1.49A24.75,24.75,0,0,1,331.83,99c-5.93,1.54-11.86,3.4-17.68-.71-1-.7-2.88-.1-4.26-.1-.3.4-.65.64-.68.92-1,9.11-1,8.86-10.25,10-3.48.41-6.78,2.31-11.54,4,5.79,5.16,10,9.12,14.46,12.71,1,.82,3.12.64,4.65.43,5.14-.72,7.3,1.58,6.13,6.52-.59,2.48-.76,5.06-1.12,7.59l7.42-1.5c1.73-.35,3.47-.67,5.46-1.05-1.7,5.43-4.27,8.24-10,6.32-2-.65-4.32,0-6.46-.21-4.62-.52-5.46,2.78-6.47,6s1.05,4.72,3.52,6.19c1.55.93,2.68,2.57,4,3.89-3.37-1.15-7-1.8-10.05-3.55-5.93-3.43-17.52-.73-20.88,5.34-1.68,3,.12,8.88,3.47,10.9,4.8,2.91,9.57,5.89,14.53,8.5,2,1,4.44,1.21,6.69,1.73.64.15,1.68-.14,1.93.2,4,5.48,10.22,4.5,15.91,5l.43,1.49c-2,1.08-3.81,2.85-5.87,3.13-6.4.87-11.32,3.77-14.58,9.26-1.95,3.27-4.22,5.44-8.36,5a7.33,7.33,0,0,0-3.28,1c-5.41,2.33-10.8,4.7-16.3,7.1,5.92,4.48,11.64.16,18.33-1.52,0,2.53-.08,4.43,0,6.32.24,4.46,3.07,6.25,7.4,5.09a48.48,48.48,0,0,1,10.16-1.94c3.67-.17,5.73,1.8,5.58,5.92-.19,5.14,0,10.31.14,15.46.07,3.49-2.18,3.71-4.67,3.2a33.59,33.59,0,0,1-5-1.95c-.13,6.2-3.14,6.51-7.62,4.52a5.65,5.65,0,0,0-4.35.19c-1.4.73-2.33,2.35-3.46,3.58a30.84,30.84,0,0,0,4.63,1.45c1.2.19,2.49-.18,5.16-.45-1.44,2-2.18,2.86-2.77,3.84-1.72,2.86-4.2,5.57-4.89,8.67-1.59,7.2.53,8.86,7.65,7,4.11-1.09,5.25-.13,4.41,4C302.64,281.92,301.72,285.27,300.89,288.64ZM264.38,161c-4.64,0-7.46,2.37-7.4,6.1s3,5.94,8.1,5.92c4.82,0,7.94-2.22,7.92-5.58S269,161,264.38,161Z"/><path class="cls-14" d="M225,80.21l-2.13,4.87,7.61,4.47,1.17-1.25c1.77,8.07,6.82,15,6.59,23.93-.16,6.14,2,12.33,3.12,18.51.2,1.11.67,2.46.25,3.33-2.66,5.55-2.73,5.51-.43,10.26L248,147q-1.4,18.14-2.79,36.29a1.17,1.17,0,0,0,.15.47c3.46,8.47-.25,15.53-4.65,22.31-.59.91-3.57,1.54-3.95,1.07-1.37-1.67-3.16-4-2.87-5.83.89-5.51,3.44-10.8,3.94-16.3,1.08-12.12-3.12-23.54-6.07-35.08-.36-1.4-1.51-2.59-2.29-3.87-.76,5.27-1.18,10.27-.17,15,2.48,11.56,4.22,22.94,3,34.94-.85,8-1.52,10.86-12.13,8.09-2.18-.57-4-2.61-5.94-4l3.67-4.92c-.35-.78-.88-1.81-1.29-2.88-1.11-2.83-2.17-5.68-3.25-8.53,3-.59,6-1.07,9-1.82,1.75-.44,4.67-1,4.86-2a22.29,22.29,0,0,0-.06-9.66c-.24-.95-4.07-1.62-6.09-1.31-3.16.48-6.18,1.9-9.7,3.07-.48-3.48-.56-6.67-1.42-9.63-.93-3.24-2.58-6.27-3.91-9.4-1.66-3-3.83-5.81-4.88-9-3-9-5.4-18.24-8.3-27.3-1.64-5.1-3.81-10-5.74-15l5.1.92c-.08-1.7.18-3.51-.28-5.1C189.2,88.25,197.34,76.6,207,76,213.44,75.62,219.56,76.47,225,80.21Z"/><path class="cls-12" d="M187.08,101.68c1.93,5,4.1,9.94,5.74,15,2.91,9.06,5.31,18.28,8.3,27.3,1.06,3.19,3.22,6,4.88,9-2.38,5.84-.13,11.34,1.1,17a53.41,53.41,0,0,1,1.56,12.19c0,2.57-1.53,5.19-2.69,7.64a62.31,62.31,0,0,1-4.4,7.72c-.57.86-2.26,1.05-2.67,1.92-2.4,5.09-6.38,4.36-10,2.39-4.82-2.6-9.27-5.9-13.88-8.9l-3-29c2.1-1.21,4.43-2.16,6.24-3.71s3-3.65,4.46-5.51c-2.16-1.58-4.2-4.22-6.51-4.5-3.44-.4-7.18.52-10.6,1.51-4.81,1.4-9.49,3.3-14.48,1.07-1.53-.69-2.86-1.81-5.6-3.59,3.36-1,5.29-1.62,7.21-2.22,3.93-1.24,8-2.17,11.74-3.85,3.51-1.58,3.55-4.16.21-6.25-3.05-1.9-6.44-3.27-9.67-4.87L149,122c3.24-2.08,6.12-5.32,9.68-3.83l2.68,8.53c2-1.86,4.1-3.66,6.06-5.58,4-3.92,7.87-7.68,9.41-13.67.72-2.8,4.79-4.8,7.53-6.93C184.7,100.2,186.14,101.25,187.08,101.68Z"/><path class="cls-23" d="M382,77,385,83,382,90l0,0c-1.66-3.4-4.78-3.57-7.7-2.82-5.77,1.5-10.2-1-14.64-4-2.19-1.45-4.46-2.79-6.69-4.18-.77-3.18-1.42-6.39-2.32-9.53-2.11-7.33,2.56-13,9.88-11.25,3.35.79,6.33,3.14,9.47,4.79a41.25,41.25,0,0,0-3.71,2.42C363.16,68,363.44,71,367,73c1.12,1.3,2.11,3.56,3.38,3.73C374.16,77.28,378.09,77,382,77Z"/><path class="cls-19" d="M149,122,155,132c-4.9-.35-9.81-.68-14.7-1.07-3.34-.27-4.58-2.41-4.27-5.44.57-5.52,1.34-11,2-16.54l5.23,4.17C143.13,117.42,144,121,149,122Z"/><path class="cls-11" d="M288.47,62c.33,0,.74-.13,1,0,2.21,1.29,4.39,2.63,6.58,4-2.06,1.5-4.11,3-6.2,4.48a1.73,1.73,0,0,1-1.43.25c-2.8-1.35-5.55-2.79-8.32-4.21l7.47-5.7Z"/><path class="cls-13" d="M382,90a11.26,11.26,0,0,0,.08,1.48c.41,2.26,2.43,5.78-1.09,6-2.5.18-5.81-2.38-7.66-4.62-1.44-1.75-.21-4.22,2.92-3.86,1.94.22,3.86.66,5.78,1Z"/><path class="cls-12" d="M322,59c4,1.6,1.44,4.1.86,6.33Z"/><path class="cls-28" d="M316,171.86l5.87-3.67c-1.13-1.44-2-3.14-3.43-4.27-3.15-2.56-4.7-5.31-1.81-8.89s5.86-2.07,8.8,0q7.9,5.48,15.78,11c-.35,5.65-2.82,9.87-8.46,11.46a11.92,11.92,0,0,1-6.26.07,71.46,71.46,0,0,1-9.62-4C316.38,173.29,316.24,172.42,316,171.86Z"/><path class="cls-25" d="M431.78,331.06l7.14-6.18c5.83,2.37,11.61,4.85,17.49,7.05,3.34,1.25,6.84,2,10.27,3,1.26,2.32,2.57,4.61,3.76,7,.59,1.17,1.64,2.67,1.33,3.64-2,6,1.26,6.88,6,6.65.4,0,.82.49,1.24.75.13,2.85-1.24,3.2-3.78,2.75-1.29-.23-2.81.79-4.22,1.25-5.36-4.11-5.29-4.05-10.74,1.16-1.32,1.26-3.18,1.94-4.79,2.88l-2.68-4.88c-1-3.36-1.33-7.11-3.18-9.88-.68-1-4.87.19-7.42.59-3.16.5-5.27-.09-5.21-3.87.06-4.2,0-8.4,0-13Z"/><path class="cls-17" d="M471,357c1.41-.46,2.93-1.48,4.22-1.25,2.54.45,3.9.1,3.78-2.75l3.92-.08,6,2.19c.75,3.28,2,5.81,5.58,7.3,4.28,1.79,4.65,5.63,1.71,10.65-7.35.38-14.47-.28-20.94-4.31-.91-.57-2.2-.51-3.32-.74C474,364.11,473.14,360.48,471,357Z"/><path class="cls-19" d="M466.68,335c-3.43-1-6.94-1.79-10.27-3-5.89-2.2-11.67-4.69-17.49-7.05,3.8-2.86,8.65-4.9,8.37-10.89l21.79,9Z"/><path class="cls-9" d="M488.91,355.08l-6-2.19c-.26-.95-1-2-.71-2.82.68-2,1.3-4.74,2.84-5.63,1.23-.71,4.48.28,5.54,1.57s.59,3.87.3,5.81C490.74,353,489.61,354,488.91,355.08Z"/><path class="cls-26" d="M309.11,155.57l-4.92-5.51c1.77-1.24,3.47-3.29,5.32-3.45,1.37-.11,2.95,2.25,4.43,3.51Z"/><path class="cls-26" d="M332.37,127.61c.85,1.56,2.49,3.22,2.31,4.65s-2.24,2.52-3.47,3.77c-1.05-1.26-2.92-2.51-2.94-3.79,0-1.53,1.52-3.09,2.39-4.64Z"/><path class="cls-1" d="M451.05,137l-3.13-3.08C452,131.87,450.74,135.22,451.05,137Z"/><path class="cls-1" d="M452.06,139l-1-2Z"/><path class="cls-1" d="M453.06,141l-1-2Z"/><path class="cls-5" d="M386.12,218.9l.37.57-.58-.37Z"/><path class="cls-20" d="M257.9,323h4.94c.18,7.35,3.07,12.35,10.5,15.17,5.69,2.16,8,7.54,7.72,14.05-1.53-1.44-2.8-3.64-4.16-3.7-3.07-.12-5.59,1.48-4.83,5.25a50.84,50.84,0,0,0,2,6.12,32.94,32.94,0,0,1-4.94.65c-4.06-.06-8.11-.34-12.16-.53,2.14-8.49,1.44-16-6.9-21.13-1.79-1.1-3-3.26-.3-4.63C254.54,331.84,257.32,328.28,257.9,323Z"/><path class="cls-21" d="M161.89,404.1c-3.85-4.83-1.49-10-.81-15.07,3.59,1.06,6,.43,7.87-3.43,1.75-3.66,5.82-3.87,8.38-1.37,3.61,3.53,6.13,2.76,9-.38-3.35-2.11-3.35-4.24,0-14.89,2.09.68,4.34,2.15,6.23,1.79,1.37-.27,2.27-3,2.74-5,.26-.19.51-.53.79-.56,9.59-1,9.59-1,9,8.86-.09,1.66,0,3.34-.15,5-.36,3.22-1.3,5.48-5.51,5.17-5.74-.42-3.56,4.72-4.64,7.56l.08.13-2,1.1L183,391l-4,1.94L177.08,395Z"/><path class="cls-25" d="M236.32,407.13c-3.57-.12-7.41.43-7.18-4.32.09-1.86,1.15-4.56,2.55-5.21s4.33.2,5.58,1.43c1.93,1.9,2.91,4.36,6.42,4.41,1.11,0,2.93,3.18,3,5,.06,1.45-1.86,4.08-3.15,4.24-1.91.24-4.17-1-6-2.08C236.8,410.15,236.77,408.51,236.32,407.13Z"/><path class="cls-9" d="M161.89,404.1,177.08,395l1.52,6.17c-3.73,2.17-5.57,5.36-2.56,9.81a7,7,0,0,0-1.95.18c-4.51,1.78-4.5,1.8-7.65-1.88l-3,2Z"/><path class="cls-22" d="M215.93,396l2.23,21-1.21.43c-1.39-7.84-10.15-12.27-8.85-21.36C210.71,393.41,213.32,393.5,215.93,396Z"/><path class="cls-16" d="M183,391l9.89,1.94a3.49,3.49,0,0,1,0,1c-2.67,5.89-5.47,6.84-9.09,3.07Q183.37,394,183,391Z"/><path class="cls-26" d="M215.93,396c-2.62-2.54-5.23-2.62-7.83,0a12.38,12.38,0,0,1-.2-2.7c2-.57,4.17-1.27,6.2-1.09C214.82,392.33,215.33,394.71,215.93,396Z"/><path class="cls-26" d="M183,391q.4,3,.79,6l-4.84-4Z"/><path class="cls-26" d="M192.85,393.94a3.49,3.49,0,0,0,0-1l2-1.1Z"/><path class="cls-18" d="M271.18,487.73a44.9,44.9,0,0,1,5.32,1c7.37,2.33,9.56,9.18,4.93,15.2-5.89,7.66-18.88,6.37-23-2.27-2.27-4.79,3.48-12.92,9.69-13.64a25.86,25.86,0,0,1,3,0Zm-.51,17.1c4-.14,8.49-4.48,8.25-8-.21-3.17-4.37-6-8.71-5.85-4.54.11-8.22,3.32-8.15,7.1C262.13,501.52,266.54,505,270.67,504.83Z"/><path class="cls-7" d="M431.78,331.06l5.23-1.15c0,4.65,0,8.85,0,13-.06,3.79,2,4.37,5.21,3.87,2.55-.4,6.74-1.6,7.42-.59,1.85,2.77,2.22,6.52,3.18,9.88-3.64-3-7.79-4.11-12.51-4.66C430.3,350.3,425.48,339.72,431.78,331.06Z"/><path class="cls-16" d="M382,77c-3.89,0-7.83.31-11.66-.2-1.27-.17-2.26-2.43-3.38-3.73L367,73c1.47.73,2.92,1.49,4.4,2.18,6.77,3.15,11.45.25,11.6-7.18l0,0C386.89,71.45,384.74,74.25,382,77Z"/><path class="cls-16" d="M367,73c-3.51-2.07-3.79-5-.62-7.6A41.25,41.25,0,0,1,370,63l12,3.93L382,67c-2.38-.62-4.74-1.37-7.16-1.85C369,64,365.59,67.45,367,73Z"/><path class="cls-16" d="M382.05,67l1,1,0,0-1-1Z"/><path class="cls-14" d="M115.48,486.39c9.16-.92,12.51.38,12.49,5,0,6.23-5,3.32-7.68,3.44C115.45,495.09,114.46,493,115.48,486.39Z"/><path class="cls-17" d="M84.93,472.27,87.47,459l9.09,12.19Z"/><path class="cls-17" d="M173.82,472.7l-8.34-3.93,4.51-7.91,1.66.2,3.5,9.83Z"/><path class="cls-17" d="M89.92,453l1.2-1.94c5.35-1.14,5.07,2.84,5.91,6.49C92.93,458.22,90.59,457,89.92,453Z"/><path class="cls-19" d="M140,502.54l-2.75,4.26c-.74-1.58-2-3.15-2-4.76-.05-1.28,1.34-2.61,2.09-3.92Z"/><path class="cls-11" d="M174,447l-.43-.4c.09,0,.21,0,.26.06a1.35,1.35,0,0,1,.18.34Z"/><path class="cls-17" d="M101.36,416.58c1.63.09,3.58-.36,4.84.38,4,2.34,8.2,13.7,6.86,19.62-1.25-2.62-2.73-4.37-2.84-6.2-.3-4.9-1.46-8.79-7-9.92-.9-.18-1.65-1.07-2.47-1.63Z"/><path class="cls-13" d="M257.9,323c-.58,5.29-3.36,8.85-8.12,11.24-2.74,1.37-1.49,3.53.3,4.63,8.34,5.14,9,12.64,6.9,21.13a61.77,61.77,0,0,0-6,3.52c-1.9,1.4-3.53,3.18-6.29,5.72-.27-2.6-.4-3.9-.53-5.19,1.51-5.39-1.69-11.82-7.27-16.62S226.06,337,220.46,331.6c-1.52,0-5,1.07-6.69-.23-3.11-2.46-3.78-6.44-1.79-10.42a12,12,0,0,0,1-3.79c.72-5.66,1.17-6.05,6.62-4.43,2.93.87,4.78-.17,4.91-3,.32-6.8.56-13.62.24-20.41-.15-3.23-4.73-5.26-7.84-4.09-3.76,1.43-2.41,4.07-1.48,6.57a26.1,26.1,0,0,1,1.55,5.41c-4.92-3.57-7.82-1.35-10.93,1.86-.8.83-3.64-.32-5.71-.59.85,3.76,2,8.14,2.74,12.58.25,1.47-.54,3.12-.85,4.69-1.34-1.16-3.09-2.08-3.93-3.53-2.44-4.19-4.45-8.63-6.8-12.88-.38-.7-1.65-.9-2.51-1.33-2.25-1-4.49-2-6.74-3-.74-.32-2.14-.45-2.2-.83-.92-5.57-5.8-4.83-9.42-6.21-6.27-2.37-9.87-10.77-7.55-17.14a8.27,8.27,0,0,0,.77-2.34c.26-7.39,1.84-8.55,9.46-6.9a23.22,23.22,0,0,0,2.83.27l.29-1.2-18.95-4.25c2.66-4.8,6-3.9,8.4-2.83,10.41,4.63,19.62.14,29.08-3.17-6.83-.62-13.85,2.4-20.5-.68l-.35-1.89,12.7-3c-.22-1-.19-1.55-.37-1.64-6.72-3.33-9.67-8.31-7.51-15.94.56-2,.08-4.26.08-6.72-7.18-2.41-12.53,7.49-21.06,2.42l9.89-4.88-12.32-5.84c6.88-1.24,13.2,3.43,19.87,1l.7-1.75-29.41-16.61.4-1.29c2.69.69,5.54,1,8,2.14,5.11,2.35,9.95,5.3,15,7.68a78.18,78.18,0,0,0,9,3l1.22-2.21-16.69-12.45L175,192.95c4.61,3,9.06,6.3,13.88,8.9,3.65,2,7.63,2.7,10-2.39.41-.86,2.1-1.06,2.67-1.92a62.31,62.31,0,0,0,4.4-7.72c1.15-2.45,2.64-5.07,2.69-7.64A53.41,53.41,0,0,0,207.11,170c-1.23-5.63-3.49-11.13-1.1-17,1.34,3.12,3,6.16,3.91,9.4.85,3,.94,6.15,1.42,9.63,3.52-1.17,6.54-2.59,9.7-3.07,2-.31,5.84.36,6.09,1.31a22.29,22.29,0,0,1,.06,9.66c-.19,1-3.11,1.56-4.86,2-3,.74-6,1.22-9,1.82,1.08,2.84,2.14,5.69,3.25,8.53.42,1.07.94,2.1,1.29,2.88l-3.67,4.92c2,1.36,3.77,3.41,5.94,4,10.6,2.77,11.28-.06,12.13-8.09,1.27-12-.48-23.38-3-34.94-1-4.69-.59-9.69.17-15,.78,1.29,1.93,2.48,2.29,3.87,3,11.54,7.16,23,6.07,35.08-.49,5.5-3,10.8-3.94,16.3-.29,1.79,1.5,4.16,2.87,5.83.38.46,3.36-.17,3.95-1.07,4.4-6.78,8.11-13.84,4.65-22.31a1.17,1.17,0,0,1-.15-.47Q246.64,165.17,248,147c.65,1,1.82,1.93,1.85,2.93.18,5.16.17,10.33,0,15.49-.2,7.13-.54,14.26-.91,21.39-.3,5.76-.75,11.51-1.14,17.55l8.14-2.74-2.59,13.06,7.9-4.54c3,2.49,5.7,4.81,8.45,7.08,3.08,2.55,2.85,5.52.79,8.41A83.08,83.08,0,0,1,265,232c-6.48-1.71-8.27-.13-8.44,7.42,5.75,1,5.75,1,8.49-5.47l14.86,4.75.23,1.8-7.47,5,5.46,7-8.2,18,9.22,6-.45,2.21-17.72.27c-1.41-.3-2.81-.65-4.22-.9-3.7-.64-7.68-.59-11.06-2-5.78-2.41-6.78-2.13-6.69,4.24a30.57,30.57,0,0,0,1,6.31c.92,4,2.58,8,2.8,12,.2,3.62,1.13,6.25,3.79,8.64,3.08,2.78,4.86,6,3.16,10.56-.51,1.36.83,3.42,1.32,5.16l2.07-.35c.12-2.13.67-4.36.25-6.38-.52-2.52-.18-3.88,2.54-4.11ZM231,249.08l2-1.06c1.61-.37,3.47-.34,4.77-1.19,4.27-2.79,8.59-2.24,12.82-.41,3.25,1.4,6.25,3.39,9.4,5.07a22.39,22.39,0,0,0,4.9,2.25c1.13.28,2.47-.32,3.72-.53-.33-1.35-.22-3.24-1.08-4a51.77,51.77,0,0,0-8.63-5.81,16.53,16.53,0,0,0-6.07-1.51c-4.43-.43-9-.1-13.29-1.07-2.06-.47-3.6-3.21-5.38-4.93,1.64-1.31,3.23-2.67,4.92-3.91a34.38,34.38,0,0,1,3.58-1.93c-2.36-2.07-4.27-3.57-6-5.29a30.18,30.18,0,0,1-3.63-4.52c-1.07-1.61-1.9-3.4-2.83-5.1-1.08,2-2.22,3.92-3.22,5.93a13.68,13.68,0,0,0-.46,3.14c-2.29-3-3.7-5.49-5.71-7.31-3.09-2.79-6.74-5.14-11.11-3.13-1.54.71-2.46,2.76-3.67,4.19,1.49,1,2.94,2.77,4.48,2.85,4.23.22,6.16,2.95,7.77,6.07a4,4,0,0,1-.14,3.58c-3.28,3.74-13.71,3.34-16.74-.65a52.35,52.35,0,0,1-5.47-8.7c-1.87-3.84-3.23-7.92-4.95-12.24-3.71,3.32-3.83,6.64-1.41,10,2,2.78,1.89,4.83-1.3,6.44-2.66,1.35-4.38,3.68-3.15,6.42a12,12,0,0,0,5.13,5.25c2.17,1.14,4.95,1.11,7.75,1.65l-1.66,4.67,13.88,4c-2.77,2.35-4.44,3.44-5.68,4.89-1.89,2.21-4,4.46-5,7.08-.69,1.78.34,4.23.61,6.38,1.74-1,3.47-2,5.22-2.94a2.44,2.44,0,0,1,.9-.1c2.82,3.87-3.58,13.29,7.37,12.16l.88,5.34,1.1-1.14c2.54,1.47,5.06,3,7.62,4.41a22,22,0,0,0,5.05,2.36c.63.16,2.46-1.48,2.34-1.86a15.59,15.59,0,0,0-2.54-5.14c-1.22-1.51-4.13-2.48-4.27-3.89-.56-5.4-3.87-6.57-8.25-6.26-1.59-9.55-1.59-9.55-5.79-12.81,1.45-1.16,2.66-2.86,4.14-3.15,3.21-.63,6.63-.22,9.85-.82C226.3,251.42,228.63,250,231,249.08ZM267,269.14c-3.09-2.54-5.42-4.16-7.4-6.14-4.86-4.86-10.55-5.9-16.88-3.89a5.43,5.43,0,0,0-3.14,2.68c-.27.67,1,2.31,2,3.07C248.52,270.53,256.28,272.87,267,269.14Z"/><path class="cls-7" d="M155,255c-6.21-2.14-7.25-1.63-11,5.85l-3.35-4.31-3.14,3.58c-4.47-.6-7.65-2.36-8-7.49-.05-.74-2.75-1.84-4.2-1.81-3.55.07-7.08.69-10.62,1.1l-.28-1.42c2.38-.51,4.77-1,7.12-1.56,1.71-.44,3.37-1.07,5-1.62l-1.82-4.65,11.65-6.37c1.31-1.51-4.45-9.84,4.94-7.93,2.19,9.45,6.64,14.67,12.37,14.08L152.08,247H158Z"/><path class="cls-21" d="M179,319.07l2,5.7,9.26-3.82c-3.72,10-11.33,17.31-6.55,28.07-2.82-5.47-7.13-7.2-12.19-8.19-1.34-.26-2.3-2.5-3.44-3.84,1.61-3.85,3-7.54,3.05-12C171.14,323,176.2,321,179,319.07Z"/><path class="cls-13" d="M160.27,190.72l-2-1.12.43-.85,2,1.18Z"/><path class="cls-23" d="M236.07,362c-2.6,2-4.93,4.77-7.87,5.77-4.07,1.38-5.15-.36-5.23-6.77,2.62-1.6,5.05-3.89,7.89-4.64C235.16,355.23,236.07,358.49,236.07,362Z"/><path class="cls-25" d="M169.13,378.9c-3.2,2.66-5.08,5.42-7,5.44-1.69,0-4.72-3-4.77-4.7s2.51-4.88,4.34-5.23S165.64,376.64,169.13,378.9Z"/><path class="cls-10" d="M109.9,174c2.42-2.53,3.75-4.66,5.68-5.71a10,10,0,0,1,6-.61c.63.1,1.65,3.16,1.17,3.71a8.39,8.39,0,0,1-4.61,2.51C115.79,174.26,113.29,174,109.9,174Z"/><path class="cls-26" d="M256,312.07c-2.72.23-3.06,1.59-2.54,4.11.42,2-.13,4.24-.25,6.38l-2.07.35c-.49-1.74-1.83-3.79-1.32-5.16,1.69-4.54-.08-7.78-3.16-10.56-2.66-2.4-3.59-5-3.79-8.64-.22-4-1.88-8-2.8-12a30.57,30.57,0,0,1-1-6.31c-.09-6.37.91-6.64,6.69-4.24,3.38,1.41,7.36,1.35,11.06,2,1.42.25,2.82.6,4.22.9-1.31,2.86-3,5.61-3.83,8.61a82.14,82.14,0,0,0-2.77,14.86C254.17,305.55,255.4,308.83,256,312.07Z"/><path class="cls-23" d="M264.38,161c4.59,0,8.59,2.94,8.61,6.44s-3.1,5.56-7.92,5.58c-5.1,0-8-2.13-8.1-5.92S259.74,161,264.38,161Z"/><path class="cls-7" d="M265.09,234c-2.74,6.48-2.74,6.48-8.49,5.47.17-7.55,2-9.12,8.44-7.42Q265.07,233,265.09,234Z"/><path class="cls-6" d="M270.67,504.83c-4.13.15-8.55-3.31-8.61-6.74-.07-3.78,3.61-7,8.15-7.1,4.34-.11,8.5,2.68,8.71,5.85C279.16,500.35,274.68,504.69,270.67,504.83Z"/><path class="cls-13" d="M382,67l1,1c-.15,7.42-4.83,10.33-11.6,7.18-1.48-.69-2.93-1.45-4.4-2.18-1.42-5.54,2-9,7.84-7.84C377.26,65.63,379.62,66.38,382,67Z"/><path class="cls-7" d="M231,249.08c-2.41,1-4.75,2.35-7.25,2.82-3.22.61-6.63.2-9.85.82-1.48.29-2.69,2-4.14,3.15,4.2,3.25,4.2,3.25,5.79,12.81,4.38-.31,7.69.85,8.25,6.26.15,1.41,3.06,2.38,4.27,3.89a15.59,15.59,0,0,1,2.54,5.14c.12.38-1.71,2-2.34,1.86a22,22,0,0,1-5.05-2.36c-2.57-1.42-5.08-2.93-7.62-4.41l-1.1,1.14-.88-5.34c-10.95,1.13-4.55-8.29-7.37-12.16a2.46,2.46,0,0,0-.9.1c-1.75,1-3.48,2-5.22,2.94-.26-2.15-1.3-4.6-.61-6.38,1-2.62,3.14-4.88,5-7.08,1.24-1.45,2.91-2.54,5.68-4.89l-13.88-4,1.66-4.67c-2.8-.54-5.59-.51-7.75-1.65a12,12,0,0,1-5.13-5.25c-1.23-2.74.49-5.07,3.15-6.42,3.19-1.62,3.28-3.66,1.3-6.44-2.42-3.4-2.3-6.71,1.41-10,1.72,4.32,3.08,8.41,4.95,12.24a52.35,52.35,0,0,0,5.47,8.7c3,4,13.46,4.38,16.74.65a4,4,0,0,0,.14-3.58c-1.61-3.13-3.55-5.86-7.77-6.07-1.54-.08-3-1.85-4.48-2.85,1.2-1.44,2.13-3.49,3.67-4.19,4.37-2,8,.34,11.11,3.13,2,1.82,3.42,4.32,5.71,7.31a13.68,13.68,0,0,1,.46-3.14c1-2,2.13-4,3.22-5.93.93,1.71,1.75,3.49,2.83,5.1a30.18,30.18,0,0,0,3.63,4.52c1.7,1.71,3.61,3.22,6,5.29a34.38,34.38,0,0,0-3.58,1.93c-1.69,1.24-3.29,2.6-4.92,3.91,1.78,1.71,3.32,4.46,5.38,4.93,4.29,1,8.86.64,13.29,1.07a16.53,16.53,0,0,1,6.07,1.51,51.77,51.77,0,0,1,8.63,5.81c.86.71.75,2.6,1.08,4-1.25.21-2.59.81-3.72.53a22.39,22.39,0,0,1-4.9-2.25c-3.14-1.67-6.14-3.66-9.4-5.07-4.23-1.83-8.55-2.37-12.82.41-1.3.85-3.16.82-4.77,1.19,2.84-7.24,2.08-9.46-4.54-13.3-3.23-1.87-11.72-.05-14.9,3.19-4.06,4.14-3.39,8.33,2.21,9.72C220.69,248.84,225.94,248.65,231,249.08Z"/><path class="cls-15" d="M231,249.08c-5.1-.43-10.35-.24-15.26-1.45-5.6-1.39-6.26-5.58-2.21-9.72,3.18-3.25,11.67-5.07,14.9-3.19,6.61,3.84,7.37,6.06,4.54,13.3Z"/><path class="cls-26" d="M267,269.14c-10.68,3.74-18.44,1.39-25.46-4.27-.94-.76-2.24-2.39-2-3.07a5.43,5.43,0,0,1,3.14-2.68c6.33-2,12-1,16.88,3.89C261.54,265,263.87,266.6,267,269.14Z"/></g></g></svg>