<svg xmlns="http://www.w3.org/2000/svg" viewBox="0 0 282.9 106.03"><defs><style>.cls-1{fill:#fbb806;}.cls-2{fill:#f9f9f9;}.cls-3{fill:#464341;}.cls-4{fill:#4a4844;}.cls-5{fill:#f8f8f8;}.cls-6{fill:#42413e;}.cls-7{fill:#fdc819;}.cls-8{fill:#f38b09;}.cls-9{fill:#c1c1c1;}.cls-10{fill:#fdc210;}.cls-11{fill:#f9a805;}.cls-12{fill:#d30a5d;}.cls-13{fill:#feb901;}</style></defs><title>Asset 15</title><g id="Layer_2" data-name="Layer 2"><g id="Layer_1-2" data-name="Layer 1"><path class="cls-1" d="M228.67,4.3l4.54,1.87,4.11,2.49,1.33.79.89,1.35-5.07,2.73c1.36,1.16,2.21,1.92,3.09,2.64,4.34,3.54,9,6.72,13,10.68,5.57,5.64,12,4.5,18.57,3.49l2,1.46,1.56,1.39h0l1.33,1.2a.36.36,0,0,0,.38.37L277,37.47h0l0,.94c-.84.64-1.65,1.78-2.53,1.85-3,.23-6.13,0-9.18.16-.9.05-1.74,1-2.61,1.48a2.22,2.22,0,0,1-.16.64L237.83,44c-8.17.47-16.33,1-24.5,1.43-14.52.76-29,1.46-43.57,2.22-1.65.09-3.29.61-4.94.6-2.21,0-2.62,1.18-2.44,3h-.72l-.7-.7c-.8-.67-1.53-1.74-2.43-1.9-1.22-.22-2.56.37-3.85.43q-19.1.77-38.21,1.47c-.48,0-1,.06-1.43.11-5.05.46-10.1,1-15.16,1.36-3.91.3-7.83.46-11.74.69q0-6.38,0-12.76H87.5l-.79,12.77c-6.61.24-13.23.39-19.83.78a37.61,37.61,0,0,0-6.09,1.36l-10.12.73a9.53,9.53,0,0,0-2.62-.68c-3.89.14-7.76.52-11.65.6-2.31,0-5,.83-6.59-1.8l4-5.71-3.27-.46c4.58-.44,9.16-1,13.76-1.29,5.35-.36,10.72-.4,16.07-.8,3.71-.28,7.39-.95,11.08-1.44a5.46,5.46,0,0,0-3.28-.64c-12.33.94-24.69,1.6-37,3C24.65,47,18.25,49,11.79,50.4L10.33,49l.82-1.41.69-.37,1.1-1.05.18,0,.1-.15,2.18-1.4.7-.18,2.13-1.28.75-.17,2.24-1.23a.56.56,0,0,0,.65-.11l3.54-1.38,10.87-3L42,36.05,59.7,34.14l11.93-1.27a19.12,19.12,0,0,0,16.82-2.54c9.92-6.52,20-12.79,30.07-19.12a11.85,11.85,0,0,1,2.67-.9L120,8.91l-3.46-.5.56-1.14c6.32-2.1,12.59-4.37,19-6.22,2.09-.6,4.51.09,6.74-.18C154.14-.53,165.53.36,176.9.1c2.15,0,4.31-.07,6.46-.1l27.28,1.31,1.47,0L225,3.07ZM80.23,41.81l-5,.71.26,1,4.71-1.76.16-.3Zm107.2-10c14-.45,28.4-.89,42.76-1.41a13.81,13.81,0,0,0,3.27-.95c-.4-1.17-.5-2.62-1.27-3.46-3.36-3.69-6.6-7.6-10.48-10.68-3.39-2.69-7.34-5.48-11.44-6.33-12.15-2.52-24.54-2.06-36.85-.91a4.46,4.46,0,0,0-2.94,3.11c-.49,5.6-.5,11.24-.72,16.87-.1,2.59.65,4,3.67,3.82C178,31.62,182.54,31.79,187.43,31.79ZM94.94,33.66l.85,1c1.18,0,2.37,0,3.55,0Q126.65,33.81,154,33a6,6,0,0,0,2.81-.41c1.22-.75,2.89-1.74,3.17-2.92,1.47-6.16,2.6-12.41,3.77-18.64.4-2.11-.59-3.22-2.77-3.09-3.35.2-6.69.57-10,.66-20.56.56-37.61,9.77-53.55,21.68C96.3,31,95.74,32.51,94.94,33.66ZM83,36.95l-.36-.1V40.3H83Zm5.58-.45,0,.53c.07-.08.18-.16.19-.25S88.59,36.6,88.54,36.5Z"/><path class="cls-2" d="M274,34.38l-1.33-1.2Z"/><path class="cls-3" d="M65.68,104.77,50.43,105l-7.62-3.55-4.87-5-2.53-5.91c-.24-4.25-1-8.56-.59-12.73.92-8.6,8.44-16.59,16.69-18.6,9.35-2.28,19.7,1.28,25.06,8.41,4.44,5.92,5.58,12.51,4.55,19.64l-2.66,7-9,8.83Zm8.87-22.35A16.69,16.69,0,1,0,57.77,98.94,16.54,16.54,0,0,0,74.54,82.43Z"/><path class="cls-3" d="M259.06,87.23l-6.58,12.23-2.94,2.06-5,3c-13.07,3.12-20.91,2-29.95-10.25l-1.81-3.49.06-.73L212,87.19c.43-4.24.25-8.65,1.41-12.68a20.73,20.73,0,0,1,16.8-15.22c10.24-1.94,19,1,25.24,10.09C259.27,74.92,258.81,81.1,259.06,87.23Zm-23.5,11.69a16.69,16.69,0,1,0-16.83-16.6A16.65,16.65,0,0,0,235.56,98.92Z"/><path class="cls-1" d="M1.5,63.43l.24-2,1.39-2.28h0l.72-.71h0c7.05,3.06,14.11,3.45,21.18,0L28.2,60c1.09-.72,2.2-2.07,3.05-1.92,3.16.55,6.23,1.59,9.33,2.44C39,62.27,37.38,64,35.8,65.73c-5.58,6.18-7,19.39-3.88,24.91L19,90.9H14.65a51.05,51.05,0,0,1-7-.28c-1.33-.22-2.51-1.33-3.76-2L3.2,85.06c4,0,7.67.08,11.33-.05a10.35,10.35,0,0,0,3-1.11c.78-4.59-2.54-9-6.87-9.15-3.1-.1-6.21-.25-9.31-.37Z"/><path class="cls-4" d="M116.51,8.41l3.46.5,1.21,1.4a11.85,11.85,0,0,0-2.67.9c-10.05,6.33-20.14,12.59-30.07,19.12a19.12,19.12,0,0,1-16.82,2.54c5.54-3.71,11-7.56,16.64-11.09,5.15-3.22,10.46-6.19,15.8-9.08a72.9,72.9,0,0,1,7.27-3Z"/><path class="cls-5" d="M25,58.42c-7.07,3.42-14.13,3-21.18,0L1.24,53.6,5,54.66l.63.69,8.24-4.9,16.7-3,3.27.46-4,5.71Z"/><path class="cls-4" d="M269.08,30.32c-6.59,1-13,2.15-18.57-3.49-3.91-4-8.61-7.14-13-10.68-.88-.72-1.73-1.47-3.09-2.64l5.07-2.73,1.34.15Z"/><path class="cls-6" d="M1.36,74.38c3.1.13,6.21.27,9.31.37,4.33.15,7.65,4.56,6.87,9.15l-16.18,0L.92,74.95A2,2,0,0,0,1.36,74.38Z"/><path class="cls-7" d="M13.84,50.45,5.6,55.36,5,54.66l4-5.39L10.33,49l1.46,1.36Z"/><path class="cls-7" d="M1.37,83.87l16.18,0a10.35,10.35,0,0,1-3,1.11c-3.66.14-7.34.05-11.33.05l.67,3.51Z"/><path class="cls-5" d="M1.36,74.38a2,2,0,0,1-.44.57C.21,71.06-1,67.16,1.5,63.43Z"/><path class="cls-5" d="M42,36.05,36.27,37.4Z"/><path class="cls-5" d="M25.4,40.36l-3.54,1.38Z"/><path class="cls-5" d="M21.21,41.85,19,43.08Z"/><path class="cls-5" d="M18.22,43.25l-2.13,1.28Z"/><path class="cls-5" d="M15.39,44.71l-2.18,1.4Z"/><path class="cls-5" d="M3.12,59.11,1.73,61.39Z"/><path class="cls-5" d="M12.94,46.21l-1.1,1.05Z"/><path class="cls-5" d="M3.85,58.4l-.72.71Z"/><path class="cls-1" d="M278.25,82.11l-15.7,5A28.82,28.82,0,0,0,260.25,70c-2.37-5.12-6.43-8.35-10.67-11.57,3.22-.22,6.44-.63,9.65-.59,1.59,0,3.17.85,4.76,1.32l-1.09.86.23.23.86-1.09,9.44-1.46,3.46-.73,1.28.75.78,1.49.87.74,0,0,.79.72L282.08,62l.57,5.11c-1.84.66-5.29,1.47-5.25,2,.31,3.34,3.19,2.08,5.26,2.27l.25,6.55-.2.67-2.45,2.1a.31.31,0,0,0-.41.22Z"/><path class="cls-8" d="M249.58,58.38c4.24,3.22,8.3,6.45,10.67,11.57a28.82,28.82,0,0,1,2.3,17.15l-3.5.12c-.25-6.13.22-12.31-3.56-17.86-6.22-9.12-15-12-25.24-10.09a20.73,20.73,0,0,0-16.8,15.22c-1.16,4-1,8.44-1.41,12.68l-3.61-.13a63.13,63.13,0,0,1-.27-7.68c.62-7.58,4.62-13.49,9.72-18.79l1.42-.76,1.48-1.37L228,54.87l1.41-.05C236.39,54.49,243.3,54.66,249.58,58.38Z"/><path class="cls-8" d="M276.93,38.42l1.2.73,0,1.2a.42.42,0,0,0-.27.51l-.53.75-14.74.3c.87-.52,1.71-1.43,2.61-1.48,3.05-.19,6.13.07,9.18-.16C275.28,40.2,276.09,39.07,276.93,38.42Z"/><path class="cls-9" d="M277.34,41.61l.54-.75q.14,8.4.28,16.81l-1.28-.75Z"/><path class="cls-5" d="M278.25,82.11l1.58-1.27Z"/><path class="cls-5" d="M279.81,59.9l-.87-.74Z"/><path class="cls-5" d="M280.56,60.58l-.79-.72Z"/><path class="cls-4" d="M187.43,31.79c-4.89,0-9.45-.17-14,.06-3,.16-3.77-1.24-3.67-3.82.22-5.62.23-11.27.72-16.87a4.46,4.46,0,0,1,2.94-3.11c12.31-1.15,24.7-1.61,36.85.91,4.1.85,8.05,3.63,11.44,6.33,3.88,3.08,7.12,7,10.48,10.68.76.84.86,2.29,1.27,3.46a13.81,13.81,0,0,1-3.27.95C215.83,30.9,201.46,31.34,187.43,31.79Z"/><path class="cls-4" d="M94.94,33.66c.8-1.15,1.36-2.61,2.43-3.41,15.94-11.92,33-21.13,53.55-21.68,3.35-.09,6.69-.46,10-.66,2.18-.13,3.17,1,2.77,3.09-1.18,6.23-2.3,12.47-3.77,18.64-.28,1.18-1.95,2.16-3.17,2.92A6,6,0,0,1,154,33q-27.32.86-54.63,1.67c-1.18,0-2.37,0-3.55,0Z"/><path class="cls-10" d="M88.15,52.62c3.91-.22,7.83-.38,11.74-.69,5.06-.39,10.1-.9,15.16-1.36.48,0,1-.09,1.43-.11q19.1-.73,38.21-1.47c1.29-.05,2.63-.64,3.85-.43.89.16,1.62,1.24,2.43,1.9q0,5.39,0,10.78c-5.93-.48-11.86-1.16-17.8-1.37-6.77-.24-13.55-.14-20.33,0-4.41.08-8.81.58-13.22.66-6.65.12-13.31,0-20,0l-2.14-.73Z"/><path class="cls-7" d="M162.37,51.18c-.18-1.8.23-3,2.44-3,1.65,0,3.29-.52,4.94-.6,14.52-.76,29-1.46,43.57-2.22,8.17-.43,16.34-1,24.5-1.43l24.62-1.4L267,51.85c-.58.35-1.17,1-1.73,1-2.63-.15-5.25-.78-7.86-.7-3.14.09-6.26.76-9.4,1.05-.37,0-1-.6-1.2-1.06-1.19-2.54-2.07-2.34-3.14.12-.21.48-1.48.7-2.27.69-1.08,0-2.16-.55-3.22-.49-1.68.09-3.39.85-5,.64s-3.25-1.25-5-2l-.2,2.23-7.25-2.68c-1.82.73-3.34,1.84-4.86,1.84-4.71,0-9.41-.52-14.12-.57-9.48-.11-19-.08-28.44,0C169.61,52,165.9,53,162.37,51.18Z"/><path class="cls-10" d="M162.37,51.18c3.53,1.82,7.24.77,10.9.75,9.48-.07,19-.1,28.44,0,4.71.05,9.42.6,14.12.57,1.52,0,3-1.12,4.86-1.84L228,53.35h0l0,1.53-7.21,3.58-2.58-1.37.3-3.17a17,17,0,0,0-3.5,3.61c-.56.63-1.62,1.52-2.18,1.35-8.28-2.49-16.64.26-24.93-.46-4.87-.42-9.76-.58-14.65-.73-3.85-.12-7.71,0-11.56,0q0-3.24,0-6.48Z"/><path class="cls-8" d="M35.42,90.59l-3.5,0c-3.07-5.51-1.69-18.73,3.88-24.91C37.38,64,39,62.27,40.59,60.54l10.09-5,10.12-.73,15.06,5.81c1.78,2.32,3.73,4.53,5.3,7C84.94,73.5,85.8,80.13,85.29,87l-4.17.3c1-7.14-.11-13.73-4.55-19.64C71.22,60.53,60.86,57,51.52,59.25c-8.25,2-15.77,10-16.69,18.6C34.38,82,35.18,86.34,35.42,90.59Z"/><path class="cls-11" d="M161.66,51.18q0,3.24,0,6.48l.39,24.49H195.5a4.33,4.33,0,0,1-3.16,1.43q-50,.05-100,0c-.93,0-1.85-.91-2.78-1.39h71.33V61.26q0-5.39,0-10.78Z"/><path class="cls-12" d="M267,51.85l-4.51-9.29a2.22,2.22,0,0,0,.16-.64l14.74-.3q-.23,7.65-.46,15.3l-3.46.73Z"/><path class="cls-10" d="M75.86,60.58,60.79,54.77a37.6,37.6,0,0,1,6.09-1.36c6.6-.39,13.22-.54,19.83-.78q0,3.23,0,6.47Z"/><path class="cls-10" d="M50.68,55.5l-10.09,5c-3.1-.86-6.18-1.9-9.33-2.44-.85-.15-2,1.2-3.05,1.92L25,58.42l4.78-4.79c1.64,2.62,4.28,1.84,6.59,1.8,3.88-.08,7.76-.46,11.65-.6A9.53,9.53,0,0,1,50.68,55.5Z"/><path class="cls-11" d="M13.84,50.45l-2.06,0C18.25,49,24.65,47,31.19,46.26c12.28-1.38,24.64-2,37-3a5.46,5.46,0,0,1,3.28.64c-3.69.49-7.37,1.16-11.08,1.44-5.34.41-10.72.44-16.07.8-4.59.31-9.17.85-13.76,1.29Z"/><path class="cls-11" d="M86.7,59.1q0-3.23,0-6.47l.79-12.77h.65q0,6.38,0,12.76l-.7,7.2q0,1.09,0,2.18v4.32q0,3.61,0,7.21V75l.71,2.17v3.61c-.49-1.51-1.35-3-1.39-4.54C86.61,70.5,86.7,64.8,86.7,59.1Z"/><path class="cls-11" d="M80.23,41.82l-4.71,1.76-.26-1,5-.71Z"/><path class="cls-11" d="M83,36.95v3.36H82.6V36.84Z"/><path class="cls-11" d="M88.54,36.5c.05.09.15.19.14.28s-.12.17-.19.25Z"/><path class="cls-11" d="M80.23,41.81l.17-.3-.16.3Z"/><path class="cls-9" d="M74.54,82.43A16.69,16.69,0,1,1,58.11,65.54,16.47,16.47,0,0,1,74.54,82.43Z"/><path class="cls-9" d="M235.56,98.92a16.69,16.69,0,1,1,16.83-16.56A16.7,16.7,0,0,1,235.56,98.92Z"/><path class="cls-1" d="M86.7,59.1c0,5.7-.09,11.4.08,17.09,0,1.53.91,3,1.39,4.54l1.42,1.43c.93.48,1.85,1.39,2.78,1.39q50,.11,100,0a4.33,4.33,0,0,0,3.16-1.43H162.06l-.39-24.49c3.85,0,7.71-.08,11.56,0,4.89.15,9.78.3,14.65.73,8.3.72,16.65-2,24.93.46.56.17,1.62-.72,2.18-1.35a17,17,0,0,1,3.5-3.61l-.3,3.17,2.58,1.37-1.48,1.37-1.42.76c-5.1,5.3-9.1,11.22-9.72,18.79a63.13,63.13,0,0,0,.27,7.68c-1.06.09-2.13.27-3.19.27q-58.2,0-116.4,0c-1.18,0-2.36-.21-3.54-.33.5-6.89-.35-13.52-4.14-19.45-1.57-2.45-3.52-4.66-5.3-7Z"/><path class="cls-10" d="M267,51.85l6.46,5.8L264,59.11h0c-1.59-.46-3.17-1.3-4.76-1.32-3.21,0-6.43.37-9.65.59-6.28-3.73-13.18-3.9-20.18-3.57L228,53.34h0l.2-2.23c1.74.72,3.31,1.75,5,2s3.32-.55,5-.64c1.06-.06,2.14.48,3.22.49.78,0,2.05-.21,2.27-.69,1.07-2.46,2-2.66,3.14-.12.21.46.83,1.1,1.2,1.06,3.14-.3,6.26-1,9.4-1.05,2.61-.07,5.24.55,7.86.7C265.78,52.87,266.38,52.2,267,51.85Z"/><path class="cls-12" d="M282.64,67.07V71.3c-2.07-.18-4.95,1.07-5.26-2.27C277.35,68.54,280.81,67.73,282.64,67.07Z"/><path class="cls-10" d="M264,59.11l-.86,1.09-.23-.23,1.09-.86Z"/><path class="cls-7" d="M228,53.34l1.45,1.47-1.41.05Q228,54.11,228,53.34Z"/><path class="cls-10" d="M217.87,60.59l1.42-.76Z"/><path class="cls-13" d="M89.59,82.16l-1.42-1.43q0-1.08,0-2.17L89.27,78l-1.12-.88L87.45,75q0-.72,0-1.44,0-3.61,0-7.21,0-1.44,0-2.88,0-.72,0-1.44l2.15-1.44c6.66,0,13.32.09,20,0,4.41-.08,8.81-.58,13.22-.66,6.77-.12,13.56-.22,20.33,0,5.94.21,11.87.9,17.8,1.37,0,6.79,0,13.58,0,20.9Z"/><path class="cls-1" d="M89.6,60.55,87.44,62q0-1.09,0-2.18Z"/><path class="cls-1" d="M87.44,63.44q0,1.44,0,2.88Q87.45,64.87,87.44,63.44Z"/><path class="cls-1" d="M88.15,77.13l1.12.88-1.12.56Z"/><path class="cls-1" d="M87.45,73.52q0,.72,0,1.44Q87.45,74.24,87.45,73.52Z"/></g></g></svg>