<svg xmlns="http://www.w3.org/2000/svg" viewBox="0 0 358.28 134.74"><defs><style>.cls-1{fill:#219ba3;}.cls-2{fill:#e5e1e1;}.cls-3{fill:#484948;}.cls-4{fill:#a5a6a9;}.cls-5{fill:#110f0f;}.cls-6{fill:#b5b5b5;}.cls-7{fill:#fefefd;}</style></defs><title>Asset 16</title><g id="Layer_2" data-name="Layer 2"><g id="Layer_1-2" data-name="Layer 1"><path class="cls-1" d="M260.51,118.58c-2,0-3.91.12-5.87.12H83.19c-1,0-2.06-.06-3.09-.09-.67-3.83-1-7.77-2.07-11.48C73.2,90.49,55.26,88.91,45.44,95.72c-8.09,5.61-10.71,13.67-11.26,22.87-8.52,0-17,.14-25.56,0-1,0-2.23-1.12-3-2a18,18,0,0,1-1.92-3.49c-.52-1.54-.77-2.84,1.28-3.65.67-.26,1.1-1.6,1.28-2.52.75-4-2.26-4.64-5-5.53v0l0-2.48.1-1.18c.2-1.2.3-2.42.61-3.59.41-1.56.56-4,1.55-4.45,5.27-2.38,10.65-5.55,16.2-6,10.93-.94,22-.29,33-.3,2.31,1.82,5.29,1.82,8.09,0H358l-1,19.22c-3.73,11.05-12.41,15.31-23.1,15.87-9.66.5-19.37,0-29.06,0,0-1,0-2.05,0-3.08-.31-8.65-3.71-15.63-11.46-19.91-7.56-4.17-15.28-4.06-22.62.56C262.52,101.21,259.66,109.09,260.51,118.58Z"/><path class="cls-2" d="M52.74,83.31c-11,0-22.08-.64-33,.3-5.55.48-10.93,3.65-16.2,6-1,.45-1.14,2.89-1.55,4.45-.31,1.17-.42,2.39-.61,3.59-1.62-2.38.37-4.69.15-7.07a21.39,21.39,0,0,1,.41-4.19,54.09,54.09,0,0,1,6.09-2c4.5-1,6.19-4.36,6.77-8.21,2-13.7,3.88-27.43,5.66-41.17.76-5.84.6-5.86-5.53-6.22l1.54-3.7c.41,0,.83,0,1.24,0l221.74,0q53.74,0,107.47-.06c1.94,0,3.88-.2,5.82-.3l1.18-.41c.86,12.58,1.82,25.16,2.56,37.76s1.28,25,1.8,37.52c0,1-.8,2-1.23,3l1-19.22H60.83a2,2,0,0,1-.15-.45c.87-1.09,2.49-2.17,2.5-3.27.16-16.73.11-33.47.11-50.21,0-2-1-3.08-3-3.08-11.26,0-22.52-.06-33.78.11a3.87,3.87,0,0,0-2.78,2.49c-1,7.16-1.77,14.37-2.61,21.56-.51,4.38-1.06,8.75-1.56,13.13-.72,6.27-1.42,12.54-2.17,19.19H52.8A1.77,1.77,0,0,1,52.74,83.31ZM207.11,35.62c0-7.94.08-6.76-6.83-6.84l-3.75.16q-16.11-.08-32.21-.16c-1.92,0-2.48,1-2.48,2.74q0,21.84,0,43.69c0,1.8.72,2.64,2.57,2.66,13.31.12,26.62.33,39.93.31A3.75,3.75,0,0,0,207,75.62c.13-12.08,0-24.16,0-36.23Zm14.25-6.83c-2.89,0-5.77.08-8.65,0-2.07-.08-3.14.74-3.13,2.82,0,2.78.09,5.56.15,8.33L209.56,43q0,15.31,0,30.63c0,4.36.27,4.63,4.51,4.64,9.28,0,18.56,0,27.84,0a93.65,93.65,0,0,0,10.46-.53,3.43,3.43,0,0,0,2.32-2.36c.14-14.54.1-29.08.1-43.62,0-1.84-.83-3-2.77-3-6.29,0-12.57.09-18.86.14ZM305,53.28q0,10.84,0,21.67c0,1.33-.2,2.79,1.84,2.89,2.26.11,4.51.43,6.77.44q16.25.07,32.51,0c1.43,0,2.86-.36,4.29-.34,2.83,0,3.1-1.61,2.93-3.87-1.05-13.84-2.12-27.68-3-41.53-.18-2.8-1.18-3.8-3.93-3.79q-19,.12-38.08,0c-2.64,0-3.4,1-3.37,3.48C305.06,39.25,305,46.27,305,53.28Zm-190.88-.1q0,9.92,0,19.83c0,4.9.35,5.27,5.25,5.28q13,0,26,0c3.58,0,7.16-.08,10.74-.18,2.4-.07,3.29-1.23,3.27-3.75-.11-13.94-.09-27.89,0-41.83,0-2.6-.86-3.78-3.58-3.76q-19.06.1-38.12,0c-2.65,0-3.66,1-3.61,3.66C114.21,39.33,114.12,46.26,114.12,53.18Zm-2.45.32c0-7.12-.07-14.24,0-21.36,0-2.58-.95-3.4-3.47-3.39-12.69.09-25.39.11-38.08,0-2.87,0-3.81,1-3.8,3.79q.11,21.05,0,42.11c0,2.14.55,3.25,2.94,3.24q19.62-.09,39.24,0c2.48,0,3.21-1,3.17-3.33C111.61,67.54,111.68,60.52,111.68,53.5Zm145.61-.26c0,7.12.08,14.24,0,21.36,0,2.54,1.05,3.67,3.42,3.68q19,0,37.92,0c2.76,0,4-1.25,4-4.2q-.15-20.74,0-41.49c0-2.8-1-3.86-3.83-3.85q-19,.12-38.08,0c-2.57,0-3.45.89-3.41,3.43C257.37,39.2,257.29,46.22,257.28,53.24Z"/><path class="cls-1" d="M17.33,23.13c4.22-2.7,8.38-5.5,12.7-8,1.13-.66,2.78-.57,4.2-.57q39.8,0,79.59,0H117c.27-.4.45-.56.47-.74.7-6.17,1.66-7,8.08-6.73,8.14.4,16.28.93,24.41,1.41,1.12,5.14,2.24,5.61,7.13,3.95,3.56-1.21,7.29-1.91,10.94-2.84,2.15.2,4.41.07,6.43.71,1.69.54,3.87,1.66,4.45,3.09.82,2,1.81,2.36,3.62,2.32,8-.18,15.93-.42,23.89-.42,8.75,0,17.5.26,26.25.4-1.82,2.17-3.68,4.32-5.46,6.52a6.5,6.5,0,0,1-5.68,2.37c-10.94-.12-21.89-.06-32.83-.05l-158.65,0c-3.41,0-6.82.09-10.22-.07C19,24.44,18.17,23.6,17.33,23.13Z"/><path class="cls-1" d="M353.92,24.3l-1.18.41c-1.13-.08-2.25-.23-3.38-.23l-107.78,0c-.85,0-1.7-.11-2.76-.19l7.24-8.39,13.65-.58,7.35.54,39.21,1q20.57.67,41.13,1.34C353.4,18.41,353.41,18.37,353.92,24.3Z"/><path class="cls-3" d="M77.51,118.66c-2.18,3.65-3.64,8.11-6.66,10.81-11.27,10.05-27.68,5.1-32.43-9.36-.16-.49-.36-1-.54-1.43,0-4.1-.24-8.14,1.65-12.05,4.67-9.7,13.7-13.33,23.26-11a19.28,19.28,0,0,1,14.58,21.64A5.84,5.84,0,0,0,77.51,118.66Zm-7.35-3.85a12.51,12.51,0,1,0-25,0,12.5,12.5,0,1,0,25,0Z"/><path class="cls-3" d="M302,118.78c-1.11,7.38-7.65,14-15.31,15.43-8.7,1.65-16.89-1.88-21.14-9.28a53.43,53.43,0,0,1-2.63-6.23c.13-3-.18-6,.48-8.88,2.07-8.91,10.73-15.26,20-14.84C295.6,95.53,304.84,107,302,118.78Zm-31.84-4.37a12.27,12.27,0,0,0,12.15,12.91,12.49,12.49,0,0,0,12.87-12.25A12.83,12.83,0,0,0,282.91,102,12.59,12.59,0,0,0,270.12,114.41Z"/><path class="cls-4" d="M14.93,28.78c6.13.37,6.28.39,5.53,6.22-1.78,13.74-3.62,27.47-5.66,41.17C14.22,80,12.53,83.41,8,84.37a54.09,54.09,0,0,0-6.09,2c1.89-18.86,4-37.68,10-55.78C12.23,29.78,13.9,29.39,14.93,28.78Z"/><path class="cls-1" d="M232.69,15.67l13.37.22-7.24,8.39c1.06.08,1.91.19,2.76.19l107.78,0c1.13,0,2.25.15,3.38.23-1.94.1-3.88.3-5.83.3q-53.74,0-107.47.06l-221.74,0c-.41,0-.83,0-1.24,0l.86-1.95c.84.47,1.66,1.31,2.52,1.35,3.4.16,6.81.07,10.22.07l158.65,0c10.94,0,21.89-.07,32.83.05a6.5,6.5,0,0,0,5.68-2.37C229,20,230.87,17.84,232.69,15.67Z"/><path class="cls-5" d="M77.51,118.66a5.84,5.84,0,0,1-.15-1.41A19.28,19.28,0,0,0,62.78,95.61c-9.56-2.33-18.59,1.31-23.26,11-1.89,3.92-1.7,8-1.65,12.05l-3.7-.07c.55-9.2,3.17-17.26,11.26-22.87,9.83-6.81,27.77-5.24,32.59,11.4,1.08,3.72,1.4,7.65,2.07,11.48Z"/><path class="cls-6" d="M177.36,6.57l-9.31,3c-3.65.93-7.39,1.63-10.94,2.84-4.89,1.67-6,1.19-7.13-3.95,1.24-.83,2.38-2,3.75-2.42,6.85-2.13,13.73-4.16,20.67-6,1.25-.33,2.81.55,4.23.87L179.21,4Z"/><path class="cls-5" d="M302,118.78C304.84,107,295.6,95.53,283.41,95c-9.31-.42-18,5.93-20,14.84-.66,2.84-.35,5.91-.48,8.88l-2.38-.12c-.85-9.48,2-17.36,10.3-22.58,7.34-4.62,15.06-4.74,22.62-.56,7.74,4.27,11.15,11.25,11.46,19.91,0,1,0,2.05,0,3.08Z"/><path class="cls-2" d="M1.25,101.39c2.73.89,5.74,1.58,5,5.53-.17.92-.61,2.25-1.28,2.52-2,.81-1.8,2.11-1.28,3.65C1.45,109.49,1.27,105.46,1.25,101.39Z"/><path class="cls-2" d="M1.27,98.87l0,2.48C-.41,100.51-.43,99.68,1.27,98.87Z"/><path class="cls-4" d="M60.69,82.87a2,2,0,0,0,.15.45c-2.8,1.81-5.78,1.81-8.09,0a1.77,1.77,0,0,0,.06-.53A6.07,6.07,0,0,1,60.69,82.87Z"/><path class="cls-4" d="M305,53.28c0-7,.06-14,0-21.05,0-2.47.73-3.5,3.37-3.48q19,.15,38.08,0c2.75,0,3.76,1,3.93,3.79.88,13.85,1.95,27.69,3,41.53.17,2.26-.1,3.91-2.93,3.87-1.43,0-2.86.34-4.29.34q-16.25,0-32.51,0c-2.26,0-4.51-.33-6.77-.44-2-.1-1.84-1.56-1.84-2.89Q305,64.12,305,53.28Z"/><path class="cls-4" d="M114.12,53.18c0-6.92.09-13.84,0-20.76-.05-2.7,1-3.67,3.61-3.66q19.06.11,38.12,0c2.72,0,3.59,1.17,3.58,3.76-.07,13.94-.09,27.89,0,41.83,0,2.52-.87,3.68-3.27,3.75-3.58.1-7.16.17-10.74.18q-13,0-26,0c-4.9,0-5.25-.38-5.25-5.28Q114.12,63.1,114.12,53.18Z"/><path class="cls-4" d="M111.68,53.5c0,7-.07,14,0,21.05,0,2.35-.69,3.35-3.17,3.33q-19.62-.12-39.24,0c-2.39,0-3-1.09-2.94-3.24q.08-21.05,0-42.11c0-2.76.92-3.82,3.8-3.79,12.69.12,25.39.1,38.08,0,2.53,0,3.51.8,3.47,3.39C111.6,39.25,111.68,46.38,111.68,53.5Z"/><path class="cls-4" d="M257.29,53.24c0-7,.08-14,0-21.05,0-2.55.83-3.45,3.41-3.43q19,.14,38.08,0c2.79,0,3.85,1,3.83,3.85q-.12,20.74,0,41.49c0,3-1.23,4.2-4,4.2q-19,0-37.92,0c-2.37,0-3.47-1.14-3.42-3.68C257.36,67.48,257.28,60.36,257.29,53.24Z"/><path class="cls-4" d="M206.92,39.38c.05,12.08.16,24.16,0,36.23a3.75,3.75,0,0,1-2.62,2.56c-13.31,0-26.62-.19-39.93-.31-1.85,0-2.57-.86-2.57-2.66q0-21.84,0-43.69c0-1.73.56-2.75,2.48-2.74q16.1.11,32.21.16Z"/><path class="cls-4" d="M233.18,29c6.29,0,12.57-.11,18.86-.14,1.94,0,2.77,1.11,2.77,3,0,14.54,0,29.08-.1,43.62a3.43,3.43,0,0,1-2.32,2.36,93.65,93.65,0,0,1-10.46.53c-9.28.06-18.56,0-27.84,0-4.24,0-4.5-.28-4.51-4.64q0-15.31,0-30.63c4.58,3,7.59,2.65,11.44-1.17,2.11-2.09,4.26-4.16,6.3-6.32S231.23,31.15,233.18,29Z"/><path class="cls-7" d="M60.69,82.87a6.07,6.07,0,0,0-7.89-.09H17.39c.75-6.65,1.45-12.92,2.17-19.19.5-4.38,1.05-8.75,1.56-13.13.84-7.19,1.57-14.4,2.61-21.56a3.87,3.87,0,0,1,2.78-2.49c11.26-.18,22.52-.12,33.78-.11,2,0,3,1.06,3,3.08,0,16.74,0,33.47-.11,50.21C63.18,80.7,61.56,81.78,60.69,82.87Zm-.47-29.33c0-7-.06-14,0-21.06,0-2.53-.69-3.8-3.5-3.77-9,.11-18,.09-26.94,0-2.65,0-3.51,1.11-3.76,3.68-.8,8.19-1.86,16.36-2.83,24.53Q22.13,66,21,75c-.23,2,.48,3.26,2.65,3.26,10.94,0,21.89,0,32.83,0,2.5,0,3.86-1,3.77-4C60.06,67.38,60.21,60.45,60.21,53.54Z"/><path class="cls-4" d="M209.73,39.92c-.05-2.78-.12-5.55-.15-8.33,0-2.08,1.05-2.9,3.13-2.82,2.88.11,5.77,0,8.65,0-.09,2.1-.16,4.21-.28,6.31-.06,1.07.14,2.37-.37,3.18-2.82,4.42-5.44,4.9-9.85,2.08A6.11,6.11,0,0,0,209.73,39.92Z"/><path class="cls-4" d="M209.73,39.92a6.11,6.11,0,0,1,1.13.44c4.41,2.82,7,2.34,9.85-2.08.52-.81.31-2.1.37-3.18.12-2.1.19-4.21.28-6.31l11.81.16c-2,2.2-3.86,4.45-5.88,6.58s-4.19,4.23-6.3,6.32c-3.86,3.82-6.87,4.12-11.44,1.17Z"/><path class="cls-4" d="M206.92,39.38,196.53,28.95l3.75-.16,6.83,6.84Z"/><path class="cls-4" d="M207.11,35.62l-6.83-6.84C207.19,28.86,207.13,27.68,207.11,35.62Z"/><path class="cls-6" d="M70.16,114.81a12.5,12.5,0,1,1-25,0,12.51,12.51,0,1,1,25,0Z"/><path class="cls-6" d="M270.12,114.41A12.59,12.59,0,0,1,282.91,102a12.83,12.83,0,0,1,12.23,13.06,12.49,12.49,0,0,1-12.87,12.25A12.27,12.27,0,0,1,270.12,114.41Z"/><path class="cls-4" d="M60.21,53.54c0,6.92-.15,13.84.07,20.75.09,3-1.26,4-3.77,4-10.94.05-21.89,0-32.83,0C21.52,78.28,20.81,77,21,75q1.07-9,2.16-18.08c1-8.18,2-16.34,2.83-24.53.25-2.57,1.11-3.71,3.76-3.68,9,.08,18,.1,26.94,0,2.81,0,3.54,1.24,3.5,3.77C60.15,39.5,60.21,46.52,60.21,53.54Z"/></g></g></svg>