<svg xmlns="http://www.w3.org/2000/svg" viewBox="0 0 247.72 93.01"><defs><style>.cls-1{fill:#f89b9b;}.cls-2{fill:#f27979;}.cls-3{fill:#454545;}.cls-4{fill:#e83565;}.cls-5{fill:#868686;}.cls-6{fill:#fbfbfb;}.cls-7{fill:#565655;}.cls-8{fill:#81c5f9;}.cls-9{fill:#9dd1fa;}.cls-10{fill:#eaeaea;}</style></defs><title>Asset 19</title><g id="Layer_2" data-name="Layer 2"><g id="Layer_1-2" data-name="Layer 1"><path class="cls-1" d="M26.57,40.87c6.23-3.23,12.15-7.61,18.77-9.42,10-2.73,20.43-4,30.77-5.21,4.89-.56,5.76-4.48,8.06-7.17a85,85,0,0,0,6.18-9c4.8-7.35,12.79-8,20.19-8.73C121.09.26,131.76.36,142.39,0c24-.71,44.6,7.68,61.59,24.45,6.44,6.36,11.92,13.7,17.83,20.59l4.26,7.19,2,5.64a19.23,19.23,0,0,1-3.69-2C219.9,52,215.87,47.52,211.12,44c-13.29-9.73-32.88-5.21-41.4,8.67-3.44,5.61-5.1,12.3-7.82,19.11h-22a85.8,85.8,0,0,1-1-9c-.09-17.27.09-34.54-.13-51.81-.05-4.08,1.3-5.28,5.15-5,5.57.45,11.16.56,16.74.82C140.3,3.5,120,4.35,99.83,7.43a3.47,3.47,0,0,0,2.41.57c10.58-.63,21.16-1.26,31.73-1.94,2.67-.17,3.93.66,3.92,3.61q-.13,29.48,0,59c0,2.63-1,3.47-3.56,3.46q-27-.09-54,0c-2.55,0-3.59-.89-3.54-3.49.11-5.33,0-10.66,0-16s0-10.82,0-16.23l-1.3,0V68.26a4.88,4.88,0,0,1-1.95-2.56C68,52.34,59,42.57,44,40.47,38.35,39.68,32.4,40.69,26.57,40.87ZM74.84,30.08l-1,2c-5.89.68-11.8,1.17-17.65,2.09-4.49.7-8.9,1.93-13.35,2.92l-2,.37.27.68,1.76-1.06c7.48-.89,15-1.65,22.43-2.72a71.78,71.78,0,0,0,8.57-2.28l1-2,.23-.41ZM110.43,29c3.65,0,7.31,0,11,0,15.68-.21,13.17,2.39,13.46-13.9.07-4.12-1.51-6.27-5.81-6.15-6.47.18-13,.48-19.43.37-10.17-.16-17.41,4.19-22.21,13.12C85,26.92,85.83,28.87,91,29,97.47,29.1,104,29,110.43,29Zm51.48.17c5.33,0,10.66.06,16,0,4.78-.07,6.61-3,4.28-7.19a13.19,13.19,0,0,0-4-4.3c-9.54-6.43-20.36-8.77-31.65-9.35-3.09-.16-5.08,1.1-4.95,4.68.14,3.83.07,7.66,0,11.49-.06,3.37,1.47,4.8,4.87,4.71C151.58,29.06,156.75,29.16,161.91,29.18ZM125.7,39.67c3.11,4.35,4.75,4.27,7.66,0ZM169.34,8.74c-.49-.29-.79-.6-1-.53s-.34.45-.5.7ZM163.6,7.37v.42h1.49V7.37ZM97.12,8.47a1.31,1.31,0,0,0-.43-.13s-.09.23-.13.35a1.3,1.3,0,0,0,.43.13S97.08,8.59,97.12,8.47ZM77.59,33.12l-.21-.4c-.09.11-.25.22-.26.35s.12.26.19.39Z"/><path class="cls-2" d="M26.57,40.87c5.83-.19,11.77-1.2,17.46-.4C59,42.57,68,52.34,73.58,65.7a4.88,4.88,0,0,0,1.95,2.56V36.4l1.3,0q0,8.12,0,16.23c0,5.33.1,10.66,0,16-.05,2.6,1,3.5,3.54,3.49q27-.09,54,0c2.53,0,3.57-.83,3.56-3.46q-.1-29.48,0-59c0-2.95-1.25-3.78-3.92-3.61-10.57.68-21.15,1.31-31.73,1.94a3.47,3.47,0,0,1-2.41-.57C120,4.35,140.3,3.5,160.64,6.84c-5.58-.26-11.18-.37-16.74-.82-3.85-.31-5.2.88-5.15,5,.22,17.27,0,34.54.13,51.81a85.8,85.8,0,0,0,1,9h22c2.71-6.81,4.38-13.5,7.82-19.11,8.51-13.88,28.1-18.41,41.4-8.67,4.75,3.48,8.77,7.93,13.22,11.83a19.19,19.19,0,0,0,3.69,2l-.14.11.82,1.09a.6.6,0,0,1,.24.69l.95,1.33.4.28-.1.36,1.8,5.47-1.53,7.39-2.67.57-3-1.39c-3.88-4.89-7.81-9.74-11.62-14.69a22.92,22.92,0,0,0-25.83-7.9C176.59,54.86,171.72,63.35,172,77.84l-8.26,0c-.12-1.46-.23-2.91-.37-4.64H76.07v4.73c-3.5,3-10,2.94-14.42,0-1.3-3-3.22-5.88-3.78-9C56.27,60,49.16,52.11,40.49,50.42c-10.3-2-20,2.16-24.93,10.54A29.81,29.81,0,0,1,12,65.16L7.91,61c1.08-3.64,2-7.35,3.34-10.87a8.85,8.85,0,0,1,3.56-4.48C18.56,43.75,22.63,42.44,26.57,40.87Z"/><path class="cls-3" d="M230.45,74.63,232,67.23c1.81.15,3.62.23,5.41.47,3.22.43,4.34-.85,4.39-4.13,0-1.5,1.69-3,2.61-4.48,1.12,1.51,3.18,3,3.2,4.53.15,14,1.55,11.39-10.8,11.65l-5,.09Z"/><path class="cls-4" d="M228.95,59.79a.61.61,0,0,0-.24-.69L227.9,58l.14-.11-2-5.64c1.83.76,5,1.23,5.21,2.33.47,2.21-.64,4.77-1.09,7.17l.1-.37-.4-.28Z"/><path class="cls-3" d="M214.92,74.18c-2.06,10.9-8.18,17.28-17.88,18.63-9.29,1.3-16.9-3.83-22.11-14.9,0-1.82-.14-3.65-.12-5.47A19.35,19.35,0,0,1,194.37,53C206.73,52.92,214.21,60.64,214.92,74.18Zm-20-15.08a13.81,13.81,0,0,0-14,13.36,13.78,13.78,0,1,0,14-13.36Z"/><path class="cls-3" d="M54.85,78.09C49.37,94.53,30.15,97.62,20.44,86c-2.88-3.44-3.71-8.6-5.48-13,.29-1.6.56-3.2.86-4.8,1.48-7.9,9.23-14.46,16.95-15.3C45.58,51.55,57.76,61.64,54.85,78.09Zm-19.58-19A13.67,13.67,0,1,0,48.9,72.65,13.54,13.54,0,0,0,35.27,59.09Z"/><path class="cls-3" d="M76.07,77.91V73.18H163.4c.14,1.72.25,3.18.37,4.64Q131.39,77.93,99,78C91.35,78.06,83.71,78,76.07,77.91Z"/><path class="cls-5" d="M214.92,74.18c-.71-13.54-8.19-21.26-20.55-21.2a19.35,19.35,0,0,0-19.56,19.46c0,1.82.08,3.65.12,5.47l-2.9-.07c-.3-14.49,4.56-23,15.25-26.63a22.92,22.92,0,0,1,25.83,7.9c3.81,4.95,7.74,9.8,11.62,14.69a3,3,0,0,0-.89.3Z"/><path class="cls-5" d="M54.85,78.09C57.76,61.64,45.58,51.55,32.78,53c-7.72.85-15.47,7.4-16.95,15.3-.3,1.6-.58,3.2-.86,4.8l-3.38-.74L12,65.16A29.81,29.81,0,0,0,15.57,61c4.9-8.38,14.62-12.56,24.93-10.54,8.66,1.7,15.77,9.58,17.37,18.44.56,3.13,2.48,6,3.78,9Z"/><path class="cls-3" d="M12,65.16l-.37,7.17a19.7,19.7,0,0,1-2.87.7C2,73.65.34,72.65.05,68.09-.29,62.47.89,61.4,7.91,61Z"/><path class="cls-6" d="M223.84,74.1a3,3,0,0,1,.89-.3l3,1.39Z"/><path class="cls-7" d="M110.43,29c-6.48,0-13,.1-19.43,0-5.16-.1-6-2.06-3.59-6.53,4.8-8.93,12-13.28,22.21-13.12,6.47.1,13-.19,19.43-.37,4.3-.12,5.88,2,5.81,6.15-.29,16.29,2.22,13.69-13.46,13.9C117.74,29,114.09,29,110.43,29Z"/><path class="cls-7" d="M161.91,29.17c-5.16,0-10.33-.11-15.49,0-3.4.09-4.93-1.34-4.87-4.71.07-3.83.13-7.67,0-11.49-.13-3.58,1.86-4.83,4.95-4.68,11.29.58,22.1,2.92,31.65,9.35a13.19,13.19,0,0,1,4,4.3c2.33,4.16.5,7.12-4.28,7.19C172.58,29.24,167.24,29.18,161.91,29.17Z"/><path class="cls-2" d="M42.84,37.08c4.45-1,8.86-2.22,13.35-2.92,5.85-.91,11.76-1.41,17.65-2.09h0a71.78,71.78,0,0,1-8.57,2.28c-7.45,1.06-15,1.83-22.43,2.72Z"/><path class="cls-2" d="M125.7,39.67h7.66C130.45,43.94,128.82,44,125.7,39.67Z"/><path class="cls-8" d="M42.83,37.08l-1.76,1.06-.27-.68,2-.37Z"/><path class="cls-8" d="M169.34,8.74l-1.47.16c.16-.25.28-.62.5-.7S168.85,8.45,169.34,8.74Z"/><path class="cls-8" d="M163.6,7.37h1.49v.42H163.6Z"/><path class="cls-8" d="M97.12,8.47c0,.12-.08.35-.13.35a1.3,1.3,0,0,1-.43-.13c0-.12.08-.35.13-.35A1.31,1.31,0,0,1,97.12,8.47Z"/><path class="cls-8" d="M73.83,32.08l1-2h0l-1,2Z"/><path class="cls-8" d="M77.59,33.12l-.28.34c-.07-.13-.21-.27-.19-.39s.17-.23.26-.35Z"/><path class="cls-8" d="M74.84,30.08l.23-.41-.23.41Z"/><path class="cls-9" d="M228.95,59.79l.95,1.33Z"/><path class="cls-9" d="M227.9,58l.82,1.09Z"/><path class="cls-10" d="M194.92,59.11a13.65,13.65,0,1,1-14,13.36A13.81,13.81,0,0,1,194.92,59.11Z"/><path class="cls-10" d="M35.27,59.09A13.67,13.67,0,1,1,21.63,72.65,13.55,13.55,0,0,1,35.27,59.09Z"/></g></g></svg>