<svg xmlns="http://www.w3.org/2000/svg" viewBox="0 0 254.44 96.61"><defs><style>.cls-1{fill:#d1d1d1;}.cls-2{fill:#35537d;}.cls-3{fill:#454545;}.cls-4{fill:#868686;}.cls-5{fill:#e83565;}.cls-6{fill:#626262;}.cls-7{fill:#565655;}.cls-8{fill:#505050;}.cls-9{fill:#fcb804;}.cls-10{fill:#eaeaea;}</style></defs><title>Asset 24</title><g id="Layer_2" data-name="Layer 2"><g id="Layer_1-2" data-name="Layer 1"><path class="cls-1" d="M104.92,6.6c2.64-1.47,5.12-3.67,7.94-4.26,6-1.23,12.12-1.62,18.2-2.35l32,.13,5,.88,15,2.16,3,.94,6,3c1.21,1.31,2.19,3,3.67,3.87,8.71,4.93,17.5,9.74,26.37,14.36,2,1.06,4.56,1.22,6.85,1.79l10.83,11.26a45.85,45.85,0,0,0-5.14-1.71c-3.35-.71-6-.09-6.38,4.06-.66.44-1.31,1.23-2,1.27-14.54.77-29.09,1.41-43.64,2.16-6.73.35-13.45.86-20.21,1.29l-.63,5.61-.42,0-.8-5.74c-10.84.62-21.24,1.34-31.64,1.79-11.28.48-22.58.65-33.86,1.07-4,.15-7.92.6-11.87,1-.93.1-2.57.51-2.61.88-.26,2.95-.58,6,0,8.84.16.75,3.44,1.21,5.28,1.18,12.37-.22,24.74-.81,37.11-.86,8.45,0,16.94,1.16,25.35.7,4.41-.24,10.89,1.71,12.23-7.35l1.1,8c5.84-2.12,12.86,3.2,17.34-6.07l-.48,5.69h15.71c-4.43,6.07-7.07,12.65-5.72,20.34-1.81.17-3.62.5-5.42.5q-54.83,0-109.65,0a56.84,56.84,0,0,1-5.89-.61L64,63.15H77.81c.47-3.89.88-7.13,1.25-10.38.32-2.81-.87-3.74-3.75-3.59-9.62.48-19.26.66-28.88,1.1-.81,0-1.57,1.19-2.36,1.82l-4.89.31c-1.49-.43-3-1.25-4.48-1.21-4.57.13-9.13.59-13.69.92A14.41,14.41,0,0,0,22.63,49a40.73,40.73,0,0,0,.66-5c-2,.09-4.57-.58-5.81.42-2.57,2.07-4.42,5-6.57,7.62L8,52.13c3.37-10,11.7-14.4,20.6-17.94,13.47-5.35,27.61-6.58,42-6.12,3,3.19,5.44,1.16,8-.87,6.95-5.53,14-11,21-16.45C101.34,9.35,103.13,8,104.92,6.6ZM84.84,31.44a30.63,30.63,0,0,0,5.38.82c20.64-.66,41.28-1.46,61.92-2.1,3.16-.1,4.8-1.48,4.67-4.47-.2-4.64-.59-9.3-1.21-13.9-.46-3.43-2.52-5.16-6.23-4.94-9.79.59-19.59.88-29.37,1.55C105.12,9.41,95.55,19.47,85.72,29,85.31,29.38,85.28,30.15,84.84,31.44ZM158.58,8.38c.82,3.88,1.59,7.43,2.31,11,2,10,2,10.12,12.25,9.78,8.89-.29,17.77-.81,26.68-1.23C198.76,19,173.88,7.31,158.58,8.38Z"/><path class="cls-2" d="M194.25,60.21H178.54l.48-5.69c-4.48,9.28-11.49,4-17.34,6.07l-1.1-8c-1.34,9.06-7.82,7.1-12.23,7.35-8.41.47-16.9-.73-25.35-.7-12.37.06-24.74.65-37.11.86-1.84,0-5.12-.43-5.28-1.18C80,56.05,80.34,53,80.6,50c0-.38,1.68-.79,2.61-.88,3.95-.41,7.9-.86,11.87-1,11.28-.42,22.58-.59,33.86-1.07,10.41-.44,20.8-1.16,31.64-1.79l.8,5.74.42,0,.63-5.61c6.75-.44,13.48-.95,20.21-1.29,14.54-.75,29.09-1.39,43.64-2.16.69,0,1.33-.83,2-1.27,3.46,2.57,6.6,5.91,10.46,7.49,4.55,1.87,6,0,5.45-5.13,5,4.7,12.09,8.19,9.84,17.06-5.54,0-11.09-.17-16.61.12-1.56.08-3.06,1.53-4.58,2.35C220.13,47.51,203.51,50.76,194.25,60.21ZM179,52.93l1,.65L181,51l-.76-.32Z"/><path class="cls-3" d="M214.91,96.56c-11.65.66-18.5-5.61-22.69-15.73,0-1.33-.08-2.65-.06-4A20.35,20.35,0,0,1,218,57.1c9.15,2.4,14.39,10.05,15.06,22C230.27,88.32,225,94.9,214.91,96.56Zm11.25-19.81a13.63,13.63,0,1,0-13.77,13.38A13.34,13.34,0,0,0,226.15,76.75Z"/><path class="cls-4" d="M233.07,79.11c-.67-12-5.91-19.62-15.06-22a20.35,20.35,0,0,0-25.85,19.76c0,1.32,0,2.65.06,4l-3.69-.28c-1.34-7.7,1.29-14.28,5.73-20.35,9.26-9.45,25.88-12.69,38.57,2.41l4.23,15.49Z"/><path class="cls-1" d="M237.05,78.11l-4.23-15.49c1.52-.82,3-2.27,4.58-2.35,5.52-.29,11.07-.12,16.61-.12-.47,2.93,0,6.5-1.61,8.64C249.35,73,246,77.41,240,78.08A28.33,28.33,0,0,1,237.05,78.11Z"/><path class="cls-5" d="M244.17,43.09c.58,5.17-.9,7-5.45,5.13-3.86-1.58-7-4.93-10.46-7.49.34-4.15,3-4.77,6.38-4.06a45.85,45.85,0,0,1,5.14,1.71l.08,0,2.86,2.32Z"/><path class="cls-6" d="M229,27.11c-2.3-.57-4.81-.73-6.85-1.79-8.88-4.62-17.66-9.43-26.37-14.36-1.48-.84-2.46-2.56-3.67-3.87,1,0,2.13-.26,2.88.17C206.32,13.82,217.63,20.47,229,27.11Z"/><path class="cls-1" d="M242.74,40.67l-2.86-2.32Z"/><path class="cls-3" d="M63.11,81.17c-3.53,9.92-10,15.09-19.05,15.29-9.47.21-16-4.61-20-14.71a9.59,9.59,0,0,0-.74-1.27,38.29,38.29,0,0,1-.17-4c.48-8.32,4.28-14.64,11.83-18.26,7.21-3.45,14.4-2.76,20.65,2.18C62.28,65.66,64.91,72.71,63.11,81.17Zm-6-4.59A13.37,13.37,0,0,0,43.74,62.87a13.63,13.63,0,1,0-.2,27.27A13.48,13.48,0,0,0,57.15,76.58Z"/><path class="cls-2" d="M21,52.12c4.56-.33,9.12-.79,13.69-.92,1.48,0,3,.78,4.48,1.21A27.72,27.72,0,0,0,21.24,66.2l-10.34.43-10.36,0C-.41,61.65-.77,57,5.35,54.88c1.09-.38,1.8-1.81,2.69-2.75l2.88,0c.38,4.41,3.35,3.27,5.82,2.52C18.27,54.13,19.6,53,21,52.12Z"/><path class="cls-4" d="M21.24,66.2a27.72,27.72,0,0,1,17.95-13.8l4.89-.31A26.54,26.54,0,0,1,64,63.15l3.55,17.29-4.44.73c1.79-8.46-.83-15.52-7.46-20.76C49.4,55.47,42.21,54.78,35,58.23c-7.55,3.62-11.35,9.95-11.83,18.26a38.29,38.29,0,0,0,.17,4l-3.77.09Q20.4,73.39,21.24,66.2Z"/><path class="cls-1" d="M21.24,66.2q-.84,7.18-1.67,14.37C12.53,81.85,6,81.34,1,75.4c1.48-.06,3-.05,4.44-.18,4.8-.41,6.91-3.71,5.5-8.6Z"/><path class="cls-7" d="M104.92,6.6c-1.79,1.38-3.59,2.75-5.36,4.14-7,5.47-14,10.92-21,16.45-2.55,2-4.94,4.06-8,.87,10.21-7,20.39-14,30.66-20.89C102.2,6.56,103.69,6.78,104.92,6.6Z"/><path class="cls-4" d="M10.9,66.63c1.41,4.88-.69,8.19-5.5,8.6-1.48.12-3,.12-4.44.18Q.75,71,.54,66.59Z"/><path class="cls-8" d="M84.84,31.44c.44-1.28.48-2.06.88-2.45C95.55,19.47,105.12,9.41,120,8.4c9.78-.67,19.59-1,29.37-1.55,3.71-.22,5.77,1.51,6.23,4.94.61,4.61,1,9.26,1.21,13.9.13,3-1.51,4.37-4.67,4.47-20.64.64-41.28,1.43-61.92,2.1A30.63,30.63,0,0,1,84.84,31.44Z"/><path class="cls-8" d="M158.58,8.38C173.88,7.31,198.76,19,199.83,27.92c-8.92.42-17.8.94-26.68,1.23-10.22.34-10.22.25-12.25-9.78C160.17,15.81,159.4,12.26,158.58,8.38Z"/><path class="cls-2" d="M64,63.15A26.54,26.54,0,0,0,44.08,52.1c.78-.63,1.54-1.78,2.36-1.82,9.62-.44,19.26-.62,28.88-1.1,2.88-.14,4.06.79,3.75,3.59-.37,3.25-.78,6.49-1.25,10.38Zm11.08-11-.44-.22.41.24.39,1.29.38-.25Z"/><path class="cls-9" d="M21,52.12c-1.42.85-2.75,2-4.29,2.47-2.47.75-5.44,1.89-5.82-2.52,2.15-2.59,4-5.55,6.57-7.62,1.24-1,3.83-.33,5.81-.42a40.73,40.73,0,0,1-.66,5A14.41,14.41,0,0,1,21,52.12Z"/><path class="cls-1" d="M179,52.93l1.18-2.28L181,51,180,53.58Z"/><path class="cls-10" d="M226.15,76.75a13.63,13.63,0,1,1-13.22-13.88A13.46,13.46,0,0,1,226.15,76.75Z"/><path class="cls-10" d="M57.15,76.58a13.63,13.63,0,1,1-27.25-.45A13.35,13.35,0,0,1,43.74,62.87,13.37,13.37,0,0,1,57.15,76.58Z"/><path class="cls-1" d="M75.09,52.11l.74,1.06-.38.25-.39-1.29Z"/><path class="cls-1" d="M75.06,52.14l-.41-.24.44.22Z"/></g></g></svg>