<svg xmlns="http://www.w3.org/2000/svg" viewBox="0 0 242.88 105.72"><defs><style>.cls-1{fill:#6f88fc;}.cls-2{fill:#5b77dd;}.cls-3{fill:#d1d1d1;}.cls-4{fill:#454545;}.cls-5{fill:#565655;}.cls-6{fill:#626262;}.cls-7{fill:#fcb804;}.cls-8{fill:#eaeaea;}</style></defs><title>Asset 7</title><g id="Layer_2" data-name="Layer 2"><g id="Layer_1-2" data-name="Layer 1"><path class="cls-1" d="M225.17,35.72c4.56,5.68,10.64,10.47,11,18.63l-7,1.5-3.42,2.24c-2.45-.47-4.57-1.22-6.7-1.22-20.81-.09-41.62-.05-62.44-.05-11,0-10.88,0-10.72,10.81.05,3.29,1.12,4.33,4.35,4.25,7.82-.18,15.66-.29,23.47,0,6.51.25,12.6.16,16.77-6,.59-.87,1.9-1.29,2.93-1.82a24.34,24.34,0,0,1,33.53,13.7q0,3,0,6l-2.24,1a7,7,0,0,1-.51-1.38c-1.88-12.65-12.38-20.08-24.85-17.54-11.19,2.28-17.72,14-14.5,26l-6-.28c1-4.93-1.5-5.9-5.85-5.89q-52.21.16-104.41-.07c-4.17,0-6.1,1.68-7.34,5.12l-6.24.2c.07-1.49.19-3,.21-4.46.22-12.49-8.2-21-20.59-20.88-10.45.11-16,6.45-19.67,15.32L14,75.65c4.9-12.78,19.5-17.24,30.53-11.89,5.19,2.52,9.93,4,15.88,3.33,4.42-.52,4.46-2.33,4.64-5.64.21-3.9-1.34-4.74-4.93-4.7-15.49.17-31,.07-46.46.07-9.35,0-9.35,0-9.84-9.27l3.8-3.82c7.1-1.28,14.18-2.73,21.32-3.8,11.68-1.75,23.4-3.24,35.1-4.84l2,.33.64-.57c5.67-7.63,11.39-15.22,16.9-23,.47-.66-.51-2.34-.81-3.55l1-.93c11.81.12,23.62.35,35.43.35,27.64,0,55.28-.1,82.92-.16l1,1.9c.53,1.84.68,3.92,1.65,5.48,3.14,5,6.73,9.82,9.87,14.87C217.09,33.85,220.33,36.11,225.17,35.72ZM72.82,37.47A39.11,39.11,0,0,0,77,38q28.71,0,57.43,0c2.08,0,4.59.54,4.57-2.92,0-7.16.1-14.32-.1-21.47-.08-2.83-1.56-4.23-4.89-4.17-13,.26-25.94,0-38.9.31-2.06,0-4.83,1.06-6,2.6-5.32,7-10.22,14.35-15.18,21.62C73.36,34.79,73.27,36,72.82,37.47Zm99.52.51c8.15,0,16.29.06,24.44,0,5.74-.06,7.76-2.94,5.24-8a159.31,159.31,0,0,0-9.65-16.83,8.7,8.7,0,0,0-6.08-3.41c-13-.31-25.93-.13-38.9-.18-3.48,0-4.64,1.66-4.57,5,.13,6.48.15,13,0,19.45-.08,3.07,1.12,4.08,4.09,4C155.39,37.9,163.87,38,172.34,38ZM105.21,56.81c-11.48,0-23,.23-34.43-.11-4.8-.14-5.08,2.19-4.84,5.77.21,3.17-1,6.54,4.63,6.47q34.43-.41,68.86,0c5.59.06,5-3.72,5.44-6.88.47-3.63-1.25-5.37-5.24-5.31C128.16,56.94,116.68,56.81,105.21,56.81Zm34-9.33c-4.45-2.9-9.06-5.42-13.64,0Z"/><path class="cls-2" d="M226.95,77.77a24.34,24.34,0,0,0-33.53-13.7c-1,.53-2.34,1-2.93,1.82-4.17,6.15-10.26,6.24-16.77,6-7.81-.3-15.65-.19-23.47,0-3.23.07-4.3-1-4.35-4.25-.17-10.81-.29-10.81,10.72-10.81,20.81,0,41.63,0,62.44.05,2.12,0,4.25.76,6.7,1.22l3.42-2.24c.66,2.12.87,4.59,2.14,6.25.81,1.05,3.18.91,4.85,1.31l.85-5.62c3.3,6.48,2.57,12.76-.93,18.9Z"/><path class="cls-3" d="M202.09,7.57c-27.64.06-55.28.17-82.92.16-11.81,0-23.62-.22-35.43-.35C88.24,5.55,92.61,3.21,97.28,2c4.12-1,8.55-1,12.86-1.1C128.92.5,147.72-.16,166.51,0c9.06.09,18.14,1.6,27.11,3.08C196.61,3.61,199.27,6,202.09,7.57Z"/><path class="cls-4" d="M14.93,80.84c3.63-8.87,9.23-15.2,19.67-15.32C47,65.38,55.42,73.91,55.2,86.4c0,1.49-.14,3-.21,4.46-2.84,6.42-6.81,11.68-13.88,13.91C30.91,108,17.19,102.56,14.82,86.86q.09-3,.17-6.09Zm34,4.67A13.8,13.8,0,0,0,35.26,71.82,13.66,13.66,0,1,0,48.89,85.5Z"/><path class="cls-4" d="M184.85,91.78c-3.21-12,3.32-23.71,14.5-26,12.47-2.54,23,4.88,24.85,17.54a7,7,0,0,0,.51,1.38,55.25,55.25,0,0,1-1.23,6.3c-2.65,8.45-8.51,13.29-17.22,14.54-7.63,1.1-15.65-3.17-19.62-10.22C186,94.18,185.44,93,184.85,91.78Zm33.06-6.17a13.78,13.78,0,0,0-13.52-13.77,13.65,13.65,0,1,0,13.52,13.77Z"/><path class="cls-4" d="M61.23,90.66c1.24-3.44,3.17-5.14,7.34-5.12q52.21.31,104.41.07c4.35,0,6.88,1,5.85,5.89q-57.22.08-114.44.13A11.4,11.4,0,0,1,61.23,90.66Z"/><path class="cls-2" d="M3.81,47.54c.48,9.27.48,9.27,9.84,9.27,15.49,0,31,.1,46.46-.07,3.59,0,5.15.8,4.93,4.7-.18,3.3-.22,5.12-4.64,5.64-6,.7-10.69-.81-15.88-3.33-11-5.35-25.63-.89-30.53,11.89l-8.18,0c-1-7.78-2-15.55-2.87-23.35C2.77,50.74,3.5,49.12,3.81,47.54Z"/><path class="cls-5" d="M225.17,35.72c-4.84.39-8.08-1.87-10.58-5.9-3.14-5-6.73-9.82-9.87-14.87-1-1.56-1.13-3.64-1.65-5.48,2.33,2.49,4.78,4.86,7,7.48C215.14,23.15,220.13,29.46,225.17,35.72Z"/><path class="cls-5" d="M66,35.41l-2-.33-1-1.25c5.9-8.08,11.79-16.16,17.73-24.21a7,7,0,0,1,2-1.3c.3,1.21,1.28,2.89.81,3.55-5.51,7.75-11.23,15.34-16.89,23A1.48,1.48,0,0,0,66,35.41Z"/><path class="cls-4" d="M226.95,77.77l9.12-1.09c1.32.12,2.95-.2,3.9.45,1.32.91,3,2.58,2.91,3.87s-2,3.49-3.15,3.53a119.15,119.15,0,0,1-12.78-.8Q227,80.75,226.95,77.77Z"/><path class="cls-6" d="M63,33.83l1,1.25c-11.7,1.59-23.42,3.09-35.1,4.83C21.79,41,14.72,42.44,7.61,43.72c4.5-1.3,8.91-3.16,13.5-3.8,13.24-1.84,26.56-3.18,39.83-4.78C61.67,35.05,62.32,34.28,63,33.83Z"/><path class="cls-4" d="M5.81,75.61l8.18,0,.94,5.19.05-.06L5.91,83.1c-.66-.05-1.53.14-2-.21C2.5,81.7.14,80.39,0,79-.33,74.71,3.5,76.19,5.81,75.61Z"/><path class="cls-7" d="M237,57.78l-.85,5.62c-1.67-.39-4-.25-4.85-1.31-1.27-1.66-1.48-4.12-2.14-6.25l7-1.5Z"/><path class="cls-2" d="M5.91,83.1,15,80.78q-.09,3-.17,6.09C11.41,86.65,7.31,88.08,5.91,83.1Z"/><path class="cls-5" d="M72.82,37.47c.45-1.47.54-2.68,1.13-3.54,5-7.28,9.86-14.61,15.18-21.62,1.17-1.54,3.94-2.55,6-2.6,13-.26,25.94-.05,38.9-.31,3.33-.07,4.81,1.34,4.89,4.17.19,7.15.05,14.31.1,21.47,0,3.46-2.49,2.92-4.57,2.92Q105.73,38,77,38A39.11,39.11,0,0,1,72.82,37.47Z"/><path class="cls-5" d="M172.34,38c-8.48,0-17-.08-25.43,0-3,0-4.17-1-4.09-4,.16-6.48.14-13,0-19.45-.06-3.29,1.1-5,4.57-5,13,.06,25.94-.13,38.9.18a8.7,8.7,0,0,1,6.08,3.41A159.31,159.31,0,0,1,202,30c2.52,5,.5,7.89-5.24,8C188.64,38,180.49,38,172.34,38Z"/><path class="cls-2" d="M105.21,56.81c11.48,0,23,.12,34.43-.07,4-.07,5.7,1.68,5.24,5.31-.41,3.16.16,6.94-5.44,6.88q-34.43-.4-68.86,0c-5.62.07-4.42-3.29-4.63-6.47-.24-3.57,0-5.91,4.84-5.77C82.25,57,93.73,56.81,105.21,56.81Z"/><path class="cls-2" d="M139.24,47.48H125.59C130.17,42.07,134.78,44.58,139.24,47.48Z"/><path class="cls-6" d="M66,35.41a1.48,1.48,0,0,1,.65-.57Z"/><path class="cls-8" d="M48.89,85.5A13.71,13.71,0,1,1,35.26,71.82,13.8,13.8,0,0,1,48.89,85.5Z"/><path class="cls-8" d="M217.91,85.61a13.71,13.71,0,1,1-13.52-13.77A13.78,13.78,0,0,1,217.91,85.61Z"/></g></g></svg>