<svg xmlns="http://www.w3.org/2000/svg" viewBox="0 0 241.09 106.73"><defs><style>.cls-1{fill:#35537d;}.cls-2{fill:#d1d1d1;}.cls-3{fill:#454545;}.cls-4{fill:#565655;}.cls-5{fill:#505050;}.cls-6{fill:#fcb804;}.cls-7{fill:#dcdcdc;}.cls-8{fill:#f8f8f8;}.cls-9{fill:#fbfbfb;}.cls-10{fill:#eaeaea;}</style></defs><title>Asset 20</title><g id="Layer_2" data-name="Layer 2"><g id="Layer_1-2" data-name="Layer 1"><path class="cls-1" d="M199.06,2.92l2,.25,8.14,2.71c-3,.4-6,.79-9,1.21-2.29.32-4.57.7-8.24,1.26,5.48,6.5,9.75,12.06,14.61,17,1.6,1.63,4.68,2.11,7.18,2.5,3.41.53,6.91.48,10.37.67l1.5,3.21L214,32.48,228.9,51.61l1.29,5.21.81,2.31a1.26,1.26,0,0,0,.33.86l.73,13.34-1.27.2-1.66-1.59a30.06,30.06,0,0,0-2.41-4.82c-7.79-10.49-18.36-15.29-31.26-13.74-14.23,1.71-23.65,10-27.86,23.58-1.21,3.89-3,4.35-6.32,4.35q-46.24-.1-92.47,0H63.62c-6.37-26.08-33.84-36.58-53.76-21-3.71,2.91-6.49,7-9.71,10.53.46-5.5-1.82-11.49,2.92-16.22,9.35-2,16.62-7.25,22.76-14.76l-16.67,4c6.54-5.59,14.91-6,22.73-7.73A186.42,186.42,0,0,1,52.07,33c5.8-.65,10.63-3,15.47-6.16C77.72,20.22,87.76,13.09,98.75,8.21c7.8-3.46,17.07-3.64,25.7-5.18,3.2-.57,6.46-.84,9.69-1.25l42.95-.08,2,.06.46.14.47-.1,12.64.36ZM68.91,34.65l.75,1.52c2,0,3.92.08,5.88,0,15.37-.69,30.74-1.48,46.12-2.1,6.87-.28,6.85-.14,7.55-6.78.12-1.11.66-2.18.88-3.29,1-5.11,2.19-10.2,2.93-15.36.38-2.62-.83-3.79-3.95-3.21A179.13,179.13,0,0,1,111,7.83c-8.89.73-16,5.37-23,10.09-5.46,3.69-10.36,8.23-15.41,12.51A34,34,0,0,0,68.91,34.65ZM141.5,5.39c-1.17,8.65-2,15.86-3.16,23-.63,3.83,1.09,4.75,4.38,4.64,12.28-.43,24.56-.78,36.84-1.24a41.88,41.88,0,0,0,6.38-.87c3.32-.65,3.9-2.91,2.63-5.58a59.7,59.7,0,0,0-5.69-10.29c-2-2.68-4.69-6.31-7.47-6.71C164.32,6.78,153.07,6.3,141.5,5.39Z"/><path class="cls-2" d="M.15,70.84c3.21-3.54,6-7.62,9.71-10.53,19.92-15.62,47.39-5.12,53.76,21h5.17q46.24,0,92.47,0c3.3,0,5.12-.46,6.32-4.35,4.21-13.57,13.63-21.87,27.86-23.58,12.9-1.55,23.47,3.25,31.26,13.74a30,30,0,0,1,2.41,4.82L231.21,76c-1.13,3.53-2.64,6.7-7,7-4.27-19-23.47-27.41-38.67-17.05-7.7,5.24-10.68,12.87-11.13,21.8L162.1,89q-50.83,0-101.65,0a45.56,45.56,0,0,1-5.33-.62c.57-15-9.59-26.25-24-26.45-13-.18-21.61,7-25.44,21.24C-.18,80.82.93,75.41.15,70.84Z"/><path class="cls-3" d="M219.83,84.49c-.55,10.27-4.38,18.42-15,21.42-11,3.09-21.66-3.31-24.71-14.34-.31-1.11-.73-2.18-1.11-3.27,0-.83,0-1.66.12-2.48,1.36-13.64,13.59-22.58,26.37-18.64C213.66,69.71,218.21,76.09,219.83,84.49Zm-20.09,15.68a13.62,13.62,0,1,0-13.81-13.31A13.35,13.35,0,0,0,199.73,100.17Z"/><path class="cls-4" d="M224.11,28.56c-3.46-.2-7-.14-10.37-.67-2.5-.39-5.58-.86-7.18-2.5-4.86-5-9.13-10.54-14.61-17,3.67-.56,6-.93,8.24-1.26,3-.42,6-.81,9-1.21C216.7,11.77,220.15,20.34,224.11,28.56Z"/><path class="cls-4" d="M230.19,56.82l-1.29-5.21.3-16.77c.85-3.24-1.38-8.21,5.22-8.06,6.27.14,6.67.23,6.67,6.71q0,8.49,0,17c0,6.85-.19,7-7,6.95-1,0-2-.08-3-.13Z"/><path class="cls-5" d="M219.83,84.49c-1.62-8.41-6.17-14.78-14.36-17.31-12.77-3.94-25,5-26.37,18.64-.08.82-.08,1.66-.12,2.48l-4.57-.5c.45-8.93,3.44-16.56,11.13-21.8,15.21-10.36,34.41-1.9,38.67,17.05Z"/><path class="cls-6" d="M229.2,34.84l-.3,16.77L214,32.48l11.66-.71Z"/><path class="cls-7" d="M231.21,76l-2.09-4.09,1.66,1.59,1.27-.2L231.32,60C233.91,63.18,233.85,71.48,231.21,76Z"/><path class="cls-7" d="M230.19,56.82l1,.46L231,59.13Z"/><path class="cls-3" d="M51.2,88.28c-.42,1.23-.88,2.44-1.25,3.68A20.42,20.42,0,0,1,30.4,106.72a20.2,20.2,0,0,1-19.29-15c-.48-1.74-.79-3.52-1.18-5.28A22.19,22.19,0,0,1,18,70.54c6.76-5.7,21.73-6.22,26.49.5C48,75.91,49.05,82.47,51.2,88.28Zm-20.44,11.9a13.63,13.63,0,1,0-.69-27.25,13.63,13.63,0,0,0,.69,27.25Z"/><path class="cls-5" d="M51.2,88.28C49.05,82.47,48,75.91,44.5,71c-4.76-6.72-19.73-6.2-26.49-.5A22.19,22.19,0,0,0,9.94,86.42L5.69,83.09C9.52,68.88,18.15,61.67,31.13,61.85c14.4.2,24.57,11.41,24,26.45Z"/><path class="cls-8" d="M9.17,43.88l16.67-4C19.7,47.37,12.42,52.67,3.07,54.62,4.35,50.61,4.41,45.91,9.17,43.88Z"/><path class="cls-9" d="M177.1,1.69l-42.95.08c1.67-.58,3.34-1.65,5-1.67C150.6,0,162,0,173.46.1,174.68.11,175.89,1.14,177.1,1.69Z"/><path class="cls-9" d="M199.06,2.92l-6.36-.78Z"/><path class="cls-9" d="M180.07,1.78l-.47.1-.46-.14Z"/><path class="cls-4" d="M68.91,34.65a34,34,0,0,1,3.62-4.22c5-4.28,10-8.81,15.41-12.51,7-4.73,14.13-9.37,23-10.09a179.13,179.13,0,0,0,18.12-2.41c3.11-.58,4.32.59,3.95,3.21-.74,5.15-1.91,10.25-2.93,15.36-.22,1.11-.76,2.17-.88,3.29-.7,6.65-.68,6.51-7.55,6.78-15.38.62-30.75,1.41-46.12,2.1-2,.09-3.92,0-5.88,0Z"/><path class="cls-4" d="M141.5,5.39c11.57.91,22.82,1.39,33.91,3,2.78.4,5.47,4,7.47,6.71a59.7,59.7,0,0,1,5.69,10.29c1.27,2.67.69,4.94-2.63,5.58a41.88,41.88,0,0,1-6.38.87c-12.28.46-24.56.81-36.84,1.24-3.29.12-5-.81-4.38-4.64C139.5,21.25,140.33,14,141.5,5.39Z"/><path class="cls-10" d="M199.73,100.17A13.62,13.62,0,1,1,213.18,86.5,13.34,13.34,0,0,1,199.73,100.17Z"/><path class="cls-10" d="M30.75,100.18a13.63,13.63,0,0,1-.69-27.25,13.63,13.63,0,1,1,.69,27.25Z"/></g></g></svg>