<svg xmlns="http://www.w3.org/2000/svg" viewBox="0 0 659.55 819.37"><defs><style>.cls-1{fill:#f7ecb5;}.cls-2{fill:none;}.cls-3{fill:#b2b2b1;}</style></defs><title>Asset 1</title><g id="Layer_2" data-name="Layer 2"><g id="Layer_1-2" data-name="Layer 1"><path class="cls-1" d="M330.37,665.27c-17.17,0-34.33.08-51.5-.06a68.86,68.86,0,0,1-12.37-1.3c-11.95-2.3-18.25-10.71-21.08-21.61-3-11.63-4.8-23.57-7.45-35.3-2.58-11.46-5.1-23-8.45-34.2-9.06-30.36-22-59.14-36.47-87.27-8-15.54-16.79-30.76-23.36-46.89-5.06-12.43-7.72-25.93-10.43-39.17a115.51,115.51,0,0,1-2.08-25.65c.38-16.36,2.64-32.54,7.9-48.17,20.6-61.24,62.25-100.25,124.54-116.89,15.7-4.19,32-5.27,48.34-4.37,42.81,2.37,80,18.12,111,47.81a169.76,169.76,0,0,1,45.26,73.68c6.69,21.68,8.3,44,6.53,66.38C498.57,420.14,488,445.4,474.89,470c-12.68,23.74-24.08,48.24-34.7,73-12,27.89-18.8,57.36-23.34,87.38a84.71,84.71,0,0,1-5.2,17.59c-4.77,12.34-15.11,16.86-27.29,17.17-18,.46-36,.12-54,.12Z"/><path class="cls-2" d="M243.53,176.36,201,200.93c-4.85-8.31-9.54-16.29-14.17-24.3Q161.19,132.33,135.6,88c-1-1.73-1.84-3.55-2.9-5.24-9.1-14.51.45-27.88,10.3-33.29,12.28-6.75,25.27-3.25,32.55,9.25,17.6,30.2,35,60.51,52.48,90.77Z"/><path class="cls-2" d="M416.6,176.37c5.66-9.89,11.07-19.4,16.54-28.87q25.36-43.88,50.74-87.75C488.4,51.92,494.41,46.3,504,46.4s17.57,3.78,22.82,11.94c5,7.78,4.93,16.26.57,24.17-9.17,16.61-18.8,33-28.27,49.4q-18.57,32.23-37.19,64.43c-.81,1.4-1.79,2.71-3,4.46Z"/><path class="cls-2" d="M151.18,245.41,126.7,287.72c-14.72-8.46-29-16.65-43.25-24.88-23.22-13.39-46.25-27.11-69.69-40.12-20.89-11.6-15.45-34.51-.59-43.67a21.5,21.5,0,0,1,22.43-.51c38.08,21.59,75.9,43.63,113.81,65.52C149.83,244.32,150.2,244.66,151.18,245.41Z"/><path class="cls-2" d="M533.2,287.53l-24.46-42.38c8.21-4.75,16.08-9.31,24-13.84,30.13-17.35,60.15-34.88,90.43-52,16.28-9.19,33.33,1.25,36,18.08,1.78,11.11-2.29,19.09-11.7,24.54q-55.73,32.25-111.55,64.34C535.19,286.7,534.41,287,533.2,287.53Z"/><path class="cls-2" d="M354.67,154.83H306.29c-.11-1.71-.29-3.16-.29-4.61Q306,87,306,23.75c0-10.67,5.25-18.8,14.79-22S342.93-.57,349.19,8c2.89,4,5.55,9.23,5.6,13.93.42,43.65.26,87.31.25,131A13.75,13.75,0,0,1,354.67,154.83Z"/><path class="cls-3" d="M329.68,739.24q-29.49,0-59,0c-8.55,0-11.67-3.19-11.7-11.8,0-9.61,2.88-13,11.55-13q59-.05,118,0c9.14,0,11.55,3.08,11.52,14.34,0,7.37-3.33,10.44-11.37,10.44Q359.17,739.25,329.68,739.24Z"/><path class="cls-3" d="M329.69,702.3q-29.74,0-59.48,0c-7.78,0-11.11-3.24-11.22-10.74-.15-10.26,2.59-14,11.06-14q59.73-.15,119.47,0c7.28,0,10.51,3.55,10.52,10.85q0,1.75,0,3.5c0,7-3.27,10.41-10.36,10.42C369.68,702.33,349.68,702.3,329.69,702.3Z"/><path class="cls-3" d="M329.69,751.38q29.49,0,59,0c8.36,0,11.37,3.1,11.36,11.47,0,11-2.38,13.34-13.52,13.34h-114c-11.79,0-17-7.33-13.06-18.47,1.67-4.66,5.38-6.39,10.23-6.38C289.7,751.42,309.7,751.38,329.69,751.38Z"/><path class="cls-3" d="M283.93,788.61h90.64c1.65,5.91-1.12,10.2-4.51,14.17-8.1,9.47-19.08,13.28-30.86,15.55-16.44,3.17-31.22-1-44.56-10.47C288.42,803.47,283.72,797.64,283.93,788.61Z"/></g></g></svg>