<svg xmlns="http://www.w3.org/2000/svg" viewBox="0 0 318.43 140.12"><defs><style>.cls-1{fill:#1000dd;}.cls-2{fill:#0000fd;}.cls-3{fill:#06004f;}.cls-4{fill:#620065;}.cls-5{fill:#0f0410;}.cls-6{fill:#ed0e03;stroke:#d11e09;stroke-miterlimit:10;stroke-width:2px;}.cls-7{fill:#fd0600;}.cls-8{fill:#d11e09;}.cls-9{fill:#0a0302;}</style></defs><title>Asset 4</title><g id="Layer_2" data-name="Layer 2"><g id="Layer_1-2" data-name="Layer 1"><path class="cls-1" d="M43.95,140.12c-5.46-.05-10.93.06-16.38-.21-3.76-.19-7.5-.92-11.25-1.4L13.06,137,4.9,129.1l-.8-1.2L4,126l5.18,4.34C8.42,125.27,7.1,120.3,7,115.32,6.79,95.72,7,76.11,6.83,56.51c0-1.43-1.27-2.84-2-4.26C4.23,53.69,3.07,55.13,3,56.6c-.21,6,0,12-.13,17.94-.08,2.88-.67,5.75-1,8.63a23.87,23.87,0,0,1-.7-3.83C.76,61.69.58,44,0,26.4-.48,10.61,10.22-.05,26.2,0c89.62.3,179.23.09,268.85.32,4.3,0,8.59,2.46,12.89,3.78-4.07-.66-8.13-1.88-12.2-1.89Q159.56,2,23.38,2.39c-5.1,0-10.22,3.86-15.22,6.16-.68.31-.75,2-1.47,4.13,2.14-.94,3.19-1.11,3.81-1.72,3.92-3.87,8.58-5.17,14-4.9,9.78.5,19.58,1,29.37.94,36.61-.18,73.22-.65,109.83-.85,8.29,0,16.58.7,24.88.87q11.63.24,23.26,0c9.46-.18,18.92-.79,28.38-.87,19.16-.15,38.32-.19,57.47.1,2.44,0,4.84,2.38,7.26,3.65l-2.07-.59a.74.74,0,0,0-.78-.31L300,8.35c-1.65-.09-3.31-.27-5-.27q-54.63,0-109.25.11c-10,0-19.94.13-29.91.2H145l-52.15,0L91.8,9c-3.94-.3-7.89-.83-11.83-.85-19.27-.12-38.53-.19-57.8,0-2.44,0-4.87,1.55-7.3,2.38l-.76.57-1.16,1L10.76,15l-.93,2-1.5,5.12,0,3.94.47,16.13.15,10.87Q9,84.23,9,115.39a5.3,5.3,0,0,0,.75,1.79L10,120.1l.76,1.54-.1.26.19.2,1.71,2.34v0a3.19,3.19,0,0,0,.23.93c4.61,7.52,11.93,6.74,19.16,6.25l56.12,0,7.68,0h12.3l39,.22,36.84-.09,4.15,0,12.7,0h6.44l4.5,0,27.43,0A24.45,24.45,0,0,0,242,132c18.55,0,37.1,0,55.66,0,4.87,0,8-2.73,10.53-6.36a49.55,49.55,0,0,0,3.3-6.59l1.27,5.54a6.14,6.14,0,0,0,2.1-4.15c.44-10.41.67-20.83,1.13-31.24.06-1.41,1-2.77,1.61-4.16-.4,12.83-.13,25.73-1.48,38.46a15.9,15.9,0,0,1-11.28,13.42L301,138.38q-67.63,0-135.26.08a14.93,14.93,0,0,0-3.66,1q-25.91,0-51.81-.05a8.9,8.9,0,0,0-2.32.66l-39,.11ZM4.11,40.6c2.88-4,1.4-8.65,1.75-13,.27-3.49.84-7,1-10.44a30.42,30.42,0,0,0-.63-5.29C.65,21.31,2.21,30.91,4.11,40.6Z"/><path class="cls-2" d="M317.64,85.06c-.56,1.39-1.55,2.75-1.61,4.16-.46,10.41-.7,20.83-1.13,31.24a6.14,6.14,0,0,1-2.1,4.15l-1.27-5.54c.07-5,.17-9.92.21-14.88Q311.9,83.6,312,63l0-9.85-.07-7.09a6.91,6.91,0,0,0,1-2.15c.4-6.39.87-12.78.93-19.18,0-1.87-1.21-3.75-1.87-5.62l-4.29-6.67-.06-.05-2.7-2.12.09-.37c-2.42-1.27-4.82-3.62-7.26-3.65C278.56,6,259.4,6,240.24,6.16c-9.46.07-18.92.68-28.38.87q-11.63.23-23.26,0c-8.29-.17-16.59-.91-24.88-.87-36.61.2-73.22.67-109.83.85-9.79,0-19.59-.45-29.37-.94-5.44-.28-10.1,1-14,4.9-.62.61-1.67.78-3.81,1.72.72-2.15.79-3.81,1.47-4.13,5-2.29,10.12-6.14,15.22-6.16q136.18-.56,272.37-.19c4.07,0,8.13,1.23,12.2,1.89h0L313.05,8h0l1,1.08h0c1,8.31,2.23,16.6,2.85,24.93.46,6.1,0,12.27.13,18.4a27.3,27.3,0,0,0,.89,4.7q0,5-.08,10,0,4.48,0,9Z"/><path class="cls-2" d="M1.85,83.17c.36-2.87,1-5.74,1-8.63.16-6-.08-12,.13-17.94.05-1.47,1.21-2.91,1.86-4.36.68,1.42,1.95,2.84,2,4.26.14,19.6,0,39.21.21,58.81.06,5,1.38,10,2.14,15.07L4,126a.66.66,0,0,1-.16-.71L1.93,113.07q0-10,0-19.94V89.06Z"/><path class="cls-1" d="M317.87,57.08a27.3,27.3,0,0,1-.89-4.7c-.1-6.14.33-12.3-.13-18.4C316.23,25.64,315,17.35,314,9c1.52,2.84,4.3,5.66,4.36,8.53C318.61,30.74,318.1,43.91,317.87,57.08Z"/><path class="cls-1" d="M1.93,113.07l1.91,12.26Z"/><path class="cls-1" d="M313.05,8l-5.11-3.88Z"/><path class="cls-1" d="M317.75,76.07q0-4.48,0-9Q317.76,71.6,317.75,76.07Z"/><path class="cls-1" d="M1.91,89.06v0Z"/><path class="cls-1" d="M314,9.05,313,8Z"/><path class="cls-3" d="M4.1,127.91l.8,1.2Z"/><path class="cls-2" d="M4.11,40.6C2.21,30.91.65,21.31,6.25,11.84a30.42,30.42,0,0,1,.63,5.29c-.18,3.49-.74,7-1,10.44C5.51,32,7,36.57,4.11,40.6Z"/><path class="cls-4" d="M188,131.72l12.7,0Z"/><path class="cls-5" d="M155.86,8.39h0Z"/><path class="cls-5" d="M88.08,131.64l7.68,0Z"/><path class="cls-5" d="M12.94,12.16,10.76,15Z"/><path class="cls-4" d="M207.17,131.7l4.51,0Z"/><path class="cls-5" d="M10.87,122.1l1.71,2.33Z"/><path class="cls-5" d="M302.13,9,300,8.35Z"/><path class="cls-5" d="M92.88,8.43,91.8,9Z"/><path class="cls-5" d="M10,120.1l.76,1.54Z"/><path class="cls-5" d="M14.87,10.55a1.38,1.38,0,0,1-.76.57Z"/><path class="cls-1" d="M311.92,46.09q0-13.48,0-27c.66,1.88,1.89,3.76,1.87,5.63-.06,6.4-.53,12.79-.93,19.18A6.91,6.91,0,0,1,311.92,46.09Z"/><path class="cls-1" d="M312,63q0-4.93,0-9.85Q312,58.1,312,63Z"/><path class="cls-6" d="M173.87,41.12l.09-10,.87-2,1-2,1.91-2,2.33-1.59c14-.11,28.08-.25,42.12-.29a48,48,0,0,1,5.84.67l.18.18L230,26.36c0,4.44-2.28,6-6.64,6q-17.74-.27-35.48.06c-1.45,0-4.08,1.65-4.11,2.6-.31,9.45-.19,18.91-.19,29.07,7.42,0,14.36,0,21.3,0,5.33,0,10.71-.46,16,.11,2.07.23,5.19,2.45,5.55,4.22.64,3.2-2,4.91-5.38,4.91-10.83,0-21.66.19-32.49,0-4.2-.08-5.56,1.44-5.44,5.53.23,7.66.34,15.34-.09,23-.27,4.84,1.8,6.1,6.06,6.05,10.83-.12,21.66.06,32.48-.14,6.89-.12,8.44,1.69,6.32,8.27l-2,.9-2.91.25-40,.2-4.06-1.22-1-.84-1.09-1.13L174,109.09q-.08-23.52-.16-47Q173.86,51.59,173.87,41.12Z"/><path class="cls-6" d="M111.93,117.1c-5.8.17-7-.75-7-6.25q-.1-39.45-.05-78.89c0-5.21,3.12-8.84,8.16-8.79,12.29.11,24.57.62,36.85,1l0,0,1,.69a.89.89,0,0,0,.84.39l3.12,2.19,3.74,3.86,5.33,14.87q0,4-.06,7.93l-1.3,6.74.16.12L156,72.13,154.9,73l-1.23,1-1.75,1.17-2,1-2.09.75-4,1.06c-8.6,0-17.2-.18-25.8,0-1.32,0-2.62,1.41-3.93,2.17q0,5.47-.05,10.95,0,9.55,0,19.1l0,1.9-.23,3.07-.73,1Zm1.88-84.66c0,11.33-.09,22,.15,32.59,0,1,2.1,2.85,3.27,2.89,8.15.24,16.3.23,24.45.06,4.7-.1,9.08-2.28,10.06-6.78a60.62,60.62,0,0,0,1.36-19,10.81,10.81,0,0,0-10.64-9.66C133.21,32.12,123.92,32.44,113.81,32.44Z"/><path class="cls-7" d="M275,67.11a.52.52,0,0,1,.22.57c-.07,1.89-.64,3.94-.12,5.65,1,3.18,2.64,6.14,3.89,9.25,3.68,9.11,7.3,18.25,10.94,27.38l2.37-.44c.87-7.11,2.25-14.21,2.49-21.35.42-12.29.13-24.6.14-36.9,0-6.65,0-13.3,0-19.95,0-2.79.07-5.81,3.59-5.83.81,0,2.25,3.49,2.35,5.43.3,6,0,12,.12,17.95.1,5.09.47,10.18.71,15.28l-.09,7.9c-.53.74-1.49,1.46-1.52,2.22-.37,10.72-.45,21.44-1,32.15-.12,2.23-1.44,5.25-3.18,6.34-2.64,1.64-6.13,1.9-9.26,2.74l.2-.19-.24.15-2.68-2.3h0c.25-3.72-.51-7-4-9v0c-1.65-5.83-3.14-11.71-5-17.47q-3.83-12-8.11-23.91c-1.75-4.82-3.8-9.53-6-14.18s-4.59-9-6.9-13.48h0l-.77-2.55-1.21,1.12-1,.42c-.67.94-1.88,1.87-1.91,2.84-.46,13.51-1,27-1,40.53,0,10.6.76,21.21.74,31.81,0,1.89-2.19,3.77-3.36,5.66-.83-1.89-2.38-3.76-2.39-5.66-.16-21.63-.05-43.25-.11-64.88,0-6.62-.46-13.28,3-19.33h0c3.85-.71,4.24,1.61,3.42,5l1.23.15,4.61-5.08c1,1,2.94,2.28,3.7,4.06,2.9,6.81,5.24,13.86,8.1,20.69C269.44,55.74,272.3,61.39,275,67.11Zm9.87,37.83c.41-.56.84-.9.84-1.23s-.41-.72-.65-1.08c-.3.3-.79.56-.84.9S284.51,104.28,284.84,104.94Z"/><path class="cls-8" d="M301.67,64.15c-.25-5.09-.61-10.18-.71-15.28-.12-6,.18-12-.12-17.95-.1-1.94-1.54-5.44-2.35-5.43-3.53,0-3.61,3-3.59,5.83,0,6.65,0,13.3,0,19.95,0,12.3.28,24.61-.14,36.9-.24,7.14-1.62,14.23-2.49,21.35l-2.37.44c-3.64-9.13-7.26-18.26-10.94-27.38-1.25-3.1-2.93-6.06-3.89-9.25-.52-1.71,0-3.76.12-5.65q6.48,16.91,13,33.82c.56,1.46,1.22,2.89,1.83,4.33l1.42-.15c.21-2.64.57-5.27.61-7.91.38-22.75.61-45.5,1.17-68.25.06-2.24,2-4.44,3.1-6.66l6,3.24.53,2.13h-.08L302.41,53l-.19,10.08Z"/><path class="cls-8" d="M245.94,25.11c-3.5,6.05-3,12.71-3,19.33.05,21.63-.06,43.25.11,64.88,0,1.89,1.56,3.77,2.39,5.66,1.18-1.89,3.36-3.77,3.36-5.66,0-10.6-.78-21.21-.74-31.81,0-13.51.57-27,1-40.53,0-1,1.25-1.89,1.91-2.84q0,8.48,0,17-.07,6-.15,11.95-.14,8-.28,16,0,4,0,8-.05,7-.1,14,0,2.49,0,5,0,1,0,2L248.76,116,246,117.29l-2-.29-3.4-4-.52-1.2q0-1.82.09-3.64.22-12.64.45-25.27,0-1.49-.06-3,.19-6.91.39-13.83.05-17.36.11-34.72l.53-1.21Z"/><path class="cls-8" d="M92.19,87.05l-.38,3c-3.07,5.43-6,11-9.31,16.22-1.27,2-3.55,3.37-5.36,5l-.4-.41c.17-.64.14-1.49.55-1.89,8.51-8.2,13.75-18.2,14-29.94a125.17,125.17,0,0,0-2.38-27.7C87.79,45.83,83.86,40.83,81,35.69c-3.08-5.58-8.92-8.54-13.43-6.84l-.17-3.48a12.62,12.62,0,0,1-3-.41c-10.85-4.34-20.25-1.7-28.75,5.75-.93.82-2.34,1.1-3.53,1.62L31.78,32c4.62-6.06,11.41-8.34,18.27-10.48l11.88.17,2.94.56,4.06,1.62a1.18,1.18,0,0,0,.91.3l9,6.11,6.81,7.95,6.19,12.94.43,3,1.51,8.07.26,2.95q0,5.49,0,11l-1.47,9-.09.27.24.16Z"/><path class="cls-8" d="M275,67.11c-2.67-5.72-5.53-11.37-8-17.19-2.86-6.83-5.2-13.88-8.1-20.69-.75-1.77-2.72-3-3.7-4.06l-4.61,5.08-1.23-.15c.82-3.39.43-5.7-3.42-5,6.49-4.33,13-2.12,16,5.67,3.56,9.25,6.93,18.57,10.32,27.88C273.27,61.44,274.07,64.29,275,67.11Z"/><path class="cls-8" d="M17.88,77.13q-.09-6-.19-12l.22-2L20.58,50.8l.5.42C21,60.62,21,70,20.85,79.41a26,26,0,0,1-.92,4.69Z"/><path class="cls-8" d="M20.58,50.8l1.15-4.73a1.16,1.16,0,0,0,.23-.92l1.65-3.07,2.32-4q.4,0,.8-.13l.43.4L21.08,51.23Z"/><path class="cls-8" d="M26.58,37.18,31.78,32l.38.37-5,6-.43-.4A2,2,0,0,0,26.58,37.18Z"/><path class="cls-9" d="M114.11,91q0-5.47.05-10.95Q114.14,85.58,114.11,91Z"/><path class="cls-9" d="M154.83,27.39l-3.12-2.19Z"/><path class="cls-5" d="M174.83,29.11l-.87,2Z"/><path class="cls-5" d="M225.85,116.89l2-.9Z"/><path class="cls-9" d="M150,76.14l2-1Z"/><path class="cls-5" d="M23.61,42.09,22,45.16Z"/><path class="cls-9" d="M114.17,112l0-1.9Z"/><path class="cls-5" d="M241.56,30.18,241,31.39Z"/><path class="cls-5" d="M26.58,37.18a2,2,0,0,1,.15.73q-.4.08-.8.13Z"/><path class="cls-9" d="M150.87,24.81l-1-.69Z"/><path class="cls-9" d="M153.68,74l1.23-1Z"/><path class="cls-5" d="M177.91,115.27l1,.84Z"/><path class="cls-9" d="M113.2,116.13l.73-1Z"/><path class="cls-5" d="M240.05,111.82l.52,1.2Z"/><path class="cls-8" d="M22,94l-.76-2-.5-3.64.45-.45a13.91,13.91,0,0,1,1.75,2.16c2.85,5.41,5.63,10.86,8.46,16.35l4.59-2.3h0l1,6.68c6.3,5,14.41,7.15,23.26,6.28a86,86,0,0,0,9.65-2l.4.5c-11.38,6.16-26.34,4.05-36.59-5.15-1.23-1.11-2.48-2.19-3.72-3.29l-1.9-2-1.32-1.93-.82-1-1.64-3.23v-.4l-.39-.19-1-2.21L22.52,95Z"/><path class="cls-8" d="M77.13,111.31l-6.86,4.22-.4-.5,6.86-4.12Z"/><path class="cls-5" d="M28.08,105.05l1.9,2Z"/><path class="cls-5" d="M25.93,102.15l.82,1Z"/><path class="cls-5" d="M23.91,98.33l.39.19v.4A2.35,2.35,0,0,1,23.91,98.33Z"/><path class="cls-8" d="M253.89,35.14c2.31,4.49,4.77,8.91,6.9,13.48s4.23,9.36,6,14.18q4.3,11.87,8.11,23.91c1.84,5.77,3.33,11.64,5,17.47l-1.7-2.12-.57-2L277,99h0l-.82-2-1.44-4.94L274,90.93l-.94-2.9-2-5.19a.66.66,0,0,0-.18-.74l-.81-2-1.29-4-4.78-12-.4-2.07-.51-1.29a.51.51,0,0,0-.2-.64l-1-2L261.19,56l-1.25-2.88L257.51,46l-.58-.87L256.57,44l-.55-1.1a.88.88,0,0,0-.25-.82Z"/><path class="cls-5" d="M250.49,79.09q.14-8,.28-16Q250.63,71.07,250.49,79.09Z"/><path class="cls-5" d="M271.05,82.84l2,5.19Z"/><path class="cls-5" d="M259.95,53.11,261.19,56Z"/><path class="cls-5" d="M276.19,97l.82,2Z"/><path class="cls-5" d="M261.92,58.11l1,2Z"/><path class="cls-5" d="M270.06,80.06l.81,2Z"/><path class="cls-5" d="M256,42.93l.55,1.1Z"/><path class="cls-5" d="M256.92,45.15l.58.87Z"/><path class="cls-5" d="M263.08,60.73l.51,1.29Z"/><path class="cls-5" d="M277,99l.59,1Z"/><path class="cls-5" d="M274,90.93l.74,1.13Z"/><path class="cls-8" d="M302.05,95.11l-.12,12L299.79,113l.07,0-1.07,1,0-.05-5.37,3-1.49.26-5.09-.87a1.66,1.66,0,0,1-.28-.86c3.13-.84,6.62-1.1,9.26-2.74,1.74-1.08,3.06-4.11,3.18-6.34.58-10.7.66-21.43,1-32.15,0-.76,1-1.48,1.52-2.22l.53,1.06q0,4,0,8Z"/><path class="cls-8" d="M279.76,106.11l.1-2c3.52,2,4.28,5.29,4,9l-3-3-.7-2.12Z"/><path class="cls-8" d="M284.84,104.94c-.32-.66-.7-1.07-.64-1.41s.54-.6.84-.9c.23.36.64.72.65,1.08S285.24,104.38,284.84,104.94Z"/><path class="cls-8" d="M253.9,35.14l-2-1.43,1.21-1.12Z"/><path class="cls-8" d="M286.56,115.45l-2.68-2.3Z"/><path class="cls-9" d="M92.19,87.05l.59-1.54Z"/><path class="cls-8" d="M20.7,88.35l-.87-.22L19.64,86a.68.68,0,0,1,.56.16l1,1.69Z"/><path class="cls-9" d="M22,94l.55,1Z"/><path class="cls-7" d="M21.15,87.9l-1-1.69-.27-2.11a26,26,0,0,0,.92-4.69C21,70,21,60.62,21.07,51.23l6.08-12.92,5-6c1.19-.53,2.6-.81,3.53-1.62,8.5-7.45,17.9-10.09,28.75-5.75a12.62,12.62,0,0,0,3,.41l.17,3.48C72.1,27.15,77.94,30.11,81,35.69c2.84,5.15,6.77,10.14,7.91,15.68a125.17,125.17,0,0,1,2.38,27.7c-.26,11.74-5.51,21.74-14,29.94-.41.39-.37,1.25-.55,1.89L69.88,115a86.25,86.25,0,0,1-9.65,2c-8.85.87-17-1.23-23.26-6.28l-1-6.68,4.25-.24c.42,4.45,3.8,4,6.84,4.16v0c.72,1,1.35,2.72,2.17,2.82,8.27,1,16.3.34,23.37-4.73C83,98.59,85.47,87.15,86.74,75.58,88,63.74,84,52.66,79.66,41.83c-.35-.87-2.64-1-4-1.42l0,0-1-1v0l-2-2h0l-1-1,.28-.1-.27.14c-2-5.95-7.07-5.84-11.93-6.19l-8.79-.07c-1-.05-2.06-.44-2.86-.1-3.9,1.67-7.71,3.52-11.62,5.34l2.08,2-.25.15-.9.91-.11.09-1,.91-.16-.23.17.23c-1.62,1.07-4,1.77-4.73,3.28a61.18,61.18,0,0,0-6.45,29.79,35.93,35.93,0,0,0,2,11.58c1.74,4.51,4.58,8.6,6.94,12.87l0,0L35,98.07h0L36.16,100l0-.05-.18,4.19-4.59,2.3c-2.83-5.49-5.61-10.94-8.46-16.35A13.91,13.91,0,0,0,21.15,87.9Z"/><path class="cls-5" d="M280.22,108l.7,2.12Z"/><path class="cls-5" d="M298.79,114l1.07-1Z"/><path class="cls-8" d="M65.06,107.15l.95-.37,1-.63,3-1.56q.56.08.57-.5l5.31-5,.81-1L78,96.25l2-4.06h0l.69-1A1,1,0,0,0,81,90.3l.61-1.13.47-2L83,84.1l.1-1.42.58-1.5.18-4.11q0-6.45,0-12.89L83.67,61l-.58-1.46L83,58.09l-1-4L75.64,40.41c1.39.46,3.68.55,4,1.42C84,52.66,88,63.74,86.74,75.58c-1.27,11.58-3.75,23-14.18,30.5-7.07,5.08-15.1,5.71-23.37,4.73-.82-.1-1.45-1.84-2.17-2.82l3,0,12,.14L64,107.8Z"/><path class="cls-8" d="M36.33,39.46C27,53,26,68.06,29.12,83.58c.93,4.61,3.27,8.93,5,13.39-2.36-4.27-5.2-8.36-6.94-12.87a35.93,35.93,0,0,1-2-11.58A61.18,61.18,0,0,1,31.6,42.74C32.36,41.23,34.71,40.53,36.33,39.46Z"/><path class="cls-8" d="M50.93,30.18,38.53,37.4l-2.07-2c3.91-1.82,7.72-3.68,11.62-5.34C48.87,29.74,50,30.13,50.93,30.18Z"/><path class="cls-8" d="M71.66,36.44,59.72,30.25C64.59,30.6,69.69,30.49,71.66,36.44Z"/><path class="cls-8" d="M45.8,106.54,47,108c-3-.13-6.42.29-6.83-4.16l1.77.21,3,1.87.19.12Q45.25,106.64,45.8,106.54Z"/><path class="cls-8" d="M36.13,99.91l3.33,2.2.07.35h.35l.29,1.37-4.24.24h0Z"/><path class="cls-8" d="M74.64,39.38l-2-2Z"/><path class="cls-8" d="M35,98.06,36.16,100Z"/><path class="cls-8" d="M72.69,37.38l-1-1Z"/><path class="cls-8" d="M38.29,37.54l-.9.91Z"/><path class="cls-8" d="M37.28,38.55l-1,.9Z"/><path class="cls-8" d="M75.66,40.39l-1-1Z"/><path class="cls-8" d="M34,97,35,98.07Z"/><path class="cls-5" d="M83.82,64.16q0,6.45,0,12.89Q83.84,70.61,83.82,64.16Z"/><path class="cls-5" d="M61.95,108.17,50,108Z"/><path class="cls-5" d="M80.05,92.19l-2,4.06Z"/><path class="cls-5" d="M83,84.1l-.92,3.06Z"/><path class="cls-5" d="M83.1,59.57,83.67,61Z"/><path class="cls-5" d="M83.68,81.17l-.58,1.5Z"/><path class="cls-5" d="M81.62,89.16,81,90.3Z"/><path class="cls-5" d="M80.69,91.15l-.69,1Z"/><path class="cls-5" d="M65.06,107.15l-1,.64Z"/><path class="cls-5" d="M67,106.15l-1,.63Z"/><path class="cls-5" d="M45.8,106.54q-.56.1-.61-.49A2,2,0,0,1,45.8,106.54Z"/><path class="cls-5" d="M70.62,104.08q0,.58-.57.5A1.82,1.82,0,0,1,70.62,104.08Z"/><path class="cls-5" d="M39.88,102.48h-.35l-.07-.35A2.2,2.2,0,0,0,39.88,102.48Z"/><path class="cls-5" d="M76.74,98.07l-.81,1Z"/></g></g></svg>