<svg xmlns="http://www.w3.org/2000/svg" viewBox="0 0 384.21 293.93"><defs><style>.cls-1{fill:#f5731f;}.cls-2{fill:#2235de;}.cls-3{fill:#f8e56a;}.cls-4{fill:#3ce3f7;}.cls-5{fill:#240559;}.cls-6{fill:#910218;}.cls-7{fill:#500513;}.cls-8{fill:#2e0712;}</style></defs><title>Asset 3</title><g id="Layer_2" data-name="Layer 2"><g id="Layer_1-2" data-name="Layer 1"><path class="cls-1" d="M215.35,293.91l3.68,0Z"/><path class="cls-2" d="M345.91,0c6.93.06,13.86.23,20.79.13,2.52,0,4.7.29,6.4,2.27-3.86.1-7.72.22-11.58.31-18.47.42-36.93.77-55.4,1.26-30.67.8-61.33,1.7-92,2.52-15.14.4-30.28.71-45.42,1.1a10.94,10.94,0,0,0-2.92.57c-.3.09-.45.67-.66,1,.38.18.76.52,1.14.52.75,0,1.5-.31,2.25-.34q13.55-.42,27.11-.79,34.29-1,68.59-1.89c19.41-.5,38.83-.9,58.24-1.36,11.43-.27,22.87-.62,34.3-.86,2.73-.06,5.47.16,8.2.26L353.42,6.59h0a7.14,7.14,0,0,0-.92-.1c-12.57.28-25.15.53-37.72.85-12.22.31-24.44.11-36.66.88-11.09.7-22.22.73-33.33,1q-28,.61-56,1.11c-6.7.12-13.41.05-20.11,0-2.16,0-4.33-.28-6.47-.15-3.68.22-7.33.84-11,1-10.53.4-21.07.66-31.61.94-8.26.22-16.51.4-24.77.6-10.8.27-21.6.65-32.4.78-6.9.08-13.8-.23-20.7-.36a18.65,18.65,0,0,1,2.62-.45q15.06-.48,30.11-.89l64.82-1.87q9.6-.28,19.2-.52c1.89,0,3.77,0,5.66,0l.22-1a8.62,8.62,0,0,0-2.46-.73c-6,.1-12,.29-18.07.47L89.13,9.74c-17.61.52-35.22.92-52.82,1.62-4.6.18-9.16,1.23-13.72,2a11.34,11.34,0,0,0-2.65,1.18l.28.72c.55-.08,1.1-.17,1.66-.24,5.81-.72,11.61-1.45,17.43-2.09.45,0,1,.61,1.46.94l-9.3.18c1.59,2.3,3.41,3.13,5.72,2.82a69.07,69.07,0,0,1,7.31-.75C59,15.69,73.47,15.36,88,15c13.49-.33,27-.69,40.48-1,7.49-.16,15-.23,22.48-.3,3.89,0,7.78,0,11.67,0,1.6,0,3.21.21,4.81.12,1.35-.08,2.69-.62,4-.67q14.24-.53,28.48-.92,20.49-.56,41-1l34.5-.86c13.58-.33,27.17-.68,40.75-.95,6.18-.12,12.37,0,18.55-.14,5.75-.12,11.49-.47,17.24-.64,4.19-.12,8.39-.12,12.58-.18l3.54,0,.08.68-1.58.32,0,.55,1.66.19.94.91c-6.24.16-12.48.34-18.72.46q-43.82.89-87.64,1.76-35.81.7-71.62,1.36-11.24.22-22.49.57a16.13,16.13,0,0,0-2.73.55l.17,1c.8,0,1.61,0,2.41,0l47.13-.95q19.7-.39,39.41-.76,42.43-.78,84.86-1.54c9.42-.17,18.85-.28,28.28-.42-4,.3-8,.57-11.93.93a12.87,12.87,0,0,0-2.54.76l-1.27.06c-.85,0-1.69-.14-2.54-.12-11.25.31-22.5.68-33.76.95-9.72.23-19.45.28-29.17.52-16.57.41-33.14,1-49.71,1.33-9.17.2-18.34.06-27.51.23-10.33.2-20.66.63-31,.87-3.61.08-7.22-.12-10.84-.19l-4.74-.09-1-1,2-.39,0-1a27.29,27.29,0,0,0-3.31-.3q-22.58.64-45.15,1.36-20.37.65-40.73,1.37c-13.81.48-27.62.89-41.42,1.57a63.86,63.86,0,0,0-10.65,2c-.65.15-1.12,1.13-1.68,1.72l-3.88,1.07a4.72,4.72,0,0,0-5.83.83c-.31.32-.34.92-.5,1.4l1.41.05-2.43,2.29-1.32-3c.37-.35.74-.69,1.09-1,1.27-1.27,2.31-3,3.83-3.74,3.63-1.81,8.07-1.3,11.54-3.81.75-.54,1.91-.49,2.81-.88a8,8,0,0,0,1.61-1.24l-.2-.58A19.74,19.74,0,0,0,25.67,15c-3.16.48-6.28,1.16-9.42,1.76l-4.15.39-1.18,2.33c-1.25-2.58.89-6.29,3.88-6.21a10.73,10.73,0,0,0,7.1-2.43c3-2.17,6.73-1.88,10.23-1.14a17.24,17.24,0,0,0,11.12-.95c.09,0,.1-.28.15-.42C53.3,8,63.21,7.58,73.13,7.25c10.1-.33,20.19-.58,30.29-.85,11.85-.32,23.71-.6,35.56-.92,7.38-.2,14.77-.45,22.15-.68.07,1.55,1.31,1.64,2.4,1.85,1.43.28,2.2-.32,2.14-1.83,3.72-.17,7.45-.32,11.17-.53a9.46,9.46,0,0,0,1.74-.42l4.14-.09q17.35-.34,34.71-.68c6.8-.13,13.59-.17,20.39-.34,16.82-.42,33.64-.9,50.46-1.33,7.87-.2,15.74-.35,23.62-.55Q328.9.46,345.91,0Z"/><path class="cls-2" d="M21.08,196.66A33.75,33.75,0,0,0,5.46,200C5.3,198.91,4,197.59,6,196.8c.31.38.69,1.12.9,1.07a24,24,0,0,0,3.93-1.21c.33-.13.44-.8.65-1.23l1.78-.64c-.13,1.13.22,1.47,1.44,1.22a64.6,64.6,0,0,1,9.5-1.58c9.95-.49,19.91-.76,29.86-1,21.62-.56,43.24-1,64.86-1.57,10.42-.25,20.84-.57,31.26-.79a32.24,32.24,0,0,1,4.44.56,1.66,1.66,0,0,1,.93-.52c2.33-.21,4.67-.27,7-.45a8.84,8.84,0,0,0,1.83-.55c-.58-.37-1.14-1-1.74-1.07-2.85-.13-5.72-.16-8.57-.09q-34.63.86-69.27,1.77c-10.65.28-21.31.59-32,.86-8.72.22-17.44.4-26.17.59,1.32-.22,2.64-.53,4-.63,3.53-.26,7.28.72,10.39-1.91.29-.25.89-.17,1.35-.18q18.52-.5,37-1c12.58-.32,25.16-.64,37.74-.9q21.79-.45,43.57-.8c3-.05,6,0,8.93,0,13-.33,25.94-.79,38.91-1,16.83-.31,33.67-.38,50.5-.71,12.27-.24,24.53-.77,36.8-1.1,12.89-.35,25.77-.71,38.66-.89,11.67-.17,23.34-.21,35-.06,2.66,0,5.31,1.07,8,1.65-1.78,0-3.55-.09-5.33-.05-16.15.34-32.3.66-48.45,1.07-21.09.53-42.18,1.21-63.28,1.69-19.24.43-38.48.63-57.72,1-11.67.24-23.33.63-35,1a14,14,0,0,0-2.45.51v.73a10.71,10.71,0,0,0,2,.4c2.47,0,4.95,0,7.42-.06l60.15-1.37c7.11-.16,14.22-.24,21.33-.4q42.54-1,85.07-2c9.5-.23,19-.63,28.5-.87,2.6-.06,5.21.19,7.81.29L376,188.1l-1.72.1a11.18,11.18,0,0,0-2-.23c-5.15.32-10.3.84-15.46,1q-19.1.68-38.21,1.12c-15.83.37-31.66.67-47.48,1-14.42.27-28.84.44-43.26.76-12.89.28-25.77.8-38.66,1-9,.16-18.08-.08-27.11.06-5.08.08-10.15.71-15.23.84-25.83.67-51.67,1.49-77.5,1.78-11.17.12-22.36,1.07-33.56-.54-4.44-.64-9.14.47-13.72.84C21.72,195.88,21.41,196.37,21.08,196.66Z"/><path class="cls-2" d="M4.71,185.79c.69-.31,1.42-1,2.06-.87,4.37.6,8.36-1,12.46-2,.44-.11,1.19,0,1.32-.21,1.52-2.76,4.13-1.4,6.28-1.76.15.25.31.72.47.72,2.75,0,5.5,0,8.26,0V181H26.8l.11-.93,5.38,0c6.09-.25,12.17-.59,18.26-.72q27.34-.59,54.69-1c13.68-.2,27.36-.26,41-.37,5,0,10-.06,15,0a3.13,3.13,0,0,1,2.08,1,2.82,2.82,0,0,0,4.27.46c1.52-1.37,3.08-1.44,4.87-1.53,2.14-.11,4.27-.49,6.4-.74h1c8.19,0,16.38,0,24.56-.13,2.67,0,5.34-.44,8-.67,10.81-.14,21.63-.25,32.44-.42q18.07-.28,36.14-.65c16-.32,32-.71,48-1,15.52-.28,31-.46,46.55-.68-.38,2,1.55,1.85,2.45,2.65-1.39,0-2.78-.14-4.17-.11q-36.27.9-72.54,1.82c-9.76.24-19.53.38-29.3.56-13.12.24-26.25.46-39.37.74-6.33.14-12.66.48-19,.59-14.38.24-28.75.38-43.13.57a20.86,20.86,0,0,0-3.46.22c-.57.1-1,.67-1.57,1a4.87,4.87,0,0,0,1.68.7c4.09,0,8.19-.12,12.28-.21,18.77-.42,37.54-.92,56.31-1.26,18.36-.34,36.73-.4,55.09-.8,25.81-.56,51.61-1.33,77.42-2a13.55,13.55,0,0,1,2.85.54l-1.55,1.3-.8,0-.47,0-1.38.06c-1,0-2-.12-3-.09-7.79.26-15.58.6-23.37.81q-20.15.55-40.3,1-21.65.49-43.31.92c-14.28.27-28.56.43-42.83.71-12.42.25-24.84.74-37.27.83-3,0-6.24.86-9.28-1.2-1.06-.71-3.36.36-5.08.7a22.55,22.55,0,0,1-3.51.89c-4.18.12-8.37.06-12.55.06,0-.71,0-1.42,0-2.44,5.15,0,10.25,0,15.34,0,.56,0,1.11-.53,1.67-.82-.46-.43-.86-1.1-1.39-1.24a11.78,11.78,0,0,0-3-.2q-13.44.16-26.89.36c-6.49.09-13,.16-19.47.28q-19.76.37-39.53.77v-.08h5a.85.85,0,0,1-.66.37c-15.44.4-30.89.66-46.33,1.25a151.23,151.23,0,0,0-15.82,2c-2,.29-3.69,1.57-5.9,1.29-1-.13-2.15.86-3.24,1.34a32.89,32.89,0,0,0,8.12-.34c2.63-.42,5.23-1.08,7.84-1.63l1.28,1.84c-5.69,0-11.19.75-16.34,3.38a2.72,2.72,0,0,1-2.45-.09c-.45-.4-.3-1.58-.27-2.41A21.91,21.91,0,0,1,4.71,185.79Z"/><path class="cls-2" d="M36.51,201c6.44-4.65,13.89-2.81,21-3.14,7.4-.35,14.83-.16,22.25-.31,16.37-.33,32.73-.77,49.09-1.1,14.59-.29,29.18-.47,43.76-.74,13.19-.25,26.39-.49,39.58-.9,6.46-.2,12.91-1,19.37-1.13s13.1.29,19.64.19c16.05-.24,32.1-.64,48.16-1,14-.28,28.1-.53,42.15-.84,6.56-.15,13.11-.43,19.67-.64,2.38-.08,4.76-.13,7.13-.19l5-.07c2.19,0,4,.65,5.05,2.73-3.69,0-7.38-.09-11.07,0q-34.07.7-68.14,1.46c-16.84.37-33.68.82-50.52,1.12-13.83.24-27.66.15-41.49.48-15.86.37-31.71,1.13-47.57,1.57-19.85.55-39.7,1-59.56,1.4-13.68.29-27.35.5-41,.74Z"/><path class="cls-2" d="M23.87,205l-1.25,0-7.2,0a9.74,9.74,0,0,1,2.33-.81c6.63-.54,13.26-1.16,19.91-1.44s13.28-.15,19.91-.26c22.71-.36,45.42-.7,68.13-1.14,8.49-.16,17-.61,25.46-.84,1.24,0,2.52.76,3.74.64,4.23-.4,8.44-1.42,12.67-1.51,18.12-.39,36.24-.51,54.36-.76q14.71-.2,29.43-.5c19.77-.44,39.55-.94,59.32-1.38,7.18-.16,14.37-.14,21.56-.32,12.36-.3,24.71-.72,37.06-1,.64,0,1.3.88,2,1.35a9.54,9.54,0,0,1-2.09.72c-2.22.23-4.45.4-6.68.48-12.33.43-24.65.87-37,1.21-6.17.17-12.34.05-18.51.26a40.54,40.54,0,0,0-6.14,1.13l-.81.06a39.62,39.62,0,0,0-5-.56q-20.28.26-40.56.66c-20.16.38-40.32.84-60.48,1.15-11,.17-21.94,0-32.91.16-3.69,0-7.36.68-11.05.75-14.83.3-29.66.43-44.49.73s-29.61.77-44.41,1.08c-6.1.13-12.21.05-18.32,0-1.38,0-2.75-.26-4.13-.3-2.89-.09-5.79-.12-8.68-.17h-.73C27.42,204.17,25.51,203.4,23.87,205Z"/><path class="cls-2" d="M3.06,259c5.41-.9,10.81-1.81,16.23-2.69,1-.16,2-.18,3-.27l1.85,0,6.2-.07c1,.08,2,.24,3,.22,10.1-.23,20.2-.52,30.3-.73q25.55-.53,51.11-1c5.64-.1,11.28-.07,16.91-.1l13.83.12c3.5,0,7-.4,10.35,1.37.6.32,1.55-.07,2.22.18a13.93,13.93,0,0,1,2.4,1.49c-.61.06-1.22.18-1.83.19-15,.27-30,.58-45,.77-23.8.31-47.61.53-71.41.83q-12.51.16-25,.58a52.3,52.3,0,0,0-6.1.9l.06.9a10.29,10.29,0,0,0,1.81.28c18.13-.37,36.26-.79,54.4-1.15,8.27-.16,16.54-.22,24.81-.34l45.9-.67,20.62-.31.85,1.25c-1.42,0-2.48,0-3.53,0q-8.28.28-16.56.61a5.43,5.43,0,0,0-1.29.38h0c-3.47,0-6.94-.14-10.41-.13-22.78.08-45.57.12-68.35.31-9.08.08-18.15.56-27.22.75-6.83.14-13.66.06-20.49.15a28.16,28.16,0,0,0-4,.61l1.26-1.55c-3.66-.28-5.27.55-6.34,3L.74,260.78l.22-.4.4-.4.41-.25Z"/><path class="cls-3" d="M71.54,247.77l-.68.51-1.78,0-2-.55c0-8.48,0-17,0-24.71-3.06,7.58-6.34,15.87-9.83,24.07-.32.75-1.93,1.11-3,1.34s-1.71-.06-2.16-1.37c-2.23-6.45-4.66-12.83-7-19.24l-2-5.2v7.58l-.11,5-.15,3.67c-.11,2.7-.23,5.39-.33,8.09,0,1.3-.55,2-2,1.82a20.11,20.11,0,0,0-2.44,0c0-2,0-3.8,0-5.63q.37-14.46.77-28.92c.09-3.25.3-3.5,3.45-3.12a2.81,2.81,0,0,1,1.84,1.53c3.39,8.42,6.69,16.88,10,25.33a15,15,0,0,0,1.08,1.79c.84-1.84,1.51-3.19,2.09-4.59q5.08-12.25,10.13-24.51h.13l.08-.11,4.12.07.07.07Q71.69,229.24,71.54,247.77Z"/><path class="cls-2" d="M165.54,266.22c3.84-3.59,8.66-2.7,13.22-2.78,17.91-.33,35.82-.58,53.73-.88,17.53-.3,35.06-.63,52.58-.92q27.45-.45,54.9-.85c3.94-.06,7.87-.19,11.81-.34a7.35,7.35,0,0,0,1.71-.49c6.69,0,13.39-.15,20.07.1,1.69.06,3.33,1.39,5,2.14-16.3.42-32.6.91-48.9,1.25q-45.67,1-91.34,1.77c-10.12.19-20.25.28-30.37.42Z"/><path class="cls-2" d="M331.08,251.39l22,0c1.62,0,3.25-.09,4.86,0,4.1.31,8.2.72,12.29,1.09-1.45.14-2.89.38-4.34.41q-24.67.54-49.35,1c-17.93.38-35.85.8-53.78,1.15-12.74.25-25.47.48-38.21.62-19.23.2-38.46.32-57.69.47l5.77-2.75q23.37-.4,46.74-.79,28-.44,56-.85l20.59-.33h2.33Z"/><path class="cls-1" d="M100.64,118.9c-1.53,1.4-3.1,2.76-4.58,4.21-1.17,1.14-2.27.93-3.54.21-7.73-4.46-17.47.33-20.48,7.86-1.81,4.54-.47,10.92,3.19,13.79,4.94,3.87,10.27,5.53,16.31,2.29a7.17,7.17,0,0,1,6.59,0l.06,0,.47.44v0a52,52,0,0,0,3.94,5.79c1.41,1.6,1.74,2.51-.2,4-1.09.82-1.56,2.46-2.3,3.74l-.85.3c-1.23,0-2.54-.41-3.67-.09-7,2-14,2.88-21.12.61-1.89-.61-3.69-1.52-5.53-2.31-1-.45-2-.94-2.84-1.31-1-1.3-1.87-2.55-2.83-3.73-6-7.41-8.34-15.71-6-25.08A28.43,28.43,0,0,1,68.76,113c8.47-6.09,17.79-6.75,27.47-4.14,2.66.72,5,2.58,7.47,4,1.09.64,1.09,1.53.16,2.46s-1.85,2-2.77,3.05l-.29-.24c.08-2.92-1.07-4.76-3.92-6-6-2.68-12.12-2.13-18.17-1.1a22.27,22.27,0,0,0-8.76,3.85,27.43,27.43,0,0,0-8.42,10.24c-5.38,10.58-3.27,22.31,4.24,30.72,1.31,1.46,3.39,2.23,5.12,3.32l0,.07-.07-.06c.37-.17,1-.59,1.08-.48,1.73,1.48,3.93,1.1,5.87,1.66,5.71,1.68,11.15.74,16.58-1a17.57,17.57,0,0,0,3-1.31c1.62-.87,2-2.1,1.14-3.81-1.87-3.78-4.23-5-8.3-4.07l-2.7.63c-10,2.38-20.59-6.66-18-18.51s16-15.94,25.21-10.79l5.71-2.93Z"/><path class="cls-4" d="M165.54,266.22l42.42-.6c10.12-.14,20.25-.23,30.37-.42q45.67-.85,91.34-1.77c16.3-.34,32.6-.83,48.9-1.25h1.15c1.27,1.32.92,1.94-.84,2-1.06,0-2.12,0-3.19.06-1.23,0-2.47-.11-3.7-.07-8,.25-15.9.57-23.85.78-18.92.5-37.83,1-56.75,1.39q-40.66.81-81.31,1.42c-12.2.19-24.4.22-36.61.34-2.54,0-5.08.15-7.63.23l-1.83-.85Z"/><path class="cls-3" d="M239.67,245.86c-3.45,1-4.05.69-4.1-2.66q-.21-14.95-.32-29.9c0-1.31-.28-2.86.31-3.86.49-.83,2.08-1,3.18-1.48l.39.52.69,17.61h17.39c0-1.2,0-2,0-2.86,0-4.46,0-8.93.1-13.39,0-.83.9-1.64,1.38-2.45l1,.12.39.28,1.22.14,0,.17.17,0,.16,2.13,0,.83,0,1.51.41,32.32c-1.31,1.61-2.86,1.15-4.43.5l-.66-14.72H239.67Z"/><path class="cls-3" d="M293,214.88l.11.49.46,1.3c1.29,3.42,2.53,6.86,3.87,10.27,2.05,5.21,4.2,10.39,6.23,15.61a6,6,0,0,1,0,2.1c-3.83.27-3.83.26-5.28-3.43-1.21-3.08-2.37-6.19-3.74-9.19a3,3,0,0,0-2.17-1.47c-3.16-.09-6.33,0-9.48.22a2.34,2.34,0,0,0-1.78.94c-1.35,3.61-2.57,7.27-3.77,10.94-.95,2.91-1.78,3.37-5.09,2.44.45-1.75.79-3.54,1.39-5.25,3.58-10.24,7.24-20.45,10.8-30.7.46-1.32.94-2.11,2.51-2.13a2.42,2.42,0,0,1,2.73,1.82,59.36,59.36,0,0,0,2.4,5.5C292.31,214.59,292.73,214.7,293,214.88Zm-1.14,11.58-4.58-11-3.91,11Z"/><path class="cls-3" d="M109.43,209.64l1,1,.09,1.9c-.06,4.86-.1,9.72-.19,14.59,0,1.46-.23,2.91-.27,4.37-.09,3.6-.12,7.12-1.91,10.51-4.79,9.1-19.29,7.87-22.8,1-.22-.43-.9-.62-1.36-.93.1-9.65.29-19.3.24-28.95,0-2.31,1.39-2.78,2.93-3.31.31-.11.87.52,1.32.81-.05,1.91-.13,3.83-.16,5.74-.09,6.78-.32,13.57-.17,20.35A8,8,0,0,0,96.06,245c3.4.15,8.36-2.29,8.75-6.84.62-7.27.77-14.59,1.12-21.88l.06-1.95.07-2.68c.52-.43,1-.84,1.55-1.29.32-.28.61-.61.91-.91l.86.11Z"/><path class="cls-3" d="M197.56,213.9,190,213l-2.84.7-.06,0c-1.2.9-2.82,1.54-3.55,2.73-4.36,7.16-4.4,14.62-.73,22.06a8.58,8.58,0,0,0,5.65,4.79c5.33,1.36,9.41-.23,12.57-5.3,1.31-2.09,2.35-.41,3.47-.08,1.58.46,1.05,1.64.39,2.34-1.92,2-3.73,4.34-6.05,5.81-6.91,4.38-17.7.87-21.27-6.46-2.26-4.64-2.3-9.47-2-14.44.63-12.12,10.87-19.41,22.43-15.88,4.09,1.25,7.43,4.76,7.66,8l0,0-2.89,1.44H202C201.1,216.71,200.21,214.51,197.56,213.9Z"/><path class="cls-3" d="M121.41,239.49l.13-.44c1.93,0,4-1.34,5.34,1.73s4.95,4,8.2,3.21a7.48,7.48,0,0,0,5.5-6.68c.24-3.24-1.25-5.51-4.6-7-.78-.34-1.57-.63-2.38-.9-6.84-2.24-9.38-6.11-8.59-13.14l.18-.65.35-1.18a11.43,11.43,0,0,1,7.72-5c3.3-.56,6.33,0,8.49,2.8.5.64.84,2.31.59,2.46-1.2.76-2.5,2-4.12.67a14.37,14.37,0,0,0-1.83-1.1l-.5-.3-.49-.15-.44-.34-1,0c-2.21.22-3.84,1.3-4.36,3.49s0,4.6,2,6a32.63,32.63,0,0,0,5.59,2.64c2.53,1,4.86,2.27,6.33,4.74a11.51,11.51,0,0,1-.23,12.88c-2.69,4.22-6.84,5.58-11.58,5.28C125.94,248.19,122.08,244.7,121.41,239.49Z"/><path class="cls-3" d="M339.37,240.06c.3,4.08.3,4.14-3.72,4.17q-8.45.07-16.9-.06c-.56,0-1.1-.71-1.65-1.08,0-1.46-.07-2.93-.07-4.39q0-15.62,0-31.24c1-2.63,2.75-1.3,4.34-.9l.72,33.26c.63,0,1.69,0,2.75,0Z"/><path class="cls-3" d="M375.64,243.38c-6,.13-12,.19-18,.42-2.17.08-2.92-.57-3-2.85-.14-10.87-.44-21.74-.74-32.61-.05-1.82.49-2.73,2.47-2.61,1.14.07,1.69.36,1.73,1.57.11,2.85.35,5.69.47,8.53.34,7.75.64,15.51,1,23.63h17.39C376.65,240.82,378.19,242.78,375.64,243.38Z"/><path class="cls-3" d="M162.19,247.7c-.46,0-.92,0-1.37.06-1.92.17-3.33-.1-2.63-2.62a6.48,6.48,0,0,0-.1-2l.95-32.37.49-1,1.77-.05,1.85.3c0,9.31,0,18.61-.13,27.92C163,241.14,162.48,244.42,162.19,247.7Z"/><path class="cls-5" d="M378,176.3c-.91-.8-2.83-.67-2.45-2.65a9.07,9.07,0,0,1,1.14-.12c1.87,0,5,2.45,4.35,3.52a6.58,6.58,0,0,1-3.93,2.89c-2.44.46-5,.09-7.58.07l1.55-1.3c2.1-.15,4.22-.2,6.29-.52C378.15,178.05,379.58,177.51,378,176.3Z"/><path class="cls-6" d="M100.09,161.17c.75-1.27,1.21-2.92,2.3-3.74,1.95-1.46,1.61-2.37.2-4a52,52,0,0,1-3.94-5.79,7.73,7.73,0,0,1,1.79,1.07c1,1,1.72,2.17,2.66,3.18,2.33,2.53,2.36,4.37.07,7-.46.52-.84,1.1-1.25,1.66Z"/><path class="cls-7" d="M261.71,211.1l0-.83.56.51Z"/><path class="cls-7" d="M125.54,214.48l-.35,1.18Z"/><path class="cls-5" d="M368.26,180.07l.47,0Z"/><path class="cls-7" d="M260.09,207.79l-.39-.28Z"/><path class="cls-7" d="M261.52,208.14l-.17,0,0-.17A.5.5,0,0,1,261.52,208.14Z"/><path class="cls-7" d="M135,213.53l.44.34Z"/><path class="cls-2" d="M19.26,34.29c-1.64.5-3.3.95-4.92,1.52-1.13.4-2.21,1-3.31,1.48-1.63-2.25-1.44-3.44.24-5.69,2.35-3.15,6.2-3.22,9.33-4.37A40,40,0,0,1,34.72,25c7.32.05,14.64-.57,22-.84,5.55-.21,11.11-.34,16.67-.5q22.54-.63,45.08-1.25c11.54-.3,23.08-.55,34.62-.83l7.4-.18,2.6.13.61,2.61-2.58.33a17.86,17.86,0,0,1-1.82.22q-27.33.61-54.66,1.2c-21.16.49-42.32.86-63.46,1.64C34.39,27.79,27.68,29.09,21,30a11.88,11.88,0,0,0-3.13,1.46l.34.86A17.25,17.25,0,0,0,20.31,32c8.92-2.41,18.1-2.54,27.22-3,11.72-.57,23.46-.75,35.19-1q29.42-.65,58.84-1.18c3.85-.08,7.71-.12,11.56-.18-.61.55-1.15,1.44-1.84,1.58a29.75,29.75,0,0,1-4.76.33q-10.29.37-20.58.72c-13.57.44-27.15.9-40.72,1.28-7,.19-14.06,0-21.08.37-7.82.36-15.62,1.36-23.41-.29a6.11,6.11,0,0,0-1.85,0c-3,.3-5.92.61-8.86,1a5.58,5.58,0,0,0-1.53.71,46.75,46.75,0,0,0-5.66.4A16.56,16.56,0,0,0,19.26,34.29Zm-7.48,1.62,5-3.57C13.52,32.22,11.56,33.8,11.78,35.91Z"/><path class="cls-8" d="M26.38,177.73l0,.56Z"/><path class="cls-8" d="M26.79,179.59a.51.51,0,0,1,.08.27l-.49.06Z"/><path class="cls-2" d="M.87,282.23c-1.18-1.1-1-2.29-.26-3.54,5.22-1.56,10.38-3.39,16-3.12l3.91.31-1.07,1.59c4.88,0,9.42.26,13.92-.08,3.51-.27,7-1.28,10.46-2l3.11-.63c6.25,0,12.5.07,18.75,0a60.57,60.57,0,0,0,6.57-.81,10.48,10.48,0,0,0,1.91.24c3.86-.2,7.72-.46,11.59-.69a14,14,0,0,0,2.42.39c22.93-.28,45.87-.62,68.8-.86,2,0,4.41-1.1,6,1.52.25.42,2.51.37,2.9-.16,1.84-2.46,4.53-2,6.83-2,7.93-.29,15.88-.24,23.82-.3,8.11-.06,16.22,0,24.33-.12q34.39-.43,68.79-.94,24-.37,47.92-.92a22.58,22.58,0,0,0,4-.8l2.15-.13,24.56,0c4.25,0,8.5,0,12.75.05,1.47,0,3.56,2.14,3.24,3.39-.42,1.62-1,3.08-3.3,3.11-20.31.27-40.62.65-60.93,1s-40.78.66-61.17,1c-6.48.11-13,.32-19.44.5a12.87,12.87,0,0,0-1.79.3l-3.75.07c-.84-.05-1.69-.15-2.53-.15-8,.06-16.05.08-24.08.25-3.37.07-6.73.48-10.09.73l-9.68.12c-5.56,0-11.12-.11-16.69,0-1.65,0-2.84-.42-3.57-1.92a45.29,45.29,0,0,1,4.58-.55q22.59-.48,45.18-.86c9.5-.16,19-.24,28.52-.34,11.73-.13,23.47-.16,35.2-.38,19-.36,38-.88,57-1.25,2.22,0,4.59-.51,6.51,1.38.42.41,1.48.24,2.24.23,1.93,0,3.86-.13,5.79-.23,3.85-.2,7.88.23,11.49-.82s7.14-.56,10.69-.86c2.54-.21,5.09-.19,7.64-.35a6.19,6.19,0,0,0,1.68-.62l0-.72a10.9,10.9,0,0,0-2.48-.61c-7.48,0-15-.15-22.43,0-6.94.15-13.88.69-20.82.9-8.42.25-16.85.3-25.27.47-26.58.52-53.17,1.1-79.75,1.57-13.6.24-27.21.31-40.81.44-7.88.08-15.77.09-23.65.21a32.45,32.45,0,0,0-4.24.61v.67l1.39,1.05-3,.1c.66-2-1-1.79-2-1.8-4.13,0-8.27,0-12.4.1q-15.52.28-31,.6c-16,.32-32,.66-48,.94-11.21.2-22.42.19-33.62.5-7.95.22-15.89.8-23.83,1.29a11.67,11.67,0,0,0-2.74.87l.26,1c1.33-.17,2.65-.43,4-.49,9.32-.42,18.65-1,28-1.13,10.74-.2,21.49,0,32.23-.1,6.62-.09,13.24-.65,19.86-.77,19.24-.34,38.48-.57,57.72-.8a8.3,8.3,0,0,1,2.3.67c-3.38.54-6.75,1.33-10.15,1.56q-11.17.73-22.37,1-22.9.53-45.81.79c-3.38,0-6.76-.48-10.15-.53-6-.09-12-.05-18.07,0-2.85,0-5.69.35-8.53.32-3.22,0-6.43-.34-9.65-.44-.49,0-1,.45-1.5.69l-3.85.06c-.27-.21-.54-.62-.79-.61-4.16.25-8.33.53-12.48.87-.47,0-.92.46-1.37.7L5.5,283l-3.63-.1L7.57,281C5.49,279.63,4,279.88.87,282.23Z"/><path class="cls-2" d="M374.83,254.84c-1,.65-2.77-.09-3.13,1.85,0,.26-1.38.38-2.13.39-16.14.38-32.27.81-48.41,1.1-17.92.32-35.83.5-53.75.78q-29.88.47-59.76,1c-12.12.22-24.24.51-36.36.72-1.38,0-2.9.41-3.82-1.39-.31-.62-1.57-.76-2.39-1.11q34.74-.28,69.48-.56,17.5-.17,35-.55c9.34-.19,18.68-.52,28-.75q24.52-.6,49.05-1.15C356,255,365.43,255,374.83,254.84Z"/><path class="cls-4" d="M374.83,254.84c-9.4.12-18.8.17-28.2.36q-24.53.5-49.05,1.15c-9.34.23-18.68.56-28,.75q-17.49.36-35,.55-34.74.34-69.48.56c-1-2,1.12-1.37,1.73-2,19.23-.15,38.46-.26,57.7-.47,12.74-.13,25.48-.36,38.21-.62,17.93-.35,35.86-.77,53.78-1.15q24.67-.52,49.35-1c1.45,0,2.89-.27,4.34-.41,3.33.38,6.82-.88,10.28.84C378.76,255.38,376.68,254.65,374.83,254.84Z"/><path class="cls-2" d="M165.85,268.29c2.54-.08,5.08-.21,7.63-.23,12.2-.12,24.41-.15,36.61-.34q40.66-.64,81.31-1.42c18.92-.38,37.83-.9,56.75-1.39,8-.21,15.9-.53,23.85-.78,1.23,0,2.46,0,3.7.07-4.31,2.5-9.07,2.15-13.78,2.23-18.3.32-36.6.7-54.89,1q-26.29.48-52.57.92c-17.76.31-35.51.58-53.27,1-7.4.16-14.8.59-22.2.8a85.6,85.6,0,0,1-9.69-.23C168.1,269.81,167,268.85,165.85,268.29Z"/><path class="cls-4" d="M158.67,259.45l-20.62.31-45.9.67c-8.27.12-16.54.17-24.81.34-18.13.36-36.26.78-54.4,1.15a10.29,10.29,0,0,1-1.81-.28l-.06-.9a52.3,52.3,0,0,1,6.1-.9q12.51-.41,25-.58c23.8-.31,47.61-.52,71.41-.83,15-.2,30-.51,45-.77.61,0,1.22-.12,1.83-.19l1,1.14c-.32.26-.61.67-1,.76A8.66,8.66,0,0,1,158.67,259.45Z"/><path class="cls-2" d="M90.57,267.7a2.9,2.9,0,0,1,2.75-3.06c1.83-.22,3.69-.09,5.54-.13,13.94-.26,27.88-.64,41.82-.7,3.62,0,7.23,1.06,10.87,1.44,2.21.23,4.47,0,6.69.19a25.73,25.73,0,0,1,3.89.9c-3.32,0-6.64,0-10,.1q-19.12.34-38.23.72C106.15,267.32,98.36,267.52,90.57,267.7Z"/><path class="cls-2" d="M161.55,268.28c-.36.25-.71.67-1.09.71-3.23.4-6.47,1-9.72,1.05q-19.76.59-39.53.92c-7.1.12-14.2,0-21.31,0a5.82,5.82,0,0,1-1.93-.79l1-1.27a24.11,24.11,0,0,0,2.51.23q23.13-.24,46.26-.52Z"/><path class="cls-4" d="M161.55,268.28l-23.83.31q-23.13.27-46.26.52a24.11,24.11,0,0,1-2.51-.23l1.63-1.18c7.79-.18,15.57-.38,23.36-.53q19.12-.38,38.23-.72c3.32-.06,6.64-.07,10-.1C163.62,267.5,162.52,267.87,161.55,268.28Z"/><path class="cls-4" d="M2.6,264.89c1.07-2.5,2.69-3.33,6.34-3L7.69,263.4Z"/><path class="cls-2" d="M87.47,269H85l0-.66,2.5-.2Z"/><path class="cls-2" d="M56.59,268.08l.83,1c-.95.4-1.89,1.13-2.85,1.15-4.63.09-9.26,0-13.89,0l-10.1.95L20,270.84l12.75-1.34c-5.82-1.6-20,0-21.07,2L18.2,271l-8,1.77q0-.62-.06-1.24c-1.8.47-3.9-1.05-5.52,1-.4.5-1.36.55-2.06.81-1.44-1.57-.68-3,.19-4.51l0,0,1.71-.27c2.83-.48,5.66-1,8.5-1.42,2.11-.31,4.24-.47,6.36-.7v.06a6.07,6.07,0,0,0,1.84.92c4.17.46,8.38.68,12.53,1.24a34.75,34.75,0,0,0,11.56-.38l.1,0Zm-8.76.64v.53H54v-.53Z"/><path class="cls-5" d="M3.06,259l-1.29.77Z"/><path class="cls-5" d="M4.5,268.48l-1.71.27Z"/><path class="cls-5" d="M1.36,260l-.4.4Z"/><path class="cls-2" d="M10.66,204.35l6.86-1.89a14.82,14.82,0,0,0-2.71,1.13c-1.17.78-.8,1.31.46,1.44l-.27.84c-2.2,0-4.38-.25-6.19,1.58-.52.53-1.73.39-2.62.56a18.81,18.81,0,0,1,1.4-1.36C8.6,205.86,9.64,205.12,10.66,204.35Z"/><path class="cls-4" d="M10.66,204.35c-1,.76-2.07,1.51-3.07,2.3A18.81,18.81,0,0,0,6.2,208H4.69l4.13-4.11Z"/><path class="cls-2" d="M8.82,203.92,4.69,208l.75-4.84C6.54,203.54,8.18,201.43,8.82,203.92Z"/><path class="cls-5" d="M15,205.88l.27-.84.14-.05,7.2,0c-.43.33-.85.93-1.29.94C19.22,206,17.11,205.93,15,205.88Z"/><path class="cls-5" d="M29,205.22l-2.24,0L23.87,205c1.64-1.6,3.54-.83,5.39-.59Z"/><path class="cls-4" d="M16.25,16.8c0,.33.18.88,0,1-1.85,1.22-3.75,2.38-5.64,3.56l.25-1.8,1.18-2.33Z"/><path class="cls-4" d="M18.2,271l-6.51.52c1-2,15.25-3.63,21.07-2L20,270.84Z"/><path class="cls-4" d="M2.57,273.3c.7-.26,1.66-.31,2.06-.81,1.61-2,3.72-.48,5.52-1q0,.62.06,1.24c-2.29.44-4.58.91-6.88,1.29C3.12,274.11,2.83,273.57,2.57,273.3Z"/><path class="cls-4" d="M.87,282.23c3.09-2.36,4.63-2.6,6.7-1.2l-5.7,1.91Z"/><path class="cls-1" d="M346.85,124.74a33.16,33.16,0,0,1-1.4,3.13c-1.56,2.73-3.13,5.46-4.82,8.11a10.39,10.39,0,0,0-1.69,6.54c.2,3.15.1,6.33.07,9.49,0,3.6-.52,4.22-4,4.29-1.67,0-3.34-.6-5-.71a20.13,20.13,0,0,0-3,.47c-1,.09-2,0-3.45,0,0-4.77.1-9.47-.06-14.15a9,9,0,0,0-1.23-4.29c-5.22-8.37-10.59-16.65-15.88-25a6.47,6.47,0,0,1-.52-1.64c-.32-1.08-.64-2.16-.95-3.24-.19-.69-.61-1.46-.44-2.06.1-.38,1.07-.55,1.67-.78.92-.35,1.84-.66,2.77-1h.77a47.68,47.68,0,0,0,5.32,0c2.41-.25,3.92.82,5.16,2.72,3.38,5.13,6.83,10.21,10.39,15.53l6.7-10.75c1.1-1.77,2.17-3.56,3.29-5.32a4.34,4.34,0,0,1,4.22-2.25c3.38.18,6.77.23,10.16.16,2.07,0,2.49,1,1.95,2.6a42.6,42.6,0,0,1-2.72,6.36c-1.87,3.44-3.93,6.78-6,10.14a8,8,0,0,1-1.25,1.3l.65-2.37-2.16-.14,2.16-3.62.27.76c.55-.09,1.25,0,1.63-.29,2.52-2,3.92-7.75,2.71-10.87a2.54,2.54,0,0,0-1-1.19c-2.2-1.31-7.58-.3-9.06,1.81-1.63,2.32-3.11,4.76-4.58,7.2-2.16,3.58-4.25,7.21-6.61,11.22a37.52,37.52,0,0,1-2.59-3.24c-2.93-4.79-5.7-9.68-8.75-14.38-.74-1.14-2.29-1.87-3.6-2.49-.8-.38-1.89-.11-2.81-.31-2-.44-4.24.62-4.3,2.34-.08,2.19-.3,4.36,1.19,6.42,1.87,2.6,3.28,5.55,5,8.27.59.94,1.37,2.16,2.3,2.42,2.73.76,3.55,2.45,1.77,4.64.78,1.1,1.5,2.29,2.39,3.34a18.89,18.89,0,0,1,4.87,14.18,24,24,0,0,0,.08,3c.07,1.4.39,2.42,2.23,2a4.79,4.79,0,0,1,2.44.34c2.54.87,4.94-.51,5.07-3.15.09-1.92-.24-3.85-.17-5.77.1-2.64-.23-5.55.76-7.86,1.55-3.64,4.19-6.8,6.05-10.33C343.89,124.45,344.94,123.84,346.85,124.74Z"/><path class="cls-1" d="M137.62,54.83l4.93-12,.11,0c3.86,0,7.74.15,11.57-.2,3.06-.28,4.62,1.23,5.67,3.63,2.86,6.49,5.66,13,8.44,19.54,2.93,6.87,5.86,13.75,8.7,20.66a54,54,0,0,1,1.59,5.41c-4.44.37-8.48.69-12.52,1-1.86.16-3.17-.52-3.66-2.4s-1.62-2.29-3.44-2.21c-6,.29-12,.46-18,.59a2.45,2.45,0,0,0-2.6,2.11,3.37,3.37,0,0,1-3.57,2.94c-3.74,0-7.49,0-11.22-.17-2-.11-1.36-1.89-1.06-2.89.62-2.05,1.59-4,2.41-6,1.53-3.71,3-7.41,4.6-11.11.13-.32.49-.55.74-.82l.65,1.59,8.3-20.16Zm31.43,36.62.09-.35,1.62-.07c3.58-.17,4.49-2,2.79-5.17-1.41-2.63-2.6-5.37-3.8-8.1q-6.14-14.07-12.2-28.17c-.88-2-2.22-3.44-4.53-3.11-3.44.49-7.45-.66-9.81,3.18a3.33,3.33,0,0,0-.2.42c-1.14,2.61-2.31,5.21-3.41,7.84q-6.45,15.46-12.87,30.93c-.91,2.2.08,3.8,2.51,4a33.52,33.52,0,0,0,3.47.08c1.85,0,3.29-.7,3.84-2.68.49-1.76,1.79-2.32,3.52-2.37,6.56-.18,13.12-.42,19.68-.61,1.8-.05,3.91-.52,4.07,2.38,0,.24.54.56.88.66C166.14,90.72,167.6,91.07,169.05,91.44Z"/><path class="cls-1" d="M169.79,107.73l.14,0a64,64,0,0,1,.69,6.82c0,12.77-.14,25.54-.27,38.31a5.29,5.29,0,0,1-.64,1.67c-.91-.24-1.7-.5-.91-1.71a2.27,2.27,0,0,0,.22-1.31c-.29-4.2-.62-8.39-1-13l1.89,1,.29-.27L168,135.64l.54-.46,1.78.62c-1-4.05.51-7.86-1-11.76-.87-2.31-.16-5.22-.16-7.69-.65-1-1.36-2.19-2.14-3.31-.38-.55-.81-1.35-1.34-1.47-2.38-.51-5.06-.71-6.77,1.11-1.05,1.12-1.34,3.32-1.31,5,.12,6.93.58,13.85.76,20.78.15,5.46.08,10.93.1,16.39,0,1.79.87,3.17,2.6,3.27a49.07,49.07,0,0,0,6.19-.49,12.25,12.25,0,0,1,2,.19c.2,2.07-1.33,2.14-2.68,2.18-3.66.1-7.32.09-11,.12l-.44-.41.2-.65a14,14,0,0,0,.24-1.82q0-18.62,0-37.23c0-1.29-.19-2.57-.28-3.86l.41-7.52h0Z"/><path class="cls-8" d="M41.22,149.7l.17.13a2.72,2.72,0,0,1-.25.28S41,150,41,150Z"/><path class="cls-2" d="M363.67,21.36c-.51.27-1,.79-1.52.77-3.2-.15-6.39-.62-9.58-.6a38.52,38.52,0,0,0-6.47,1,17.42,17.42,0,0,1-2.41.58q-19.67.62-39.34,1.15c-12.1.32-24.2.55-36.3.91-2.81.08-5.6.5-8.4.76h0a5.89,5.89,0,0,0-.91-.13c-11.89.11-23.78.21-35.66.38a17.16,17.16,0,0,0-3.33.71L205,27.51a11.86,11.86,0,0,0-2.39-.43c-10.11.22-20.21.53-30.32.68-1.08,0-2.18-.77-3.27-1.19a9.45,9.45,0,0,1,1.14-.17l40.3-1q21.78-.53,43.56-1.08,26.53-.69,53.06-1.41,18.07-.5,36.14-1.11a41.53,41.53,0,0,0,4.78-.7L347.9,20q-90.85,2.44-181.7,4.81c.23-.48.45-1,.7-1.42.35-.64.72-1.26,1.09-1.89l1.68-.13c4.93-.24,9.85-.6,14.78-.7q28-.56,56-1c5.08-.07,10.16.3,15.24.14,5.76-.17,11.51-.83,17.27-1.06,10.1-.4,20.21-.76,30.32-.91,12.83-.19,25.65-.17,38.48-.22,1.82,0,3.7-.22,5.11,1.49.31.37,1.27.21,1.93.3h2.63l3.11.23a9.59,9.59,0,0,0,1.65.57C358.7,20.67,361.19,21,363.67,21.36Z"/><path class="cls-5" d="M369.19,11.19l-.94-.91h0l1.38-.34,0-.3-1.24-.19-.22-.25-.08-.68a4.19,4.19,0,0,1,5.14,2.41c.8,1.5.43,2.86-1.29,3-6,.41-12.09.64-18.13.94a12.84,12.84,0,0,1,2.54-.76c4-.36,8-.63,11.93-.93a5.5,5.5,0,0,0,1.12-.08c1-.29,2-.63,3-.95Z"/><path class="cls-2" d="M356,19.65a8.1,8.1,0,0,1,2.39-.9c3.3-.13,6.6-.09,9.9-.11,1.22,0,2.45,0,3.66.15,1.66.2,1.94,1.11.88,2.6l-6.15-.13,6.15-.74-.06-.86Z"/><path class="cls-4" d="M365,4.71c-2.73-.09-5.47-.31-8.2-.26-11.43.24-22.87.59-34.3.86-19.41.46-38.83.86-58.24,1.36q-34.3.88-68.59,1.89-13.56.38-27.11.79c-.75,0-1.5.32-2.25.34-.38,0-.76-.33-1.14-.52.22-.35.36-.93.66-1a10.94,10.94,0,0,1,2.92-.57c15.14-.39,30.28-.7,45.42-1.1,30.67-.82,61.33-1.72,92-2.52,18.46-.48,36.93-.84,55.4-1.26,3.86-.09,7.72-.21,11.58-.31.76.65,1.63,1.46-.09,1.81-2.45.5-4.94.77-7.42,1.09C365.4,5.33,365.16,4.92,365,4.71Z"/><path class="cls-4" d="M369.19,11.19l3.2,1c-1,.32-2,.66-3,.95a5.5,5.5,0,0,1-1.12.08c-9.43.14-18.85.25-28.28.42q-42.43.75-84.86,1.54-19.7.36-39.41.76l-47.13.95c-.8,0-1.61,0-2.41,0l-.17-1a16.13,16.13,0,0,1,2.73-.55Q180,15,191.21,14.77q35.81-.7,71.62-1.36,43.82-.86,87.64-1.76C356.71,11.53,362.95,11.35,369.19,11.19Z"/><path class="cls-4" d="M41.68,13.12l-.93.74c-.49-.33-1-1-1.46-.94-5.82.64-11.62,1.38-17.43,2.09-.55.07-1.11.16-1.66.24l-.28-.72a11.34,11.34,0,0,1,2.65-1.18c4.56-.76,9.13-1.81,13.72-2,17.6-.7,35.21-1.1,52.82-1.62L143.8,8.09c6-.18,12-.37,18.07-.47a8.62,8.62,0,0,1,2.46.73l-.22,1c-1.89,0-3.78,0-5.66,0q-9.6.24-19.2.52L74.42,11.78q-15.06.43-30.11.89A18.65,18.65,0,0,0,41.68,13.12Z"/><path class="cls-4" d="M41.61,22.21c-.22.08-.5.28-.64.21-4.48-2.33-8.69,1.2-13.14.63-2.11-.27-4.34.47-6.52.75.55-.6,1-1.58,1.68-1.72a63.86,63.86,0,0,1,10.65-2c13.8-.68,27.61-1.08,41.42-1.57q20.36-.71,40.73-1.37,22.57-.72,45.15-1.36a27.29,27.29,0,0,1,3.31.3l0,1-2,.39-8.63.42c-3.32.08-6.63.13-9.94.23-11,.33-22.08.68-33.12,1L61.22,20.56c-6.1.18-12.2.38-18.29.65C42.47,21.23,42,21.86,41.61,22.21Z"/><path class="cls-4" d="M17.44,24.87l-4.92,2.28-1.41-.05c.16-.47.19-1.07.5-1.4A4.72,4.72,0,0,1,17.44,24.87Z"/><path class="cls-5" d="M368.25,10.28l-1.66-.19,0-.55,1.58-.32.22.25-.12.82Z"/><path class="cls-3" d="M346.85,124.74c-1.92-.89-3-.28-4,1.63-1.86,3.53-4.5,6.69-6.05,10.33-1,2.31-.66,5.21-.76,7.86-.07,1.92.26,3.85.17,5.77-.13,2.64-2.53,4-5.07,3.15a4.79,4.79,0,0,0-2.44-.34c-1.84.42-2.16-.59-2.23-2a24,24,0,0,1-.08-3A18.89,18.89,0,0,0,321.55,134c-.89-1-1.61-2.24-2.39-3.34,1.78-2.2,1-3.88-1.77-4.64-.93-.26-1.71-1.48-2.3-2.42-1.71-2.73-3.11-5.67-5-8.27-1.49-2.06-1.27-4.23-1.19-6.42.07-1.72,2.29-2.78,4.3-2.34.92.2,2-.07,2.81.31,1.31.63,2.86,1.35,3.6,2.49,3.06,4.7,5.82,9.6,8.75,14.38A37.52,37.52,0,0,0,331,127c2.36-4,4.45-7.64,6.61-11.22,1.47-2.43,2.94-4.87,4.58-7.2,1.48-2.11,6.86-3.12,9.06-1.81a2.54,2.54,0,0,1,1,1.19c1.22,3.11-.19,8.82-2.71,10.87-.38.3-1.08.21-1.63.29l-.27-.76-2.16,3.62,2.16.14-.65,2.37A.63.63,0,0,1,346.85,124.74Zm-18.48,5.87a.79.79,0,0,0-.2-.2l-5.3-8.65c1.78-1.35.16-2.16-.32-2.76a3,3,0,0,1-2.12-.74c-1.07-1.4-1.93-3-2.92-4.44s-2.47-2.9.18-5.13a50.2,50.2,0,0,0-5.69-.26c-.38,0-1.11,1.31-.94,1.73a23.53,23.53,0,0,0,2.2,3.95c3.34,5.19,6.76,10.33,10.06,15.55,1.64,2.6,3.65,5.17,4.45,8,1,3.43.74,7.18,1.13,10.78.1.93.33,2.41.87,2.6a8.07,8.07,0,0,0,3.15,0,34.47,34.47,0,0,1,0-4.09c.26-1.94.73-3.86,1.07-5.79.26-1.51.13-3.17.74-4.51,2.56-5.68,6.44-10.64,9.14-16.28,1.89-4,4.24-7.72,6.66-12.05a34.5,34.5,0,0,0-5.21.07c-1,.17-2.19.83-.78,2.22a1.66,1.66,0,0,1,0,1.56c-3.84,5.57-7.81,11.05-11.6,16.65A3.71,3.71,0,0,1,328.37,130.61Z"/><path class="cls-1" d="M335.32,90.09c-3.06,0-6.12,0-9.18,0a31.56,31.56,0,0,1-3.5.07c-13.46-1.46-24.43-16.24-22-30.46a30.74,30.74,0,0,1,6.65-14.22c3.86-4.86,9.13-6.69,14.75-8.54,6.55-2.16,12.72-1.63,18.94.66a27.68,27.68,0,0,1,15.31,37.79c-3.42,7.08-9.19,11.63-16.41,14.4-1.38.53-3,.35-4.57.49Zm21.1-25.42c.34-6.95-2.32-12.74-6.57-17.88-2.54-3.08-5.93-4.88-9.62-6.48-5.87-2.54-11.9-2.38-17.68-1-9.57,2.24-15.34,8.86-18.13,18.23-2.29,7.72-.63,14.83,4,21a26,26,0,0,0,18.57,10.55c2.74.3,5.62.73,8.25.2s5.28-2.06,7.79-3.39C351.49,81.36,355.9,74.21,356.42,64.68Z"/><path class="cls-4" d="M377.48,184.58l.07,2c-2.6-.11-5.21-.36-7.81-.29-9.5.24-19,.64-28.5.87q-42.54,1-85.07,2c-7.11.16-14.22.24-21.33.4l-60.15,1.37c-2.47.06-4.94.09-7.42.06a10.71,10.71,0,0,1-2-.4v-.73a14,14,0,0,1,2.45-.51c11.66-.36,23.33-.75,35-1,19.24-.39,38.48-.58,57.72-1,21.09-.47,42.18-1.16,63.28-1.69,16.15-.41,32.3-.72,48.45-1.07C373.93,184.49,375.71,184.56,377.48,184.58Z"/><path class="cls-4" d="M20.91,193l5.74-.86c8.72-.2,17.44-.37,26.17-.59,10.66-.27,21.31-.58,32-.86q34.63-.9,69.27-1.77c2.86-.07,5.72,0,8.57.09.59,0,1.16.7,1.74,1.07a8.84,8.84,0,0,1-1.83.55c-2.33.18-4.68.24-7,.45a1.66,1.66,0,0,0-.93.52,32.24,32.24,0,0,0-4.44-.56c-10.42.22-20.84.53-31.26.79-21.62.53-43.24,1-64.86,1.57-10,.26-19.91.53-29.86,1a64.6,64.6,0,0,0-9.5,1.58c-1.22.25-1.57-.09-1.44-1.22h0Z"/><path class="cls-4" d="M10.68,194.91l.78.52c-.21.42-.32,1.09-.65,1.23a24,24,0,0,1-3.93,1.21c-.21,0-.6-.69-.9-1.07H6Z"/><path class="cls-4" d="M23.2,185.42l-1.07.14c-2.61.55-5.21,1.21-7.84,1.63a32.89,32.89,0,0,1-8.12.34c1.08-.48,2.23-1.47,3.24-1.34,2.21.28,3.93-1,5.9-1.29a151.23,151.23,0,0,1,15.82-2c15.44-.6,30.88-.86,46.33-1.25a.85.85,0,0,0,.66-.37h-5v.08q19.76-.39,39.53-.77c6.49-.12,13-.19,19.47-.28q13.44-.19,26.89-.36a11.78,11.78,0,0,1,3,.2c.53.13.93.81,1.39,1.24-.55.28-1.11.81-1.67.82-5.09.06-10.19,0-15.34,0,0,1,0,1.73,0,2.44h-4.76c-3.24,0-6.48,0-9.71-.07-.71,0-1.9-.19-2-.58-.66-1.9-2-1.49-3.35-1.47-.63,2-.63,2-2.7,2.14-2.68.16-5.35.35-8,.53L67.3,186.47c-.84-.05-1.68-.15-2.52-.15-5.78,0-11.57.08-17.35.07a6.65,6.65,0,0,1-2.14-.51,17.28,17.28,0,0,0-2.72-1.1,17.18,17.18,0,0,0-3.46,0Z"/><path class="cls-4" d="M378,176.3c1.59,1.21.17,1.75-.62,1.88-2.07.33-4.19.37-6.29.52a13.54,13.54,0,0,0-2.85-.54c-25.81.64-51.61,1.41-77.42,2-18.36.4-36.73.47-55.09.8-18.77.34-37.54.84-56.31,1.26-4.09.09-8.19.19-12.28.21a4.87,4.87,0,0,1-1.68-.7c.52-.36,1-.92,1.57-1a20.86,20.86,0,0,1,3.46-.22c14.38-.19,28.75-.34,43.13-.57,6.33-.1,12.66-.45,19-.59,13.12-.28,26.25-.5,39.37-.74,9.77-.18,19.53-.32,29.3-.56q36.27-.88,72.54-1.82C375.2,176.16,376.6,176.26,378,176.3Z"/><path class="cls-5" d="M26.8,181h8.75v.72c-2.75,0-5.51,0-8.26,0-.16,0-.31-.47-.47-.72Z"/><path class="cls-2" d="M23.2,185.42l15.9-.64a17.18,17.18,0,0,1,3.46,0,17.28,17.28,0,0,1,2.72,1.1,6.65,6.65,0,0,0,2.14.51c5.78,0,11.57-.05,17.35-.07.84,0,1.68.1,2.52.15a10.33,10.33,0,0,1-2.72.86c-3.86.12-7.73.11-11.59.1-4.49,0-9,0-13.47-.15-.93,0-1.84-.6-2.77-.62a15.6,15.6,0,0,0-3,.46l.3-1.32c-3.39,0-6.6,0-9.8,0A3.72,3.72,0,0,1,23.2,185.42Zm19.15.92v0h.91v0Z"/><path class="cls-2" d="M115.81,185.29c2.68-.18,5.35-.37,8-.53,2.07-.12,2.07-.1,2.7-2.14,1.31,0,2.69-.42,3.35,1.47.14.39,1.32.56,2,.58,3.24.07,6.47.06,9.71.07-.33.17-.67.48-1,.48Q128.22,185.29,115.81,185.29Z"/><path class="cls-2" d="M20.91,193l-7.67,1.77c.58-.53,1.11-1.43,1.75-1.51C16.95,193,18.94,193.09,20.91,193Z"/><path class="cls-2" d="M10.68,194.91,6,196.79c-.56-1.69.3-2.21,1.8-2.15C8.74,194.69,9.71,194.82,10.68,194.91Z"/><path class="cls-4" d="M15.42,205l-.14.05c-1.26-.13-1.63-.66-.46-1.44a14.82,14.82,0,0,1,2.71-1.13l19-1.5L59,200.6c13.68-.24,27.35-.44,41-.74,19.85-.43,39.71-.85,59.56-1.4,15.86-.44,31.71-1.19,47.57-1.57,13.82-.33,27.66-.24,41.49-.48,16.84-.29,33.68-.75,50.52-1.12q34.07-.75,68.14-1.46c3.69-.08,7.38,0,11.07,0,1,.84.75,1.3-.44,1.57-2.23.51-4.44,1.07-6.66,1.61-.65-.47-1.31-1.36-2-1.35-12.36.27-24.71.69-37.06,1-7.18.18-14.37.16-21.56.32-19.77.44-39.55.95-59.32,1.38q-14.71.33-29.43.5c-18.12.25-36.25.37-54.36.76-4.23.09-8.44,1.11-12.67,1.51-1.21.12-2.5-.68-3.74-.64-8.49.23-17,.67-25.46.84-22.71.44-45.42.78-68.13,1.14-6.64.11-13.28,0-19.91.26s-13.28.9-19.91,1.44A9.74,9.74,0,0,0,15.42,205Z"/><path class="cls-1" d="M101.09,118.41l-.44.49-.26-.3.42-.42Z"/><path class="cls-6" d="M98.65,147.65l-.47-.44Z"/><path class="cls-3" d="M100.8,118.17l-.42.42-5.71,2.93c-9.21-5.15-22.66-1-25.21,10.79s8.06,20.89,18,18.51l2.7-.63c4.07-.92,6.43.29,8.3,4.07.85,1.71.48,2.94-1.14,3.81a17.57,17.57,0,0,1-3,1.31c-5.44,1.72-10.87,2.67-16.58,1-1.93-.57-4.14-.18-5.87-1.66-.13-.11-.71.31-1.08.48l0,0c-1.73-1.09-3.81-1.86-5.12-3.32-7.52-8.41-9.63-20.14-4.24-30.72a27.43,27.43,0,0,1,8.42-10.24A22.27,22.27,0,0,1,78.71,111c6-1,12.19-1.57,18.17,1.1C99.73,113.42,100.88,115.26,100.8,118.17Zm-39.67,22.9c.35,1,.71,2,1,3,1,3.05,2.09,6.07,4.6,8.34,3.17,2.86,6.4,5.52,10.88,6,3.06.35,6.12,1.19,9.16,1.12,2.29-.06,4.54-1.25,6.83-1.87,2.88-.78,2.89-.74,1.48-3.23a6,6,0,0,1-.23-.89c-.66-1.81-1.77-2.32-3.78-1.92a52.84,52.84,0,0,1-9.59,1.1,10.61,10.61,0,0,1-8.89-4.07,27.7,27.7,0,0,1-4.33-7.76c-2.34-7.17-.74-13.29,5-18.41s12.71-5.8,20-3.82c2.76.75,4.52-.13,5.37-2.94-5.88-4.88-18.57-5.2-25.34-.79a26.81,26.81,0,0,0-9.86,10.47c-2.43,4.93-4.31,10.05-2.31,15.69l-.15.32Z"/><polygon class="cls-3" points="70.87 159.19 70.94 159.25 70.89 159.17 70.87 159.19"/><path class="cls-8" d="M42.59,249.63h0Z"/><path class="cls-4" d="M161.09,24.49l3,1.22a16.77,16.77,0,0,1-3,.73c-2.67.16-5.35.17-8,.24-3.85.06-7.71.11-11.56.18q-29.42.58-58.84,1.18c-11.73.26-23.47.44-35.19,1-9.12.44-18.3.58-27.22,3a17.25,17.25,0,0,1-2.15.31l-.34-.86A11.88,11.88,0,0,1,21,30c6.71-.94,13.43-2.25,20.18-2.49,21.15-.77,42.31-1.14,63.46-1.64q27.33-.63,54.66-1.2A17.87,17.87,0,0,0,161.09,24.49Z"/><path class="cls-4" d="M11.78,35.91c-.22-2.11,1.74-3.69,5-3.57Z"/><path class="cls-2" d="M41.61,22.21c.44-.35.86-1,1.31-1,6.1-.27,12.19-.47,18.29-.65l49.33-1.43c11-.32,22.08-.68,33.12-1,3.31-.1,6.63-.15,9.94-.23-.44,1.41-1.45,1.71-2.85,1.76-6.25.19-12.49.62-18.74.73-10.7.2-21.4.12-32.09.37-6.31.15-12.61.84-18.92,1.06-3.83.14-7.67-.28-11.5-.23C60.21,21.72,50.91,22,41.61,22.21Z"/><path class="cls-4" d="M166.2,24.85Q257.05,22.49,347.9,20l.08,1.07a41.53,41.53,0,0,1-4.78.7q-18.07.61-36.14,1.11-26.53.74-53.06,1.41-21.78.56-43.56,1.08l-40.3,1a9.45,9.45,0,0,0-1.14.17c-.68,0-1.36,0-2,0C165.65,26.45,165.67,25.76,166.2,24.85Z"/><path class="cls-4" d="M167.16,277.52l-1.56-.05-1.39-1.05v-.67a32.45,32.45,0,0,1,4.24-.61c7.88-.12,15.77-.14,23.65-.21,13.6-.13,27.21-.2,40.81-.44,26.58-.47,53.17-1,79.75-1.57,8.42-.17,16.85-.22,25.27-.47,6.94-.2,13.88-.75,20.82-.9,7.47-.16,15-.06,22.43,0a10.9,10.9,0,0,1,2.48.61l0,.72a6.19,6.19,0,0,1-1.68.62c-2.54.16-5.1.13-7.64.35-3.55.3-7.06-.19-10.69.86s-7.64.62-11.49.82c-1.93.1-3.86.19-5.79.23-.76,0-1.82.19-2.24-.23-1.92-1.89-4.3-1.43-6.51-1.38-19,.38-38,.89-57,1.25-11.73.22-23.47.25-35.2.38-9.51.1-19,.18-28.52.34q-22.59.38-45.18.86A45.29,45.29,0,0,0,167.16,277.52Z"/><path class="cls-4" d="M162.6,277.57l-9.27.92a8.31,8.31,0,0,0-2.29-.66c-19.24.23-38.48.46-57.72.8-6.62.12-13.24.68-19.86.77-10.74.14-21.49-.1-32.23.1-9.33.17-18.65.72-28,1.13-1.33.06-2.65.32-4,.49l-.26-1a11.67,11.67,0,0,1,2.74-.87c7.94-.49,15.88-1.07,23.83-1.29,11.2-.31,22.41-.31,33.62-.5,16-.28,32-.63,48-.94q15.51-.31,31-.6c4.13-.07,8.27-.13,12.4-.1C161.65,275.77,163.26,275.53,162.6,277.57Z"/><path class="cls-5" d="M75,270.19c-2.09.28-4.37,1.23-6.22.7-4-1.16-7.82.63-11.75.27-2-.19-4.06.77-6.08.72-3.12-.08-6.23-.55-9.34-.92-.35,0-.65-.53-1-.81,4.63,0,9.26.14,13.89,0,1,0,1.9-.75,2.85-1.15l9.08-.85c.06.33,0,.83.18,1,1.6,1.13,4.41.79,6.63-1.17H67.63c1.25-.26,2.5-.59,3.76-.77a22.13,22.13,0,0,1,2.73-.06l.16.13L75.2,270Z"/><path class="cls-5" d="M45.29,268.19a34.75,34.75,0,0,1-11.56.38c-4.16-.56-8.36-.78-12.53-1.24a6.07,6.07,0,0,1-1.84-.92l11.14-.23c1.51.33,3.45-.52,4.32,1.66.11.27,1.13.24,1.74.25C39.47,268.15,42.38,268.17,45.29,268.19Z"/><path class="cls-2" d="M67.63,268h5.68c-2.21,2-5,2.3-6.63,1.17-.19-.14-.13-.63-.18-1Z"/><path class="cls-8" d="M75.2,270l-.92-2.77L77,268.5l-.11.73Z"/><path class="cls-4" d="M47.82,268.72H54v.53H47.83Z"/><path class="cls-1" d="M212.89,106.83l30.76-.64c5.63-.12,11.27-.21,16.9-.35,1.84,0,2.88.43,2.81,2.6-.11,3.24,0,6.48.12,9.72,0,1.61-.68,2.16-2.22,2.15-4.17,0-8.34,0-12.51.11-3,.08-3.11.32-3,3.24q.34,15.86.6,31.72c.05,3.21,0,3.2-3.15,3.25s-6,0-9,.19c-2.09.11-2.91-.66-2.84-2.79.1-2.85-.07-5.71-.08-8.57,0-8.72,0-17.44,0-26.53H218.82c-.45,0-.89.14-1.34.13-4.54-.07-4.6-.08-4.68-4.62-.06-3.21.06-6.42.09-9.62Zm48.73,11.22c0-1.63.06-3.52,0-5.4-.1-2.61-.72-3.29-3.4-3.29-13.07,0-26.13.07-39.2.3a4.7,4.7,0,0,0-3.58,2.21c-1.09,2.72,0,6.37,1.61,7.22a2.32,2.32,0,0,0,1.11.24c2.77-.07,5.54-.21,8.31-.27,2.17,0,4.34,0,6.76,0-.41,1.12-.79,1.66-.73,2.14a36.36,36.36,0,0,1,.73,3.88c0,2.93-.36,5.86-.29,8.78.16,6.55.51,13.1.77,19.65.1,2.72,1.09,3.85,3.75,3.86a12,12,0,0,0,4.32-.55c1.22-.48,2.51-1.15,2.36-3.15-.28-3.87-.11-7.76-.25-11.64a7.13,7.13,0,0,0-.93-2.25,6.83,6.83,0,0,0-.79,2.1c-.07,3.77,0,7.54,0,11.31,0,2.56-1.9,1.88-3.32,2s-2.47-.21-2.49-2.11q-.09-13.36-.41-26.71c-.05-2.05-.65-4.09-.87-6.15s-1.67-2.78-3.52-2.8c-3.48,0-7,0-10.44,0-1,0-1.93-.08-2.79-.13a10.35,10.35,0,0,0-.43-2.9c-1.15-2.32-.88-2.93,1.83-3q18.2-.31,36.4-.54c3.19,0,2.74.13,3.31,3,.61,3.13-1.24,2.77-2.93,2.82-3.71.11-7.42.07-11.13.12-2,0-3.27.85-3.39,3-.3,5.33-.65,10.66-.83,16a5.23,5.23,0,0,0,1.1,2.56,2.05,2.05,0,0,0,1.49-.5,6,6,0,0,0,.69-2.84c-.12-1.71-.74-3.39-.83-5.09-.16-3.21-.14-6.43,0-9.65a2,2,0,0,1,1.3-1.38C250.16,118.58,255.46,118.36,261.62,118.05Zm-23.28,34.5.91.09a15.75,15.75,0,0,0,.3-2.41c0-1.46-.29-2.92-.3-4.38-.07-7.87-.15-15.74-.08-23.61,0-1.5.74-3,1-4.51a31.56,31.56,0,0,0,.21-3.48l16.29-.72c-2.19-1.65-35-.67-37.09,1,1.39,0,2.26,0,3.13,0,3.78-.11,7.56-.31,11.34-.3.84,0,2.28.58,2.42,1.15a38.07,38.07,0,0,1,1.41,8.32c.19,8.57.09,17.15.14,25.73C238,150.46,238.23,151.5,238.34,152.55Z"/><path class="cls-3" d="M137.62,54.83l1.61-.48-8.3,20.16-.65-1.59v0l.54-1.44Z"/><path class="cls-1" d="M130.82,71.46l-.54,1.44Z"/><path class="cls-1" d="M97.33,81.25a24.63,24.63,0,0,0,1.09,3.45c1.49,3.1,3.09,6.14,5,9.82-2.11.12-3.59.24-5.08.27-2.78.06-5.59-.17-8.33.16-2.48.3-3.73-.83-4.73-2.77-.78-1.5-1.67-3-2.42-4.47a4.29,4.29,0,0,0-4.59-2.66c-6.2.35-5.1-.8-5.42,5.31a25.83,25.83,0,0,1-1,4.37c.13-1.84.33-3.68.36-5.53,0-1.3.34-2.57-1-3.75-1-.84-.13-1.82,1.23-1.77,2.7.09,5.4.14,8.1.35a2.79,2.79,0,0,1,1.89,1c1.42,2.09,2.56,4.37,4,6.43.67.94,1.84,2.11,2.81,2.13A36.83,36.83,0,0,0,97,92.74c2.38-.48,3.08-2.49,1.73-4.61s-2.93-4.28-4.59-6.67c1.22-1,2.49-2,3.68-3,3.8-3.38,6.41-7.38,7-12.61.75-6.9-7.37-16.83-16.43-17.46-7.32-.51-14.67-.52-22-.64-2.87,0-4.07,1.33-4.24,4.25-.44,7.55-.9,15.1-1.33,22.65-.19,3.23-.37,6.47-.44,9.71a5.92,5.92,0,0,0,.77,2c.76-.52.92-.8.94-1.08q.56-10.85,1.08-21.71c.17-3.7.28-7.4.42-11.1.08-2.08.81-3.21,3.23-3.1a128.69,128.69,0,0,0,15.51.2C89.92,49,95,52.76,99.15,58.42a11.25,11.25,0,0,1,1.9,3.1c1.78,5.75.63,10.77-4,14.85a22.94,22.94,0,0,0-3.48,3.37A4.6,4.6,0,0,0,92.64,83a27.59,27.59,0,0,0,2.44,6.36c.82,1.56.37,2.12-1.08,2.43-3.41.72-4.78-.38-6.36-3.4s-3.39-6.5-7.88-6.43c-2.38,0-4.81-.57-7.14-.27a5.12,5.12,0,0,0-3.42,2.55,17.62,17.62,0,0,0-1.21,6c-.16,2.28-1.71,1.75-3,1.78s-2.62-.06-2.89-1.9c-.15-1,1.49-2.44-.54-3.13-.36,1.14-.73,2.28-1.08,3.42a2.28,2.28,0,0,0,1.83,3.16c1.95.34,4.23.69,5.93,0,2-.82,2.78-.39,3.6,1.19-.39.28-.78.81-1.16.8-2.91-.07-5.83-.22-8.74-.41-1.16-.08-3,0-3.33-.54A10.55,10.55,0,0,1,57.9,90q.2-16.89.55-33.79c.05-2.7.28-5.39.47-8.08.12-1.7.75-2.9,2.77-3,4.62-.24,9.22-.71,13.84-.9,4-.16,8.07-.55,12,0,12.48,1.7,19.63,11.74,17.81,23.92-.5,3.36-3.09,6.44-4.91,9.54a25.61,25.61,0,0,1-3.11,3.61l-.13-.12ZM78.77,75.31c5.66.66,10.81-.31,15.32-4.15,1.94-1.66,2.46-2.9,1.16-5.08A2.47,2.47,0,0,1,95,64.52c.63-3.71-1.58-5.78-4.39-7.3C84.74,54,78.35,55.28,72.09,55.55c-1.51.07-2.4,1.21-2.48,2.87-.2,4.54-.51,9.08-.67,13.62-.09,2.47.64,3.18,3.11,3.26C74.29,75.37,76.53,75.31,78.77,75.31Zm-14.4,13.4.67.52c.37-.57,1-1.11,1-1.72.18-1.53.09-3.08.16-4.63.13-2.92,1.06-3.89,3.94-4s6,.36,8.78-.25c4.61-1,6.31,2.78,9.07,4.79.79.58,1.16,1.73,1.88,2.86,0-1.44-.09-2.56,0-3.67.1-.93.91-2.07.58-2.69-1-2-.39-3.27,1.25-4.53a9.18,9.18,0,0,0-2.06.4,32,32,0,0,1-6,1.42c-4.74.23-9.51.08-14.26.15-3.19,0-3.19.1-3.2-3q0-5.28,0-10.56h-.5Zm16-37.29-.06-.28c-4.3,0-8.6,0-12.9.05-.57,0-1.53.67-1.6,1.13a30.72,30.72,0,0,0-.08,4.39l.67,0,1-4.16Z"/><path class="cls-1" d="M266.63,72.45c0-8,0-16.06,0-24.08,0-1.92.45-3.85.3-5.75-.18-2.43,1.22-2.89,3.06-3,3.09-.11,6.18-.12,9.27-.22,1.56,0,2.14.55,2.17,2.19.19,11.73.5,23.47.71,35.2q.11,6-.11,12a2.3,2.3,0,0,1-1.5,1.65c-3.69.28-7.39.34-11.09.51-1.34.06-2-.48-2-1.87q0-8.33,0-16.67Zm12.75-1.73c.63-.55,1.45-.94,1.57-1.49s-.87-1-1-1.58c-.32-1.24-.88-3.49-.51-3.67,2.9-1.45,1.84-4,1.49-5.86-.66-3.45-1.13-6.76.09-10.15.13-.36,0-1.21-.17-1.24-2.42-.47-2.06-2.52-2.35-4.42a47.92,47.92,0,0,0-5.29-.43c-2.38.06-5.68,4.05-5.5,6.25.39,4.59.92,9.18,1,13.78.11,7.55,0,15.11-.19,22.66,0,2,.59,3.06,2.6,3.31,5,.63,7.39,0,7.9-2.24a21.1,21.1,0,0,0,.38-4.33C279.41,77.7,279.38,74.08,279.38,70.72Z"/><path class="cls-3" d="M169.05,91.44c-1.45-.38-2.91-.73-4.35-1.15-.34-.1-.86-.42-.88-.66-.16-2.89-2.27-2.43-4.07-2.38-6.56.18-13.12.43-19.68.61-1.73,0-3,.6-3.52,2.37-.55,2-2,2.64-3.84,2.68a33.52,33.52,0,0,1-3.47-.08c-2.43-.2-3.43-1.8-2.51-4q6.42-15.47,12.87-30.93c1.1-2.63,2.27-5.23,3.41-7.84a3.33,3.33,0,0,1,.2-.42c2.36-3.84,6.38-2.69,9.81-3.18,2.31-.33,3.65,1.06,4.53,3.11q6.06,14.1,12.2,28.17c1.19,2.73,2.39,5.48,3.8,8.1,1.7,3.17.79,5-2.79,5.17l-1.62.07Zm-40.74-.91c4.44,1.06,5,.73,7.39-2.19a6.18,6.18,0,0,1,3.9-2c7-.49,14-.65,21-1,2.28-.13,4,.41,5.23,2.5a4.54,4.54,0,0,0,6,1.1,2.1,2.1,0,0,0,.52-1.77,12.62,12.62,0,0,0-1.17-3c-3.49-6.86-7.19-13.61-10.44-20.59-2.05-4.42-3.41-9.16-5.14-13.73-.2-.53-.75-1.33-1.12-1.32-2.9.08-5.8.29-8.69.55-.34,0-.73.57-.93,1-.57,1.14-1.07,2.31-1.55,3.48Q137.66,67.33,132,81.13C130.73,84.23,129.55,87.37,128.31,90.54Z"/><path class="cls-3" d="M169.71,154.57l-.37,3.26a12.21,12.21,0,0,0-2-.19,49.07,49.07,0,0,1-6.19.49c-1.73-.1-2.59-1.48-2.6-3.27,0-5.46,0-10.93-.1-16.39-.18-6.93-.64-13.85-.76-20.78,0-1.7.26-3.9,1.31-5,1.7-1.81,4.38-1.62,6.77-1.11.53.11,1,.92,1.34,1.47.78,1.13,1.49,2.3,2.14,3.31,0,2.47-.71,5.38.16,7.69,1.46,3.9-.09,7.71,1,11.76l-1.78-.62-.54.46,2.21,3.64-.29.27-1.89-1c.35,4.63.68,8.83,1,13a2.27,2.27,0,0,1-.22,1.31C168,154.07,168.8,154.33,169.71,154.57Zm-8.65-41c.19,2.38.48,4.4.48,6.41,0,11.27-.09,22.53-.18,33.8,0,1.62.35,2.66,2.31,2.61,2.55-.06,3.31-.56,3.24-2.72-.16-4.7-.36-9.39-.56-14.09-.05-1.23-.22-2.45-.27-3.67-.26-6.9-.46-13.81-.8-20.71a2.4,2.4,0,0,0-1.33-1.82A9.08,9.08,0,0,0,161.06,113.62Z"/><path class="cls-3" d="M155.43,159.07c-.06-5.15-.18-10.3-.17-15.45,0-9.15.08-18.31.13-27.46.1,1.29.28,2.57.28,3.86q0,18.62,0,37.23A14,14,0,0,1,155.43,159.07Z"/><path class="cls-4" d="M356,19.65h16.77l.06.86-6.15.74-3,.11c-2.48-.35-5-.69-7.44-1.08a9.59,9.59,0,0,1-1.65-.57Z"/><path class="cls-2" d="M368.23,10.29l.12-.82,1.24.19,0,.3Z"/><path class="cls-1" d="M328.37,130.61a3.71,3.71,0,0,0,4.51-1.76c3.79-5.6,7.76-11.09,11.6-16.65a1.66,1.66,0,0,0,0-1.56c-1.41-1.4-.22-2.06.78-2.22a34.5,34.5,0,0,1,5.21-.07c-2.41,4.33-4.76,8.08-6.66,12.05-2.69,5.64-6.57,10.6-9.14,16.28-.6,1.34-.48,3-.74,4.51-.34,1.93-.8,3.85-1.07,5.79a34.47,34.47,0,0,0,0,4.09,8.07,8.07,0,0,1-3.15,0c-.54-.19-.77-1.68-.87-2.6-.38-3.6-.18-7.35-1.13-10.78-.8-2.87-2.81-5.44-4.45-8-3.29-5.22-6.72-10.36-10.06-15.55a23.53,23.53,0,0,1-2.2-3.95c-.16-.42.57-1.7.94-1.73a50.2,50.2,0,0,1,5.69.26c-2.65,2.23-1.18,3.64-.18,5.13s1.84,3,2.92,4.44a3,3,0,0,0,2.12.74c.48.6,2.1,1.41.32,2.76l5.29,8.65-1.44-.08-.56.32c6,5.27,4.2,12.34,5.11,18.87.5-3.76,0-7.62.81-11.2s2.8-6.83,4.31-10.28c-.19,0-.31,0-.34,0-1,1.37-1.89,2.77-2.89,4.11-1.74,2.34-2.63,2.32-4.26-.09A6.43,6.43,0,0,1,328.37,130.61Z"/><path class="cls-3" d="M356.42,64.68c-.52,9.54-4.93,16.68-13.43,21.2-2.5,1.33-5.07,2.84-7.79,3.39s-5.51.1-8.25-.2a26,26,0,0,1-18.57-10.55c-4.58-6.16-6.25-13.27-4-21,2.78-9.37,8.55-16,18.13-18.23,5.79-1.35,11.81-1.51,17.68,1,3.69,1.6,7.08,3.4,9.62,6.48C354.1,51.94,356.76,57.73,356.42,64.68Zm-2.1-.55c.83-11.6-10.38-25-25.69-24.11-12.47.72-22.87,10.83-22.69,25.41.14,10.71,10.94,23.92,27.45,22.27C342.65,86.76,355,77.57,354.32,64.13Z"/><path class="cls-4" d="M42.35,186.34h.91v0h-.91Z"/><path class="cls-1" d="M61.15,141.1c-2-5.63-.11-10.76,2.31-15.69a26.81,26.81,0,0,1,9.86-10.47c6.76-4.41,19.45-4.1,25.34.79-.85,2.82-2.6,3.7-5.37,2.94-7.26-2-14.08-1.41-20,3.82s-7.35,11.24-5,18.41a27.7,27.7,0,0,0,4.33,7.76,10.61,10.61,0,0,0,8.89,4.07,52.84,52.84,0,0,0,9.59-1.1c2-.4,3.12.11,3.78,1.92a6,6,0,0,0,.23.89c1.41,2.49,1.4,2.46-1.48,3.23-2.29.62-4.54,1.81-6.83,1.87-3,.07-6.1-.76-9.16-1.12-4.48-.52-7.71-3.18-10.88-6-2.52-2.27-3.56-5.29-4.6-8.34-.34-1-.7-2-1-3Z"/><path class="cls-1" d="M61.13,141.08l-.14.34.15-.32Z"/><path class="cls-3" d="M221.23,42.6a33.46,33.46,0,0,1,14,2.52C239,46.61,240.9,50,243.14,53c4.1,5.51,4.61,11.79,3.73,18.31-1.2,8.84-7,14.92-15.94,17.09a57.59,57.59,0,0,1-17.67,1.87c-3.22-.22-6.47,0-9.71,0-1.51,0-2.45-.55-2.52-2.28-.19-4.77-.53-9.54-.72-14.31-.3-7.86-.53-15.73-.79-23.59,0-.15,0-.31,0-.46.11-5.33.59-5.73,6-6C210.76,43.34,216,42.93,221.23,42.6ZM203.42,88.49a16.29,16.29,0,0,0,2.15.26c6-.19,12-.13,18-.7,9.17-.86,16.63-4.59,19.8-14,1.85-5.52,3-11.08-1.78-15.93a1.36,1.36,0,0,1-.24-1.26c1.74-2.68-.53-4.19-1.84-5.75-4-4.82-9.57-6.51-15.62-6.4-6.94.13-13.87.57-20.79,1a2.18,2.18,0,0,0-1.67,1.13c-.17.74.27,1.61.54,2.8-1,1.06-1.41,3.19,0,4.29,1.72,1.38,1.48,2.84,1.49,4.47,0,3.47,0,6.95,0,10.42C203.42,75.32,203.42,81.86,203.42,88.49Z"/><path class="cls-3" d="M261.62,118.05c-6.16.3-11.46.53-16.76.89a2,2,0,0,0-1.3,1.38c-.1,3.21-.11,6.44,0,9.65.08,1.71.71,3.38.83,5.09a6,6,0,0,1-.69,2.84,2.05,2.05,0,0,1-1.49.5,5.23,5.23,0,0,1-1.1-2.56c.19-5.33.53-10.66.83-16,.12-2.13,1.43-3,3.39-3,3.71-.05,7.42,0,11.13-.12,1.69,0,3.55.32,2.93-2.82-.57-2.9-.11-3.07-3.31-3q-18.2.21-36.4.54c-2.71,0-3,.65-1.83,3a10.35,10.35,0,0,1,.43,2.9c.86,0,1.82.12,2.79.13,3.48,0,7,0,10.44,0,1.85,0,3.28.61,3.52,2.8s.82,4.09.87,6.15q.33,13.35.41,26.71c0,1.91,1,2.21,2.49,2.11s3.33.59,3.32-2c0-3.77-.07-7.54,0-11.31a6.83,6.83,0,0,1,.79-2.1,7.13,7.13,0,0,1,.93,2.25c.14,3.88,0,7.78.25,11.64.14,2-1.14,2.67-2.36,3.15a12,12,0,0,1-4.32.55c-2.66,0-3.65-1.14-3.75-3.86-.25-6.55-.6-13.1-.77-19.65-.07-2.92.3-5.85.29-8.78a36.36,36.36,0,0,0-.73-3.88c-.06-.48.33-1,.73-2.14-2.42,0-4.59,0-6.76,0-2.77.06-5.54.2-8.31.27a2.32,2.32,0,0,1-1.11-.24c-1.61-.86-2.71-4.5-1.61-7.22a4.7,4.7,0,0,1,3.58-2.21c13.06-.23,26.13-.27,39.2-.3,2.68,0,3.3.68,3.4,3.29C261.68,114.53,261.62,116.42,261.62,118.05Z"/><path class="cls-3" d="M71.83,94.76c-.82-1.58-1.63-2-3.6-1.19-1.7.71-4,.35-5.93,0a2.28,2.28,0,0,1-1.83-3.16c.35-1.14.72-2.28,1.08-3.42,2,.7.39,2.09.54,3.13.27,1.84,1.53,1.94,2.89,1.9s2.84.5,3-1.78a17.62,17.62,0,0,1,1.21-6,5.12,5.12,0,0,1,3.42-2.55c2.33-.3,4.76.31,7.14.27,4.49-.07,6.24,3.32,7.88,6.43s3,4.12,6.36,3.4c1.45-.31,1.9-.87,1.08-2.43A27.59,27.59,0,0,1,92.64,83a4.6,4.6,0,0,1,.94-3.28,22.94,22.94,0,0,1,3.48-3.37c4.61-4.08,5.77-9.1,4-14.85a11.25,11.25,0,0,0-1.9-3.1C95,52.76,89.92,49,82.29,49.58a128.69,128.69,0,0,1-15.51-.2c-2.42-.11-3.16,1-3.23,3.1-.13,3.7-.24,7.4-.42,11.1Q62.62,74.44,62,85.29c0,.28-.18.56-.94,1.08a5.92,5.92,0,0,1-.77-2c.07-3.24.25-6.48.44-9.71.43-7.55.9-15.1,1.33-22.65.17-2.92,1.37-4.3,4.24-4.25,7.34.12,14.69.13,22,.64,9.07.63,17.18,10.56,16.43,17.46-.57,5.24-3.18,9.23-7,12.61-1.19,1.06-2.46,2-3.68,3,1.66,2.39,3.2,4.48,4.59,6.67s.65,4.13-1.73,4.61a36.83,36.83,0,0,1-7.77.85c-1,0-2.14-1.19-2.81-2.13-1.47-2.05-2.61-4.33-4-6.43a2.79,2.79,0,0,0-1.89-1c-2.69-.21-5.4-.26-8.1-.35-1.36,0-2.2.93-1.23,1.77,1.37,1.18,1.05,2.45,1,3.75,0,1.84-.23,3.68-.36,5.53Z"/><path class="cls-3" d="M78.77,75.31c-2.24,0-4.48.05-6.72,0-2.47-.07-3.2-.79-3.11-3.26.16-4.54.47-9.08.67-13.62.07-1.65,1-2.8,2.48-2.87,6.25-.27,12.65-1.54,18.56,1.67,2.81,1.52,5,3.6,4.39,7.3a2.47,2.47,0,0,0,.21,1.56c1.31,2.18.79,3.42-1.16,5.08C89.59,75,84.43,76,78.77,75.31ZM90,59.79C89,59,87.92,57.68,86.8,57.61c-4.6-.32-9.22-.26-13.84-.31-1.51,0-1.59,1-1.62,2.23q-.13,6.24-.41,12.47c-.06,1.34.62,1.55,1.69,1.54,4,0,8,.13,12-.12a11.22,11.22,0,0,0,5-1.67c4.25-2.62,4.62-8.72.86-11.47Z"/><polygon class="cls-6" points="97.33 81.25 97.19 81.14 97.33 81.26 97.33 81.25"/><path class="cls-3" d="M279.38,70.72c0,3.36,0,7,0,10.6a21.1,21.1,0,0,1-.38,4.33c-.51,2.26-2.94,2.87-7.9,2.24-2-.26-2.64-1.34-2.6-3.31.15-7.55.31-15.11.19-22.66-.07-4.6-.6-9.19-1-13.78-.19-2.2,3.12-6.19,5.5-6.25a47.92,47.92,0,0,1,5.29.43c.29,1.91-.07,4,2.35,4.42.14,0,.3.87.17,1.24-1.22,3.39-.75,6.69-.09,10.15.35,1.84,1.41,4.41-1.49,5.86-.36.18.2,2.43.51,3.67.15.59,1.12,1.16,1,1.58S280,70.16,279.38,70.72Zm-6.22-24.24c-2.12.22-2.24,1.73-2.22,3.37q.22,16.66.43,33.32c0,2.81.43,3.17,3.26,3.13,2.62,0,3.14-.6,3.08-3.38-.14-5.86-.33-11.71-.42-17.57-.09-5.6-.06-11.21-.11-16.81,0-1.44.22-3-.26-4.28s-5.11-.5-5.78.72l2,1.51Z"/><path class="cls-1" d="M128.31,90.54c1.24-3.17,2.42-6.31,3.69-9.41q5.64-13.81,11.33-27.59c.48-1.18,1-2.35,1.55-3.48.19-.39.59-.93.93-1,2.89-.26,5.79-.47,8.69-.55.37,0,.92.79,1.12,1.32,1.72,4.57,3.08,9.31,5.14,13.73,3.24,7,7,13.73,10.44,20.59a12.62,12.62,0,0,1,1.17,3,2.1,2.1,0,0,1-.52,1.77,4.54,4.54,0,0,1-6-1.1c-1.26-2.09-2.94-2.63-5.23-2.5-7,.39-14,.55-21,1a6.18,6.18,0,0,0-3.9,2C133.27,91.27,132.76,91.6,128.31,90.54Zm16.36-29.67-3.35,5.35,1,.5,2.3-5.87.53-.59-.36-.14Zm16.1,17.43a3.06,3.06,0,0,0,0-.82c-2.2-6.29-4.31-12.62-6.66-18.86-1.13-3-3.66-3.17-5.55-.58A29.74,29.74,0,0,0,146,62.16c-2.14,4.24-4.34,8.46-6.24,12.8-.92,2.11.18,3.62,2.43,4,2,.31,4.08.42,6.1.74C152.55,80.33,156.59,79.59,160.77,78.29ZM140,68.46l-.58-.23a109.34,109.34,0,0,0-7.35,19.26c.92-.7,1.2-1.76,1.86-2.48.86-.94,2-2.24,3.06-2.3,8.93-.49,17.88-.73,26.82-1,1.32,0,2.18.33,2.1,2-.08,1.47,1.79,2.68,3.52,2.35l-5.6-12.34-.73.23L164.69,80c-9.72.76-19.18,1.71-29.11.31Z"/><path class="cls-1" d="M161.06,113.62a9.08,9.08,0,0,1,2.89-.19,2.4,2.4,0,0,1,1.33,1.82c.34,6.9.54,13.81.8,20.71,0,1.23.21,2.45.27,3.67.2,4.7.41,9.39.56,14.09.07,2.16-.68,2.66-3.24,2.72-2,0-2.32-1-2.31-2.61.08-11.27.16-22.53.18-33.8C161.54,118,161.25,116,161.06,113.62Z"/><path class="cls-1" d="M354.32,64.13c.65,13.44-11.67,22.63-20.93,23.56-16.5,1.66-27.31-11.55-27.45-22.27-.19-14.58,10.22-24.69,22.69-25.41C343.94,39.13,355.15,52.53,354.32,64.13ZM322,51.2c.3-.62.43-1.48.92-1.83,2.73-2,5.77-1.37,8.85-1,8.92,1,15.33,10,12.87,19.79-1.65,6.61-8.68,11.22-15.34,11.64-1.21.08-2.41.13-3.62.19l-.09,1c1,.3,2.25,1.09,3.09.8,4.12-1.42,9.2-.55,12.18-4.86a1.48,1.48,0,0,1,1.18-.6c2.52.7,3.09-1.36,3.78-2.83a22,22,0,0,0,1.46-5c1.6-7.92-1.12-15.66-7.45-19.48-5.9-3.55-12.35-3.61-18.84-1.38C310,51.33,307.16,66.8,313.34,74.3a21.8,21.8,0,0,0,9.22,6.33,6,6,0,0,0,2,0l.27-.83c-1.6-.9-3.14-1.92-4.81-2.67-3.45-1.54-7.39-7.45-7.37-11.09a17.7,17.7,0,0,1,7.15-14.28,5.72,5.72,0,0,1,2.09-.57,23.7,23.7,0,0,1-1.69,1.73c-5.18,4.34-7,10.19-3.66,16.38A14.73,14.73,0,0,0,332.76,77c6.13-1.24,11.34-7.58,11.14-13.34-.37-10.82-12.14-16.88-20.39-12.73A5.74,5.74,0,0,1,322,51.2ZM343.89,80.7l-.38-1A21.81,21.81,0,0,1,341,80.77c-1.24.38-2.86,1.24-3.71.78-1.73-.95-3-.06-4,.65-2.58,1.88-4.86,2.16-7.59.42a3.69,3.69,0,0,0-1.65-.51c-2.9-.22-5.88-.15-8-2.78-.17-.21-.77-.09-1.27-.12a3.12,3.12,0,0,0,.24.85,2.31,2.31,0,0,0,.67.61c4.38,2.63,8.85,4.76,14.19,4.79,2.85,0,5.4.23,7.87-1.72C339.57,82.37,341.86,81.69,343.89,80.7Zm1.3-2.35.06.18a2.63,2.63,0,0,0,.31-.17s0-.11,0-.17Z"/><path class="cls-1" d="M203.42,88.49c0-6.63,0-13.17,0-19.71,0-3.47,0-6.95,0-10.42,0-1.63.23-3.09-1.49-4.47-1.37-1.1-.93-3.23,0-4.29-.26-1.19-.7-2.06-.54-2.8a2.18,2.18,0,0,1,1.67-1.13c6.93-.39,13.86-.83,20.79-1,6-.11,11.58,1.58,15.62,6.4,1.31,1.56,3.57,3.07,1.84,5.75a1.36,1.36,0,0,0,.24,1.26c4.79,4.85,3.63,10.41,1.78,15.93-3.17,9.43-10.63,13.15-19.8,14-6,.56-12,.5-18,.7A16.29,16.29,0,0,1,203.42,88.49ZM234.69,79c1.24-2.26,2.51-4.5,3.71-6.78s-2.16-5.14.83-7.27c.08-.06-.06-.44-.12-.66-1.84-7.14-8.37-14.78-17.06-14.2-3.16.21-6.33.1-9.5.2-3.4.11-4.28.75-4.6,4.19s-.25,6.94-.25,10.41a6.38,6.38,0,0,0,.72,2l1.63-1.59,1.42.76c-.09-1.11-.09-1.84-.21-2.56-.5-3-1.09-6-1.47-9-.06-.46.84-1.46,1.34-1.49,4.72-.27,9.45-.38,14.17-.52.14,0,.3.25.59.51l-2.34.74,2.86,1.64H212.24v22.6c4-.19,7.87,0,11.57-.63,6.28-1.06,12.06-7.53,9.79-14.67a15.49,15.49,0,0,1-.37-2.24c1.88,1.94,2.88,8.37,1.33,10.64-2.54,3.72-5.51,7.2-10.31,7.82a112.29,112.29,0,0,1-12.21.69c-1.81,0-3.06-.73-2.81-3.05a49.24,49.24,0,0,0,0-6.71,5,5,0,0,0-.43-1.34l-.57,0c-.14.85-.35,1.69-.42,2.55-.13,1.45.15,3-.32,4.35-1.2,3.35.06,5.64,3.56,5.68,3.94,0,7.89.09,11.81-.18a23.48,23.48,0,0,0,5.91-1.55,47.34,47.34,0,0,0,4.54-2.11l.9,1.1a11.33,11.33,0,0,0-1.72.65q-2.8,1.61-5.54,3.33c-.15.09,0,.61,0,.93-6.73.38-13.47.8-20.21,1.06-.42,0-1.12-1.07-1.28-1.74a20.18,20.18,0,0,1-.27-3.43l-1.05.1.64,6.44a8.31,8.31,0,0,0,1.4.18c8-.59,16,.51,23.9-2a9,9,0,0,0,5-3.33C235.23,80.22,234.82,79.5,234.69,79Zm-7.91-30.75,0-.59a25.8,25.8,0,0,0-3.49-.5c-4.31,0-8.62,0-12.93,0a45.4,45.4,0,0,0-5.06.32c-.44.06-.82.66-1.23,1,.48.22,1,.65,1.45.63,6.36-.26,12.72-.59,19.08-.9C225.35,48.21,226.07,48.24,226.78,48.24Zm12.27,5.34c.91-2.1-6.19-6.34-9.68-6Zm-32-3.11-2.85-.36v4.45Z"/><path class="cls-1" d="M90.48,60.27c3.76,2.75,3.39,8.85-.86,11.47a11.22,11.22,0,0,1-5,1.67c-4,.25-8,.1-12,.12-1.07,0-1.76-.21-1.69-1.54q.29-6.23.41-12.47c0-1.19.1-2.24,1.62-2.23,4.62,0,9.24,0,13.84.31C87.92,57.68,89,59,90,59.79l-.31.35c-1.69-.65-3.35-1.7-5.09-1.87-3-.3-6.15,0-9.23-.07-1.27,0-2.2.39-2.22,1.75-.06,3.71,0,7.42,0,11.1H83.82a1.67,1.67,0,0,0,.46,0,15.46,15.46,0,0,0,3-1c3.55-2,4.58-5.29,2.81-9.46Z"/><path class="cls-1" d="M90,59.79l.45.48-.39.33-.38-.47Z"/><path class="cls-1" d="M273.16,46.48l-2-1.51c.67-1.22,5.29-2,5.78-.72s.24,2.84.26,4.28c0,5.6,0,11.21.11,16.81.09,5.86.29,11.71.42,17.57.06,2.78-.46,3.34-3.08,3.38-2.83,0-3.22-.32-3.26-3.13q-.22-16.66-.43-33.32c0-1.64.1-3.15,2.22-3.37.18,7.66.39,15.32.54,23,.09,4.24.09,8.49.17,12.73a11.79,11.79,0,0,0,.43,2.12l.78-.05a15.89,15.89,0,0,0,.23-2.07q-.26-16.66-.56-33.32a4,4,0,0,0-.3-1.8C274.28,46.73,273.61,46.67,273.16,46.48Z"/><path class="cls-3" d="M160.77,78.29c-4.18,1.3-8.23,2-12.45,1.38-2-.32-4.08-.42-6.1-.74-2.25-.35-3.35-1.86-2.43-4,1.9-4.35,4.1-8.57,6.24-12.8A29.74,29.74,0,0,1,148.55,58c1.9-2.59,4.43-2.4,5.55.58,2.35,6.24,4.47,12.56,6.66,18.86A3.06,3.06,0,0,1,160.77,78.29ZM147.9,66.89v0l-1.85,5.59h0l-.91,1.63v.87l-.87,1.13a5.26,5.26,0,0,0,1.57.8,53.47,53.47,0,0,0,8.68.82c3.77-.16,5-1,3.09-4.53-.43-.81-.63-1.75-1.07-2.56-1.64-3-1.52-7-5.08-9a3.27,3.27,0,0,0,.46-1c.05-.76,0-1.52,0-2.28-.74.36-1.93.56-2.14,1.13a18.24,18.24,0,0,0-.59,4h0Z"/><path class="cls-3" d="M144.64,60.84l-2.3,5.87-1-.5,3.35-5.35Z"/><path class="cls-3" d="M144.67,60.87l.14-.76.36.14-.53.59Z"/><path class="cls-6" d="M345.2,78.35l.32-.16c0,.06.06.16,0,.17a2.63,2.63,0,0,1-.31.17Z"/><path class="cls-3" d="M227.9,55.32h-1.47l-2.86-1.64,2.34-.74c-.3-.26-.45-.51-.59-.51-4.73.14-9.45.25-14.17.52-.5,0-1.4,1-1.34,1.49.38,3,1,6,1.47,9,.12.72.12,1.45.21,2.56l-1.42-.76-1.63,1.59a6.38,6.38,0,0,1-.72-2c0-3.47-.07-7,.25-10.41s1.2-4.08,4.6-4.19c3.17-.1,6.34,0,9.5-.2,8.69-.58,15.22,7.06,17.06,14.2.06.22.2.6.12.66-3,2.13.38,5-.83,7.27s-2.47,4.52-3.71,6.78l0,0-1.1,1.16-.07.06-.48.35-6.1,2.68c0-.32-.12-.84,0-.93q2.73-1.73,5.54-3.33a11.33,11.33,0,0,1,1.72-.65l-.9-1.1a47.34,47.34,0,0,1-4.54,2.11,23.48,23.48,0,0,1-5.91,1.55c-3.92.28-7.87.23-11.81.18-3.5,0-4.76-2.33-3.56-5.68.47-1.32.2-2.89.32-4.35.08-.86.28-1.7.42-2.55l.57,0a5,5,0,0,1,.43,1.34,49.24,49.24,0,0,1,0,6.71c-.26,2.33,1,3.09,2.81,3.05a112.29,112.29,0,0,0,12.21-.69c4.8-.62,7.77-4.1,10.31-7.82,1.54-2.26.55-8.69-1.33-10.64h0l-.44-.49h0l-1.13-1.65,0,0-.4-.4-.05,0-1.81-1.34,0,0Z"/><path class="cls-3" d="M239.05,53.58l-9.68-6C232.86,47.24,240,51.47,239.05,53.58Z"/><path class="cls-1" d="M149.21,63.57a18.24,18.24,0,0,1,.59-4c.21-.56,1.4-.76,2.14-1.13,0,.76,0,1.52,0,2.28a3.27,3.27,0,0,1-.46,1c3.56,1.93,3.44,5.92,5.08,9,.44.81.64,1.75,1.07,2.56,1.89,3.58.68,4.37-3.09,4.53a53.47,53.47,0,0,1-8.68-.82,5.26,5.26,0,0,1-1.57-.8l.87-1.13,10.56-.46L150.5,62.57Z"/><path class="cls-1" d="M147.9,66.87c.06,2.09.22,4.21-1.85,5.59Z"/><path class="cls-1" d="M149.23,63.59l-1.33,3.3Z"/><path class="cls-1" d="M146.06,72.45l-.91,1.63Z"/><path class="cls-1" d="M229.39,56.43l1.81,1.34Z"/><path class="cls-1" d="M231.67,58.25l1.13,1.65Z"/><path class="cls-1" d="M227.9,55.32l1.47,1.08Z"/><path class="cls-1" d="M232.8,59.91l.44.49Z"/><path class="cls-1" d="M231.25,57.81l.4.4Z"/><path class="cls-1" d="M234.67,79l-1.1,1.16Z"/><path class="cls-1" d="M233.49,80.19l-.48.35Z"/></g></g></svg>