<svg xmlns="http://www.w3.org/2000/svg" viewBox="0 0 829.36 311.32"><defs><style>.cls-1{fill:#aecfd5;}.cls-2{fill:#2690b9;}.cls-3{fill:#9999b1;}.cls-4{fill:#303260;}.cls-5{fill:#9999b2;}.cls-6{fill:#313360;}</style></defs><title>Asset 2</title><g id="Layer_2" data-name="Layer 2"><g id="Layer_1-2" data-name="Layer 1"><path class="cls-1" d="M706.14,188.94l-9.59,10c-.25,0-.5,0-.75,0H4.44c-.92,0-1.83,0-2.75.07,1.43-3.74,2.64-7.59,4.36-11.2,1.17-2.45,3.06-4.55,4.63-6.8-.13,2.08,1.49,1.13,2.26,1.13,26.49.06,53-.22,79.47.14,18.19.24,35.54-17,37.49-32.51,1.34-10.65-6.28-19.9-16.71-19.87-8.58,0-17.17.26-25.74,0a25.5,25.5,0,0,0-13.57,3.25c-4.35,2.4-8.84,4.55-13.27,6.81a21,21,0,0,1,3.09-2.53,317.49,317.49,0,0,1,42.27-19c15.22-5.62,30.7-10.37,46.7-13.15a125.76,125.76,0,0,1,21-2.19c60.83-.19,121.65-.12,182.48-.17,7.9,0,15.8-.22,23.7-.44a12.3,12.3,0,0,0,3.23-1l-1.19,2.43c.44,0,.76.09,1.08.09q40.58,0,81.16,0a10,10,0,0,0,2.95-1q52.73,0,105.46.08,35.59.09,71.18.47a7.83,7.83,0,0,0,6-2.38c11.09-10.55,22.28-21,33.46-31.43,6.74-6.3,13.54-12.55,20.29-18.84q18.89-17.6,37.77-35.22c5.23-4.87,10.5-9.7,15.85-14.45A5.07,5.07,0,0,1,760.16,0q33.36-.1,66.73,0c.64,0,1.29.09,2.48.19-1.83,3.12-3.46,5.95-5.14,8.74Q807.94,36.1,791.62,63.25,778.76,84.63,765.85,106q-10.93,18-22,35.94c-1.79,2.89-3.93,5.57-5.86,8.38a12.76,12.76,0,0,0-1,2.21,7.82,7.82,0,0,0-2,1.32c-5.75,7.29-11.34,14.71-17.19,21.91C714.13,180.3,710,184.55,706.14,188.94ZM186.07,157a13.1,13.1,0,0,0-13-13.05,13.15,13.15,0,1,0,0,26.31A13,13,0,0,0,186.07,157Zm55.5.15a13.07,13.07,0,0,0-13.12-13.2,13.15,13.15,0,0,0-.07,26.31A13,13,0,0,0,241.57,157.14ZM382,157a13.07,13.07,0,1,0,26.15.19A13.07,13.07,0,1,0,382,157Zm-111.08.19A13.08,13.08,0,1,0,284,143.95,13,13,0,0,0,270.91,157.15Zm303.73-.1a13.07,13.07,0,1,0-13,13.2A13,13,0,0,0,574.64,157.05Zm-81.65,0a13.08,13.08,0,1,0,13.19-13.12A13,13,0,0,0,493,157.07ZM463.64,157a13.07,13.07,0,1,0-13,13.23A13.09,13.09,0,0,0,463.64,157Zm-137.15,0a12.92,12.92,0,0,0,13,13.25,13.15,13.15,0,1,0-13-13.25Z"/><path class="cls-2" d="M1.69,199.07c.92,0,1.83-.07,2.75-.07H695.8c.25,0,.5,0,.75,0-.07.44,0,1-.25,1.29C669.86,226,640.48,246.8,604,255.83a104.7,104.7,0,0,1-25.69,3.1c-36.65-.14-73.29,0-109.94,0H420.73l-48.15.05c-1.17,0-2.33-.08-3.5-.08-80.38,0-160.77.4-241.15-.21-30.15-.23-60.1-4-88.94-13.74-10.22-3.44-19.89-8-28.27-15C.8,221.61-2.3,211.4,1.69,199.07Z"/><path class="cls-3" d="M467.08,102.94a10,10,0,0,1-2.95,1q-40.58.07-81.16,0c-.32,0-.63-.05-1.08-.09l1.19-2.43,1-1,3-2.54,1-1,3-2.54,1-1,3-2.54.5-.47,3-2.54,1-1,3-2.54,1-1,3-2.53,1-1,3-2.54.5-.47,3-2.54,1-1,3-2.54,1-1,3-2.53,1-1,3-2.54.5-.47,3-2.54,1-1,3-2.54,1-1,3-2.53,1-1,3-2.54.5-.47,3-2.54,1-1,3-2.54,1-1,3-2.53,1-1,3-2.54.5-.47,3-2.54,1-1,3-2.54,1-1,3-2.54.48-.48H518c-2.65,4.1-5.24,8.23-8,12.28q-21,31.24-42,62.46C467.67,101.75,467.4,102.36,467.08,102.94Z"/><path class="cls-4" d="M60.61,140c4.43-2.26,8.92-4.41,13.27-6.81a25.5,25.5,0,0,1,13.57-3.25c8.57.28,17.16,0,25.74,0,10.43,0,18,9.22,16.71,19.87-2,15.55-19.31,32.76-37.49,32.51-26.48-.36-53-.08-79.47-.14-.76,0-2.39,1-2.26-1.13v0l.45-.56h0l.49-.53h0l.48-.55L14,177.33l.7-.78-.11-.11.1.12.5-.5-.08-.12.09.12.93-1.08h0l.51-.51h0l.51-.51h0l.51-.51h0l.53-.52,4.46-4.46.52-.53h0l2.33-2.13L28.59,163l1.9-1.62,1.6-1.39,2-1.59,1.07-.87,1.41-1.14.55-.42,2-1.55.54-.39,1.46-1.11.54-.39,1.46-1.09h0l2-1.47h0l1.48-1h0l1.48-1h0l6-4h0l1.54-1h0l2.48-1.53h0L60.61,140Z"/><path class="cls-5" d="M372.58,258.95l48.15-.05h47.65c.94,1.55,1.81,3.14,2.84,4.63q15.41,22.27,30.84,44.52c.59.85,1,1.82,1.69,3.07-1.14.09-1.84.2-2.54.2-18.58,0-37.16,0-55.75-.06a7.45,7.45,0,0,1-4-1.46q-33.62-24.48-67.14-49.1A14.65,14.65,0,0,1,372.58,258.95Z"/><path class="cls-5" d="M706.14,188.94c3.91-4.39,8-8.64,11.7-13.2,5.85-7.2,11.44-14.62,17.19-21.91a7.82,7.82,0,0,1,2-1.32l.58.91.44.56h0l.57.94h0l.45.55h0l.56,1h0l.46.54h0l.56,1h0l.46.55h0l.57,1h0l.46.54h0l.43.54v0l.59.93c4.09,5.86,8.2,11.71,12.25,17.6q9.92,14.39,19.76,28.82c.62.91,1,1.94,1.78,3.31-1.34.07-2.13.15-2.93.15-12.67,0-25.33.05-38-.06a7.73,7.73,0,0,1-4.26-1.5c-8.19-6.14-16.3-12.4-24.38-18.69C706.74,190.61,706.52,189.66,706.14,188.94Z"/><path class="cls-1" d="M518,26.47H469.07c1-.49,1.9-1.4,2.86-1.4C486.66,25,501.38,25,516.11,25,517.12,25,518.25,24.85,518,26.47Z"/><path class="cls-1" d="M54.09,144l-6,4Z"/><path class="cls-1" d="M468.59,26.95l-3,2.54Z"/><path class="cls-1" d="M464.59,30.44l-3,2.54Z"/><path class="cls-1" d="M387.09,97.94l-3,2.54Z"/><path class="cls-1" d="M391.09,94.45l-3,2.54Z"/><path class="cls-1" d="M395.09,90.94l-3,2.54Z"/><path class="cls-1" d="M460.58,33.94l-3,2.54Z"/><path class="cls-1" d="M457.09,36.94l-3,2.54Z"/><path class="cls-1" d="M453.09,40.45l-3,2.53Z"/><path class="cls-1" d="M449.09,43.94l-3,2.54Z"/><path class="cls-1" d="M445.08,47.44l-3,2.54Z"/><path class="cls-1" d="M441.59,50.44l-3,2.54Z"/><path class="cls-1" d="M437.59,53.95l-3,2.53Z"/><path class="cls-1" d="M433.59,57.44l-3,2.54Z"/><path class="cls-1" d="M429.58,60.94l-3,2.54Z"/><path class="cls-1" d="M426.09,63.94l-3,2.54Z"/><path class="cls-1" d="M398.58,87.94l-3,2.54Z"/><path class="cls-1" d="M402.59,84.44l-3,2.54Z"/><path class="cls-1" d="M406.59,80.95l-3,2.53Z"/><path class="cls-1" d="M410.59,77.44l-3,2.54Z"/><path class="cls-1" d="M414.08,74.44l-3,2.54Z"/><path class="cls-1" d="M422.09,67.45l-3,2.53Z"/><path class="cls-1" d="M418.09,70.94l-3,2.54Z"/><path class="cls-1" d="M25.44,165.86,23.11,168Z"/><path class="cls-1" d="M60.61,140l-2.52,1.49Z"/><path class="cls-1" d="M58.1,141.47,55.62,143Z"/><path class="cls-1" d="M45.1,150l-2,1.47Z"/><path class="cls-1" d="M30.49,161.38,28.59,163Z"/><path class="cls-1" d="M34,158.41l-2,1.59Z"/><path class="cls-1" d="M39.08,154.43l-2,1.55Z"/><path class="cls-1" d="M48.05,147.93l-1.48,1Z"/><path class="cls-1" d="M36.53,156.4l-1.41,1.14Z"/><path class="cls-1" d="M46.57,148.95l-1.48,1Z"/><path class="cls-1" d="M43.07,151.45l-1.46,1.09Z"/><path class="cls-1" d="M41.08,152.93,39.61,154Z"/><path class="cls-1" d="M55.62,143l-1.54,1Z"/><path class="cls-1" d="M16.11,175l-.93,1.08Z"/><path class="cls-1" d="M739.6,156.42l-.56-1Z"/><path class="cls-1" d="M738.6,154.93,738,154Z"/><path class="cls-1" d="M740.61,157.91l-.56-1Z"/><path class="cls-1" d="M741.62,159.4l-.57-1Z"/><path class="cls-1" d="M14.69,176.55l-.7.78Z"/><path class="cls-1" d="M743.1,161.44l-.59-.93Z"/><path class="cls-1" d="M11.14,180.5l-.45.56Z"/><path class="cls-1" d="M11.62,180l-.49.53Z"/><path class="cls-1" d="M12.08,179.44l-.48.55Z"/><path class="cls-1" d="M15.18,176.06l-.5.5Z"/><path class="cls-1" d="M16.62,174.48l-.51.51Z"/><path class="cls-1" d="M17.12,174l-.51.51Z"/><path class="cls-1" d="M17.62,173.48l-.51.51Z"/><path class="cls-1" d="M18.13,173l-.53.52Z"/><path class="cls-1" d="M23.12,168l-.52.53Z"/><path class="cls-1" d="M742.5,160.48l-.43-.54Z"/><path class="cls-1" d="M742.07,159.94l-.46-.54Z"/><path class="cls-1" d="M738,154l-.44-.56Z"/><path class="cls-1" d="M741.06,158.46l-.46-.55Z"/><path class="cls-1" d="M740.05,157l-.46-.54Z"/><path class="cls-1" d="M739,155.46l-.45-.55Z"/><path class="cls-6" d="M186.07,157A13,13,0,0,1,173,170.25a13.15,13.15,0,1,1,0-26.31A13.1,13.1,0,0,1,186.07,157Z"/><path class="cls-6" d="M241.57,157.14a13,13,0,0,1-13.19,13.11,13.15,13.15,0,0,1,.07-26.31A13.07,13.07,0,0,1,241.57,157.14Z"/><path class="cls-6" d="M382,157a13.07,13.07,0,1,1,13,13.29A13,13,0,0,1,382,157Z"/><path class="cls-6" d="M270.91,157.15a13.08,13.08,0,1,1,13.19,13.1A13.11,13.11,0,0,1,270.91,157.15Z"/><path class="cls-6" d="M574.64,157.05a13.07,13.07,0,1,1-26.15,0,13.07,13.07,0,1,1,26.15,0Z"/><path class="cls-6" d="M493,157.07a13.08,13.08,0,1,1,26.15.22,13.07,13.07,0,0,1-26.15-.22Z"/><path class="cls-6" d="M463.64,157a13.08,13.08,0,1,1-13.24-13.07A13,13,0,0,1,463.64,157Z"/><path class="cls-6" d="M326.49,157a13,13,0,0,1,13.21-13.05,13.15,13.15,0,0,1-.23,26.31A12.92,12.92,0,0,1,326.49,157Z"/></g></g></svg>