<svg xmlns="http://www.w3.org/2000/svg" viewBox="0 0 232.97 96.28"><defs><style>.cls-1{fill:#0a7c2d;}.cls-2{fill:#565655;}.cls-3{fill:#454545;}.cls-4{fill:#c1c1c1;}.cls-5{fill:#d1d1d1;}.cls-6{fill:#f8f8f8;}.cls-7{fill:#eaeaea;}.cls-8{fill:#185431;}.cls-9{fill:#868686;}</style></defs><title>Asset 3</title><g id="Layer_2" data-name="Layer 2"><g id="Layer_1-2" data-name="Layer 1"><path class="cls-1" d="M218,29.46c5,.57,6.77,3.87,7.15,8.37a71.83,71.83,0,0,1,.61,8.87,6.86,6.86,0,0,1-2,4.52c-.57.49-2.7-.77-4.09-1.32-1.58-.62-3.12-1.9-4.68-1.91-18.33-.14-36.65,0-55-.14-3.12,0-4.12,1.12-4,4.09a44,44,0,0,1-.52,6.18l-.94-.11L155,48.6a10.72,10.72,0,0,0-2.1-.61c-26.49,0-53,0-79.47-.1-3.06,0-4.6,1.62-4.26,4.21.57,4.27-2.6,9.52,2.93,12.63a2.12,2.12,0,0,0,1,.12q17.28,0,34.55,0c1,0,2-.3,3-.32,5.38-.12,10.76-.25,16.13-.27s10.75.12,16.12.17c6.59.06,13.19.19,19.78.11,5.44-.07,10.89-.41,16.33-.63-.74,2.69-1.31,5.45-2.27,8.06-1.36,3.7-3.65,5.81-8.16,5.75-17.15-.24-34.3-.1-51.45-.1-17,0-34-.06-51,0-3.14,0-5.76-.64-6.81-3.75S57.78,67.56,57,64.36c1.35-5.78,6.74-4.77,10.78-6.07.1-1.36.24-2.49.26-3.63.14-6.74.13-6.74-6.65-6.74H17.08a4.15,4.15,0,0,0-.18-1c0-1.9,2.31-4.66-1.83-5.09l-2,0,.09-1.72C28.5,32.8,45.05,31,61.73,29.76l2.17,2.19,21.18,0,31.17-.22,35.41.06h27.22v-.68l-2.79-.13a33.09,33.09,0,0,1,5.12-.89C193.48,29.79,205.75,29.64,218,29.46Zm-86.47,9.71c4.1,4.09,10.3,3.91,14.72-.25C141.49,36,136.7,35.46,131.55,39.17Z"/><path class="cls-2" d="M57,64.36c.76,3.2,1.31,6.48,2.36,9.59s3.67,3.77,6.81,3.75c17-.1,34,0,51,0,17.15,0,34.3-.13,51.45.1,4.5.06,6.8-2,8.16-5.75,1-2.61,1.53-5.37,2.27-8.06,11.68-18.88,35.79-17.6,46-.87,1,1.68,4.43,1.9,6.72,2.79.11,10.08-2.17,13.85-9.71,16,0-2.49.08-5,0-7.47-.24-7.45-6.37-15.27-13.28-17.41-9.76-3-17.64.63-22.65,6.84s-4.7,13.47-3,20.8c-9,.08-17.93.22-26.89.22q-52.08,0-104.16-.15c.34-3.6,1.16-7.22.93-10.79a19.37,19.37,0,0,0-14.1-17.24,20.74,20.74,0,0,0-20.51,6.21c-5.86,6.55-6.11,13.87-4.27,21.76-2.11,0-4.32.48-6.31,0-4.21-1-6.43-3.69-5.26-8.31l4.33.8c.18-1.76.25-2.91.42-4C10,54.9,27.52,46.19,42.68,51.91,49.08,54.33,53,59.29,57,64.36Z"/><path class="cls-3" d="M14.11,84.62c-1.84-7.89-1.59-15.21,4.27-21.76a20.74,20.74,0,0,1,20.51-6.21A19.37,19.37,0,0,1,53,73.89c.22,3.56-.59,7.19-.93,10.79-3.75,5.41-8,10.15-15,11.28-8.5,1.38-15.24-1.66-20.58-8.2Zm19.32-22A13.64,13.64,0,1,0,47,76.29,13.66,13.66,0,0,0,33.42,62.65Z"/><path class="cls-4" d="M57,64.36c-4-5.07-7.94-10-14.33-12.45C27.52,46.19,10,54.9,7.28,73.08c-.17,1.13-.24,2.27-.42,4l-4.33-.8c-2-5.95-3.79-11.9-1.36-18.17l1.73-2.23,6.18-.15L11.22,54l0,0,2-2,0,0L15,49.92l.21-.19-.07-.28,1-1.49-.06.1.48,0,.46-.16H61.41c6.78,0,6.79,0,6.65,6.74,0,1.14-.16,2.28-.26,3.63C63.75,59.59,58.36,58.58,57,64.36Z"/><path class="cls-2" d="M63.9,31.95l-2.17-2.19L73.25,18.4,90,6.57,92.09,7a25.58,25.58,0,0,1-2.32,3.65c-4.84,5.4-10.08,10.47-14.56,16.15C72.13,30.73,68.8,32.73,63.9,31.95Z"/><path class="cls-5" d="M13.14,40.16,13,41.88l-.13,1.93-1.84.26L9.24,45.91,7,49.84l-3,4c.34-1.88.11-4.2,1.15-5.53C7.48,45.33,10.44,42.84,13.14,40.16Z"/><path class="cls-6" d="M4,53.84l3-4C7.17,52,7.34,54.25,4,53.84Z"/><path class="cls-6" d="M15,49.92l-1.85,2.14Z"/><path class="cls-6" d="M13.23,52l-2,2Z"/><path class="cls-6" d="M12.91,43.82,13,41.88l2,0Z"/><path class="cls-6" d="M11.22,54,9.08,55.77Z"/><path class="cls-6" d="M9.24,45.91l1.83-1.84Z"/><path class="cls-6" d="M16.2,48l-1,1.49Z"/><path class="cls-6" d="M17.08,47.92l-.46.16-.48,0,.76-1.12A4.14,4.14,0,0,1,17.08,47.92Z"/><path class="cls-4" d="M231.78,65.87c-2.3-.9-5.7-1.12-6.72-2.79-10.26-16.72-34.37-18-46,.87-5.44.22-10.88.56-16.33.63-6.59.08-13.19,0-19.78-.11-5.37,0-10.75-.18-16.12-.17s-10.76.15-16.13.27c-1,0-2,.32-3,.32q-17.28,0-34.55,0a2.12,2.12,0,0,1-1-.12c-5.53-3.11-2.35-8.36-2.93-12.63-.35-2.59,1.19-4.22,4.26-4.21,26.49.08,53,.07,79.47.1a10.72,10.72,0,0,1,2.1.61L154.56,58l.94.11A44,44,0,0,0,156,52c-.15-3,.85-4.11,4-4.09,18.33.11,36.65,0,55,.14,1.56,0,3.1,1.29,4.68,1.91,1.39.55,3.52,1.81,4.09,1.32a6.86,6.86,0,0,0,2-4.52,71.83,71.83,0,0,0-.61-8.87c.67,3.26,1.23,6.54,2,9.76.43,1.73.84,3.85,2,4.93C233.62,56.44,233.69,60.91,231.78,65.87Z"/><path class="cls-2" d="M218,29.46c-12.27.18-24.54.33-36.81.59a33.1,33.1,0,0,0-5.12.89l-21-.24-3-24.89,37,.18c4.07,7.09,8.12,14.18,12.24,21.24.38.64,1.24,1.46,1.84,1.44,4.66-.18,9.32-.56,14-.87Z"/><path class="cls-3" d="M183.11,84.62c-1.67-7.32-2.07-14.48,3-20.8S199,54,208.79,57c6.92,2.14,13,10,13.28,17.41.08,2.49,0,5,0,7.47-3.78,8.13-9.27,14-18.92,14.38A19.53,19.53,0,0,1,185.94,88C185.07,86.8,184.05,85.73,183.11,84.62ZM216,76.17a13.7,13.7,0,1,0-13.51,13.75A13.71,13.71,0,0,0,216,76.17Z"/><path class="cls-7" d="M189.09,6l-37-.18-5,0-47,.93-8,.26L90,6.57c2.76-5,8.12-4.14,12.28-4.43,12.88-.9,25.83-.86,38.76-1.24,9.1-.27,18.21-1.07,27.3-.87a390,390,0,0,1,39,2.92l-5.34,3Z"/><path class="cls-3" d="M189.09,6l13-.06,15.08,21.87c-4.66.31-9.32.69-14,.87-.61,0-1.47-.79-1.84-1.44C197.21,20.17,193.16,13.07,189.09,6Z"/><path class="cls-2" d="M100.11,6.77l47-.93c-.66,5.39-1.62,10.77-1.92,16.18-.43,7.87-.23,7.76-8,7.93-6,.14-12.09.63-18.13,1l-2.81.77-31.17.22-3.81-.23c3.41-4.65,6.45-8.88,9.6-13C93.89,14.64,97,10.72,100.11,6.77Z"/><path class="cls-3" d="M100.11,6.77c-3.08,4-6.22,7.87-9.24,11.87-3.14,4.16-6.18,8.39-9.6,13l3.81.23-21.18,0c4.9.78,8.23-1.21,11.31-5.12,4.48-5.68,9.72-10.75,14.56-16.15A25.58,25.58,0,0,0,92.09,7Z"/><path class="cls-8" d="M131.55,39.17c5.14-3.71,9.93-3.14,14.72-.24C141.85,43.07,135.66,43.26,131.55,39.17Z"/><path class="cls-9" d="M116.25,31.69l2.81-.77,32.24,0a1.59,1.59,0,0,1,.37.78Z"/><path class="cls-8" d="M151.66,31.75a1.66,1.66,0,0,0-.36-.78l3.78-.27,21,.24,2.79.13v.68Z"/><path class="cls-7" d="M33.42,62.65A13.58,13.58,0,0,1,47,76.29,13.75,13.75,0,1,1,33.42,62.65Z"/><path class="cls-3" d="M155.08,30.7,151.3,31l-32.24,0c6-.33,12.08-.83,18.13-1,7.73-.17,7.53-.06,8-7.93.3-5.41,1.25-10.79,1.92-16.18l5,0Z"/><path class="cls-7" d="M216,76.17a13.71,13.71,0,0,1-13.51,13.75,13.54,13.54,0,0,1-13.88-13.81,13.7,13.7,0,0,1,27.39.06Z"/></g></g></svg>