<svg xmlns="http://www.w3.org/2000/svg" viewBox="0 0 318.47 119.56"><defs><style>.cls-1{fill:#e5e1e1;}.cls-2{fill:#484948;}.cls-3{fill:#f9d421;}.cls-4{fill:#bc8e0d;}.cls-5{fill:#f8c109;}.cls-6{fill:#373427;}.cls-7{fill:#a5a6a9;}.cls-8{fill:#9b9769;}.cls-9{fill:#f6f5f4;}.cls-10{fill:#110f0f;}.cls-11{fill:#da342e;}.cls-12{fill:#454545;}.cls-13{fill:#eaeaea;}</style></defs><title>Asset 18</title><g id="Layer_2" data-name="Layer 2"><g id="Layer_1-2" data-name="Layer 1"><path class="cls-1" d="M9.11,60.63c2,.34,4.39-.21,5.71,2.1a.61.61,0,0,0,.18.45l1.79,9.66H5.46Z"/><path class="cls-2" d="M34.14,46.58a2.22,2.22,0,0,0-.52-.18c-.14-4.52-.36-9-.31-13.57,0-.76,1.22-1.5,1.88-2.26l.86.47q0,7.09,0,14.18l-.11.21Z"/><path class="cls-3" d="M40.7,79.92a8.59,8.59,0,0,1-2.17.59q-17.69,0-35.38,0l1.1-2.88c-.31,2.17,1,2.37,2.69,2.36C18.19,79.9,29.45,79.92,40.7,79.92Z"/><path class="cls-4" d="M34.14,46.58l1.8-1.14V50.1c2.71-1.17,2.43.66,2.71,2.32-2.51,0-4-.62-4-3.29A11.58,11.58,0,0,0,34.14,46.58Z"/><path class="cls-5" d="M10.22,58.52c0-3.3,2.42-5,4.91-6,6.07-2.3,12.32-4.13,18.49-6.15a2.22,2.22,0,0,1,.52.18,11.58,11.58,0,0,1,.52,2.55c0,2.67,1.47,3.33,4,3.29-.28-1.65,0-3.49-2.71-2.32V45.45l.11-.21a.74.74,0,0,0,.4,0l12.26,2.72C47.54,37,50.1,26.77,47.16,16.7L48,14.22c1,0,2,0,3,0H253.18l63,0q0,17.35,0,34.7h-3.88l-70.21-.07q0-.63,0-1.25h0c.42-.94,1.19-1.87,1.2-2.81.11-6.54,0-13.08.11-19.61a8,8,0,0,1,1.09-2.64V47.14a5.72,5.72,0,0,0,1.25.44c8.67,0,17.33.06,26,0,.59,0,1.19-.52,1.78-.79A2.72,2.72,0,0,0,274,47s.14-.14.14-.21c0-4.76.16-9.52,0-14.27a48,48,0,0,0-1-6.26,18.53,18.53,0,0,0,1-4c.12-3.94-.44-4.44-4.41-4.44-8,0-16,.06-24.06.09l-.69-1.94L241,17.78l-26.3,0-1.22,1.09-.06.07-1.79.63-.57-.6-1.25-1.17H207c-7.54,0-15.07-.09-22.6.05-1,0-2.78,1.13-2.85,1.87a36,36,0,0,0,.44,6.62l-.14,1c-.16,4.14-.36,8.27-.48,12.41-.07,2.53,0,5.06,0,8h7.09l0,1-12.25.48-.72-.16c-.89-.08-1.77-.23-2.66-.23q-41,0-82,0c-1.84,0-3.68.24-5.53.38.11.59.1,1.61.34,1.68a10.54,10.54,0,0,0,2.67.12q77.66,0,155.32,0,36.31,0,72.62-.09,0,4.77,0,9.53l-21.48.08a9.15,9.15,0,0,0-1.36-2.48c-1.13-1.07-.77-3.75-3.38-3.24l-15-.07a10.41,10.41,0,0,0-2,1.63c-1,1.3-1.78,2.73-2.65,4.11-.89,0-1.79-.13-2.68-.13l-71.57,0H119.47c-.89,0-1.78-.13-2.66-.19-.9-1.2-1.73-2.45-2.72-3.56a15.27,15.27,0,0,0-2.2-1.74l-12-.06c-1.74.27-3.89,0-5.1.95C93.38,56.88,92.85,59,92,60.73l-7.76-.43.93,5h4.6c-2.31,2.6-3.12,4.67-1.16,6.9H72v4.92H91.44l3.71,6.43H84.67v4.78H228.5a16.06,16.06,0,0,0-1.32,3.38c-.39,3.08-.58,6.18-.84,9.27-.06,2.17-1.18,2.68-3.28,2.68q-69.54-.07-139.07,0c-2.08,0-4.17.14-6.25.22l-2.55-1.09C74.3,97.69,74,92.44,72.43,87.63A18.38,18.38,0,0,0,50.17,75.31c-3.34.79-6.33,3-9.48,4.61-11.25,0-22.5,0-33.76,0-1.74,0-3-.19-2.69-2.36l1.21-4.74H16.79L15,63.18c10.83,0,21.66,0,32.5-.11a22.52,22.52,0,0,0,3.11-.44l.19-3.84c-10.54,0-20.66,0-30.79,0C16.74,58.77,13.48,58.61,10.22,58.52ZM79.58,18.35a5,5,0,0,0-1.59-.6q-10.89-.06-21.78,0c-.58,0-1.15.51-1.73.78a3.78,3.78,0,0,1,0,.4c-.4.65-1.14,1.29-1.14,1.94-.09,9.84-.09,19.67-.08,29.51,0,2.3,1.13,3.31,3.52,3.28,7.05-.09,14.11-.1,21.16,0,2.83,0,3.94-1.21,3.93-3.89,0-9.54,0-19.08-.11-28.61,0-.74-.75-1.47-1.16-2.2Zm99.09,7.83c.27-.1.79-.23.79-.31-.2-2.64-.45-5.28-.7-7.89H150l.53,8.43a.2.2,0,0,0,0,.28V47.48h28.14c.16-1.07.3-1.94.42-2.79a2.56,2.56,0,0,0,.5,0c.06,0,.13-.15.13-.23,0-4.63.09-9.26,0-13.88A22.21,22.21,0,0,0,178.68,26.18Zm-59.49,0-.06,2.15V47.45h28.63c0-9.15,0-18.08,0-27,0-2-1.33-2.73-3.16-2.73-7.55,0-15.11-.06-22.66.17a4,4,0,0,0-2.84,2.47C118.68,22.21,119.1,24.26,119.19,26.23Zm-31.1,2.11v19.1h28.53c0-9.18.07-18.13-.12-27.06a3.64,3.64,0,0,0-2.53-2.5q-12.24-.28-24.49,0A3.58,3.58,0,0,0,87,20.22a26.73,26.73,0,0,0-.07,6s.72,0,1.1,0Zm187.71,19h29.72c0-9.07,0-17.83,0-26.59,0-2.62-1.69-3-3.78-3-7.8,0-15.6,0-23.39.19a3.67,3.67,0,0,0-2.44,2.63C275.72,29.42,275.8,38.26,275.8,47.37ZM74.48,59.19c2.59,2.25,5.71,2.12,7.28,0ZM87,37.37l.27,0V29.18H87Z"/><path class="cls-3" d="M316.23,14.19l-63,0H51c-1,0-2,0-3,0,1.3-3,2.56-6.12,3.91-9.14C53.59,1.36,56.81.15,60.57.14Q93,0,125.4,0q90.37,0,180.75,0c2.07,0,4.38-.29,6.14.51a7.06,7.06,0,0,1,4,6.47C316.35,9.41,316.25,11.8,316.23,14.19Z"/><path class="cls-6" d="M226.34,100.94c.27-3.09.46-6.19.84-9.27a16.06,16.06,0,0,1,1.32-3.38H84.67V83.5h28.44q58.88,0,117.76,0a7.67,7.67,0,0,0,4-1.52,21.57,21.57,0,0,1,24.36.27,5.57,5.57,0,0,0,2.88,1.24c3.77.1,7.55,0,11.32-.09l18.52,0,24.3.13c3.38,2.94,1.94,6.85,1.91,10.39,0,.68-1.55,1.75-2.53,2q-8.71,1.9-17.51,3.41c-1.18.2-2.49-.29-3.74-.46,0-3.43,0-6.87,0-10.41h-29a55.56,55.56,0,0,1,2.37,7.21c.32,1.66-.18,3.48-.31,5.24l-1.33-.08c-.34-1.13-.76-2.25-1-3.4-.42-1.89-.27-4.08-1.2-5.64a98.52,98.52,0,0,0-6.44-8.65L257,84.3l-6,.44-.11-.88,4.12-.71V81.88c-3.51-.34-7.05-1.11-10.54-.92-5.9.32-10,4.24-13.67,8.36a10.07,10.07,0,0,0-1.88,3.94c-.7,2.45-1.15,5-1.71,7.45Z"/><path class="cls-2" d="M74.16,103.18c-.58.63-1.46,1.16-1.71,1.9-3.14,9.4-12.21,14.9-21.7,13.06A19,19,0,0,1,35.47,97.92c.05-.79,0-1.58,0-2.37.39-.9.81-1.8,1.18-2.71A18.79,18.79,0,0,1,48.76,81.36c12-3.82,25.61,6.39,24.3,18.38C72.95,100.83,73.77,102,74.16,103.18Zm-28.73-4c-.1,5.07,3.93,9.42,8.74,9.45a9.46,9.46,0,0,0,9.28-9.07,8.87,8.87,0,0,0-8.9-8.91A8.58,8.58,0,0,0,45.43,99.17Z"/><path class="cls-6" d="M74.16,103.18c-.39-1.15-1.21-2.34-1.1-3.44,1.3-12-12.3-22.21-24.3-18.38A18.79,18.79,0,0,0,36.67,92.84c-.37.91-.78,1.81-1.18,2.71H1.32A27.49,27.49,0,0,1,.37,82.78c.29-1.64,1.11-2.44,2.78-2.32q17.69,0,35.38,0a8.59,8.59,0,0,0,2.17-.59c3.15-1.58,6.14-3.82,9.48-4.61A18.38,18.38,0,0,1,72.43,87.63c1.6,4.81,1.87,10.07,2.75,15.12l-.36.48Z"/><path class="cls-6" d="M175.44,49.12l.72.16c1.31,0,2.62.14,3.92.14l31.27,0,.16-.12c1.29,0,2.58.14,3.87.14q24.48,0,49,0,26,0,51.93.11l0,1.45q-36.31,0-72.62.09-77.66,0-155.32,0a10.54,10.54,0,0,1-2.67-.12c-.25-.07-.24-1.09-.35-1.68.59.06,1.18.16,1.77.16q42.87,0,85.74,0A22.92,22.92,0,0,0,175.44,49.12Z"/><path class="cls-5" d="M267.43,100.93c.13-1.75.63-3.57.31-5.24a55.56,55.56,0,0,0-2.37-7.21h29c0,3.54,0,7,0,10.41l-24.05,2.59-1.91-.06Z"/><path class="cls-7" d="M47.16,16.7c2.94,10.06.38,20.32,1.56,31.21L36.45,45.19q4.86-13.34,9.73-26.68A14.14,14.14,0,0,1,47.16,16.7Z"/><path class="cls-5" d="M316.23,83.59l-24.29-.13,3.55-6.35h20.69Z"/><path class="cls-6" d="M10.22,58.52c3.26.09,6.52.25,9.78.26,10.12,0,20.25,0,30.79,0-.07,1.4-.13,2.62-.18,3.84l-35.78.1c-1.31-2.31-3.67-1.75-5.71-2.1Z"/><path class="cls-5" d="M316.24,65.45q0,3.58,0,7.16l-18-.39c.95-1.89,1.83-3.77.06-5.72-.19-.21,0-.74,0-1.12Z"/><path class="cls-6" d="M294.79,60.6l21.48-.08q0,2.17,0,4.34l-18.08.28Z"/><path class="cls-6" d="M298.22,72.22l18,.39q0,2.25-.07,4.5H295.49Z"/><path class="cls-8" d="M316.26,49.55q-26-.06-51.93-.11-24.48,0-49,0c-1.29,0-2.58-.09-3.87-.14a33.49,33.49,0,0,1,3.51-.37c9-.05,18.08-.06,27.12-.08l70.21.07h3.88Z"/><path class="cls-8" d="M298.18,65.13l18.08-.28,0,.6-18-.07Z"/><path class="cls-7" d="M80.65,19c.4.73,1.15,1.46,1.16,2.2.1,9.54.07,19.07.11,28.61,0,2.67-1.1,3.93-3.93,3.89-7.05-.11-14.11-.1-21.16,0-2.39,0-3.52-1-3.52-3.28,0-9.84,0-19.67.08-29.51,0-.65.74-1.29,1.14-1.94Z"/><path class="cls-7" d="M188.39,47.76H181.3c0-2.9-.06-5.43,0-8,.11-4.14.31-8.27.47-12.41.62.35,1.25,1,1.88,1q12.5.1,25,0c.58,0,1.15-.69,1.72-1.05-.56-.39-1.12-1.11-1.68-1.11-8.93,0-17.85.07-26.78.13a36,36,0,0,1-.44-6.62c.07-.74,1.84-1.85,2.85-1.87,7.53-.15,15.07-.06,22.6-.05h2.87L211.07,19l.57.6-.47,5.94-.22,22.08Z"/><path class="cls-7" d="M275.8,47.37c0-9.11-.08-18,.11-26.79A3.67,3.67,0,0,1,278.35,18c7.79-.23,15.59-.16,23.39-.19,2.1,0,3.79.4,3.78,3,0,8.76,0,17.52,0,26.59ZM291,26.2c-4.08,0-8.16,0-12.23,0-.62,0-1.23.62-1.85,1,.63.41,1.25,1.18,1.89,1.19q12.08.12,24.17,0c.62,0,1.23-.63,1.84-1-.63-.41-1.24-1.17-1.88-1.19C299,26.13,295,26.19,291,26.2Z"/><path class="cls-7" d="M245.78,17.83c8,0,16-.08,24.06-.09,4,0,4.53.49,4.41,4.44a18.54,18.54,0,0,1-1,4c-8.64,0-17.27,0-25.91,0-.68,0-1.36.7-2,1.07.66.38,1.32,1.07,2,1.09,3.37.11,6.75.05,10.12.05h16.16V46.8c-.59.28-1.18.79-1.78.79-8.67,0-17.33,0-26,0a5.72,5.72,0,0,1-1.25-.44c0-8.13,0-16.37,0-24.61A4.74,4.74,0,0,1,245.78,17.83Z"/><path class="cls-7" d="M88,26.22c-.38,0-1.1,0-1.1,0a26.73,26.73,0,0,1,.07-6,3.58,3.58,0,0,1,2.48-2.32q12.24-.28,24.49,0a3.64,3.64,0,0,1,2.53,2.5c.19,8.94.12,17.88.12,27.06H88.09c0-6.46,0-12.78,0-19.1,8.46,0,16.93.09,25.4,0a7.78,7.78,0,0,0,2.53-1l-.33-1.18Z"/><path class="cls-7" d="M119.19,26.23c-.08-2-.51-4-.11-5.88a4,4,0,0,1,2.84-2.47c7.55-.23,15.11-.15,22.66-.17,1.84,0,3.15.78,3.16,2.73.05,8.93,0,17.85,0,27H119.13c0-6.44,0-12.76,0-19.07,8.47,0,16.93.08,25.4,0,.83,0,1.66-.77,2.49-1.18a7.39,7.39,0,0,0-2.43-1C136.12,26.17,127.66,26.21,119.19,26.23Z"/><path class="cls-7" d="M214.71,17.79l26.3,0c.41,1.25,1.15,2.49,1.16,3.75.07,8.69,0,17.38-.06,26.07H213.65V28.32c8.55,0,17.11.11,25.66.06.74,0,1.47-.78,2.2-1.19-.71-.33-1.43-1-2.14-1-8.55,0-17.11,0-25.66.08L213.43,19l.06-.07Z"/><path class="cls-6" d="M116.81,60.2c.89.07,1.78.19,2.66.19h76.65l71.57,0c.89,0,1.79.09,2.68.13l-2.85,4.59c-1.09-.07-2.18-.19-3.27-.19q-45.35,0-90.69,0-27.33,0-54.65.09Z"/><path class="cls-7" d="M179.11,44.67l-.43,2.81H150.54c0-7,0-13.9,0-20.79.07,1.89,1.38,1.78,2.73,1.77,7.64,0,15.28,0,22.91,0,1.87,0,3.05.28,2.89,2.56-.19,2.66-.14,5.34-.19,8v3Z"/><path class="cls-7" d="M150.5,26.41,150,18h28.8c.24,2.61.49,5.25.7,7.89,0,.08-.51.21-.79.31-1.48,0-3,0-4.46,0Z"/><path class="cls-1" d="M116.81,60.2,118.9,65a1.38,1.38,0,0,0,.27.46c1.31,2.33,3,4.66,0,7l-2.41,4.4-3.64,6.64h-18l-3.71-6.43-2.87-4.92c-2-2.23-1.15-4.3,1.16-6.9H85.11c3.71.66,5.73-1.25,6.84-4.53.9-1.7,1.43-3.86,2.81-4.95,1.2-.95,3.36-.68,5.1-.95q0,.54,0,1.07c-2.4-.18-4.06.56-5,3a28.42,28.42,0,0,1-3.31,5.62c-2.08,3-2.68,5.81-.09,9,1.72,2.12,2.69,4.83,4.25,7.11a4.08,4.08,0,0,0,2.79,1.54,100.92,100.92,0,0,0,11,0,4.72,4.72,0,0,0,3.24-1.78,90.18,90.18,0,0,0,5.44-9.55,4.38,4.38,0,0,0,0-3.45c-2-3.87-4.22-7.61-6.37-11.4l0-1.13a15.27,15.27,0,0,1,2.2,1.74C115.08,57.76,115.91,59,116.81,60.2Z"/><path class="cls-1" d="M267.51,65.14l2.85-4.59c.88-1.37,1.67-2.81,2.65-4.1a10.41,10.41,0,0,1,2-1.63l-.46,1.52c-1.22,2.25-2.31,4.6-3.69,6.74-2.28,3.53-4.14,6.94-.65,10.82a8.51,8.51,0,0,1,1.82,3c1.56,5,5.17,5.41,9.84,5.57,6,.21,10.37-.86,12.32-7.15.51-1.65,1.92-3,2.63-4.63a3.85,3.85,0,0,0,.1-3c-2.2-4-4.6-7.87-6.94-11.78l0-1.09c2.61-.51,2.24,2.17,3.38,3.24a9.15,9.15,0,0,1,1.36,2.48l3.39,4.53.08.26c0,.38-.17.91,0,1.12,1.77,1.95.89,3.82-.06,5.72l-2.73,4.88-3.55,6.35-18.52,0L270,77.1l-2.7-4.64c-2.09-2.32-.75-4.63,0-6.95A.49.49,0,0,0,267.51,65.14Z"/><path class="cls-3" d="M213.43,19q.14,3.67.28,7.35,0,1-.06,2V47.58h28.47q0,.62,0,1.25c-9,0-18.08,0-27.12.08a33.49,33.49,0,0,0-3.51.37l-.16.12a25.55,25.55,0,0,0-3.43-.49c-6.5-.08-13-.08-19.51-.11l0-1,22.56-.15c.45-.81,1.27-1.62,1.28-2.44.11-5.76.1-11.52,0-17.28,0-.79-.7-1.57-1.07-2.36l.47-5.94Z"/><path class="cls-1" d="M150.5,26.41l23.73-.22c1.49,0,3,0,4.46,0a22.25,22.25,0,0,1,1,4.4c.13,4.62,0,9.25,0,13.88,0,.08-.07.22-.13.23a1.86,1.86,0,0,1-.49,0c-.08-.91-.16-1.82-.24-2.72s0-2,0-3c.05-2.67,0-5.35.19-8,.16-2.28-1-2.58-2.89-2.56-7.64.07-15.28,0-22.91,0-1.35,0-2.66.12-2.73-1.77A.2.2,0,0,1,150.5,26.41Z"/><path class="cls-1" d="M273.54,46.8V28.44H257.38c-3.38,0-6.75.06-10.12-.05-.68,0-1.33-.71-2-1.09.68-.37,1.35-1.06,2-1.07,8.63-.06,17.27,0,25.91,0a48.08,48.08,0,0,1,1,6.26c.12,4.75,0,9.51,0,14.27,0,.07-.1.22-.14.21A2.72,2.72,0,0,1,273.54,46.8Z"/><path class="cls-6" d="M88.57,72.16l2.87,4.92H72V72.16Z"/><path class="cls-1" d="M181.93,26.37c8.93-.06,17.85-.14,26.78-.13.56,0,1.12.72,1.68,1.11-.57.37-1.14,1-1.72,1.05q-12.5.1-25,0c-.63,0-1.25-.66-1.88-1C181.84,27,181.88,26.71,181.93,26.37Z"/><path class="cls-1" d="M119.19,26.23c8.47,0,16.94-.05,25.4,0a7.39,7.39,0,0,1,2.43,1c-.83.41-1.66,1.17-2.49,1.18-8.47.07-16.93,0-25.4,0Z"/><path class="cls-1" d="M88,26.22h27.65L116,27.4a7.78,7.78,0,0,1-2.53,1c-8.47,0-16.93,0-25.4,0Q88.05,27.28,88,26.22Z"/><path class="cls-8" d="M175.44,49.12a22.92,22.92,0,0,1-2.64.3q-42.87,0-85.74,0c-.59,0-1.18-.1-1.77-.16,1.85-.13,3.69-.38,5.53-.38q41,0,82,0C173.67,48.9,174.55,49,175.44,49.12Z"/><path class="cls-3" d="M242.12,47.59c0-8.69.12-17.38.06-26.07,0-1.25-.76-2.5-1.16-3.75l4.08-1.89.69,1.94a4.74,4.74,0,0,0-1.27,4.7,8,8,0,0,0-1.09,2.64c-.09,6.54,0,13.08-.11,19.61C243.3,45.73,242.54,46.66,242.12,47.59Z"/><path class="cls-6" d="M92,60.73c-1.11,3.28-3.13,5.19-6.84,4.53-.26-1.46-.54-2.92-.92-5Z"/><path class="cls-8" d="M15,63.18a.61.61,0,0,1-.18-.45l35.78-.1a22.35,22.35,0,0,1-3.11.44C36.66,63.14,25.83,63.15,15,63.18Z"/><path class="cls-8" d="M188.41,48.8c6.5,0,13,0,19.51.11a25.55,25.55,0,0,1,3.43.49q-15.64,0-31.27,0c-1.31,0-2.61-.09-3.92-.14Z"/><path class="cls-9" d="M290.05,54.88,290,56l-15.43.35.46-1.51Z"/><path class="cls-8" d="M80.65,19l-26.12,0a3.72,3.72,0,0,0,0-.4l25.1-.19Z"/><path class="cls-3" d="M79.58,18.35l-25.1.19c.58-.27,1.15-.77,1.73-.78q10.89-.08,21.78,0A5,5,0,0,1,79.58,18.35Z"/><path class="cls-9" d="M111.89,54.9l0,1.13-12-.12q0-.54,0-1.07Z"/><path class="cls-4" d="M74.48,59.19h7.28C80.19,61.32,77.07,61.44,74.48,59.19Z"/><path class="cls-7" d="M87,37.37V29.18h.27V37.4Z"/><path class="cls-3" d="M211.07,19l-1.25-1.17Z"/><path class="cls-3" d="M214.71,17.79l-1.22,1.09Z"/><path class="cls-5" d="M270,77.1l3.37,6.33c-3.77.05-7.55.19-11.32.09a5.57,5.57,0,0,1-2.88-1.24A21.57,21.57,0,0,0,234.86,82a7.67,7.67,0,0,1-4,1.52q-58.88.08-117.76,0l3.64-6.64c.89.05,1.79.15,2.68.15h90.92Q240.2,77,270,77.1Z"/><path class="cls-10" d="M45.43,99.17a8.58,8.58,0,0,1,9.12-8.53,8.87,8.87,0,0,1,8.9,8.91,9.46,9.46,0,0,1-9.28,9.07C49.36,108.59,45.33,104.24,45.43,99.17Zm5.57.92c1,.83,2.24,2.51,2.94,2.31,1.3-.38,2.28-1.85,3.39-2.87-.93-1-1.71-2.43-2.82-2.73C52.69,96.28,51.63,97.59,51,100.09Z"/><path class="cls-5" d="M211.17,25.53c.37.79,1.06,1.57,1.07,2.36.09,5.76.1,11.52,0,17.28,0,.82-.84,1.62-1.28,2.44Q211.06,36.57,211.17,25.53Z"/><path class="cls-1" d="M291,26.19c4,0,8-.06,11.93.05.64,0,1.25.77,1.88,1.19-.61.34-1.22,1-1.84,1q-12.08.1-24.17,0c-.63,0-1.26-.77-1.89-1.19.61-.33,1.22-.94,1.85-1C282.86,26.15,286.94,26.2,291,26.19Z"/><path class="cls-1" d="M213.65,28.32q0-1,.06-2c8.55,0,17.11-.1,25.66-.08.71,0,1.43.63,2.14,1-.73.42-1.46,1.19-2.2,1.19C230.76,28.43,222.21,28.36,213.65,28.32Z"/><path class="cls-8" d="M267.51,65.14a.49.49,0,0,1-.15.37l-148.2,0a1.37,1.37,0,0,1-.27-.46q27.32,0,54.65-.09,45.35,0,90.69,0C265.33,64.95,266.42,65.07,267.51,65.14Z"/><path class="cls-5" d="M178.88,39q0,1.48,0,3Q178.87,40.48,178.88,39Z"/><path class="cls-5" d="M119.17,65.49l148.2,0c-.77,2.31-2.1,4.63,0,6.95-1.69,0-3.38.13-5.07.13q-52.61,0-105.23,0c-12.63,0-25.26-.07-37.9-.11C122.13,70.15,120.47,67.82,119.17,65.49Z"/><path class="cls-6" d="M119.16,72.48c12.63,0,25.26.1,37.9.11q52.61,0,105.23,0c1.69,0,3.38-.08,5.07-.13L270,77.1q-29.85,0-59.7-.06H119.42c-.89,0-1.79-.1-2.68-.15Z"/><path class="cls-11" d="M99.88,55.91l12,.12c2.15,3.79,4.39,7.53,6.37,11.4a4.38,4.38,0,0,1,0,3.45,90.18,90.18,0,0,1-5.44,9.55,4.72,4.72,0,0,1-3.24,1.78,100.92,100.92,0,0,1-11,0,4.08,4.08,0,0,1-2.79-1.54c-1.56-2.28-2.53-5-4.25-7.11-2.59-3.2-2-6,.09-9A28.42,28.42,0,0,0,94.86,59C95.82,56.47,97.48,55.74,99.88,55.91Zm0,8.61a23.2,23.2,0,0,0-3.8-.1c-1.15.15-3,.46-3.21,1.12-.33,1,.41,2.44.81,3.66.1.31.59.49.51.43-.6,1-1.63,2.06-1.42,2.41a4,4,0,0,0,2.44,1.88c2.56.31,3.55-1.79,2.4-4.45a2.78,2.78,0,0,1,0-2.35c.37-.46,1.5-.29,2.3-.4v7l.92.44c.47-.69,1.24-1.33,1.35-2.08.22-1.54-.1-3.17.14-4.71C102.65,65.32,101.78,64.57,99.89,64.52Zm10.91.54c-2.13-.18-3.95-.84-5.15-.25-.87.42-.94,2.51-1.32,3.87a2.12,2.12,0,0,0,0,1.18c.46,1.33.64,3.29,1.58,3.77s2.8-.24,4.75-.52l2,.77c.68-1.62.85-3.32,1.65-3.71,2.69-1.29,1.91-3.26,1.23-5C115.08,63.82,111.83,64.18,110.81,65.06Z"/><path class="cls-11" d="M274.59,56.33,290,56c2.33,3.92,4.74,7.79,6.94,11.78a3.85,3.85,0,0,1-.1,3c-.71,1.62-2.11,3-2.63,4.63-2,6.29-6.31,7.36-12.32,7.15-4.67-.16-8.28-.52-9.84-5.57a8.51,8.51,0,0,0-1.82-3c-3.49-3.87-1.63-7.28.65-10.82C272.28,60.92,273.37,58.58,274.59,56.33ZM291.26,73.7c.68-1.41.94-3.1,1.84-3.56,2.07-1.07,1.75-2.53,1-3.87a4.2,4.2,0,0,0-2.71-1.77,22.5,22.5,0,0,0-5.91-.08c-.9.1-2.33.95-2.43,1.62a20,20,0,0,0,.09,6.19c.12.7,1.5,1.58,2.37,1.66A42,42,0,0,0,291.26,73.7Zm-9.55-9.37c-2.61,0-5.63-.11-8.64,0a2.4,2.4,0,0,0-1.65,4,7.39,7.39,0,0,0,1.81,1.38c-1,.79-2.15,1.36-2.08,1.74.14.85.73,2.07,1.41,2.3,1.78.58,3.61.52,4.13-1.94.16-.75.42-1.48.81-2.86,1.73,4.74,1.73,4.74,3.08,4.71Z"/><path class="cls-2" d="M51,100.09c.62-2.5,1.68-3.8,3.51-3.3,1.11.31,1.89,1.78,2.82,2.73-1.11,1-2.09,2.49-3.39,2.87C53.25,102.6,52,100.92,51,100.09Z"/><path class="cls-1" d="M110.81,65.06c1-.88,4.28-1.24,4.79.09.68,1.77,1.46,3.74-1.23,5-.8.38-1,2.08-1.65,3.71l-2-.77c-1.95.28-3.7,1.07-4.75.52s-1.12-2.45-1.58-3.77a2.12,2.12,0,0,1,0-1.18c.38-1.36.45-3.45,1.32-3.87C106.86,64.21,108.68,64.88,110.81,65.06Z"/><path class="cls-1" d="M99.92,66.71c-.8.11-1.93-.06-2.3.4a2.78,2.78,0,0,0,0,2.35c1.15,2.66.16,4.76-2.4,4.45A4,4,0,0,1,92.78,72c-.21-.35.82-1.44,1.42-2.41.08.07-.41-.12-.51-.43-.39-1.22-1.14-2.62-.81-3.66.21-.66,2.06-1,3.21-1.12a23.21,23.21,0,0,1,3.8.1Q99.91,65.61,99.92,66.71Z"/><path class="cls-9" d="M99.92,66.71q0-1.1,0-2.19c1.88,0,2.76.8,2.44,2.87-.24,1.54.08,3.16-.14,4.71-.11.74-.88,1.39-1.35,2.08l-.92-.44Z"/><path class="cls-1" d="M291.26,73.7a42,42,0,0,1-5.76.19c-.87-.08-2.25-1-2.37-1.66A20,20,0,0,1,283,66c.1-.67,1.53-1.51,2.43-1.62a22.5,22.5,0,0,1,5.91.08,4.2,4.2,0,0,1,2.71,1.77c.77,1.34,1.09,2.8-1,3.87C292.21,70.6,291.95,72.29,291.26,73.7Z"/><path class="cls-1" d="M281.71,64.34l-1.13,9.34c-1.35,0-1.35,0-3.08-4.71-.39,1.38-.65,2.11-.81,2.86-.53,2.47-2.36,2.52-4.13,1.94-.68-.22-1.27-1.45-1.41-2.3-.06-.37,1.1-1,2.08-1.74a7.39,7.39,0,0,1-1.81-1.38,2.4,2.4,0,0,1,1.65-4C276.08,64.23,279.1,64.34,281.71,64.34Z"/><path class="cls-12" d="M227.83,107.9C226,100,226.23,92.69,232.1,86.14a20.74,20.74,0,0,1,20.51-6.21,19.37,19.37,0,0,1,14.1,17.24c.22,3.56-.59,7.19-.93,10.79-3.75,5.41-8,10.15-15,11.28-8.5,1.38-15.24-1.66-20.58-8.2Zm19.32-22a13.64,13.64,0,1,0,13.58,13.65A13.66,13.66,0,0,0,247.14,85.92Z"/><path class="cls-13" d="M247.14,85.92a13.58,13.58,0,0,1,13.58,13.65,13.75,13.75,0,1,1-13.58-13.65Z"/><path class="cls-12" d="M34.35,107.9c-1.84-7.89-1.59-15.21,4.27-21.76a20.74,20.74,0,0,1,20.51-6.21,19.37,19.37,0,0,1,14.1,17.24c.22,3.56-.59,7.19-.93,10.79-3.75,5.41-8,10.15-15,11.28-8.5,1.38-15.24-1.66-20.58-8.2Zm19.32-22A13.64,13.64,0,1,0,67.25,99.57,13.66,13.66,0,0,0,53.67,85.92Z"/><path class="cls-13" d="M53.67,85.92A13.58,13.58,0,0,1,67.25,99.57,13.75,13.75,0,1,1,53.67,85.92Z"/></g></g></svg>