<svg xmlns="http://www.w3.org/2000/svg" viewBox="0 0 282.53 129.78"><defs><style>.cls-1{fill:#e5e1e1;}.cls-2{fill:#da342e;}.cls-3{fill:#373427;}.cls-4{fill:#a5a6a9;}.cls-5{fill:#b5b5b5;}.cls-6{fill:#484948;}.cls-7{fill:#219ba3;}.cls-8{fill:#e74f4f;}.cls-9{fill:#f6f5f4;}.cls-10{fill:#454545;}.cls-11{fill:#eaeaea;}.cls-12{fill:#fdc819;}</style></defs><title>Asset 14</title><g id="Layer_2" data-name="Layer 2"><g id="Layer_1-2" data-name="Layer 1"><path class="cls-1" d="M274.37,94.83,274,92.68Z"/><path class="cls-1" d="M211.63,110.24c-.42,2.8-2.51,2.7-4.6,2.7-16.63,0-33.27-.07-49.9,0-11.1.07-22.2.44-33.3.59a22.69,22.69,0,0,1-4.23-.73,37.11,37.11,0,0,0-3.91-19.5,16.84,16.84,0,0,0-4.63-5.63c-9.13-7-17.94-6.48-27.82,1.37l-9.45-.37,1.07-2.23-.61-.32-1.71,2.55-4.91.08.8-2.88,1.36-.67,2.09-1.69-.77-.65L69.8,85.25l-1.36.68-1.3,2.77-.13.2.14.19c-1.21-.08-2.43-.21-3.64-.22-6-.09-12-.14-18-.21l2.14-7.58c2.46,0,4.91.06,7.37,0,4,0,4.11-.22,3.56-4.23-.1-.77.7-2.39,1.11-2.4,5.75-.16,11.5-.11,18.21-.11L75.2,79.85,73,81.29l.76.71,1.48-2.17,2.72,3.39-.68,1.36-.06,0,0,0,.67-1.36c.71-.87,1.29-2.3,2.16-2.52,4-1,3.71-3.82,3.34-7H93.44l.2.12.37.52.48,3.59h3.8q82.18,0,164.35,0c4.61,0,9.22-.12,13.83-.18l.64,2.1c-1.73.27-3.64.18-5.13.93a4.44,4.44,0,0,0-2.09,3.36c0,1.17,1.26,3.15,2.19,3.29,2.37.38,4.88-.07,7.33-.19l.41,1.49c-10.77,0-21.54.14-32.31.06a23.34,23.34,0,0,1-6.88-1.08,22,22,0,0,0-29,21.84ZM98.2,78.53l-.35.93c1.29.58,2.57,1.61,3.88,1.67,7.86.34,12.75,5,16,11.42,2.39,4.73,3.59,10.05,5.53,15,.41,1.05,1.66,2.48,2.58,2.52,5.28.23,10.57.23,15.85,0,1.88-.07,3.49-1,2.53-3.56a9.11,9.11,0,0,1-.1-3q0-10.63,0-21.26c0-2.07-.25-3.79-3-3.78C126.76,78.56,112.48,78.53,98.2,78.53Z"/><path class="cls-1" d="M79.08,52.2l.85,0c.69.72,1.26,1.77,2.1,2.09a33.82,33.82,0,0,0,5.19,1.22c2.61.54,4.37-.27,5.64-2.82,4.1-8.21,8.4-16.32,12.59-24.48a21.23,21.23,0,0,0,.93-2.7L102.84,25,107,19.06c.38.71.59,1.8,1.17,2.05a7.91,7.91,0,0,0,3,.19q74,0,148.05,0c1.45,0,2.91-.19,4.36-.29q3,12.8,6.1,25.61c1.5,6.27,3.07,12.52,4.5,18.8a25.15,25.15,0,0,1,.24,4.34c-1.34-.07-2.69-.21-4-.22l-125.81,0a32.44,32.44,0,0,1-3.29-.33c2.11.06,2.94-.85,2.83-3.05-.13-2.66.21-5.34.2-8,0-9-.17-18-.25-26.94,0-2.58,0-5.16,0-8.54H109.91a12.56,12.56,0,0,0-1.06,3c-.06.45.95,1,1.47,1.57l-.72,1.34c-3-.4-3.72,2.13-4.6,4C101.41,40,98,47.65,94.62,55.3a11.38,11.38,0,0,0-1.09,4.46c0,3.06.38,6.13.6,9.19l-42.51.18c.32-4.28,2.66-7,6.68-8.18,6.26-1.91,12.54-3.76,18.81-5.63A12.29,12.29,0,0,0,78,58.86a7.62,7.62,0,0,0,2.64,2,14.74,14.74,0,0,0,1-1.32c-.82-.22-1.64-.43-2.46-.67-.18-.06-.33-.25-.67-.51ZM225.49,62.33q16.88,0,33.76,0c4.07,0,4.76-1,4-4.87-1.71-9.25-3.55-18.48-4.9-27.78-.52-3.63-1.89-4.63-5.4-4.61-20.26.14-40.52.07-60.78.07-4.21,0-4.86.61-4.88,4.9,0,9.34.08,18.68,0,28,0,3.27,1.3,4.34,4.44,4.31C203,62.26,214.23,62.33,225.49,62.33Zm-60.12,0c5.06,0,10.13-.06,15.19,0,2.37,0,3.5-.7,3.48-3.28q-.13-15.19,0-30.38c0-2.69-1.18-3.58-3.66-3.57q-15,.05-30,0c-2.37,0-3.57,1-3.57,3.4q0,15.19,0,30.38c0,2.62,1.2,3.54,3.76,3.47C155.46,62.25,160.42,62.33,165.37,62.33Z"/><path class="cls-2" d="M263.59,21c-1.45.1-2.91.28-4.36.29q-74,0-148.05,0a7.91,7.91,0,0,1-3-.19c-.58-.25-.8-1.34-1.17-2.05,4-2.27,8-4.47,11.89-6.81,6.38-3.81,13.45-4.79,20.66-5.28,5.12.28,10.24.56,15.36.8.17,0,.36-.52.55-.79l.73-.15c30.27,0,60.53.1,90.8,0,3.19,0,5.71.72,7.71,3.2Q259.13,15.53,263.59,21Z"/><path class="cls-2" d="M141.31,69.16a32.5,32.5,0,0,0,3.29.32l125.81,0c1.34,0,2.69.14,4,.22h0l.67,2.06,1.35,6c-4.61.06-9.22.18-13.83.18q-82.18,0-164.35,0h-3.8L94,74.34l-.37-.52-.2-.12h-.23a30.75,30.75,0,0,0-3.6-.42c-9.66,0-19.33-.11-29,.07-2.75.05-4.09-.86-4.5-3.61,1.12-.06,2.12-.16,3.13-.16q34.22,0,68.43,0a14.87,14.87,0,0,0,3.23-.73l.25.13h9.45l.7.16Z"/><path class="cls-3" d="M253.5,110.19c-1.09-3.81-1.74-7.82-3.36-11.39-3.76-8.31-17-12.23-24.91-7.84-6.85,3.8-11,9.15-11,17.3a6.57,6.57,0,0,1-.59,1.9l-1.38-.06-.67-.54a22,22,0,0,1,29-21.84,23.34,23.34,0,0,0,6.88,1.08c10.77.08,21.54,0,32.31-.06L282,92.68l.37,2.15,0,0,.17,1.87-.78,2.7L269,111.68l-2,.63-2-.05a67.6,67.6,0,0,1-7.6-.23C256,111.84,254.8,110.83,253.5,110.19Z"/><path class="cls-3" d="M67.15,89.09a46.15,46.15,0,0,0,2.59,4.49,13.85,13.85,0,0,0,3.06,3.09c5.05,3.63,7.39,8.25,5.69,14.49l-11.36.52c-.3-1.4-1.24-3.09-.78-4.15,1-2.29,2.86-2.18,5-.83,3.75,2.36,5.17,1.9,6.21-1.64a24.16,24.16,0,0,0-3-1.53c-2.37-.85-3.86-1.88-4.71-4.8-1.4-4.76-7.32-7.14-11-2.31A31.49,31.49,0,0,1,56,99.31c-3.16,3.17-3.07,3.09,0,6.32,1.84,2,3.34,4.24,5,6.38l-2,.32L57,112c-1.36-5.71-5.83-7.26-10.1-3.44a32.08,32.08,0,0,0-2.8,3.25c-.41-.13-1.18-.25-1.19-.4q-.57-9.5-1-19c-.11-2.44,1.23-3.6,3.59-3.73,6,.07,12,.12,18,.21C64.72,88.89,65.93,89,67.15,89.09Z"/><path class="cls-4" d="M102.84,25l3.54.47a21.23,21.23,0,0,1-.93,2.7C101.26,36.34,97,44.44,92.86,52.65c-1.27,2.54-3,3.35-5.64,2.82A33.82,33.82,0,0,1,82,54.25c-.84-.32-1.41-1.37-2.1-2.09a71.94,71.94,0,0,1,19.8-25.48A18.52,18.52,0,0,1,102.84,25Z"/><path class="cls-3" d="M117.78,112.52a64.67,64.67,0,0,0-.76-8.31,18.74,18.74,0,0,0-15.84-14.79c-8-1-14.82,1.32-19.28,8.61a3.13,3.13,0,0,1-.71.62c-4-2.84-4.07-3.44-.81-6.71l2.85-2.85c9.88-7.86,18.69-8.39,27.82-1.37a16.84,16.84,0,0,1,4.63,5.63,37.11,37.11,0,0,1,3.91,19.5Z"/><path class="cls-5" d="M130.9,68.87a14.82,14.82,0,0,1-3.23.73q-34.22,0-68.43,0c-1,0-2,.1-3.13.16.41,2.75,1.75,3.66,4.5,3.61,9.66-.18,19.33-.1,29-.07a30.75,30.75,0,0,1,3.6.42H83.39c.37,3.17.63,6-3.34,7-.87.21-1.45,1.64-2.16,2.52h0l-2.72-3.39,0,0,2.67-5.47c-6.71,0-12.46-.05-18.21.11-.42,0-1.22,1.63-1.11,2.4.54,4,.47,4.21-3.56,4.23-2.46,0-4.91,0-7.37,0l4-11.95,42.51-.18Z"/><path class="cls-3" d="M61,112c-1.65-2.14-3.16-4.41-5-6.38-3-3.23-3.11-3.14,0-6.32a31.49,31.49,0,0,0,2.84-2.88c3.7-4.83,9.62-2.44,11,2.31.86,2.91,2.34,3.94,4.71,4.8a24.16,24.16,0,0,1,3,1.53c-1,3.53-2.46,4-6.21,1.64-2.14-1.35-4-1.46-5,.83-.47,1.06.47,2.75.78,4.15l-5.45.64Zm2.94-14.37-5.05,4.22,3,3.74C67.23,101.9,67.5,100.64,63.93,97.63Z"/><path class="cls-4" d="M155.46,7c-.18.28-.38.8-.55.79-5.12-.23-10.24-.52-15.36-.8Q136.41,2.87,140.71,0l10.09.19L145.64,7Z"/><path class="cls-6" d="M79.08,52.2l-.53,6.18c.34.27.49.46.67.51.81.24,1.64.45,2.46.67a14.74,14.74,0,0,1-1,1.32,7.62,7.62,0,0,1-2.64-2,12.29,12.29,0,0,1-.88-3.55c-2.23-4.3-1.46-15.12,2-17Z"/><path class="cls-2" d="M279.41,87.26c-2.45.12-5,.57-7.33.19-.94-.15-2.16-2.12-2.19-3.29A4.44,4.44,0,0,1,272,80.8c1.49-.75,3.4-.66,5.13-.93Z"/><path class="cls-7" d="M155.46,7h-9.82L150.81.21,154.94,0c2.93,1.81,2.72,4.2,1.25,6.82Z"/><path class="cls-3" d="M44.07,111.79a32.08,32.08,0,0,1,2.8-3.25c4.27-3.83,8.74-2.28,10.1,3.44l-4.07.25-2,.09Z"/><path class="cls-3" d="M269,111.68l12.77-12.27.27,2,.06,1.41-.27.65-8.12,8.5Z"/><path class="cls-3" d="M273.69,112l8.12-8.5-1.09,8.5Z"/><path class="cls-8" d="M153.5,1.44l-4.08.21-10-.18c.42-.48.83-1.36,1.27-1.37q5.73-.17,11.46,0C152.64.09,153.06,1,153.5,1.44Z"/><path class="cls-1" d="M275.11,71.79l-.67-2.06Z"/><path class="cls-6" d="M211.64,109.56l.67.54-.67.14Z"/><path class="cls-9" d="M98.2,78.53c14.28,0,28.56,0,42.84,0,2.79,0,3,1.71,3,3.78q0,10.63,0,21.26a9.11,9.11,0,0,0,.1,3c1,2.58-.65,3.49-2.53,3.56-5.28.2-10.58.2-15.85,0-.92,0-2.17-1.47-2.58-2.52-1.93-5-3.14-10.3-5.53-15-3.22-6.38-8.1-11.08-16-11.42-1.32-.06-2.59-1.09-3.88-1.67Z"/><path class="cls-5" d="M73.78,88.71H72.53l1.71-2.55.61.32Z"/><path class="cls-5" d="M69.8,85.25,71.1,82.9l.77.65-2.09,1.69Z"/><path class="cls-5" d="M75.18,79.83,73.71,82,73,81.29l2.25-1.44Z"/><path class="cls-5" d="M67.62,88.79l-.26.06-.22-.15,1.3-2.77v0Z"/><path class="cls-5" d="M69.78,85.24l-1.36.67v0l1.36-.68Z"/><path class="cls-5" d="M77.21,84.57l0,0,.06,0Z"/><path class="cls-5" d="M77.23,84.58l.68-1.36h0l-.67,1.36Z"/><path class="cls-5" d="M93.64,73.82l.37.52Z"/><path class="cls-4" d="M225.49,62.33c-11.26,0-22.51-.06-33.77,0-3.14,0-4.48-1-4.44-4.31.13-9.34,0-18.68,0-28,0-4.29.67-4.9,4.88-4.9,20.26,0,40.52.07,60.78-.07,3.51,0,4.88,1,5.4,4.61,1.35,9.3,3.19,18.54,4.9,27.78.72,3.92,0,4.86-4,4.87Q242.37,62.35,225.49,62.33ZM225.31,49l7,3.36c3-4.3,3-4.29-1.18-6.6-.94-.52-1.85-1.07-3.14-1.81l7-4.44-2.52-4.42L225,39v-8.1h-5.31v8l-7.28-3.76-2.69,4.38,7.16,4.39-7.17,4.19,2.76,4.6,7.43-4.2v8.13h5Z"/><path class="cls-4" d="M109.6,28.5l.72-1.34c1.16-.49,2.31-1.38,3.48-1.4,7.76-.13,15.53,0,23.29-.11,2.92-.05,3.7,1.32,3.69,3.89,0,9.67-.11,19.35,0,29,0,3-1.06,3.89-4,3.86-12.49-.12-25,0-37.46-.05-4.18,0-4.89-1.08-3.24-4.83.5-1.13,1.1-2.21,1.62-3.34Q103.69,41.35,109.6,28.5Z"/><path class="cls-4" d="M165.37,62.33c-5,0-9.91-.09-14.85,0-2.55.06-3.77-.86-3.76-3.47q.06-15.19,0-30.38c0-2.42,1.21-3.41,3.57-3.4q15,.06,30,0c2.48,0,3.68.87,3.66,3.57q-.14,15.19,0,30.38c0,2.58-1.11,3.32-3.48,3.28C175.5,62.27,170.43,62.33,165.37,62.33Z"/><path class="cls-9" d="M109.6,28.5Q103.68,41.35,97.76,54.2c-.52,1.12-1.12,2.21-1.62,3.34-1.65,3.75-.94,4.83,3.24,4.83,12.49,0,25-.06,37.46.05,2.9,0,4-.87,4-3.86-.13-9.67-.07-19.35,0-29,0-2.57-.77-3.94-3.69-3.89-7.76.14-15.53,0-23.29.11-1.17,0-2.32.91-3.48,1.4-.52-.53-1.53-1.12-1.47-1.57a12.56,12.56,0,0,1,1.06-3h34.17c0,3.38,0,6,0,8.54.08,9,.2,18,.25,26.94,0,2.67-.33,5.35-.2,8,.11,2.2-.72,3.12-2.83,3.05v0l-.5-.79a1,1,0,0,1-.23-.52c-.44-.51-.85-1.44-1.31-1.47a58,58,0,0,0-6.93,0c-.37,0-.7.86-1,1.32L131.15,69l-.25-.13-36.77.08c-.22-3.06-.59-6.13-.6-9.19a11.38,11.38,0,0,1,1.09-4.46C98,47.65,101.41,40,105,32.47,105.87,30.64,106.6,28.1,109.6,28.5Z"/><path class="cls-6" d="M131.15,69l.14-1.26,9.28.11a1,1,0,0,0,.23.52q-.1.31-.2.63Z"/><path class="cls-1" d="M140.6,69q.11-.31.2-.63l.5.79Z"/><path class="cls-3" d="M63.93,97.63c3.57,3,3.3,4.27-2.07,8l-3-3.74Z"/><path class="cls-2" d="M225.31,49l-.46,7.61h-5V48.48l-7.43,4.2-2.76-4.6,7.17-4.19-7.16-4.39,2.69-4.38,7.28,3.76v-8H225V39l7.55-3.93L235,39.51l-7,4.44c1.29.74,2.2,1.29,3.14,1.81,4.18,2.31,4.19,2.3,1.18,6.6Z"/><path class="cls-5" d="M140.57,67.84l-9.28-.11c.35-.46.67-1.3,1-1.32a58,58,0,0,1,6.93,0C139.73,66.4,140.14,67.33,140.57,67.84Z"/><path class="cls-10" d="M118.27,107.59c-.55,10.27-4.38,18.42-15,21.42-11,3.09-21.66-3.31-24.71-14.34-.31-1.11-.73-2.18-1.11-3.27,0-.83,0-1.66.12-2.48,1.36-13.64,13.59-22.58,26.37-18.64C112.1,92.81,116.65,99.18,118.27,107.59ZM98.18,123.27A13.62,13.62,0,1,0,84.37,110,13.35,13.35,0,0,0,98.18,123.27Z"/><path class="cls-11" d="M98.18,123.27a13.62,13.62,0,1,1,13.44-13.67A13.34,13.34,0,0,1,98.18,123.27Z"/><path class="cls-10" d="M253,107.59c-.55,10.27-4.38,18.42-15,21.42-11,3.09-21.66-3.31-24.71-14.34-.31-1.11-.73-2.18-1.11-3.27,0-.83,0-1.66.12-2.48,1.36-13.64,13.59-22.58,26.37-18.64C246.81,92.81,251.36,99.18,253,107.59Zm-20.09,15.68A13.62,13.62,0,1,0,219.08,110,13.35,13.35,0,0,0,232.89,123.27Z"/><path class="cls-11" d="M232.89,123.27a13.62,13.62,0,1,1,13.44-13.67A13.34,13.34,0,0,1,232.89,123.27Z"/><path class="cls-12" d="M32.14,41.62l11.12,8.23c2,1.47,2.62,2.61,2,3.49Q43.12,56.22,41,59.08c-.72,1-1.92.7-4.09-.9l-22-16.27c-2-1.49-2.59-2.49-1.94-3.37q2.18-3,4.37-5.91c.64-.86,1.82-.6,3.8.86l11,8.13Z"/><path class="cls-12" d="M18.27,62.64,32,64.31c2.44.3,3.57,1,3.44,2.06q-.41,3.55-.86,7.09c-.15,1.19-1.33,1.55-4,1.23L3.43,71.4c-2.49-.3-3.48-.89-3.35-2q.43-3.65.89-7.29C1.1,61.07,2.26,60.72,4.69,61l13.58,1.64Z"/><path class="cls-12" d="M16.68,85.48l13.59-2.54c2.42-.45,3.69-.15,3.9.93q.67,3.51,1.31,7c.21,1.18-.8,1.88-3.44,2.38l-26.88,5c-2.47.46-3.58.2-3.79-.88Q.68,93.81,0,90.2c-.19-1.06.81-1.74,3.21-2.2l13.44-2.52Z"/></g></g></svg>