<svg xmlns="http://www.w3.org/2000/svg" viewBox="0 0 300.85 117.04"><defs><style>.cls-1{fill:#110f0f;}.cls-2{fill:#373427;}.cls-3{fill:#484948;}.cls-4{fill:#e5e1e1;}.cls-5{fill:#f6f5f4;}.cls-6{fill:#b5b5b5;}.cls-7{fill:#e74f4f;}.cls-8{fill:#219ba3;}.cls-9{fill:#da342e;}.cls-10{fill:#a5a6a9;}.cls-11{fill:#fefefd;}</style></defs><title>Asset 17</title><g id="Layer_2" data-name="Layer 2"><g id="Layer_1-2" data-name="Layer 1"><path class="cls-1" d="M26,79.56,29.12,69.5c3.56.2,7.13.57,10.69.5,1.22,0,3.11-.88,3.48-1.82a52.75,52.75,0,0,0,1.89-7.89l-4.36-1.52C58.23,52,76.35,48.42,94.94,47.11l15.22,30.51L96.66,79.57h0l-2.53-2.45c-1.87-1.13-3.6-2.73-5.62-3.3-9.37-2.61-17.75-1.12-24.3,6.72A30.73,30.73,0,0,0,59,79.63C48,79.54,37,79.57,26,79.56Z"/><path class="cls-1" d="M260.71,104.72l-2.47-.14c1.46-5.24,2.21-10.29.1-15.76-2.53-6.58-11.63-14.15-20.48-13.53-8.06.56-16.56,6-18.5,14.21-1.13,4.78-.25,10-.28,15.08l-4.15.1.78-11.78.1-1.65,7.46-14,.78-.39c2.38-1,4.69-2.51,7.16-2.82,5.35-.67,10.79-.72,17.1-1.08l4.76-21.59c1.51-.08,3-.11,4.53-.23q14.07-1.16,28.13-2.36c6.31-.08,6.33-.07,9.29,7.25a7.25,7.25,0,0,0-1.94.57c-1.74,1.11-4,2-4.86,3.62-.53,1,.93,3.32,1.89,4.79,2.33,3.58,6,3.34,9.62,2.9l.78,8.43h-48a77,77,0,0,1,5.08,6.42C261.83,89.57,262.42,97,260.71,104.72Z"/><path class="cls-2" d="M260.71,104.72c1.71-7.72,1.12-15.15-3.11-22a77,77,0,0,0-5.08-6.42h48l.13-.18.21.08-.25,1.67-.86,1.69L289.91,89l6,3.94-1.22,3.25c-3.71-2.17-7.55-4.69-11.35-.45-2.74,3.06-5.08,6.48-7.6,9.73Z"/><path class="cls-3" d="M219.08,104.58c0-5-.85-10.3.28-15.08,1.93-8.17,10.44-13.64,18.5-14.21,8.85-.62,18,7,20.48,13.53,2.1,5.48,1.36,10.52-.1,15.76-3.54,6.07-8.29,10.7-15.43,12-8.32,1.55-15.16-1.23-20.48-7.78C221.2,107.45,220.16,106,219.08,104.58Zm32.67-8.21A12.92,12.92,0,0,0,238.84,83a13.18,13.18,0,1,0,.06,26.36A12.88,12.88,0,0,0,251.76,96.37Z"/><path class="cls-3" d="M64.2,80.54c6.55-7.84,14.94-9.33,24.3-6.72,2,.56,3.75,2.17,5.62,3.3l2.53,2.45h0c1.38,2.81,3.67,5.54,3.94,8.45.45,4.8-.41,9.71-.72,14.58-7.69,11.76-20.12,15.08-30.51,8.09a20.66,20.66,0,0,1-8.6-11.8C59.34,92.29,61.21,86.31,64.2,80.54Zm16.91,25.91a12.81,12.81,0,0,0,13-13.18A13.08,13.08,0,0,0,80.78,80.33,13.34,13.34,0,0,0,67.61,93.56C67.71,100.56,73.94,106.52,81.11,106.45Z"/><path class="cls-2" d="M99.88,102.6c.31-4.87,1.17-9.78.72-14.58-.27-2.91-2.56-5.64-3.94-8.45l13.51-1.95,4,1.06.79.31c0,6,0,11.92.06,17.88,0,2.68.82,5,4.08,5.15,2.84.11,5.68.05,8.53.05,15.69,0,31.38-.07,47.07.07,3.57,0,5.12-1.44,5.27-4.79q.43-9.72.84-19.44l4.19-.07c-.29,7-.53,14-.91,21-.17,3.1,1.14,4.15,4.15,4.07,5.8-.15,11.6,0,17.41,0s7-1,8.42-6.78a15.15,15.15,0,0,1,1.68-3.23l-.78,11.78a22.28,22.28,0,0,1-3.91.62q-51.45-.93-102.89-2C105.38,103.27,102.63,102.85,99.88,102.6Z"/><path class="cls-2" d="M64.2,80.54c-3,5.77-4.85,11.75-3.43,18.35-6,.31-12,.37-18,1-4.3.47-7.07-1.34-9.56-4.44C29.41,90.77,26,86,26,79.56c11,0,22,0,33,.07A30.73,30.73,0,0,1,64.2,80.54Z"/><path class="cls-4" d="M285.73,48.75q-14.06,1.18-28.13,2.36c-1.5.12-3,.16-4.53.23l-4.76,21.59c-6.31.35-11.74.4-17.1,1.08-2.47.31-4.78,1.84-7.16,2.82.68-1.08,1.12-2.58,2.1-3.16a47.83,47.83,0,0,1,9.45-4.76,14.34,14.34,0,0,0,7.79-21.56c-2.92-4.5-5.86-9-8.74-13.51-3-4.71-5.94-9.47-8.91-14.2l5,0a4.73,4.73,0,0,0,.53,1.53Q240.09,31.76,249,42.31c2.7,3.2,6.05,4,9.94,2.36,7.72.82,15.45,1.58,23.16,2.5C283.34,47.33,284.51,48.21,285.73,48.75Z"/><path class="cls-1" d="M230.74,19.62l-5,0q-31.92-.16-63.84-.33c-8.42-.06-16.84-.25-25.26-.38L135,18.64,130.49,16c4.69-.75,8.38-1.78,12.1-1.86,12.73-.28,25.46-.22,38.19-.29l3.3.07.86,0,5.07-.52a2.21,2.21,0,0,0,.57-.26,21.17,21.17,0,0,0,4.16.87c8.67.08,17.34,0,26,0a17,17,0,0,1,13.1,5.55Z"/><path class="cls-4" d="M135,18.64l1.61.29,2.14,2.42-8,10.78-4.16,5-3.32,3.4a76,76,0,0,1-6.25,5.68c-1.9,1.4-4.28,3.35-6.29,3.17-4-.35-7.82-2-11.73-3.11q8.72-8.47,17.44-17c2.94-2.87,5.73-5.9,8.78-8.65,1.75-1.58,3.57-3.54,6.47-1.62C132.44,19.51,133.91,18.81,135,18.64Z"/><path class="cls-5" d="M99.06,46.27c3.9,1.11,7.76,2.76,11.73,3.11,2,.18,4.38-1.77,6.29-3.17a75.82,75.82,0,0,0,6.25-5.68c-.54,1.21-1,2.46-1.64,3.61-1.91,3.46-5,6.7-5.62,10.37-1.31,8-1.36,16.11-1.93,24.18l-4-1.06L94.94,47.11Z"/><path class="cls-6" d="M230.74,19.62l3.11-.05c3.48,3.08,7.16,6,10.4,9.27,5,5.13,9.79,10.54,14.67,15.83-3.89,1.64-7.24.84-9.94-2.36q-8.9-10.54-17.71-21.16A4.73,4.73,0,0,1,230.74,19.62Z"/><path class="cls-6" d="M40.82,58.77l4.36,1.52a52.75,52.75,0,0,1-1.89,7.89C42.92,69.12,41,70,39.81,70c-3.56.07-7.12-.3-10.69-.5C31.14,63.88,36.32,61.69,40.82,58.77Z"/><path class="cls-7" d="M184.08,13.87l-3.3-.07a12.32,12.32,0,0,1-3.17-1.37c-1.56-1.28-3.52-2.61-4.15-4.34a4,4,0,0,1,2.84-5.48l12.86.28C187.18,6.42,182.61,8.75,184.08,13.87Z"/><path class="cls-8" d="M184.08,13.87c-1.47-5.12,3.1-7.45,5.08-11l6.57-.24c4.33,3.8,3.53,7.86-1.94,9.85l-1.68.2-1.53.41a2.13,2.13,0,0,1-.56.26c-1.87-1.58-3.68-2.6-5.07.52Z"/><path class="cls-9" d="M299.72,67.87c-3.64.44-7.29.69-9.62-2.9-1-1.47-2.42-3.78-1.89-4.79.85-1.62,3.13-2.51,4.86-3.62A7.25,7.25,0,0,1,295,56Z"/><path class="cls-2" d="M294.66,96.21l-.86,2-3.87,4c-1-3.9-2.2-4.48-5-2a64.68,64.68,0,0,0-5,5.3l-4.19,0c2.52-3.26,4.86-6.68,7.6-9.73C287.12,91.52,290.95,94,294.66,96.21Z"/><path class="cls-7" d="M195.73,2.65l-6.57.24L176.3,2.61C177.19,1.77,178,.25,179,.2a127.34,127.34,0,0,1,14,0C193.91.24,194.8,1.79,195.73,2.65Z"/><path class="cls-2" d="M279.9,105.45a64.68,64.68,0,0,1,5-5.3c2.84-2.44,4.09-1.86,5,2C287.38,105.71,283.76,105.94,279.9,105.45Z"/><path class="cls-10" d="M192.11,12.7l1.68-.2Z"/><path class="cls-2" d="M96.65,79.57l-2.53-2.45Z"/><path class="cls-11" d="M114.13,78.68c.57-8.07.61-16.23,1.93-24.18.6-3.66,3.71-6.9,5.62-10.37.64-1.15,1.1-2.41,1.64-3.61l3.32-3.4,4.16-5,8-10.78-2.14-2.42c8.42.13,16.84.32,25.26.38q31.92.21,63.84.33c3,4.74,5.91,9.49,8.91,14.2,2.88,4.52,5.82,9,8.74,13.51a14.34,14.34,0,0,1-7.79,21.56,47.83,47.83,0,0,0-9.45,4.76c-1,.58-1.42,2.08-2.1,3.16l-.78.39-4.16,0L185,77.85l-4.19.07L114.92,79Zm10-30.44c2,.24,3.08.45,4.13.47q24.3.41,48.61.78c2.74,0,3.82-1,4-3.93.31-6.2,1.06-12.38,1.66-18.57.18-1.82.47-3.64.84-6.44-12.66,0-24.55-.1-36.44.12a7.12,7.12,0,0,0-4.66,2.73C138,29,134,34.82,129.87,40.55,128.15,42.93,126.37,45.28,124.18,48.25Zm116,.14c-.52-1.92-.54-2.67-.89-3.19-5.14-7.68-10.23-15.4-15.59-22.93-.76-1.06-2.85-1.63-4.34-1.65-9-.15-18,0-26.95-.1-2.63,0-3.32,1.19-3.3,3.56.05,5.55-.07,11.09-.1,16.64,0,2.82,0,5.63,0,7.67ZM171.28,60.84a20.49,20.49,0,0,0,4.51-.09c1-.22,1.71-1.26,2.56-1.94-.83-.65-1.63-1.79-2.5-1.86a58.61,58.61,0,0,0-9.06,0c-.92.07-1.76,1.19-2.63,1.83.86.69,1.64,1.75,2.61,2A20.31,20.31,0,0,0,171.28,60.84ZM232,56.2a25.9,25.9,0,0,0-4.52.07c-.9.16-1.68,1-2.51,1.56.75.81,1.46,2.25,2.27,2.32a65.89,65.89,0,0,0,9.87,0c.72-.05,1.36-1.34,2-2.07-.73-.63-1.4-1.65-2.22-1.79A29.15,29.15,0,0,0,232,56.2Z"/><path class="cls-3" d="M185,77.85l34.14-.64a20.15,20.15,0,0,0-1.32,3.33c-.74,3.55-1.33,7.14-2,10.71l-.1,1.65A15.13,15.13,0,0,0,214,96.14c-1.42,5.78-2.59,6.78-8.42,6.78s-11.61-.11-17.41,0c-3,.08-4.32-1-4.15-4.07C184.44,91.87,184.67,84.86,185,77.85Z"/><path class="cls-2" d="M215.81,91.25c.65-3.57,1.24-7.16,2-10.71a20.15,20.15,0,0,1,1.32-3.33l4.16,0Z"/><path class="cls-2" d="M299.74,79.56,295.88,93l-6-3.94Z"/><path class="cls-6" d="M251.76,96.37a12.88,12.88,0,0,1-12.86,13A13.18,13.18,0,1,1,238.84,83,12.92,12.92,0,0,1,251.76,96.37Z"/><path class="cls-6" d="M81.11,106.45c-7.16.06-13.4-5.89-13.5-12.89A13.34,13.34,0,0,1,80.78,80.33,13.08,13.08,0,0,1,94.12,93.27,12.81,12.81,0,0,1,81.11,106.45Z"/><path class="cls-3" d="M114.92,79l65.85-1.08q-.42,9.72-.84,19.44c-.15,3.35-1.7,4.83-5.27,4.79-15.69-.14-31.38-.07-47.07-.07-2.84,0-5.69.06-8.53-.05-3.26-.13-4-2.47-4.08-5.15C114.9,90.92,114.93,85,114.92,79Z"/><path class="cls-10" d="M184.94,13.89c1.39-3.12,3.2-2.1,5.07-.52Z"/><path class="cls-5" d="M130.8,32.13l-4.16,5Z"/><path class="cls-6" d="M124.18,48.25c2.19-3,4-5.31,5.69-7.7C134,34.82,138,29,142.28,23.42a7.12,7.12,0,0,1,4.66-2.73c11.88-.23,23.77-.12,36.44-.12-.37,2.8-.66,4.61-.84,6.44-.6,6.19-1.35,12.37-1.66,18.57-.14,2.9-1.22,4-4,3.93q-24.3-.41-48.61-.78C127.26,48.7,126.22,48.48,124.18,48.25Z"/><path class="cls-6" d="M240.2,48.38H189c0-2,0-4.86,0-7.67,0-5.55.15-11.09.1-16.64,0-2.37.66-3.59,3.3-3.56,9,.09,18,0,26.95.1,1.49,0,3.58.59,4.34,1.65,5.36,7.53,10.45,15.24,15.59,22.93C239.67,45.72,239.69,46.46,240.2,48.38Z"/><path class="cls-3" d="M171.28,60.84a20.18,20.18,0,0,1-4.52-.09c-1-.23-1.75-1.29-2.61-2,.88-.64,1.71-1.76,2.63-1.83a58.61,58.61,0,0,1,9.06,0c.88.07,1.67,1.21,2.5,1.86-.85.68-1.61,1.72-2.56,1.94A20.36,20.36,0,0,1,171.28,60.84Z"/><path class="cls-3" d="M232,56.2a28.7,28.7,0,0,1,4.93.09c.82.15,1.48,1.17,2.22,1.79-.68.72-1.32,2-2,2.07a65.89,65.89,0,0,1-9.87,0c-.81-.07-1.52-1.51-2.27-2.32.83-.54,1.61-1.4,2.51-1.56A25.47,25.47,0,0,1,232,56.2Z"/><path class="cls-9" d="M23.19,42.74l3.73,5.16c.66.92.69,1.58.08,2l-4,2.89c-.67.48-1.26.27-2-.74l-7.38-10.2c-.68-.94-.7-1.51-.09-2l4.11-3c.6-.43,1.17-.22,1.84.69l3.69,5.1Z"/><path class="cls-9" d="M10.21,59.69l6.65,2.51c1.18.45,1.65,1,1.42,1.57q-.74,2-1.49,3.94c-.25.66-.9.73-2.19.25L1.45,63c-1.21-.46-1.62-.9-1.39-1.51q.76-2,1.53-4.06c.23-.59.86-.66,2-.22l6.58,2.48Z"/><path class="cls-9" d="M9.61,80.76l5.48-3c1-.53,1.57-.56,1.83-.1q.84,1.52,1.66,3c.28.51-.05,1-1.12,1.55L6.63,88.18c-1,.54-1.52.57-1.77.11L3.15,85.16c-.25-.46.08-.91,1-1.44l5.41-3Z"/></g></g></svg>