<svg xmlns="http://www.w3.org/2000/svg" viewBox="0 0 252.56 89.63"><defs><style>.cls-1{fill:#d9dadb;}.cls-2{fill:#454545;}.cls-3{fill:#505050;}.cls-4{fill:#e83565;}.cls-5{fill:#565655;}.cls-6{fill:#626262;}.cls-7{fill:#f8f8f8;}.cls-8{fill:#eaeaea;}</style></defs><title>Asset 26</title><g id="Layer_2" data-name="Layer 2"><g id="Layer_1-2" data-name="Layer 1"><path class="cls-1" d="M222.59,18.86a29.92,29.92,0,0,1,15.83,14L226.9,30.66c-.89,6.43,2.9,10.85,9.68,12.49,5.14,1.24,6.29,0,4.81-5.22,2.83,2.09,5.66,4.17,8.47,6.28a3.46,3.46,0,0,1,.95,1.14c5.47,10.48-2.53,24.48-14.58,25.53,0-.83,0-1.66,0-2.49.67-12.19-10.47-25.58-28.42-23.62-12.17,1.33-23.29,14-21.56,28.72q-21.9.13-43.79.27-28.12.14-56.25.24l-19-.5c-.09-3.31.37-6.75-.36-9.92-3.31-14.46-17.69-22.08-31.9-18.28C22.37,48.64,14.43,63.84,18.26,76.7,12,76.21,5,77.44,1.58,69.94c1.32,0,2.64.09,4,0,3.27-.24,7.51-4.23,6.37-6.7-.76-1.65-3.84-2.5-6-3.15-1.67-.49-3.6-.1-5.41-.1C-.4,55.49-.62,51.3,5.13,49.7a3.39,3.39,0,0,0,2-2c2.35-8.52,8.69-13,16.18-16.42l5.09-1.66,18.82-4.53,22-2c2.61-.13,5.84.67,7.73-.56,8.31-5.41,16.24-11.39,24.28-17.21,2.12-1.54,2.41-3.13-.28-4.45L106.24,0c3.14,4.41.47,6.72-3.15,8.68-.86.47-1.77.85-2.59,1.37-6.87,4.4-13.43,9.14-18.16,17.54l11-1.72c3.54.1,7.49,1.92,9.27-1.49,3.47.39,6.31,1.06,9.13,1,9.75-.34,19.49-1,29.23-1.46l8.29-.9,31.89-2.22c.69.38,1.39,1.12,2.07,1.1,12.18-.37,24.37-.8,36.55-1.35C220.7,20.46,221.63,19.43,222.59,18.86ZM23,38.79c-1-.34-3.36-1.7-3.92-1.18a48.59,48.59,0,0,0-8.49,9.63c-1.31,2.13.44,4.1,3.37,3.68C17.7,50.38,23.25,43.78,23,38.79Z"/><path class="cls-2" d="M62.19,73.83c-2.65,8.94-8.37,14.66-17.78,15.61-8.94.9-15.59-3.15-20-10.93-.43-.76-1.4-1.22-2.11-1.82.59-4.86.69-9.84,1.89-14.54,1.84-7.24,9.09-12.75,17.35-13C48.8,48.84,54.61,51.89,59,58.2,62.56,63.2,62.28,68.4,62.19,73.83Zm-19.85,9.3A13.63,13.63,0,1,0,28.75,69.54,13.58,13.58,0,0,0,42.34,83.13Z"/><path class="cls-3" d="M62.19,73.83c.09-5.43.37-10.64-3.14-15.63-4.44-6.31-10.25-9.36-17.55-9.09-8.26.3-15.51,5.8-17.35,13-1.19,4.7-1.3,9.68-1.89,14.54h-4c-3.83-12.86,4.1-28.07,16.68-31.43,14.21-3.8,28.58,3.82,31.9,18.28.73,3.17.27,6.6.36,9.92Z"/><path class="cls-3" d="M.45,60c1.81,0,3.74-.39,5.41.1,2.21.65,5.29,1.49,6,3.15,1.14,2.47-3.09,6.46-6.37,6.7-1.31.1-2.63,0-4,0Z"/><path class="cls-2" d="M231.57,71.71c-2.48,10.89-9.13,17.28-19,17.88a20.12,20.12,0,0,1-20.68-15.22c-.07-.29-.39-.52-.6-.77,0-1.83-.07-3.66,0-5.49.29-12.71,16.2-23.09,27.31-17.7C227.84,54.92,231.8,61.81,231.57,71.71Zm-20,11.42A13.63,13.63,0,1,0,197.8,69.72,13.42,13.42,0,0,0,211.54,83.13Z"/><path class="cls-3" d="M222.59,18.86c-1,.57-1.89,1.6-2.86,1.65-12.18.55-24.36,1-36.55,1.35-.68,0-1.38-.71-2.07-1.1l6.12-3.12c-5.76-1.23-4.9-4.9-3.79-8,.61-1.75,2.69-3,4.11-4.46l7.09,9.62c3.94-1.65,9-3.6,13.88-5.9,2.48-1.17,3.77-.66,5.35,1.47,1.14,1.54,3.33,2.26,4.77,3.64A47.8,47.8,0,0,1,222.59,18.86Z"/><path class="cls-3" d="M231.57,71.71c.23-9.9-3.73-16.79-13-21.3-11.11-5.39-27,5-27.31,17.7,0,1.83,0,3.66,0,5.49l-5-.13c-1.73-14.69,9.39-27.39,21.56-28.72,18-2,29.1,11.44,28.42,23.62,0,.83,0,1.66,0,2.49Z"/><path class="cls-3" d="M93.3,25.88l-11,1.72C87.07,19.19,93.63,14.45,100.5,10c.82-.53,1.73-.91,2.59-1.37,3.62-2,6.29-4.26,3.15-8.68l6.49,3.38c-1.18,1.92-2,4.22-3.62,5.68-4,3.69-8.63,6.79-12.6,10.55C94.9,21.14,94.34,23.76,93.3,25.88Z"/><path class="cls-3" d="M101,.84c2.69,1.32,2.41,2.91.28,4.45-8,5.82-16,11.8-24.28,17.21-1.9,1.23-5.12.43-7.73.56Z"/><path class="cls-4" d="M241.38,37.92c1.48,5.21.33,6.46-4.81,5.22-6.78-1.63-10.57-6.06-9.68-12.49l11.51,2.23h-.12l1.9,2.28Z"/><path class="cls-5" d="M149.22,23l-8.29.9c.21-1.28,2.45-2.67-.55-3.77-.93-.34-2.06-2.66-1.71-3.53A60.22,60.22,0,0,1,143,8.9c1.74,2.11,4,4,5.07,6.39S148.88,20.4,149.22,23Z"/><path class="cls-6" d="M240.2,35.18l-1.9-2.28Z"/><path class="cls-7" d="M23,38.79c.24,5-5.31,11.59-9,12.13-2.94.42-4.68-1.55-3.37-3.68a48.59,48.59,0,0,1,8.49-9.63C19.65,37.08,22,38.45,23,38.79Z"/><path class="cls-8" d="M42.34,83.13a13.63,13.63,0,0,1-.06-27.26,13.63,13.63,0,1,1,.06,27.26Z"/><path class="cls-8" d="M211.54,83.13a13.63,13.63,0,0,1-.41-27.25,13.63,13.63,0,1,1,.41,27.25Z"/></g></g></svg>