<svg xmlns="http://www.w3.org/2000/svg" viewBox="0 0 254.44 108.03"><defs><style>.cls-1{fill:#fdc819;}.cls-2{fill:#fbb806;}.cls-3{fill:#454545;}.cls-4{fill:#868686;}.cls-5{fill:#bc8e0d;}.cls-6{fill:#e83565;}.cls-7{fill:#626262;}.cls-8{fill:#d1d1d1;}.cls-9{fill:#565655;}.cls-10{fill:#505050;}.cls-11{fill:#fbfbfb;}.cls-12{fill:#eaeaea;}.cls-13{fill:#484948;}.cls-14{fill:#a5a6a9;}.cls-15{fill:#219ba3;}</style></defs><title>Asset 5</title><g id="Layer_2" data-name="Layer 2"><g id="Layer_1-2" data-name="Layer 1"><path class="cls-1" d="M104.92,18c2.64-1.47,5.12-3.67,7.94-4.26,6-1.23,12.12-1.62,18.2-2.35l32,.13,5,.88,15,2.16,3,.94,6,3c1.21,1.31,2.19,3,3.67,3.87,8.71,4.93,17.5,9.74,26.37,14.36,2,1.06,4.56,1.22,6.85,1.79l10.83,11.26a45.85,45.85,0,0,0-5.14-1.71c-3.35-.71-6-.09-6.38,4.06-.66.44-1.31,1.23-2,1.27-14.54.77-29.09,1.41-43.64,2.16-6.73.35-13.45.86-20.21,1.29l-.63,5.61-.42,0-.8-5.74c-10.84.62-21.24,1.34-31.64,1.79-11.28.48-22.58.65-33.86,1.07-4,.15-7.92.6-11.87,1-.93.1-2.57.51-2.61.88-.26,2.95-.58,6,0,8.84.16.75,3.44,1.21,5.28,1.18,12.37-.22,24.74-.81,37.11-.86,8.45,0,16.94,1.16,25.35.7,4.41-.24,10.89,1.71,12.23-7.35l1.1,8c5.84-2.12,12.86,3.2,17.34-6.07l-.48,5.69h15.71c-4.43,6.07-7.07,12.65-5.72,20.34-1.81.17-3.62.5-5.42.5q-54.83,0-109.65,0a56.84,56.84,0,0,1-5.89-.61L64,74.57H77.81c.47-3.89.88-7.13,1.25-10.38.32-2.81-.87-3.74-3.75-3.59-9.62.48-19.26.66-28.88,1.1-.81,0-1.57,1.19-2.36,1.82l-4.89.31c-1.49-.43-3-1.25-4.48-1.21-4.57.13-9.13.59-13.69.92a14.41,14.41,0,0,0,1.6-3.08,40.73,40.73,0,0,0,.66-5c-2,.09-4.57-.58-5.81.42-2.57,2.07-4.42,5-6.57,7.62L8,63.55c3.37-10,11.7-14.4,20.6-17.94,13.47-5.35,27.61-6.58,42-6.12,3,3.19,5.44,1.16,8-.87,6.95-5.53,14-11,21-16.45C101.34,20.78,103.13,19.41,104.92,18ZM84.84,42.86a30.63,30.63,0,0,0,5.38.82c20.64-.66,41.28-1.46,61.92-2.1,3.16-.1,4.8-1.48,4.67-4.47-.2-4.64-.59-9.3-1.21-13.9-.46-3.43-2.52-5.16-6.23-4.94-9.79.59-19.59.88-29.37,1.55-14.88,1-24.45,11.07-34.28,20.59C85.31,40.8,85.28,41.58,84.84,42.86ZM158.58,19.8c.82,3.88,1.59,7.43,2.31,11,2,10,2,10.12,12.25,9.78,8.89-.29,17.77-.81,26.68-1.23C198.76,30.41,173.88,18.73,158.58,19.8Z"/><path class="cls-2" d="M194.25,71.63H178.54l.48-5.69c-4.48,9.28-11.49,4-17.34,6.07l-1.1-8c-1.34,9.06-7.82,7.1-12.23,7.35-8.41.47-16.9-.73-25.35-.7-12.37.06-24.74.65-37.11.86-1.84,0-5.12-.43-5.28-1.18-.59-2.84-.27-5.89,0-8.84,0-.38,1.68-.79,2.61-.88,3.95-.41,7.9-.86,11.87-1,11.28-.42,22.58-.59,33.86-1.07,10.41-.44,20.8-1.16,31.64-1.79l.8,5.74.42,0,.63-5.61c6.75-.44,13.48-.95,20.21-1.29,14.54-.75,29.09-1.39,43.64-2.16.69,0,1.33-.83,2-1.27,3.46,2.57,6.6,5.91,10.46,7.49,4.55,1.87,6,0,5.45-5.13,5,4.7,12.09,8.19,9.84,17.06-5.54,0-11.09-.17-16.61.12-1.56.08-3.06,1.53-4.58,2.35C220.13,58.94,203.51,62.18,194.25,71.63ZM179,64.35l1,.65.93-2.61-.76-.32Z"/><path class="cls-3" d="M214.91,108c-11.65.66-18.5-5.61-22.69-15.73,0-1.33-.08-2.65-.06-4A20.35,20.35,0,0,1,218,68.52c9.15,2.4,14.39,10.05,15.06,22C230.27,99.74,225,106.32,214.91,108Zm11.25-19.81a13.63,13.63,0,1,0-13.77,13.38A13.34,13.34,0,0,0,226.15,88.17Z"/><path class="cls-4" d="M233.07,90.54c-.67-12-5.91-19.62-15.06-22a20.35,20.35,0,0,0-25.85,19.76c0,1.32,0,2.65.06,4L188.53,92c-1.34-7.7,1.29-14.28,5.73-20.35,9.26-9.45,25.88-12.69,38.57,2.41l4.23,15.49Z"/><path class="cls-5" d="M237.05,89.53,232.82,74c1.52-.82,3-2.27,4.58-2.35,5.52-.29,11.07-.12,16.61-.12-.47,2.93,0,6.5-1.61,8.64C249.35,84.4,246,88.84,240,89.5A28.33,28.33,0,0,1,237.05,89.53Z"/><path class="cls-6" d="M244.17,54.51c.58,5.17-.9,7-5.45,5.13-3.86-1.58-7-4.93-10.46-7.49.34-4.15,3-4.77,6.38-4.06a45.85,45.85,0,0,1,5.14,1.71l.08,0,2.86,2.32Z"/><path class="cls-7" d="M229,38.53c-2.3-.57-4.81-.73-6.85-1.79-8.88-4.62-17.66-9.43-26.37-14.36-1.48-.84-2.46-2.56-3.67-3.87,1,0,2.13-.26,2.88.17C206.32,25.24,217.63,31.9,229,38.53Z"/><path class="cls-8" d="M242.74,52.09l-2.86-2.32Z"/><path class="cls-3" d="M63.11,92.59c-3.53,9.92-10,15.09-19.05,15.29-9.47.21-16-4.61-20-14.71a9.59,9.59,0,0,0-.74-1.27,38.29,38.29,0,0,1-.17-4C23.65,79.6,27.45,73.27,35,69.65c7.21-3.45,14.4-2.76,20.65,2.18C62.28,77.08,64.91,84.14,63.11,92.59Zm-6-4.59A13.37,13.37,0,0,0,43.74,74.29a13.63,13.63,0,1,0-.2,27.27A13.48,13.48,0,0,0,57.15,88Z"/><path class="cls-2" d="M21,63.55c4.56-.33,9.12-.79,13.69-.92,1.48,0,3,.78,4.48,1.21a27.72,27.72,0,0,0-17.95,13.8l-10.34.43L.54,78c-1-4.94-1.31-9.57,4.81-11.71,1.09-.38,1.8-1.81,2.69-2.75l2.88,0c.38,4.41,3.35,3.27,5.82,2.52C18.27,65.55,19.6,64.39,21,63.55Z"/><path class="cls-4" d="M21.24,77.63a27.72,27.72,0,0,1,17.95-13.8l4.89-.31A26.54,26.54,0,0,1,64,74.57l3.55,17.29-4.44.73c1.79-8.46-.83-15.52-7.46-20.76C49.4,66.89,42.21,66.2,35,69.65c-7.55,3.62-11.35,9.95-11.83,18.26a38.29,38.29,0,0,0,.17,4L19.57,92Q20.4,84.81,21.24,77.63Z"/><path class="cls-5" d="M21.24,77.63Q20.4,84.81,19.57,92C12.53,93.27,6,92.76,1,86.83c1.48-.06,3-.05,4.44-.18,4.8-.41,6.91-3.71,5.5-8.6Z"/><path class="cls-9" d="M104.92,18c-1.79,1.38-3.59,2.75-5.36,4.14-7,5.47-14,10.92-21,16.45-2.55,2-4.94,4.06-8,.87,10.21-7,20.39-14,30.66-20.89C102.2,18,103.69,18.2,104.92,18Z"/><path class="cls-4" d="M10.9,78.05c1.41,4.88-.69,8.19-5.5,8.6-1.48.12-3,.12-4.44.18Q.75,82.42.54,78Z"/><path class="cls-10" d="M84.84,42.86c.44-1.28.48-2.06.88-2.45,9.83-9.51,19.4-19.57,34.28-20.59,9.78-.67,19.59-1,29.37-1.55,3.71-.22,5.77,1.51,6.23,4.94.61,4.61,1,9.26,1.21,13.9.13,3-1.51,4.37-4.67,4.47-20.64.64-41.28,1.43-61.92,2.1A30.63,30.63,0,0,1,84.84,42.86Z"/><path class="cls-10" d="M158.58,19.8c15.29-1.07,40.18,10.61,41.25,19.54-8.92.42-17.8.94-26.68,1.23-10.22.34-10.22.25-12.25-9.78C160.17,27.23,159.4,23.68,158.58,19.8Z"/><path class="cls-2" d="M64,74.57A26.54,26.54,0,0,0,44.08,63.52c.78-.63,1.54-1.78,2.36-1.82,9.62-.44,19.26-.62,28.88-1.1,2.88-.14,4.06.79,3.75,3.59-.37,3.25-.78,6.49-1.25,10.38Zm11.08-11-.44-.22.41.24.39,1.29.38-.25Z"/><path class="cls-11" d="M21,63.55c-1.42.85-2.75,2-4.29,2.47-2.47.75-5.44,1.89-5.82-2.52,2.15-2.59,4-5.55,6.57-7.62,1.24-1,3.83-.33,5.81-.42a40.73,40.73,0,0,1-.66,5A14.41,14.41,0,0,1,21,63.55Z"/><path class="cls-8" d="M179,64.35l1.18-2.28.76.32L180,65Z"/><path class="cls-12" d="M226.15,88.17a13.63,13.63,0,1,1-13.22-13.88A13.46,13.46,0,0,1,226.15,88.17Z"/><path class="cls-12" d="M57.15,88a13.63,13.63,0,1,1-27.25-.45A13.35,13.35,0,0,1,43.74,74.29,13.37,13.37,0,0,1,57.15,88Z"/><path class="cls-8" d="M75.09,63.53l.74,1.06-.38.25-.39-1.29Z"/><path class="cls-8" d="M75.06,63.56l-.41-.24.44.22Z"/><path class="cls-13" d="M141.79,59.16c3.75-.57,3.58,2.12,3.67,4.8l4.29-.09.51-4.49,4.63-.1.1,4.79-4-1.56-1,6.57-4.46.3-.69-4.74-4.34.09-.23,4.65-3.39.34-2.76-5.22-3.47.07c-.94-4.08.57-5.83,4.77-5l.17-.21c.31,1.8-1.56,4.5,2,4.94a17.7,17.7,0,0,0,2.5-2.16A18.72,18.72,0,0,0,141.79,59.16Z"/><path class="cls-13" d="M195.92,68.17l-1.86-3.48-4.55-3.74L194,57.7l.79,4.49,4.68,2.57Z"/><path class="cls-13" d="M67.45,65.78,71,65.71c.1-3.07.24-6,4.7-4.71l.94,4.65,4.68-.1.12,5.63-8-1.82-6.61,2.22c-.05-2.53-.09-4.05-.12-5.57A.87.87,0,0,0,67.45,65.78Z"/><path class="cls-13" d="M110.74,65l-.1-4.84,4.8-.1.67,4.58,4,.13.73-4.76,4.17-.34.91,4.95,4.84-.1-.19,4.91-4,.37a8.53,8.53,0,0,0-.82-1.48c-.82-1-1.66-2.5-2.58-2.57s-1.84,1.48-2.81,2.26-2.18,1.65-3.92,3l-.91-6.09Z"/><path class="cls-13" d="M160.13,64l-.1-4.63,4.74-.1.61,4.4,4.06.13.55-4.69,4.83-.1.1,4.68-4.44.09-.83,4.92-4.27.09-1-4.68Z"/><path class="cls-13" d="M174.86,63.58l4.16-.09c1.19-4.91,1.19-4.91,4.91-4.8.16.58.39,1.23.51,1.89s.15,1.41.24,2.42l4.75.65.1,4.66-4.45.09c-.8-2.21-.09-6.16-4.86-4.42l-.41,4.38-4.84.48Z"/><path class="cls-13" d="M101.21,65.2l-.33-4.74,4.45-.38.7,5,4.77-.1.1,4.95-4.66.37-.89-4.94Z"/><path class="cls-13" d="M81.28,65.61,81.18,61l4.83-.1.61,4.59,4.24-.09.33,4.85-4.25.41-1.08-5.1Z"/><path class="cls-13" d="M96,65.24l5.27-.11L101,70.06l-4.55.39Z"/><path class="cls-13" d="M154.93,64l5.26-.11L160,68.84l-4.58.36Z"/><path class="cls-13" d="M90.8,65.41l.46-4.75,4.43-.32.38,5Z"/><path class="cls-14" d="M146.34,10.78l-3.16-.07a11.8,11.8,0,0,1-3-1.31c-1.49-1.23-3.38-2.5-4-4.16A3.79,3.79,0,0,1,138.89,0l12.31.27C149.31,3.65,144.93,5.88,146.34,10.78Z"/><path class="cls-15" d="M145.95,11.53C144.47,6.37,149.07,4,151.06.47l6.62-.24c4.37,3.83,3.56,7.92-2,9.92l-1.7.2-1.55.42a2.14,2.14,0,0,1-.57.27c-1.88-1.59-3.71-2.62-5.11.52Z"/></g></g></svg>